<svg width="434" height="434" viewBox="0 0 434 434" fill="none" xmlns="http://www.w3.org/2000/svg">
<g clip-path="url(#clip0)">
<path d="M216.639 428.001C333.37 428.001 427.999 333.372 427.999 216.641C427.999 99.9103 333.37 5.28125 216.639 5.28125C99.9084 5.28125 5.2793 99.9103 5.2793 216.641C5.2793 333.372 99.9084 428.001 216.639 428.001Z" fill="#2CB4FF"/>
<path d="M101.761 347.842C118.904 347.842 132.801 333.945 132.801 316.802C132.801 299.659 118.904 285.762 101.761 285.762C84.6178 285.762 70.7207 299.659 70.7207 316.802C70.7207 333.945 84.6178 347.842 101.761 347.842Z" fill="#FFCD38"/>
<path d="M173.2 165.92C190.343 165.92 204.24 152.023 204.24 134.88C204.24 117.737 190.343 103.84 173.2 103.84C156.057 103.84 142.16 117.737 142.16 134.88C142.16 152.023 156.057 165.92 173.2 165.92Z" fill="#FF8C57"/>
<path d="M347.681 247.682C364.824 247.682 378.721 233.784 378.721 216.642C378.721 199.499 364.824 185.602 347.681 185.602C330.538 185.602 316.641 199.499 316.641 216.642C316.641 233.784 330.538 247.682 347.681 247.682Z" fill="#ACEE2A"/>
<path d="M216.64 0C96.993 0 0 96.993 0 216.64C0 336.287 96.993 433.28 216.64 433.28C336.287 433.28 433.28 336.287 433.28 216.64C433.148 97.048 336.232 0.132 216.64 0ZM369.76 87.2C359.371 94.663 348.279 101.093 336.64 106.4C326.31 76.667 308.935 49.877 286 28.32C318.525 40.405 347.377 60.687 369.76 87.2ZM324.64 216.64C324.64 203.915 334.955 193.6 347.68 193.6C360.405 193.6 370.72 203.915 370.72 216.64C370.72 229.365 360.405 239.68 347.68 239.68C334.955 239.68 324.64 229.365 324.64 216.64ZM337.36 254.08C335.367 271.485 331.806 288.675 326.72 305.44C308.155 298.528 288.936 293.516 269.36 290.48C271.36 268 272.4 245.36 272.56 224.64H309.52C312.582 238.878 323.315 250.228 337.36 254.08ZM309.52 208.64H272.64C272.64 188 271.36 165.36 269.44 142.8C289.016 139.764 308.235 134.752 326.8 127.84C331.886 144.605 335.447 161.795 337.44 179.2C323.364 183.027 312.596 194.381 309.52 208.64ZM321.6 112.64C304.177 119.165 286.139 123.909 267.76 126.8C263.12 84.16 254.88 43.84 242.08 20.48C275.28 32.64 304.08 66.16 321.6 112.64ZM101.76 277.84H99.68C96.221 260.305 94.268 242.507 93.84 224.64H160.64C160.64 245.36 161.92 268 163.84 290.56C153.973 292.16 144.293 294.187 134.8 296.64C127.81 285.049 115.295 277.928 101.76 277.84ZM124.8 316.88C124.844 329.605 114.565 339.956 101.84 340C89.115 340.044 78.764 329.765 78.72 317.04C78.676 304.315 88.955 293.964 101.68 293.92C101.733 293.92 101.786 293.92 101.84 293.92C114.471 293.964 124.712 304.169 124.8 316.8V316.88ZM93.76 208.64C94.3 181.207 98.552 153.973 106.4 127.68C115.57 131.155 124.916 134.146 134.4 136.64C135.143 153.089 146.168 167.286 161.92 172.08C161.36 184.08 160.96 196.08 160.88 208.72L93.76 208.64ZM150.16 134.88C150.16 122.155 160.475 111.84 173.2 111.84C185.925 111.84 196.24 122.155 196.24 134.88C196.24 147.605 185.925 157.92 173.2 157.92C160.475 157.92 150.16 147.605 150.16 134.88ZM176.64 208.64C176.64 196.72 177.04 184.64 177.68 173.44C192.591 171.533 205.059 161.185 209.68 146.88H216.24C228.752 146.821 241.251 146.073 253.68 144.64C255.28 163.76 256.24 185.04 256.48 208.64H176.64ZM256.64 224.64C256.64 247.92 255.44 269.2 253.84 288.64C229.225 285.856 204.375 285.856 179.76 288.64C178.16 269.44 177.12 248.16 176.96 224.64H256.64ZM216.64 16C227.04 16 244.24 54.56 252.24 129.04C240.417 130.328 228.533 130.969 216.64 130.96H211.76C210.19 115.737 199.819 102.859 185.28 98.08C194.96 38.48 209.44 16 216.64 16ZM191.04 20.4C180.56 39.36 173.76 68.8 169.44 96.64C154.863 97.834 142.189 107.107 136.64 120.64C128.03 118.405 119.539 115.735 111.2 112.64C128.64 66.08 157.44 32 191.04 20.4ZM148.48 27.92C125.126 49.582 107.343 76.558 96.64 106.56C84.884 101.222 73.683 94.738 63.2 87.2C85.954 60.323 115.359 39.883 148.48 27.92ZM53.68 99.92C65.585 108.519 78.346 115.864 91.76 121.84C83.069 149.979 78.357 179.195 77.76 208.64H16.16C17.688 169.447 30.739 131.574 53.68 99.76V99.92ZM53.68 333.76C30.694 301.878 17.641 263.916 16.16 224.64H77.84C78.247 243.989 80.362 263.263 84.16 282.24C71.052 288.819 62.761 302.214 62.72 316.88C62.759 320.151 63.216 323.404 64.08 326.56C60.507 328.8 57.04 331.147 53.68 333.6V333.76ZM63.52 346.4C66 344.56 68.64 342.8 71.52 341.12C80.524 352.745 95.356 358.237 109.76 355.28C119.384 374.075 132.279 391.006 147.84 405.28C115.086 393.212 86.03 372.84 63.52 346.16V346.4ZM124.24 348.8C134.657 341.48 140.84 329.532 140.8 316.8C140.751 315.111 140.591 313.428 140.32 311.76C148.587 309.627 157.013 307.867 165.6 306.48C170.24 349.2 178.56 389.6 191.36 412.88C165.52 404.08 142.08 381.76 124.24 348.64V348.8ZM216.64 417.28C206.24 417.28 189.12 378.8 181.12 304.4C204.75 301.712 228.61 301.712 252.24 304.4C244.24 378.72 227.04 417.28 216.64 417.28ZM242.08 412.64C254.88 389.36 263.12 348.64 267.76 306.32C286.144 309.263 304.183 314.06 321.6 320.64C304.08 367.12 275.28 400.64 242.08 412.72V412.64ZM285.92 404.64C308.842 383.182 326.242 356.506 336.64 326.88C348.282 332.212 359.375 338.669 369.76 346.16C347.367 372.644 318.516 392.897 286 404.96L285.92 404.64ZM379.6 333.2C367.77 324.641 355.09 317.322 341.76 311.36C347.379 292.986 351.289 274.133 353.44 255.04C369.372 252.509 382.096 240.421 385.44 224.64H416.72C415.309 263.791 402.399 301.66 379.6 333.52V333.2ZM417.12 208.64H385.84C382.496 192.859 369.772 180.771 353.84 178.24C351.73 159.069 347.847 140.134 342.24 121.68C355.57 115.719 368.25 108.4 380.08 99.84C402.835 131.686 415.717 169.524 417.12 208.64Z" fill="#DA5B65"/>
</g>
<defs>
<clipPath id="clip0">
<rect width="433.28" height="433.28" fill="white"/>
</clipPath>
</defs>
</svg>
