<svg width="372" height="512" viewBox="0 0 372 512" fill="none" xmlns="http://www.w3.org/2000/svg">
<path d="M185.999 0C83.7543 0 0.572266 83.182 0.572266 185.426C0.572266 312.314 166.511 498.593 173.576 506.461C180.212 513.852 191.798 513.839 198.422 506.461C205.487 498.593 371.426 312.314 371.426 185.426C371.424 83.182 288.243 0 185.999 0ZM185.999 278.719C134.557 278.719 92.7073 236.868 92.7073 185.426C92.7073 133.984 134.558 92.134 185.999 92.134C237.44 92.134 279.29 133.985 279.29 185.427C279.29 236.869 237.44 278.719 185.999 278.719Z" fill="#ED1C25"/>
</svg>
