<svg width="513" height="513" viewBox="0 0 513 513" fill="none" xmlns="http://www.w3.org/2000/svg">
<path d="M502.049 407.127L445.289 369.283L394.829 335.65C385.091 329.171 372.005 331.295 364.816 340.523L333.592 380.662C326.885 389.372 314.821 391.875 305.203 386.55C284.017 374.765 258.964 363.669 203.686 308.32C148.408 252.971 137.241 227.989 125.456 206.803C120.131 197.185 122.634 185.12 131.344 178.414L171.483 147.191C180.71 140.003 182.835 126.916 176.356 117.177L143.756 68.272L104.879 9.95602C98.2615 0.0300207 85.0155 -2.94998 74.7855 3.18502L29.9495 30.083C17.8325 37.222 8.92551 48.75 5.07351 62.277C-7.18749 106.98 -9.65948 205.593 148.381 363.633C306.421 521.673 405.025 519.193 449.728 506.931C463.255 503.08 474.783 494.173 481.922 482.055L508.82 437.22C514.956 426.989 511.975 413.744 502.049 407.127Z" fill="#ED1C25"/>
<path d="M291.309 79.448C374.151 79.54 441.286 146.674 441.378 229.517C441.378 234.392 445.33 238.345 450.206 238.345C455.081 238.345 459.034 234.393 459.034 229.517C458.932 136.928 383.899 61.895 291.31 61.793C286.435 61.793 282.482 65.745 282.482 70.621C282.481 75.495 286.433 79.448 291.309 79.448Z" fill="#ED1C25"/>
<path d="M291.308 132.412C344.911 132.475 388.348 175.913 388.411 229.515C388.411 234.39 392.363 238.343 397.239 238.343C402.114 238.343 406.067 234.391 406.067 229.515C405.994 166.166 354.658 114.829 291.308 114.756C286.433 114.756 282.48 118.708 282.48 123.584C282.48 128.46 286.432 132.412 291.308 132.412Z" fill="#ED1C25"/>
<path d="M291.309 185.378C315.674 185.407 335.418 205.151 335.447 229.516C335.447 234.391 339.399 238.344 344.275 238.344C349.15 238.344 353.103 234.392 353.103 229.516C353.064 195.405 325.421 167.762 291.31 167.723C286.435 167.723 282.482 171.675 282.482 176.551C282.481 181.426 286.433 185.378 291.309 185.378Z" fill="#ED1C25"/>
</svg>
