<svg width="176" height="126" viewBox="0 0 176 126" fill="none" xmlns="http://www.w3.org/2000/svg">
<g clip-path="url(#clip0)">
<path opacity="0.1" d="M88 126C136.601 126 176 121.225 176 115.336C176 109.446 136.601 104.672 88 104.672C39.3989 104.672 0 109.446 0 115.336C0 121.225 39.3989 126 88 126Z" fill="#FF0000"/>
<path d="M150.573 120.563C150.573 120.563 155.163 114.741 154.792 108.964C154.621 106.542 155.242 104.13 156.563 102.09C157.197 101.126 157.919 100.223 158.719 99.3906" stroke="#535461" stroke-width="2" stroke-miterlimit="10"/>
<path d="M158.508 95.749C158.184 96.5575 158.715 99.4866 158.715 99.4866C158.715 99.4866 161.122 97.7259 161.445 96.9173C161.6 96.5291 161.594 96.0953 161.429 95.7114C161.263 95.3275 160.951 95.0249 160.562 94.8701C160.173 94.7152 159.738 94.7208 159.353 94.8856C158.967 95.0504 158.664 95.3609 158.508 95.749Z" fill="#FF0000"/>
<path d="M154.288 99.2606C154.457 100.115 156.499 102.286 156.499 102.286C156.499 102.286 157.559 99.504 157.39 98.6499C157.35 98.4468 157.27 98.2536 157.155 98.0813C157.04 97.909 156.892 97.761 156.719 97.6458C156.547 97.5305 156.353 97.4503 156.15 97.4096C155.946 97.369 155.736 97.3687 155.533 97.4088C155.329 97.4489 155.135 97.5286 154.962 97.6433C154.79 97.7581 154.641 97.9057 154.525 98.0776C154.41 98.2496 154.329 98.4426 154.289 98.6456C154.248 98.8485 154.248 99.0575 154.288 99.2606Z" fill="#FF0000"/>
<path d="M151.331 106.957C151.909 107.609 154.771 108.456 154.771 108.456C154.771 108.456 154.278 105.52 153.699 104.868C153.562 104.713 153.395 104.587 153.208 104.496C153.022 104.405 152.819 104.352 152.612 104.339C152.404 104.326 152.197 104.354 152 104.422C151.804 104.489 151.623 104.594 151.467 104.731C151.312 104.869 151.185 105.035 151.094 105.221C151.003 105.407 150.949 105.609 150.937 105.816C150.924 106.023 150.952 106.23 151.02 106.425C151.087 106.621 151.193 106.802 151.331 106.957Z" fill="#FF0000"/>
<path d="M150.409 113.284C150.869 114.024 153.546 115.341 153.546 115.341C153.546 115.341 153.557 112.365 153.098 111.624C152.989 111.448 152.846 111.295 152.677 111.174C152.509 111.053 152.318 110.966 152.116 110.919C151.913 110.871 151.704 110.864 151.499 110.897C151.294 110.931 151.097 111.004 150.921 111.113C150.744 111.222 150.591 111.365 150.47 111.533C150.348 111.701 150.261 111.891 150.214 112.093C150.166 112.294 150.159 112.503 150.193 112.708C150.226 112.912 150.3 113.108 150.409 113.284Z" fill="#FF0000"/>
<path d="M159.52 103.67C158.712 104.002 155.769 103.508 155.769 103.508C155.769 103.508 157.506 101.088 158.314 100.756C158.701 100.596 159.137 100.597 159.524 100.758C159.911 100.918 160.218 101.225 160.378 101.612C160.538 101.998 160.538 102.432 160.377 102.818C160.216 103.204 159.907 103.511 159.52 103.67Z" fill="#FF0000"/>
<path d="M158.347 111.055C157.477 111.131 154.816 109.781 154.816 109.781C154.816 109.781 157.201 107.99 158.071 107.914C158.278 107.896 158.486 107.919 158.685 107.981C158.883 108.043 159.067 108.143 159.226 108.276C159.385 108.409 159.517 108.572 159.613 108.756C159.709 108.94 159.767 109.141 159.786 109.347C159.804 109.553 159.781 109.761 159.718 109.959C159.656 110.156 159.555 110.34 159.421 110.498C159.288 110.657 159.124 110.788 158.94 110.883C158.755 110.979 158.554 111.037 158.347 111.055Z" fill="#FF0000"/>
<path d="M156.219 118.075C155.375 118.297 152.523 117.415 152.523 117.415C152.523 117.415 154.57 115.248 155.415 115.026C155.82 114.92 156.252 114.979 156.614 115.189C156.976 115.4 157.239 115.746 157.346 116.15C157.453 116.554 157.394 116.984 157.183 117.345C156.971 117.706 156.625 117.969 156.219 118.075Z" fill="#FF0000"/>
<path opacity="0.25" d="M158.508 95.749C158.184 96.5575 158.715 99.4866 158.715 99.4866C158.715 99.4866 161.122 97.7259 161.445 96.9173C161.6 96.5291 161.594 96.0953 161.429 95.7114C161.263 95.3275 160.951 95.0249 160.562 94.8701C160.173 94.7152 159.738 94.7208 159.353 94.8856C158.967 95.0504 158.664 95.3609 158.508 95.749Z" fill="black"/>
<path opacity="0.25" d="M154.288 99.2606C154.457 100.115 156.499 102.286 156.499 102.286C156.499 102.286 157.559 99.504 157.39 98.6499C157.35 98.4468 157.27 98.2536 157.155 98.0813C157.04 97.909 156.892 97.761 156.719 97.6458C156.547 97.5305 156.353 97.4503 156.15 97.4096C155.946 97.369 155.736 97.3687 155.533 97.4088C155.329 97.4489 155.135 97.5286 154.962 97.6433C154.79 97.7581 154.641 97.9057 154.525 98.0776C154.41 98.2496 154.329 98.4426 154.289 98.6456C154.248 98.8485 154.248 99.0575 154.288 99.2606Z" fill="black"/>
<path opacity="0.25" d="M151.331 106.957C151.909 107.609 154.771 108.456 154.771 108.456C154.771 108.456 154.278 105.52 153.699 104.868C153.562 104.713 153.395 104.587 153.208 104.496C153.022 104.405 152.819 104.352 152.612 104.339C152.404 104.326 152.197 104.354 152 104.422C151.804 104.489 151.623 104.594 151.467 104.731C151.312 104.869 151.185 105.035 151.094 105.221C151.003 105.407 150.949 105.609 150.937 105.816C150.924 106.023 150.952 106.23 151.02 106.425C151.087 106.621 151.193 106.802 151.331 106.957Z" fill="black"/>
<path opacity="0.25" d="M150.409 113.284C150.869 114.024 153.546 115.341 153.546 115.341C153.546 115.341 153.557 112.365 153.098 111.624C152.989 111.448 152.846 111.295 152.677 111.174C152.509 111.053 152.318 110.966 152.116 110.919C151.913 110.871 151.704 110.864 151.499 110.897C151.294 110.931 151.097 111.004 150.921 111.113C150.744 111.222 150.591 111.365 150.47 111.533C150.348 111.701 150.261 111.891 150.214 112.093C150.166 112.294 150.159 112.503 150.193 112.708C150.226 112.912 150.3 113.108 150.409 113.284Z" fill="black"/>
<path opacity="0.25" d="M159.52 103.67C158.712 104.002 155.769 103.508 155.769 103.508C155.769 103.508 157.506 101.088 158.314 100.756C158.701 100.596 159.137 100.597 159.524 100.758C159.911 100.918 160.218 101.225 160.378 101.612C160.538 101.998 160.538 102.432 160.377 102.818C160.216 103.204 159.907 103.511 159.52 103.67Z" fill="black"/>
<path opacity="0.25" d="M158.347 111.055C157.477 111.131 154.816 109.781 154.816 109.781C154.816 109.781 157.201 107.99 158.071 107.914C158.278 107.896 158.486 107.919 158.685 107.981C158.883 108.043 159.067 108.143 159.226 108.276C159.385 108.409 159.517 108.572 159.613 108.756C159.709 108.94 159.767 109.141 159.786 109.347C159.804 109.553 159.781 109.761 159.718 109.959C159.656 110.156 159.555 110.34 159.421 110.498C159.288 110.657 159.124 110.788 158.94 110.883C158.755 110.979 158.554 111.037 158.347 111.055Z" fill="black"/>
<path opacity="0.25" d="M156.219 118.075C155.375 118.297 152.523 117.415 152.523 117.415C152.523 117.415 154.57 115.248 155.415 115.026C155.82 114.92 156.252 114.979 156.614 115.189C156.976 115.4 157.239 115.746 157.346 116.15C157.453 116.554 157.394 116.984 157.183 117.345C156.971 117.706 156.625 117.969 156.219 118.075Z" fill="black"/>
<path d="M150.612 120.319C150.612 120.319 157.175 116.851 159.184 111.419C160.011 109.136 161.56 107.182 163.597 105.85C164.569 105.226 165.596 104.692 166.665 104.254" stroke="#535461" stroke-width="2" stroke-miterlimit="10"/>
<path d="M167.952 100.84C167.328 101.448 166.622 104.34 166.622 104.34C166.622 104.34 169.538 103.703 170.163 103.094C170.463 102.802 170.634 102.403 170.639 101.985C170.643 101.567 170.481 101.164 170.188 100.865C169.895 100.566 169.495 100.396 169.076 100.391C168.656 100.386 168.252 100.547 167.952 100.84Z" fill="#FF0000"/>
<path d="M162.667 102.346C162.474 103.195 163.458 106.005 163.458 106.005C163.458 106.005 165.559 103.89 165.751 103.041C165.797 102.839 165.802 102.63 165.767 102.426C165.732 102.222 165.657 102.027 165.546 101.852C165.435 101.677 165.291 101.525 165.121 101.406C164.951 101.287 164.76 101.202 164.557 101.156C164.355 101.11 164.145 101.105 163.941 101.14C163.736 101.175 163.54 101.25 163.365 101.361C163.189 101.471 163.037 101.615 162.917 101.784C162.798 101.953 162.712 102.144 162.667 102.346Z" fill="#FF0000"/>
<path d="M156.835 108.189C157.098 109.019 159.371 110.95 159.371 110.95C159.371 110.95 160.113 108.067 159.849 107.237C159.786 107.04 159.685 106.856 159.552 106.698C159.418 106.54 159.254 106.409 159.07 106.314C158.886 106.218 158.684 106.16 158.477 106.143C158.27 106.125 158.062 106.148 157.864 106.21C157.666 106.273 157.483 106.374 157.324 106.507C157.165 106.64 157.034 106.803 156.938 106.987C156.843 107.171 156.784 107.372 156.767 107.578C156.749 107.784 156.772 107.992 156.835 108.189Z" fill="#FF0000"/>
<path d="M153.421 113.598C153.54 114.461 155.453 116.746 155.453 116.746C155.453 116.746 156.673 114.03 156.554 113.168C156.525 112.962 156.457 112.765 156.352 112.586C156.247 112.408 156.108 112.251 155.942 112.126C155.777 112.001 155.588 111.91 155.387 111.858C155.186 111.806 154.977 111.793 154.771 111.821C154.566 111.85 154.368 111.918 154.188 112.023C154.009 112.127 153.852 112.266 153.727 112.431C153.602 112.596 153.51 112.784 153.458 112.984C153.405 113.185 153.393 113.393 153.421 113.598Z" fill="#FF0000"/>
<path d="M165.657 108.492C164.784 108.469 162.294 106.828 162.294 106.828C162.294 106.828 164.866 105.318 165.739 105.34C166.158 105.351 166.556 105.527 166.845 105.831C167.134 106.134 167.29 106.539 167.279 106.957C167.268 107.375 167.091 107.771 166.787 108.059C166.483 108.347 166.076 108.503 165.657 108.492H165.657Z" fill="#FF0000"/>
<path d="M161.584 114.769C160.758 114.487 158.874 112.178 158.874 112.178C158.874 112.178 161.782 111.504 162.608 111.786C163.005 111.921 163.331 112.208 163.516 112.584C163.7 112.959 163.728 113.392 163.592 113.788C163.456 114.183 163.168 114.509 162.792 114.693C162.415 114.877 161.981 114.904 161.584 114.769Z" fill="#FF0000"/>
<path d="M156.786 120.327C155.924 120.188 153.676 118.23 153.676 118.23C153.676 118.23 156.428 117.076 157.29 117.215C157.704 117.281 158.074 117.509 158.32 117.848C158.565 118.187 158.666 118.609 158.599 119.022C158.532 119.435 158.303 119.804 157.963 120.049C157.623 120.294 157.2 120.394 156.786 120.327Z" fill="#FF0000"/>
<path opacity="0.1" d="M100.301 14.9221C91.6056 14.6211 83.3236 11.8224 75.4152 8.76045C67.5067 5.69846 59.6732 2.30604 51.1858 0.683548C45.7269 -0.36001 39.4841 -0.507659 35.0856 2.41031C30.8529 5.21827 29.4852 10.0654 28.7499 14.5629C28.1967 17.9467 27.8714 21.508 29.3873 24.6758C30.4397 26.8751 32.3083 28.7238 33.6005 30.8303C38.0969 38.1604 34.9188 47.1992 30.046 54.3564C27.7603 57.7137 25.1091 60.9165 23.3453 64.4904C21.5815 68.0644 20.7655 72.1595 22.3087 75.8052C23.8383 79.4188 27.4834 82.133 31.4319 84.0421C39.4514 87.9194 48.9016 89.0292 58.1168 89.6577C78.5156 91.0489 99.0234 90.4466 119.476 89.8433C127.046 89.62 134.648 89.3938 142.094 88.2269C146.229 87.5789 150.498 86.5504 153.5 84.0676C157.311 80.9157 158.256 75.5785 155.702 71.6263C151.419 64.997 139.576 63.3504 136.582 56.236C134.934 52.32 136.626 47.9579 139.021 44.326C144.159 36.5348 152.77 29.6996 153.224 20.7942C153.535 14.6778 149.396 8.55237 142.995 5.65846C136.285 2.62506 126.982 3.00663 122.032 8.02793C116.936 13.1984 107.979 15.1879 100.301 14.9221Z" fill="#FF0000"/>
<path d="M85.4124 110.553C88.6777 110.553 91.3247 107.751 91.3247 104.296C91.3247 100.84 88.6777 98.0391 85.4124 98.0391C82.1471 98.0391 79.5 100.84 79.5 104.296C79.5 107.751 82.1471 110.553 85.4124 110.553Z" fill="#FBD56F"/>
<path opacity="0.1" d="M85.4124 110.553C88.6777 110.553 91.3247 107.751 91.3247 104.296C91.3247 100.84 88.6777 98.0391 85.4124 98.0391C82.1471 98.0391 79.5 100.84 79.5 104.296C79.5 107.751 82.1471 110.553 85.4124 110.553Z" fill="black"/>
<path d="M86.4329 110.553C89.6982 110.553 92.3452 107.814 92.3452 104.436C92.3452 101.057 89.6982 98.3184 86.4329 98.3184C83.1676 98.3184 80.5205 101.057 80.5205 104.436C80.5205 107.814 83.1676 110.553 86.4329 110.553Z" fill="#FBD56F"/>
<path d="M88.8275 109.979L88.2125 109.638C88.2125 109.638 87.9249 110.835 88.0189 111.687C88.0282 111.774 88.0638 111.856 88.1211 111.921C88.1784 111.987 88.2545 112.033 88.3391 112.054C89.7539 112.405 96.4969 113.897 101.134 111.795C101.201 111.765 101.259 111.717 101.302 111.657C101.346 111.597 101.372 111.528 101.38 111.454C101.437 110.93 101.236 109.849 101.155 109.638C100.982 109.184 88.8275 109.979 88.8275 109.979Z" fill="#FBD56F"/>
<path opacity="0.1" d="M88.8275 109.979L88.2125 109.638C88.2125 109.638 87.9249 110.835 88.0189 111.687C88.0282 111.774 88.0638 111.856 88.1211 111.921C88.1784 111.987 88.2545 112.033 88.3391 112.054C89.7539 112.405 96.4969 113.897 101.134 111.795C101.201 111.765 101.259 111.717 101.302 111.657C101.346 111.597 101.372 111.528 101.38 111.454C101.437 110.93 101.236 109.849 101.155 109.638C100.982 109.184 88.8275 109.979 88.8275 109.979Z" fill="black"/>
<path d="M94.6844 111.092C98.2584 111.092 101.156 110.441 101.156 109.638C101.156 108.835 98.2584 108.184 94.6844 108.184C91.1103 108.184 88.2129 108.835 88.2129 109.638C88.2129 110.441 91.1103 111.092 94.6844 111.092Z" fill="#FBD56F"/>
<path d="M91.3002 107.835L90.6852 107.493C90.6852 107.493 90.3975 108.69 90.4915 109.543C90.5008 109.629 90.5365 109.711 90.5938 109.777C90.651 109.842 90.7271 109.889 90.8118 109.91C92.2266 110.26 98.9696 111.753 103.606 109.651C103.674 109.62 103.732 109.572 103.775 109.513C103.818 109.453 103.845 109.383 103.853 109.31C103.91 108.786 103.708 107.704 103.628 107.493C103.455 107.04 91.3002 107.835 91.3002 107.835Z" fill="#FBD56F"/>
<path opacity="0.1" d="M91.3002 107.835L90.6852 107.493C90.6852 107.493 90.3975 108.69 90.4915 109.543C90.5008 109.629 90.5365 109.711 90.5938 109.777C90.651 109.842 90.7271 109.889 90.8118 109.91C92.2266 110.26 98.9696 111.753 103.606 109.651C103.674 109.62 103.732 109.572 103.775 109.513C103.818 109.453 103.845 109.383 103.853 109.31C103.91 108.786 103.708 107.704 103.628 107.493C103.455 107.04 91.3002 107.835 91.3002 107.835Z" fill="black"/>
<path d="M97.156 108.946C100.73 108.946 103.627 108.295 103.627 107.491C103.627 106.688 100.73 106.037 97.156 106.037C93.5819 106.037 90.6846 106.688 90.6846 107.491C90.6846 108.295 93.5819 108.946 97.156 108.946Z" fill="#FBD56F"/>
<path d="M93.4857 105.014L92.8707 104.673C92.8707 104.673 92.5831 105.87 92.6771 106.723C92.6864 106.809 92.722 106.891 92.7793 106.956C92.8366 107.022 92.9127 107.069 92.9973 107.09C94.4121 107.44 101.155 108.932 105.792 106.83C105.859 106.8 105.917 106.752 105.961 106.692C106.004 106.633 106.031 106.563 106.038 106.489C106.095 105.965 105.894 104.884 105.814 104.673C105.641 104.22 93.4857 105.014 93.4857 105.014Z" fill="#FBD56F"/>
<path opacity="0.1" d="M93.4857 105.014L92.8707 104.673C92.8707 104.673 92.5831 105.87 92.6771 106.723C92.6864 106.809 92.722 106.891 92.7793 106.956C92.8366 107.022 92.9127 107.069 92.9973 107.09C94.4121 107.44 101.155 108.932 105.792 106.83C105.859 106.8 105.917 106.752 105.961 106.692C106.004 106.633 106.031 106.563 106.038 106.489C106.095 105.965 105.894 104.884 105.814 104.673C105.641 104.22 93.4857 105.014 93.4857 105.014Z" fill="black"/>
<path d="M99.3425 106.125C102.917 106.125 105.814 105.474 105.814 104.671C105.814 103.868 102.917 103.217 99.3425 103.217C95.7685 103.217 92.8711 103.868 92.8711 104.671C92.8711 105.474 95.7685 106.125 99.3425 106.125Z" fill="#FBD56F"/>
<path d="M91.0658 102.077L90.4508 101.736C90.4508 101.736 90.1631 102.932 90.2572 103.785C90.2664 103.872 90.3021 103.953 90.3594 104.019C90.4167 104.085 90.4928 104.131 90.5774 104.152C91.9922 104.502 98.7352 105.995 103.372 103.893C103.439 103.862 103.497 103.815 103.541 103.755C103.584 103.695 103.611 103.625 103.619 103.552C103.675 103.028 103.474 101.946 103.394 101.736C103.221 101.282 91.0658 102.077 91.0658 102.077Z" fill="#FBD56F"/>
<path opacity="0.1" d="M91.0658 102.077L90.4508 101.736C90.4508 101.736 90.1631 102.932 90.2572 103.785C90.2664 103.872 90.3021 103.953 90.3594 104.019C90.4167 104.085 90.4928 104.131 90.5774 104.152C91.9922 104.502 98.7352 105.995 103.372 103.893C103.439 103.862 103.497 103.815 103.541 103.755C103.584 103.695 103.611 103.625 103.619 103.552C103.675 103.028 103.474 101.946 103.394 101.736C103.221 101.282 91.0658 102.077 91.0658 102.077Z" fill="black"/>
<path d="M96.9216 103.19C100.496 103.19 103.393 102.539 103.393 101.736C103.393 100.932 100.496 100.281 96.9216 100.281C93.3476 100.281 90.4502 100.932 90.4502 101.736C90.4502 102.539 93.3476 103.19 96.9216 103.19Z" fill="#FBD56F"/>
<path d="M96.5111 99.7214L95.8961 99.38C95.8961 99.38 95.6085 100.577 95.7025 101.43C95.7117 101.516 95.7474 101.598 95.8047 101.663C95.862 101.729 95.9381 101.776 96.0227 101.797C97.4375 102.147 104.181 103.639 108.817 101.537C108.885 101.507 108.943 101.459 108.986 101.399C109.029 101.34 109.056 101.27 109.064 101.196C109.121 100.672 108.919 99.5908 108.839 99.38C108.666 98.9265 96.5111 99.7214 96.5111 99.7214Z" fill="#FBD56F"/>
<path opacity="0.1" d="M96.5111 99.7214L95.8961 99.38C95.8961 99.38 95.6085 100.577 95.7025 101.43C95.7117 101.516 95.7474 101.598 95.8047 101.663C95.862 101.729 95.9381 101.776 96.0227 101.797C97.4375 102.147 104.181 103.639 108.817 101.537C108.885 101.507 108.943 101.459 108.986 101.399C109.029 101.34 109.056 101.27 109.064 101.196C109.121 100.672 108.919 99.5908 108.839 99.38C108.666 98.9265 96.5111 99.7214 96.5111 99.7214Z" fill="black"/>
<path d="M102.367 100.834C105.941 100.834 108.838 100.183 108.838 99.3801C108.838 98.5769 105.941 97.9258 102.367 97.9258C98.7929 97.9258 95.8955 98.5769 95.8955 99.3801C95.8955 100.183 98.7929 100.834 102.367 100.834Z" fill="#FBD56F"/>
<path d="M92.8314 98.1394L92.2164 97.798C92.2164 97.798 91.9288 98.9948 92.0228 99.8476C92.0321 99.9341 92.0677 100.016 92.125 100.081C92.1823 100.147 92.2584 100.194 92.343 100.215C93.7578 100.565 100.501 102.057 105.138 99.9553C105.205 99.9247 105.263 99.8772 105.306 99.8174C105.349 99.7576 105.376 99.6877 105.384 99.6144C105.441 99.0903 105.24 98.0087 105.159 97.798C104.986 97.3445 92.8314 98.1394 92.8314 98.1394Z" fill="#FBD56F"/>
<path opacity="0.1" d="M92.8314 98.1394L92.2164 97.798C92.2164 97.798 91.9288 98.9948 92.0228 99.8476C92.0321 99.9341 92.0677 100.016 92.125 100.081C92.1823 100.147 92.2584 100.194 92.343 100.215C93.7578 100.565 100.501 102.057 105.138 99.9553C105.205 99.9247 105.263 99.8772 105.306 99.8174C105.349 99.7576 105.376 99.6877 105.384 99.6144C105.441 99.0903 105.24 98.0087 105.159 97.798C104.986 97.3445 92.8314 98.1394 92.8314 98.1394Z" fill="black"/>
<path d="M98.6873 99.2505C102.261 99.2505 105.159 98.5993 105.159 97.7961C105.159 96.9929 102.261 96.3418 98.6873 96.3418C95.1132 96.3418 92.2158 96.9929 92.2158 97.7961C92.2158 98.5993 95.1132 99.2505 98.6873 99.2505Z" fill="#FBD56F"/>
<path d="M95.2885 95.0808L94.6735 94.7394C94.6735 94.7394 94.3858 95.9362 94.4798 96.789C94.4891 96.8755 94.5248 96.9571 94.582 97.0228C94.6393 97.0884 94.7154 97.1349 94.8001 97.1561C96.2148 97.5063 102.958 98.9987 107.595 96.8967C107.662 96.8661 107.72 96.8186 107.763 96.7588C107.807 96.6991 107.833 96.6291 107.841 96.5558C107.898 96.0317 107.697 94.9501 107.616 94.7394C107.443 94.2859 95.2885 95.0808 95.2885 95.0808Z" fill="#FBD56F"/>
<path opacity="0.1" d="M95.2885 95.0808L94.6735 94.7394C94.6735 94.7394 94.3858 95.9362 94.4798 96.789C94.4891 96.8755 94.5248 96.9571 94.582 97.0228C94.6393 97.0884 94.7154 97.1349 94.8001 97.1561C96.2148 97.5063 102.958 98.9987 107.595 96.8967C107.662 96.8661 107.72 96.8186 107.763 96.7588C107.807 96.6991 107.833 96.6291 107.841 96.5558C107.898 96.0317 107.697 94.9501 107.616 94.7394C107.443 94.2859 95.2885 95.0808 95.2885 95.0808Z" fill="black"/>
<path d="M101.144 96.1938C104.718 96.1938 107.616 95.5427 107.616 94.7395C107.616 93.9363 104.718 93.2852 101.144 93.2852C97.5702 93.2852 94.6729 93.9363 94.6729 94.7395C94.6729 95.5427 97.5702 96.1938 101.144 96.1938Z" fill="#FBD56F"/>
<path d="M96.4994 91.4539L95.8844 91.1125C95.8844 91.1125 95.5967 92.3092 95.6908 93.1621C95.7 93.2486 95.7357 93.3302 95.793 93.3958C95.8503 93.4614 95.9264 93.508 96.011 93.5291C97.4258 93.8794 104.169 95.3717 108.806 93.2698C108.873 93.2392 108.931 93.1916 108.974 93.1319C109.017 93.0721 109.044 93.0021 109.052 92.9289C109.109 92.4047 108.908 91.3232 108.827 91.1125C108.654 90.659 96.4994 91.4539 96.4994 91.4539Z" fill="#FBD56F"/>
<path opacity="0.1" d="M96.4994 91.4539L95.8844 91.1125C95.8844 91.1125 95.5967 92.3092 95.6908 93.1621C95.7 93.2486 95.7357 93.3302 95.793 93.3958C95.8503 93.4614 95.9264 93.508 96.011 93.5291C97.4258 93.8794 104.169 95.3717 108.806 93.2698C108.873 93.2392 108.931 93.1916 108.974 93.1319C109.017 93.0721 109.044 93.0021 109.052 92.9289C109.109 92.4047 108.908 91.3232 108.827 91.1125C108.654 90.659 96.4994 91.4539 96.4994 91.4539Z" fill="black"/>
<path d="M102.356 92.5649C105.93 92.5649 108.828 91.9138 108.828 91.1106C108.828 90.3074 105.93 89.6562 102.356 89.6562C98.7821 89.6562 95.8848 90.3074 95.8848 91.1106C95.8848 91.9138 98.7821 92.5649 102.356 92.5649Z" fill="#FBD56F"/>
<path d="M107.424 110.821L106.809 110.48C106.809 110.48 106.522 111.676 106.616 112.529C106.625 112.616 106.661 112.697 106.718 112.763C106.775 112.829 106.851 112.875 106.936 112.896C108.351 113.247 115.094 114.739 119.73 112.637C119.798 112.606 119.856 112.559 119.899 112.499C119.942 112.439 119.969 112.369 119.977 112.296C120.034 111.772 119.832 110.69 119.752 110.48C119.579 110.026 107.424 110.821 107.424 110.821Z" fill="#FBD56F"/>
<path opacity="0.1" d="M107.424 110.821L106.809 110.48C106.809 110.48 106.522 111.676 106.616 112.529C106.625 112.616 106.661 112.697 106.718 112.763C106.775 112.829 106.851 112.875 106.936 112.896C108.351 113.247 115.094 114.739 119.73 112.637C119.798 112.606 119.856 112.559 119.899 112.499C119.942 112.439 119.969 112.369 119.977 112.296C120.034 111.772 119.832 110.69 119.752 110.48C119.579 110.026 107.424 110.821 107.424 110.821Z" fill="black"/>
<path d="M113.281 111.934C116.855 111.934 119.752 111.283 119.752 110.48C119.752 109.677 116.855 109.025 113.281 109.025C109.707 109.025 106.81 109.677 106.81 110.48C106.81 111.283 109.707 111.934 113.281 111.934Z" fill="#FBD56F"/>
<path d="M109.61 108.001L108.995 107.659C108.995 107.659 108.707 108.856 108.801 109.709C108.81 109.795 108.846 109.877 108.903 109.943C108.961 110.008 109.037 110.055 109.121 110.076C110.536 110.426 117.279 111.919 121.916 109.817C121.983 109.786 122.041 109.739 122.085 109.679C122.128 109.619 122.155 109.549 122.163 109.476C122.219 108.952 122.018 107.87 121.938 107.659C121.765 107.206 109.61 108.001 109.61 108.001Z" fill="#FBD56F"/>
<path opacity="0.1" d="M109.61 108.001L108.995 107.659C108.995 107.659 108.707 108.856 108.801 109.709C108.81 109.795 108.846 109.877 108.903 109.943C108.961 110.008 109.037 110.055 109.121 110.076C110.536 110.426 117.279 111.919 121.916 109.817C121.983 109.786 122.041 109.739 122.085 109.679C122.128 109.619 122.155 109.549 122.163 109.476C122.219 108.952 122.018 107.87 121.938 107.659C121.765 107.206 109.61 108.001 109.61 108.001Z" fill="black"/>
<path d="M115.467 109.114C119.041 109.114 121.938 108.463 121.938 107.659C121.938 106.856 119.041 106.205 115.467 106.205C111.892 106.205 108.995 106.856 108.995 107.659C108.995 108.463 111.892 109.114 115.467 109.114Z" fill="#FBD56F"/>
<path d="M107.189 105.065L106.574 104.724C106.574 104.724 106.286 105.921 106.38 106.773C106.389 106.86 106.425 106.941 106.482 107.007C106.54 107.073 106.616 107.119 106.7 107.14C108.115 107.491 114.858 108.983 119.495 106.881C119.562 106.851 119.62 106.803 119.664 106.743C119.707 106.683 119.734 106.613 119.742 106.54C119.798 106.016 119.597 104.935 119.517 104.724C119.344 104.27 107.189 105.065 107.189 105.065Z" fill="#FBD56F"/>
<path opacity="0.1" d="M107.189 105.065L106.574 104.724C106.574 104.724 106.286 105.921 106.38 106.773C106.389 106.86 106.425 106.941 106.482 107.007C106.54 107.073 106.616 107.119 106.7 107.14C108.115 107.491 114.858 108.983 119.495 106.881C119.562 106.851 119.62 106.803 119.664 106.743C119.707 106.683 119.734 106.613 119.742 106.54C119.798 106.016 119.597 104.935 119.517 104.724C119.344 104.27 107.189 105.065 107.189 105.065Z" fill="black"/>
<path d="M113.046 106.178C116.62 106.178 119.517 105.527 119.517 104.724C119.517 103.921 116.62 103.27 113.046 103.27C109.472 103.27 106.574 103.921 106.574 104.724C106.574 105.527 109.472 106.178 113.046 106.178Z" fill="#FBD56F"/>
<path d="M112.634 102.708L112.019 102.366C112.019 102.366 111.731 103.563 111.826 104.416C111.835 104.502 111.87 104.584 111.928 104.65C111.985 104.715 112.061 104.762 112.146 104.783C113.561 105.133 120.304 106.626 124.94 104.524C125.008 104.493 125.066 104.446 125.109 104.386C125.152 104.326 125.179 104.256 125.187 104.183C125.244 103.659 125.042 102.577 124.962 102.366C124.789 101.913 112.634 102.708 112.634 102.708Z" fill="#FBD56F"/>
<path opacity="0.1" d="M112.634 102.708L112.019 102.366C112.019 102.366 111.731 103.563 111.826 104.416C111.835 104.502 111.87 104.584 111.928 104.65C111.985 104.715 112.061 104.762 112.146 104.783C113.561 105.133 120.304 106.626 124.94 104.524C125.008 104.493 125.066 104.446 125.109 104.386C125.152 104.326 125.179 104.256 125.187 104.183C125.244 103.659 125.042 102.577 124.962 102.366C124.789 101.913 112.634 102.708 112.634 102.708Z" fill="black"/>
<path d="M118.491 103.823C122.065 103.823 124.962 103.172 124.962 102.368C124.962 101.565 122.065 100.914 118.491 100.914C114.917 100.914 112.02 101.565 112.02 102.368C112.02 103.172 114.917 103.823 118.491 103.823Z" fill="#FBD56F"/>
<path d="M108.955 101.126L108.34 100.784C108.34 100.784 108.053 101.981 108.147 102.834C108.156 102.92 108.192 103.002 108.249 103.068C108.306 103.133 108.382 103.18 108.467 103.201C109.882 103.551 116.625 105.044 121.262 102.942C121.329 102.911 121.387 102.864 121.43 102.804C121.473 102.744 121.5 102.674 121.508 102.601C121.565 102.077 121.364 100.995 121.283 100.784C121.11 100.331 108.955 101.126 108.955 101.126Z" fill="#FBD56F"/>
<path opacity="0.1" d="M108.955 101.126L108.34 100.784C108.34 100.784 108.053 101.981 108.147 102.834C108.156 102.92 108.192 103.002 108.249 103.068C108.306 103.133 108.382 103.18 108.467 103.201C109.882 103.551 116.625 105.044 121.262 102.942C121.329 102.911 121.387 102.864 121.43 102.804C121.473 102.744 121.5 102.674 121.508 102.601C121.565 102.077 121.364 100.995 121.283 100.784C121.11 100.331 108.955 101.126 108.955 101.126Z" fill="black"/>
<path d="M114.811 102.239C118.385 102.239 121.283 101.588 121.283 100.784C121.283 99.9812 118.385 99.3301 114.811 99.3301C111.237 99.3301 108.34 99.9812 108.34 100.784C108.34 101.588 111.237 102.239 114.811 102.239Z" fill="#FBD56F"/>
<path d="M111.411 98.0691L110.796 97.7277C110.796 97.7277 110.509 98.9245 110.603 99.7773C110.612 99.8638 110.648 99.9454 110.705 100.011C110.762 100.077 110.838 100.123 110.923 100.144C112.338 100.495 119.081 101.987 123.718 99.885C123.785 99.8544 123.843 99.8069 123.886 99.7471C123.929 99.6873 123.956 99.6174 123.964 99.5441C124.021 99.02 123.82 97.9384 123.739 97.7277C123.566 97.2742 111.411 98.0691 111.411 98.0691Z" fill="#FBD56F"/>
<path opacity="0.1" d="M111.411 98.0691L110.796 97.7277C110.796 97.7277 110.509 98.9245 110.603 99.7773C110.612 99.8638 110.648 99.9454 110.705 100.011C110.762 100.077 110.838 100.123 110.923 100.144C112.338 100.495 119.081 101.987 123.718 99.885C123.785 99.8544 123.843 99.8069 123.886 99.7471C123.929 99.6873 123.956 99.6174 123.964 99.5441C124.021 99.02 123.82 97.9384 123.739 97.7277C123.566 97.2742 111.411 98.0691 111.411 98.0691Z" fill="black"/>
<path d="M117.268 99.1801C120.842 99.1801 123.74 98.529 123.74 97.7258C123.74 96.9226 120.842 96.2715 117.268 96.2715C113.694 96.2715 110.797 96.9226 110.797 97.7258C110.797 98.529 113.694 99.1801 117.268 99.1801Z" fill="#FBD56F"/>
<path d="M112.623 94.4402L112.008 94.0988C112.008 94.0988 111.721 95.2956 111.815 96.1484C111.824 96.2349 111.86 96.3165 111.917 96.3821C111.974 96.4478 112.05 96.4943 112.135 96.5154C113.55 96.8657 120.293 98.3581 124.93 96.2561C124.997 96.2255 125.055 96.178 125.098 96.1182C125.141 96.0584 125.168 95.9885 125.176 95.9152C125.233 95.3911 125.032 94.3095 124.951 94.0988C124.778 93.6453 112.623 94.4402 112.623 94.4402Z" fill="#FBD56F"/>
<path opacity="0.1" d="M112.623 94.4402L112.008 94.0988C112.008 94.0988 111.721 95.2956 111.815 96.1484C111.824 96.2349 111.86 96.3165 111.917 96.3821C111.974 96.4478 112.05 96.4943 112.135 96.5154C113.55 96.8657 120.293 98.3581 124.93 96.2561C124.997 96.2255 125.055 96.178 125.098 96.1182C125.141 96.0584 125.168 95.9885 125.176 95.9152C125.233 95.3911 125.032 94.3095 124.951 94.0988C124.778 93.6453 112.623 94.4402 112.623 94.4402Z" fill="black"/>
<path d="M118.479 95.5532C122.053 95.5532 124.951 94.9021 124.951 94.0989C124.951 93.2957 122.053 92.6445 118.479 92.6445C114.905 92.6445 112.008 93.2957 112.008 94.0989C112.008 94.9021 114.905 95.5532 118.479 95.5532Z" fill="#FBD56F"/>
<path d="M151.63 119.381C150.729 119.35 150.697 119.001 149.538 118.4C148.885 118.061 147.892 117.075 147.152 116.282C147.093 116.218 147.035 116.156 146.98 116.096C147.175 116.092 147.286 116.09 147.286 116.09C147.286 116.09 146.997 113.558 147.254 112.956C147.512 112.355 147.319 108.778 147.319 108.778C147.319 108.778 147.479 106.057 147.19 105.424C146.9 104.791 147.286 100.739 147.286 100.739C147.286 100.739 147.544 98.3339 147.608 93.4282C147.672 88.5224 144.777 88.3641 144.777 88.3641C144.777 88.3641 144.391 88.3344 143.805 88.2787C143.748 88.2734 143.689 88.2676 143.629 88.2618C144.009 87.4696 144.23 86.8766 144.23 86.8766C144.23 86.8766 143.747 82.2873 143.619 81.4961C143.49 80.7048 142.718 77.4449 142.718 77.4449C142.718 77.4449 142.171 76.0523 141.849 75.0711C141.528 74.09 140.562 72.9506 140.562 72.9506C140.562 72.9506 138.825 69.5324 138.343 69.026C138.119 68.7911 137.805 68.4949 137.533 68.2448C137.483 68.1997 137.437 68.1569 137.391 68.1155C137.464 67.7588 137.502 67.396 137.506 67.032C137.506 67.032 135.705 65.2596 135.576 64.8165C135.447 64.3734 133.742 62.7276 133.742 62.7276C133.742 62.7276 132.777 60.9552 131.683 60.9236C131.166 60.8943 130.648 60.91 130.134 60.9704C130.358 60.1414 130.624 59.2729 130.863 58.5277C130.889 58.4446 130.915 58.3636 130.941 58.2839C131.815 57.6945 132.501 56.8674 132.917 55.9007C132.94 55.8492 132.961 55.7973 132.982 55.7454C132.993 55.7457 133.005 55.7475 133.016 55.7474C133.062 55.7469 133.107 55.7428 133.152 55.7352C133.512 55.6735 133.816 55.2681 133.65 54.9481C133.661 54.9662 133.677 54.9811 133.695 54.9912C133.714 55.0013 133.734 55.0063 133.755 55.0056C133.875 55.0016 134.022 54.8285 134.05 54.6762C134.055 54.6498 134.057 54.6231 134.062 54.5966C134.067 54.5635 134.072 54.5305 134.076 54.4973C134.08 54.4661 134.082 54.4349 134.085 54.4036C134.088 54.3713 134.09 54.339 134.092 54.3066C134.093 54.2763 134.094 54.2461 134.095 54.2158C134.095 54.1809 134.095 54.146 134.095 54.1112C134.094 54.0833 134.094 54.0554 134.092 54.0275C134.09 53.9851 134.087 53.9428 134.083 53.9005C134.081 53.8831 134.081 53.8656 134.079 53.8483L134.079 53.8508C134.06 53.6779 134.025 53.507 133.975 53.3404C133.797 52.7521 133.424 52.1687 133.568 51.5714C133.57 51.565 133.572 51.5591 133.574 51.5528L133.574 51.5539C133.694 51.0904 134.096 50.7537 134.342 50.3396C134.366 50.3001 134.387 50.2593 134.407 50.2185C134.411 50.211 134.415 50.2038 134.419 50.1963C134.433 50.1655 134.446 50.1339 134.459 50.1024C134.467 50.0822 134.477 50.0623 134.484 50.0418C134.495 50.0143 134.503 49.9861 134.512 49.9581C134.521 49.9326 134.529 49.9073 134.536 49.8815C134.543 49.8567 134.549 49.8316 134.555 49.8065C134.562 49.7763 134.569 49.7461 134.575 49.7156C134.579 49.6938 134.582 49.6718 134.586 49.6498C134.591 49.6152 134.596 49.5806 134.6 49.5457C134.602 49.5269 134.603 49.508 134.605 49.4891C134.608 49.4502 134.61 49.4113 134.611 49.3723C134.612 49.3567 134.612 49.3411 134.612 49.3254C134.612 49.2827 134.611 49.2401 134.608 49.1974C134.608 49.1846 134.607 49.1719 134.606 49.159C134.603 49.1136 134.598 49.0683 134.592 49.023C134.591 49.0165 134.591 49.0099 134.59 49.0034L134.59 49.0052C134.535 48.6074 134.376 48.2311 134.129 47.9143C133.847 47.58 133.491 47.3157 133.089 47.1424C132.687 46.9691 132.251 46.8915 131.813 46.9157C131.572 46.9429 131.328 46.9474 131.085 46.9291C130.681 46.8701 130.34 46.6143 130.018 46.3671C129.12 45.6773 128.221 44.9875 127.323 44.2977C127.023 44.0373 126.678 43.8328 126.304 43.6939C125.924 43.5778 125.467 43.6178 125.185 43.8952C124.681 44.3916 125.001 45.2459 124.799 45.919C124.623 46.502 124.059 46.897 123.474 47.094C122.889 47.2909 122.264 47.3341 121.663 47.4766C121.484 47.5055 121.317 47.5823 121.178 47.6987C121.023 47.887 120.947 48.1285 120.968 48.3716C120.964 48.9677 121.108 49.5555 121.386 50.0831C121.5 50.298 121.637 50.5152 121.758 50.7354C121.768 50.7536 121.778 50.7719 121.787 50.7901C121.801 50.8154 121.814 50.8406 121.827 50.866C121.848 50.9071 121.868 50.9484 121.887 50.9898C121.895 51.0077 121.903 51.0256 121.91 51.0435C121.923 51.0728 121.935 51.1022 121.946 51.1316C121.954 51.1504 121.961 51.1691 121.967 51.1879C121.979 51.2225 121.99 51.2573 122 51.2921C122.064 51.4968 122.07 51.7152 122.018 51.9232C121.925 52.2634 121.658 52.5255 121.424 52.7913C121.232 52.9989 121.095 53.2511 121.027 53.5249L121.025 53.531C121.012 53.5946 121.01 53.66 121.018 53.7245C121.019 53.7325 121.02 53.7406 121.022 53.7483C121.025 53.7627 121.029 53.7768 121.034 53.7907C121.037 53.8007 121.042 53.8106 121.046 53.8202C121.051 53.8315 121.057 53.8424 121.063 53.8529C121.075 53.8706 121.088 53.8868 121.104 53.901C121.111 53.907 121.119 53.9126 121.127 53.9178C121.14 53.9274 121.153 53.9358 121.168 53.943C121.177 53.9474 121.186 53.9515 121.195 53.9551C121.217 53.9631 121.239 53.9691 121.261 53.9731C121.268 53.9742 121.273 53.9762 121.28 53.9771C121.314 53.9816 121.348 53.983 121.383 53.9815C121.393 53.9812 121.404 53.98 121.414 53.9792C121.447 53.9767 121.48 53.9726 121.513 53.9668C121.525 53.9647 121.537 53.9628 121.549 53.9602C121.597 53.9504 121.647 53.9384 121.701 53.9215C121.882 53.8671 122.058 53.7978 122.227 53.7143C122.227 53.7336 122.225 53.7526 122.225 53.7719C122.225 53.8052 122.225 53.84 122.229 53.8732C122.238 54.4939 122.355 55.1082 122.576 55.6886C122.921 56.593 123.5 57.3904 124.254 57.9997C124.244 58.0543 124.234 58.1092 124.223 58.1643C124.068 58.9233 123.744 59.6848 123.544 59.6259C123.348 59.5824 123.148 59.5605 122.947 59.5607C122.886 59.5589 122.828 59.5581 122.772 59.5578L122.772 59.5576C122.59 59.5366 122.406 59.5366 122.225 59.5576C122.143 59.5631 122.062 59.5519 121.985 59.5247C121.465 59.3613 120.913 59.3304 120.378 59.4348C119.265 59.662 117.573 60.0779 117.109 60.5754C116.402 61.335 115.372 62.063 114.214 65.228C114.214 65.228 113.635 67.1586 113.184 67.4118C113.284 67.3605 113.386 67.3148 113.49 67.2749C113.43 67.3795 113.348 67.4695 113.249 67.5384C113.412 67.4553 113.581 67.3849 113.755 67.3278C113.404 69.3899 113.924 75.2884 113.924 75.2884C113.924 75.2884 113.506 76.3055 114.053 76.9068C114.378 77.2642 114.555 77.8215 114.645 78.2159C114.62 78.2554 114.593 78.2964 114.566 78.3387V78.3393C114.276 78.7868 113.889 79.3705 113.635 79.6921C113.184 80.2617 113.313 82.0658 113.313 82.0658C113.313 82.0658 113.217 82.9204 112.895 83.2369C112.573 83.5534 112.637 84.7244 112.637 84.7244L111.801 87.7945C111.801 87.7945 111.029 88.4908 111.029 88.8073C111.029 89.1238 110.418 90.01 110.418 90.01C110.418 90.01 109.485 91.5292 110.418 91.3076C110.758 91.2084 111.077 91.0484 111.36 90.8354L111.359 90.8581C111.358 90.9138 111.357 90.9704 111.356 91.0278C111.329 92.6825 111.51 95.0107 112.734 95.0107C114.632 95.0107 119.522 97.2578 119.522 97.2578C120.519 98.0174 121.871 97.7642 121.871 97.7642C121.871 97.7642 119.49 100.138 119.554 101.119C119.619 102.1 118.203 103.714 118.203 103.714L113.828 112.228C113.852 112.821 113.958 113.409 114.141 113.973C114.121 113.991 114.099 114.009 114.079 114.027C112.397 115.559 112.251 118.59 112.251 118.59L111.865 120.141L117.721 122.704C117.721 122.704 125.313 122.863 126.632 122.515C127.951 122.166 127.662 120.71 125.924 120.426C124.187 120.141 123.769 119.381 123.19 119.033C122.799 118.798 121.412 117.28 120.551 116.318C120.538 116.303 120.526 116.29 120.513 116.276L120.713 115.172C121.099 114.982 121.678 113.083 121.678 113.083C121.678 113.083 121.678 112.323 122.064 112.102C122.45 111.88 123.254 109.601 123.254 109.601C123.254 109.601 124.991 106.721 124.895 106.341C124.798 105.962 126.15 104.031 126.15 104.031C126.15 104.031 128.434 101.815 128.337 101.42C128.241 101.024 130.171 98.9986 130.171 98.9986C130.868 98.4677 131.45 97.8004 131.879 97.0375C132.053 97.0097 132.24 96.9799 132.437 96.947C134.963 96.5343 139.16 95.788 139.629 95.5803C140.273 95.2955 140.144 96.5615 139.887 97.6376C139.629 98.7137 139.436 103.873 139.726 104.537C140.016 105.202 139.887 106.278 139.887 106.278L139.501 112.07L139.758 113.304C139.758 113.304 138.89 114.001 139.243 114.412C139.597 114.824 139.276 116.596 139.276 116.596C139.306 116.585 139.342 116.574 139.382 116.563C139.351 116.632 139.322 116.704 139.296 116.779C138.797 118.196 139.083 120.521 139.083 120.521V122.356C139.083 122.356 147.994 122.515 149.957 122.515C151.919 122.515 154.622 121.565 154.782 120.805C154.943 120.046 152.53 119.413 151.63 119.381ZM126.283 86.432L125.699 86.481C125.893 86.453 126.088 86.4366 126.283 86.432ZM129.842 62.1385C129.924 61.7724 130.023 61.3786 130.133 60.9746L129.842 62.1385ZM130.943 87.3197C130.386 87.5393 129.767 87.54 129.21 87.3216L129.206 87.3197C129.206 87.3197 129.238 85.1042 129.495 84.1863C129.753 83.2685 130.107 81.591 130.107 81.591C130.107 81.591 130.396 79.2806 130.686 78.2361C130.975 77.1917 132.101 71.3681 132.68 70.9883C133.26 70.6085 133.581 71.2731 133.581 71.2731C133.581 71.2731 133.668 71.2714 133.813 71.2554C133.84 71.3161 133.871 71.3806 133.905 71.4491C134.591 72.8322 136.605 75.6725 136.605 75.6725C137.203 76.0399 137.709 76.5377 138.085 77.1284C138.632 78.0462 138.793 80.1984 138.793 80.1984C138.793 80.1984 140.016 84.9776 140.595 85.6422C140.884 85.9746 140.755 86.1727 140.555 86.2873C140.144 86.5112 139.796 86.8322 139.539 87.2222C139.457 87.3526 139.37 87.4958 139.281 87.6483C139.06 87.5972 138.862 87.5442 138.697 87.4887C137.12 86.9608 131.812 86.9399 130.943 87.3197Z" fill="url(#paint0_linear)"/>
<path d="M138.871 120.538V122.359C138.871 122.359 147.591 122.516 149.511 122.516C151.431 122.516 154.076 121.574 154.233 120.821C154.391 120.068 152.03 119.44 151.148 119.408C150.267 119.377 150.235 119.032 149.102 118.436C148.462 118.099 147.491 117.122 146.767 116.335C146.208 115.728 145.796 115.234 145.796 115.234C145.796 115.234 141.106 115.14 139.752 115.893C139.441 116.067 139.225 116.407 139.079 116.828C138.591 118.233 138.871 120.538 138.871 120.538Z" fill="#FF0000"/>
<path opacity="0.1" d="M139.079 116.828C140.063 116.487 145.82 116.355 146.767 116.335C146.208 115.728 145.796 115.234 145.796 115.234C145.796 115.234 141.106 115.14 139.752 115.893C139.44 116.067 139.225 116.407 139.079 116.828Z" fill="black"/>
<path d="M113.781 87.8042C113.781 87.8042 113.963 87.9141 114.29 88.1105C114.349 88.1457 114.413 88.1846 114.481 88.2254C114.688 88.3503 114.937 88.4991 115.221 88.6698C119.177 91.0469 129.97 97.4909 130.56 97.4395C130.715 97.4263 131.181 97.3566 131.823 97.2524C131.993 97.2248 132.175 97.1953 132.368 97.1626C134.84 96.7534 138.947 96.0133 139.406 95.8074C140.036 95.525 139.91 96.7804 139.658 97.8475C139.406 98.9146 139.218 104.03 139.501 104.689C139.784 105.349 139.658 106.416 139.658 106.416L139.281 112.159L139.532 113.383C139.532 113.383 138.682 114.074 139.029 114.482C139.375 114.89 139.06 116.647 139.06 116.647C140.068 116.271 146.899 116.145 146.899 116.145C146.899 116.145 146.616 113.634 146.867 113.038C147.119 112.442 146.93 108.895 146.93 108.895C146.93 108.895 147.088 106.196 146.804 105.568C146.521 104.941 146.899 100.923 146.899 100.923C146.899 100.923 147.151 98.5379 147.214 93.6733C147.277 88.8086 144.443 88.6516 144.443 88.6516C144.443 88.6516 144.066 88.6221 143.492 88.5669C142.37 88.4596 140.5 88.2543 139.251 87.9838C138.995 87.931 138.742 87.8642 138.494 87.7835C136.951 87.26 131.757 87.2393 130.907 87.6159C130.363 87.8337 129.755 87.8344 129.211 87.6178L129.207 87.6159L128.546 86.5488L122.231 87.0855L121.562 87.1426L115.346 87.6712L114.918 87.7076L113.781 87.8042Z" fill="#700909"/>
<path opacity="0.1" d="M139.092 92.6193C140.926 93.5106 142.676 90.3508 143.492 88.5675C142.37 88.4602 140.5 88.2549 139.251 87.9844C138.43 89.359 137.333 91.765 139.092 92.6193Z" fill="black"/>
<path d="M133.582 71.2632C133.621 71.479 133.696 71.6867 133.805 71.8771C134.476 73.2487 136.447 76.0652 136.447 76.0652C137.033 76.4308 137.528 76.9245 137.895 77.5089C138.43 78.4191 138.588 80.5533 138.588 80.5533C138.588 80.5533 139.784 85.2924 140.351 85.9515C140.634 86.2811 140.508 86.4775 140.312 86.5911C139.909 86.8142 139.568 87.1326 139.318 87.5183C138.493 88.8415 137.175 91.4659 139.028 92.3666C141.547 93.5907 143.908 87.1755 143.908 87.1755C143.908 87.1755 143.436 82.6247 143.31 81.8401C143.184 81.0554 142.428 77.8227 142.428 77.8227C142.428 77.8227 141.893 76.4418 141.578 75.4689C141.264 74.4959 140.319 73.3661 140.319 73.3661C140.319 73.3661 138.619 69.9765 138.147 69.4743C137.928 69.2414 137.621 68.9476 137.354 68.6997C137.046 68.4128 136.793 68.1875 136.793 68.1875C136.793 68.1875 133.551 70.51 133.582 71.2632Z" fill="#EE8E9E"/>
<path d="M112.238 120.162L117.968 122.704C117.968 122.704 125.397 122.861 126.688 122.515C127.979 122.17 127.695 120.726 125.995 120.444C124.295 120.162 123.886 119.408 123.319 119.063C122.937 118.83 121.58 117.325 120.737 116.371C120.332 115.911 120.045 115.579 120.045 115.579C120.045 115.579 118.944 112.66 115.89 113.32C115.333 113.44 114.819 113.709 114.404 114.099C112.759 115.618 112.616 118.624 112.616 118.624L112.238 120.162Z" fill="#FF0000"/>
<path opacity="0.1" d="M114.481 88.226C114.689 88.3509 114.937 88.4996 115.221 88.6704C119.178 91.0475 129.97 97.4915 130.561 97.44C130.716 97.4268 131.181 97.3572 131.823 97.253C131.993 97.2253 132.176 97.1958 132.369 97.1632C132.376 97.1513 132.383 97.1393 132.39 97.1274C132.707 96.5754 132.95 95.984 133.111 95.3686C133.772 92.8578 130.498 90.9433 130.498 90.9433L129.806 90.4066C129.019 89.0853 123.352 87.8362 123.352 87.8362L122.622 87.3472L122.232 87.0861L122.129 87.0176L121.243 86.4238L116.804 86.7377L115.486 87.5826L115.347 87.6717L114.857 87.9855L114.481 88.226Z" fill="black"/>
<path opacity="0.1" d="M114.404 114.099C115.609 118.255 120.644 116.897 120.644 116.897L120.738 116.371C120.332 115.911 120.046 115.579 120.046 115.579C120.046 115.579 118.944 112.66 115.89 113.32C115.333 113.44 114.819 113.709 114.404 114.099Z" fill="black"/>
<path d="M113.089 95.2425C114.947 95.2425 119.732 97.4709 119.732 97.4709C120.707 98.2241 122.03 97.973 122.03 97.973C122.03 97.973 119.7 100.327 119.763 101.3C119.826 102.273 118.441 103.873 118.441 103.873L114.16 112.316C114.474 118.311 120.645 116.647 120.645 116.647L120.896 115.235C121.274 115.047 121.841 113.163 121.841 113.163C121.841 113.163 121.841 112.41 122.219 112.191C122.596 111.971 123.383 109.711 123.383 109.711C123.383 109.711 125.083 106.855 124.989 106.478C124.894 106.102 126.217 104.187 126.217 104.187C126.217 104.187 128.452 101.99 128.357 101.598C128.263 101.206 130.152 99.197 130.152 99.197C130.836 98.669 131.405 98.0073 131.823 97.2524C132.14 96.7004 132.383 96.109 132.544 95.4936C133.077 93.4718 131.057 91.836 130.251 91.2767C130.055 91.1411 129.931 91.0683 129.931 91.0683L129.239 90.5316C128.881 89.9303 127.514 89.3446 126.129 88.8845C125.131 88.5525 124.123 88.2857 123.478 88.1256C123.052 88.0202 122.785 87.9612 122.785 87.9612L122.055 87.4722L121.798 87.3002L121.563 87.1426L120.676 86.5488L118.701 86.6882L116.237 86.8627L114.919 87.7076L114.291 88.1105L111.83 89.6873C111.83 89.6873 111.765 90.2912 111.744 91.1016C111.743 91.1643 111.742 91.2277 111.741 91.293C111.715 92.9338 111.892 95.2425 113.089 95.2425Z" fill="#700909"/>
<path d="M122.564 60.0905L123.226 62.4444C123.226 62.4444 124.39 66.4931 124.516 66.7755C124.642 67.058 127.696 69.9141 127.822 69.9768C127.948 70.0396 129.61 70.9812 129.61 70.9812C129.61 70.9812 129.742 65.8026 129.616 64.2961C129.605 63.9652 129.633 63.634 129.698 63.3094C129.899 62.1287 130.407 60.3974 130.828 59.0642C131.181 57.9469 131.473 57.1089 131.473 57.1089C131.473 57.1089 124.107 56.7951 124.359 57.5169C124.454 57.79 124.423 58.2463 124.331 58.7039C124.179 59.4565 123.862 60.2117 123.666 60.1533C123.475 60.1101 123.279 60.0884 123.083 60.0886C122.811 60.0805 122.564 60.0905 122.564 60.0905Z" fill="#EE8E9E"/>
<path opacity="0.1" d="M124.331 58.7039C125.231 59.4528 126.349 59.8923 127.52 59.9572C128.69 60.0221 129.85 59.7089 130.828 59.0642C131.181 57.9469 131.473 57.1089 131.473 57.1089C131.473 57.1089 124.107 56.7951 124.359 57.5169C124.454 57.79 124.423 58.2463 124.331 58.7039Z" fill="black"/>
<path d="M133.268 54.3495C133.268 54.9254 133.177 55.4976 132.996 56.0445C132.95 56.1857 132.898 56.3245 132.838 56.4604C132.414 57.4618 131.699 58.3132 130.784 58.9045C129.869 59.4958 128.797 59.7998 127.707 59.7771C126.617 59.7545 125.559 59.4062 124.67 58.7774C123.781 58.1486 123.101 57.2682 122.719 56.2501C122.503 55.674 122.388 55.065 122.379 54.45C122.376 54.417 122.376 54.3825 122.376 54.3495C122.376 52.9095 122.95 51.5285 123.971 50.5102C124.992 49.492 126.378 48.9199 127.822 48.9199C129.266 48.9199 130.652 49.492 131.673 50.5102C132.694 51.5285 133.268 52.9095 133.268 54.3495H133.268Z" fill="#EE8E9E"/>
<path opacity="0.1" d="M122.564 60.091L123.226 62.4449C123.226 62.4449 124.39 66.4936 124.516 66.776C124.642 67.0585 127.696 69.9146 127.822 69.9773C127.948 70.0401 129.61 70.9816 129.61 70.9816C129.61 70.9816 129.742 65.8031 129.616 64.2966C129.605 63.9657 129.633 63.6346 129.698 63.3099L129.27 65.0499L129.301 68.5336L129.553 68.7219L128.986 69.5693V68.9416C128.986 68.9416 126.972 66.9957 126.657 66.1797C126.342 65.3637 125.209 63.8861 125.209 63.8861C125.209 63.8861 123.918 61.723 123.887 61.3464C123.862 61.0527 123.32 60.3735 123.083 60.0891C122.811 60.081 122.564 60.091 122.564 60.091Z" fill="black"/>
<path opacity="0.1" d="M133.582 71.2632C133.621 71.479 133.696 71.6867 133.805 71.8771C134.493 71.8068 136.838 71.3706 137.354 68.6997C137.046 68.4128 136.793 68.1875 136.793 68.1875C136.793 68.1875 133.551 70.51 133.582 71.2632Z" fill="black"/>
<path opacity="0.1" d="M111.74 91.293C112.376 90.8448 112.98 90.2335 113.341 90.064C113.876 89.8129 114.694 88.9969 114.694 88.9969C114.694 88.9969 114.902 88.8563 115.221 88.6698C115.805 88.3284 116.763 87.8337 117.496 87.7729C118.153 87.7182 120.337 87.5789 122.055 87.4722C123.297 87.3944 124.296 87.3335 124.296 87.3335C124.296 87.3335 126.342 86.6116 127.224 87.0824C127.855 87.3977 128.52 87.6399 129.207 87.8042C129.207 87.8042 129.208 87.7358 129.211 87.6178L129.207 87.6159L128.546 86.5488L121.562 87.1426L120.676 86.5488L116.237 86.8627L114.919 87.7076L113.781 87.8042C113.781 87.8042 113.963 87.9141 114.29 88.1106L111.83 89.6874C111.83 89.6874 111.754 90.3885 111.74 91.293Z" fill="black"/>
<path d="M110.823 91.5704C111.156 91.4717 111.468 91.313 111.744 91.1021V91.1015C112.379 90.6539 112.981 90.0445 113.341 89.8756C113.876 89.6245 114.695 88.8085 114.695 88.8085C114.695 88.8085 116.363 87.6786 117.497 87.5845C117.806 87.5587 118.452 87.5142 119.228 87.464C120.023 87.4112 120.953 87.3522 121.798 87.3001C122.285 87.2694 122.744 87.2405 123.132 87.2167C123.827 87.174 124.296 87.1451 124.296 87.1451C124.296 87.1451 126.343 86.4232 127.224 86.894C127.855 87.2093 128.521 87.4515 129.207 87.6159C129.207 87.6159 129.239 85.4189 129.491 84.5087C129.743 83.5986 130.089 81.9352 130.089 81.9352C130.089 81.9352 130.372 79.6441 130.655 78.6083C130.939 77.5726 132.041 71.7978 132.607 71.4211C133.174 71.0445 133.489 71.7036 133.489 71.7036C133.489 71.7036 137.266 71.6408 137.329 67.498C137.329 67.498 135.566 65.7404 135.441 65.301C135.315 64.8616 133.646 63.2296 133.646 63.2296C133.646 63.2296 132.702 61.4721 131.631 61.4407C131.126 61.4117 130.618 61.4272 130.115 61.4871L129.207 65.1755L129.239 68.6593L129.491 68.8476L128.924 69.695V69.0673C128.924 69.0673 126.909 67.1214 126.594 66.3054C126.28 65.4894 125.146 64.0117 125.146 64.0117C125.146 64.0117 123.856 61.8487 123.824 61.4721C123.793 61.0954 122.911 60.0861 122.911 60.0861C122.733 60.0653 122.554 60.0653 122.376 60.0861C122.297 60.0916 122.217 60.0805 122.142 60.0534C121.634 59.8915 121.093 59.8609 120.569 59.9643C119.481 60.1897 117.825 60.6021 117.371 61.0954C116.678 61.8487 115.671 62.5705 114.537 65.709L120.645 67.906L120.122 68.8965L115.262 78.1062C115.262 78.1062 115.1 78.3679 114.882 78.71V78.7106C114.599 79.1544 114.22 79.7332 113.971 80.052C113.53 80.617 113.656 82.4059 113.656 82.4059C113.656 82.4059 113.562 83.2533 113.247 83.5672C112.932 83.881 112.995 85.0423 112.995 85.0423L112.176 88.0867C112.176 88.0867 111.421 88.7771 111.421 89.091C111.421 89.4048 110.823 90.2836 110.823 90.2836C110.823 90.2836 109.91 91.7901 110.823 91.5704Z" fill="#A81616"/>
<path opacity="0.1" d="M143.058 93.8301C143.058 93.8301 141.075 94.4892 140.54 95.4307C140.004 96.3723 143.058 93.8301 143.058 93.8301Z" fill="black"/>
<path opacity="0.1" d="M142.051 91.7578C141.988 91.852 139.334 94.5064 139.501 95.1474C139.667 95.7884 142.051 91.7578 142.051 91.7578Z" fill="black"/>
<path opacity="0.1" d="M127.476 93.6426C127.476 93.6426 124.517 95.0339 124.265 95.6407C124.013 96.2476 127.476 93.6426 127.476 93.6426Z" fill="black"/>
<path opacity="0.1" d="M127.287 95.4297C127.287 95.4297 124.617 96.5595 124.252 96.842C123.887 97.1245 127.287 95.4297 127.287 95.4297Z" fill="black"/>
<path opacity="0.1" d="M126.059 97.8463C126.059 97.8463 124.876 98.7251 124.224 98.0346C123.572 97.3441 126.059 97.8463 126.059 97.8463Z" fill="black"/>
<path opacity="0.1" d="M130.498 74.9355C130.434 75.0297 126.499 82.0913 125.46 82.6249C124.421 83.1584 130.498 74.9355 130.498 74.9355Z" fill="black"/>
<path opacity="0.1" d="M130.308 77.6035C130.308 77.7604 126.468 85.952 125.838 86.0462C125.208 86.1403 130.308 77.6035 130.308 77.6035Z" fill="black"/>
<path opacity="0.1" d="M115.701 82.877C115.701 82.877 113.846 86.826 113.12 87.0512C112.393 87.2764 115.701 82.877 115.701 82.877Z" fill="black"/>
<path opacity="0.1" d="M115.387 81.1191C115.387 81.1191 114.747 82.5001 114.358 82.5001C113.97 82.5001 115.387 81.1191 115.387 81.1191Z" fill="black"/>
<path opacity="0.1" d="M133.268 54.3495C133.268 54.9254 133.177 55.4976 132.996 56.0445C132.95 56.1857 132.898 56.3245 132.838 56.4604C132.559 56.4182 132.295 56.3028 132.075 56.1261C131.841 55.9682 131.646 55.7602 131.503 55.5172C131.396 55.2583 131.303 54.9937 131.225 54.7246C131.099 54.4209 130.894 54.1561 130.632 53.9577C130.369 53.7593 130.058 53.6345 129.731 53.5962C129.912 53.9038 129.624 54.326 129.27 54.3809C128.915 54.4343 128.571 54.2239 128.327 53.9618C128.083 53.6997 127.906 53.3811 127.664 53.119C127.42 52.8569 127.075 52.6466 126.721 52.7C126.408 52.7471 126.165 52.9856 125.902 53.163C125.641 53.3403 125.274 53.4596 125.021 53.2697C124.879 53.1646 124.81 52.9856 124.674 52.8711C124.326 52.5807 123.785 52.8805 123.528 53.2556C123.133 53.8363 122.892 54.1879 122.379 54.45C122.376 54.417 122.376 54.3825 122.376 54.3495C122.376 52.9095 122.95 51.5285 123.971 50.5102C124.992 49.492 126.378 48.9199 127.822 48.9199C129.266 48.9199 130.652 49.492 131.673 50.5102C132.694 51.5285 133.268 52.9095 133.268 54.3495Z" fill="black"/>
<path d="M123.529 53.0982C123.786 52.7228 124.327 52.4227 124.676 52.7145C124.811 52.8278 124.88 53.0068 125.021 53.1129C125.274 53.303 125.642 53.1837 125.903 53.0057C126.165 52.8277 126.408 52.5902 126.721 52.5427C127.076 52.489 127.421 52.6995 127.664 52.9618C127.907 53.2242 128.084 53.5424 128.327 53.8046C128.571 54.0669 128.916 54.2772 129.27 54.2232C129.624 54.1691 129.913 53.7465 129.731 53.4388C130.058 53.4773 130.369 53.6021 130.632 53.8005C130.894 53.9989 131.099 54.2636 131.225 54.5672C131.303 54.8363 131.396 55.1008 131.504 55.3597C131.646 55.6026 131.842 55.8105 132.076 55.9681C132.365 56.1792 132.715 56.3572 133.068 56.296C133.42 56.2348 133.719 55.8316 133.555 55.5142C133.668 55.6849 133.91 55.4471 133.947 55.2459C134.026 54.8048 134.002 54.3511 133.874 53.9213C133.7 53.3379 133.335 52.7594 133.476 52.1671C133.587 51.6982 133.989 51.3615 134.233 50.9456C134.665 50.2082 134.551 49.2149 134.025 48.5406C133.751 48.2101 133.404 47.9483 133.01 47.7763C132.616 47.6043 132.188 47.5269 131.759 47.5504C131.522 47.5773 131.283 47.5818 131.046 47.5636C130.651 47.5051 130.317 47.2515 130.002 47.0063L127.365 44.9542C127.071 44.6964 126.734 44.4936 126.368 44.3555C125.995 44.2403 125.549 44.2801 125.273 44.5551C124.779 45.0474 125.093 45.8945 124.895 46.5619C124.723 47.14 124.171 47.5318 123.598 47.7271C123.026 47.9224 122.414 47.9652 121.826 48.1066C121.651 48.1354 121.487 48.2115 121.352 48.3268C121.199 48.5143 121.126 48.7534 121.146 48.994C121.142 49.5845 121.283 50.167 121.555 50.6912C121.861 51.2767 122.345 51.8785 122.173 52.5159C122.083 52.8532 121.822 53.1132 121.592 53.3767C121.094 53.9481 120.926 54.7924 121.863 54.4974C122.766 54.2134 123.02 53.8452 123.529 53.0982Z" fill="#FF0000"/>
<g opacity="0.1">
<path opacity="0.1" d="M133.947 54.6257C133.91 54.8268 133.668 55.0647 133.555 54.8939C133.719 55.2114 133.421 55.6145 133.068 55.6757C132.715 55.7369 132.365 55.5589 132.076 55.3478C131.842 55.1903 131.646 54.9824 131.504 54.7394C131.396 54.4806 131.303 54.216 131.225 53.947C131.099 53.6433 130.894 53.3786 130.632 53.1803C130.369 52.9819 130.058 52.857 129.731 52.8186C129.913 53.1263 129.625 53.5489 129.27 53.6029C128.916 53.657 128.571 53.4467 128.327 53.1844C128.084 52.9222 127.908 52.6039 127.664 52.3416C127.421 52.0793 127.076 51.8688 126.721 51.9225C126.408 51.97 126.165 52.2075 125.904 52.3855C125.642 52.5635 125.275 52.6827 125.021 52.4927C124.88 52.3866 124.811 52.2075 124.676 52.0943C124.327 51.8024 123.786 52.1026 123.53 52.478C123.02 53.2249 122.767 53.5931 121.863 53.8772C121.567 53.9705 121.381 53.9494 121.282 53.8595C121.083 54.3133 121.174 54.7129 121.863 54.496C122.767 54.2119 123.02 53.8437 123.53 53.0967C123.786 52.7213 124.327 52.4212 124.676 52.713C124.811 52.8263 124.88 53.0054 125.021 53.1114C125.275 53.3015 125.642 53.1822 125.904 53.0042C126.165 52.8263 126.408 52.5888 126.721 52.5413C127.076 52.4875 127.421 52.698 127.664 52.9604C127.908 53.2227 128.084 53.5409 128.327 53.8032C128.571 54.0654 128.916 54.2758 129.27 54.2217C129.624 54.1677 129.913 53.7451 129.731 53.4374C130.058 53.4758 130.369 53.6007 130.632 53.799C130.894 53.9974 131.099 54.2621 131.225 54.5657C131.303 54.8348 131.396 55.0993 131.504 55.3582C131.646 55.6011 131.842 55.8091 132.076 55.9666C132.365 56.1777 132.715 56.3557 133.068 56.2945C133.42 56.2333 133.719 55.8302 133.555 55.5127C133.668 55.6834 133.91 55.4456 133.947 55.2444C133.996 54.9736 134.005 54.6971 133.975 54.4234C133.968 54.4912 133.959 54.5587 133.947 54.6257Z" fill="black"/>
<path opacity="0.1" d="M122.165 51.9202C122.167 51.9121 122.171 51.9045 122.173 51.8963C122.344 51.2589 121.86 50.6571 121.555 50.0717C121.341 49.6588 121.208 49.2088 121.164 48.7461C121.152 48.8279 121.146 48.9105 121.146 48.9932C121.142 49.5837 121.282 50.1662 121.555 50.6904C121.764 51.0906 122.056 51.4985 122.165 51.9202Z" fill="black"/>
<path opacity="0.1" d="M134.233 50.3254C133.989 50.7414 133.587 51.0781 133.475 51.5469C133.432 51.7453 133.434 51.9508 133.481 52.1483C133.598 51.6887 133.992 51.3548 134.233 50.9442C134.46 50.542 134.545 50.0754 134.475 49.6191C134.441 49.868 134.358 50.1078 134.233 50.3254Z" fill="black"/>
</g>
<path opacity="0.1" d="M114.881 78.71V78.7106C114.923 78.8838 114.955 79.0592 114.977 79.236C114.977 79.236 117.464 85.0423 117.779 85.3875C117.876 85.4936 118.241 86.0158 118.7 86.6881C118.866 86.931 119.044 87.194 119.227 87.4639C120.179 88.8725 121.242 90.4719 121.242 90.4719L123.571 92.5119C123.571 92.5119 128.639 92.9162 130.25 91.2766C130.054 91.141 129.93 91.0682 129.93 91.0682L129.238 90.5315C128.88 89.9302 127.513 89.3446 126.128 88.8844C124.853 88.8939 123.809 88.9968 123.809 88.9968L123.478 88.1256L123.131 87.2166L121.37 82.5942C121.37 82.5942 120.234 76.7566 119.857 76.4741C119.479 76.1917 119.573 75.3129 119.573 75.3129C119.573 75.3129 120.266 72.8334 120.014 72.4882C119.762 72.143 120.423 69.6008 120.423 69.6008C120.358 69.3526 120.256 69.1153 120.121 68.8965L115.261 78.1062C115.261 78.1062 115.099 78.3679 114.881 78.71Z" fill="black"/>
<path d="M120.487 69.4109C120.487 69.4109 119.826 71.9531 120.077 72.2984C120.329 72.6436 119.637 75.123 119.637 75.123C119.637 75.123 119.542 76.0018 119.92 76.2843C120.298 76.5668 121.433 82.4044 121.433 82.4044L123.873 88.8069C123.873 88.8069 131.505 88.0537 130.718 90.439C129.931 92.8242 123.635 92.3221 123.635 92.3221L121.305 90.282C121.305 90.282 118.157 85.5429 117.842 85.1977C117.527 84.8524 115.04 79.0462 115.04 79.0462C115.04 79.0462 114.915 77.8849 114.379 77.2886C113.844 76.6923 114.253 75.6837 114.253 75.6837C114.253 75.6837 113.592 68.0928 114.285 67.1826C114.978 66.2724 119.763 66.6804 120.487 69.4109Z" fill="#EE8E9E"/>
<path opacity="0.1" d="M116.582 64.6413L114.599 65.8339C114.599 65.8339 114.033 67.7484 113.592 67.9995C113.592 67.9995 117.558 65.8025 120.549 70.8556C120.549 70.8556 120.455 70.1965 120.864 69.8826C121.273 69.5688 121.179 68.2192 121.179 68.2192C121.287 68.006 121.382 67.7858 121.462 67.5601C121.745 66.8696 120.266 62.9151 116.582 64.6413Z" fill="black"/>
<path d="M116.52 64.5163L114.537 65.7089C114.537 65.7089 113.97 67.6234 113.529 67.8745C113.529 67.8745 117.496 65.6775 120.487 70.7305C120.487 70.7305 120.392 70.0714 120.801 69.7576C121.211 69.4437 121.116 68.0942 121.116 68.0942C121.225 67.8809 121.32 67.6608 121.399 67.4351C121.683 66.7446 120.203 62.7901 116.52 64.5163Z" fill="#FF0000"/>
<path d="M98.843 119.48C102.108 119.48 104.755 116.679 104.755 113.224C104.755 109.768 102.108 106.967 98.843 106.967C95.5777 106.967 92.9307 109.768 92.9307 113.224C92.9307 116.679 95.5777 119.48 98.843 119.48Z" fill="#FBD56F"/>
<path opacity="0.1" d="M98.843 119.48C102.108 119.48 104.755 116.679 104.755 113.224C104.755 109.768 102.108 106.967 98.843 106.967C95.5777 106.967 92.9307 109.768 92.9307 113.224C92.9307 116.679 95.5777 119.48 98.843 119.48Z" fill="black"/>
<path d="M99.8635 119.481C103.129 119.481 105.776 116.742 105.776 113.363C105.776 109.985 103.129 107.246 99.8635 107.246C96.5982 107.246 93.9512 109.985 93.9512 113.363C93.9512 116.742 96.5982 119.481 99.8635 119.481Z" fill="#FBD56F"/>
<path d="M14.1909 116.663C18.2238 116.663 21.4931 116.112 21.4931 115.432C21.4931 114.752 18.2238 114.201 14.1909 114.201C10.158 114.201 6.88867 114.752 6.88867 115.432C6.88867 116.112 10.158 116.663 14.1909 116.663Z" fill="#FF0000"/>
<path d="M17.2102 113.416C17.5229 113.127 17.8162 112.785 17.9064 112.369C17.9965 111.953 17.8186 111.454 17.4199 111.302C16.9731 111.132 16.4956 111.44 16.1337 111.752C15.7717 112.064 15.3568 112.42 14.8831 112.354C15.1268 112.134 15.3091 111.854 15.4123 111.543C15.5155 111.232 15.536 110.899 15.4719 110.577C15.4511 110.445 15.3945 110.32 15.3081 110.217C15.0601 109.952 14.6105 110.066 14.3135 110.274C13.3691 110.936 13.1056 112.215 13.1005 113.366C13.0052 112.951 13.0854 112.519 13.0831 112.093C13.0807 111.667 12.9637 111.194 12.6033 110.966C12.3788 110.845 12.1263 110.786 11.8714 110.794C11.4469 110.779 10.9741 110.821 10.6842 111.131C10.3239 111.515 10.4174 112.161 10.7307 112.584C11.0441 113.007 11.5208 113.273 11.9596 113.565C12.3116 113.774 12.6117 114.06 12.8378 114.4C12.8643 114.448 12.8862 114.498 12.9029 114.55H15.5643C16.1617 114.248 16.7154 113.866 17.2102 113.416Z" fill="#FF0000"/>
<path d="M80.2267 107.404C80.5521 107.848 80.8181 108.333 81.0182 108.845C81.0711 108.978 81.1228 109.117 81.1718 109.263C81.9585 111.607 80.712 114.418 80.3556 114.115C79.9992 113.811 78.8887 113.249 78.6739 114.039C78.4592 114.83 77.666 115.638 77.666 115.638C76.2208 117.087 74.9127 115.521 74.054 113.904C73.7735 113.37 73.524 112.82 73.307 112.258C73.1163 111.761 73.0068 111.418 73.0068 111.418L79.0262 106.305C79.0262 106.305 79.6081 106.571 80.2267 107.404Z" fill="#FF0000"/>
<path d="M70.7394 110.676C71.0647 111.12 71.3308 111.604 71.5309 112.117C71.5838 112.249 71.6355 112.388 71.6845 112.534C72.4712 114.878 71.2246 117.689 70.8683 117.386C70.5119 117.083 69.4014 116.52 69.1866 117.311C68.9719 118.101 68.1787 118.909 68.1787 118.909C66.7335 120.359 65.4254 118.793 64.5667 117.175C64.2862 116.641 64.0367 116.092 63.8197 115.529C63.629 115.033 63.5195 114.689 63.5195 114.689L69.5389 109.576C69.5389 109.576 70.1208 109.843 70.7394 110.676Z" fill="#FF0000"/>
<path d="M51.6905 115.192C51.6567 115.741 51.5514 116.283 51.3775 116.805C51.3334 116.941 51.2841 117.081 51.2283 117.225C50.3335 119.53 47.5745 120.901 47.4942 120.441C47.4139 119.98 46.919 118.841 46.2477 119.313C45.5763 119.785 44.4484 119.902 44.4484 119.902C42.4081 120.098 42.4033 118.06 42.7778 116.269C42.9035 115.679 43.0632 115.098 43.2561 114.526C43.4274 114.023 43.5629 113.689 43.5629 113.689L51.4701 113.582C51.4701 113.582 51.7476 114.157 51.6905 115.192Z" fill="#FF0000"/>
<path d="M41.4747 112.624C41.4409 113.173 41.3356 113.715 41.1616 114.237C41.1175 114.373 41.0683 114.513 41.0125 114.656C40.1177 116.961 37.3587 118.332 37.2784 117.872C37.1981 117.412 36.7032 116.272 36.0319 116.744C35.3605 117.216 34.2326 117.334 34.2326 117.334C32.1923 117.53 32.1875 115.492 32.562 113.7C32.6877 113.111 32.8474 112.529 33.0403 111.958C33.2115 111.454 33.347 111.12 33.347 111.12L41.2543 111.014C41.2543 111.014 41.5318 111.589 41.4747 112.624Z" fill="#FF0000"/>
<path opacity="0.2" d="M80.2267 107.404C80.5521 107.848 80.8181 108.333 81.0182 108.845C81.0711 108.978 81.1228 109.117 81.1718 109.263C81.9585 111.607 80.712 114.418 80.3556 114.115C79.9992 113.811 78.8887 113.249 78.6739 114.039C78.4592 114.83 77.666 115.638 77.666 115.638C76.2208 117.087 74.9127 115.521 74.054 113.904C73.7735 113.37 73.524 112.82 73.307 112.258C73.1163 111.761 73.0068 111.418 73.0068 111.418L79.0262 106.305C79.0262 106.305 79.6081 106.571 80.2267 107.404Z" fill="black"/>
<path opacity="0.2" d="M70.7394 110.676C71.0647 111.12 71.3308 111.604 71.5309 112.117C71.5838 112.249 71.6355 112.388 71.6845 112.534C72.4712 114.878 71.2246 117.689 70.8683 117.386C70.5119 117.083 69.4014 116.52 69.1866 117.311C68.9719 118.101 68.1787 118.909 68.1787 118.909C66.7335 120.359 65.4254 118.793 64.5667 117.175C64.2862 116.641 64.0367 116.092 63.8197 115.529C63.629 115.033 63.5195 114.689 63.5195 114.689L69.5389 109.576C69.5389 109.576 70.1208 109.843 70.7394 110.676Z" fill="black"/>
<path opacity="0.2" d="M51.6905 115.192C51.6567 115.741 51.5514 116.283 51.3775 116.805C51.3334 116.941 51.2841 117.081 51.2283 117.225C50.3335 119.53 47.5745 120.901 47.4942 120.441C47.4139 119.98 46.919 118.841 46.2477 119.313C45.5763 119.785 44.4484 119.902 44.4484 119.902C42.4081 120.098 42.4033 118.06 42.7778 116.269C42.9035 115.679 43.0632 115.098 43.2561 114.526C43.4274 114.023 43.5629 113.689 43.5629 113.689L51.4701 113.582C51.4701 113.582 51.7476 114.157 51.6905 115.192Z" fill="black"/>
<path opacity="0.2" d="M41.4747 112.624C41.4409 113.173 41.3356 113.715 41.1616 114.237C41.1175 114.373 41.0683 114.513 41.0125 114.656C40.1177 116.961 37.3587 118.332 37.2784 117.872C37.1981 117.412 36.7032 116.272 36.0319 116.744C35.3605 117.216 34.2326 117.334 34.2326 117.334C32.1923 117.53 32.1875 115.492 32.562 113.7C32.6877 113.111 32.8474 112.529 33.0403 111.958C33.2115 111.454 33.347 111.12 33.347 111.12L41.2543 111.014C41.2543 111.014 41.5318 111.589 41.4747 112.624Z" fill="black"/>
<path d="M96.2836 78.0741C96.2836 99.1299 89.1391 116.199 56.1688 116.199C34.014 116.199 16.8739 110.711 16.054 78.0741C15.5253 57.0249 34.014 39.9492 56.1688 39.9492C78.3236 39.9492 96.2836 57.0183 96.2836 78.0741Z" fill="#FF0000"/>
<path opacity="0.2" d="M48.6426 40.6133H48.6473C48.6462 40.6139 48.645 40.6143 48.6438 40.6144L48.6426 40.6133Z" fill="black"/>
<path opacity="0.2" d="M48.7213 40.6017C48.8232 40.5854 49.0246 40.5573 49.3174 40.5352L48.665 40.6122C48.6744 40.6099 48.6861 40.6076 48.7002 40.6052C48.7072 40.604 48.7131 40.6029 48.7213 40.6017Z" fill="black"/>
<path opacity="0.2" d="M78.363 56.1803L75.4349 57.2312C73.9423 55.2356 72.3363 53.3268 70.6247 51.5142C68.7566 49.5278 66.7184 47.7075 64.5331 46.074C57.036 40.5345 51.2372 40.3932 49.3223 40.5356L53.7238 40.0195C57.8837 40.7331 61.8842 42.1749 65.5404 44.2781C68.0982 45.7481 70.4805 47.5027 72.6416 49.5081C76.4738 53.0544 78.363 56.1803 78.363 56.1803Z" fill="black"/>
<path opacity="0.2" d="M51.8937 58.166C51.8937 58.166 48.0286 45.3215 51.3081 41.8184C51.3081 41.8184 56.4615 40.0669 60.3266 49.9922L51.8937 58.166Z" fill="black"/>
<path d="M71.4648 46.1679C71.4648 46.1679 81.7147 37.4841 86.2491 39.0731C86.2491 39.0731 89.9262 43.0763 82.3584 50.5886L71.4648 46.1679Z" fill="#FF0000"/>
<path opacity="0.2" d="M71.4648 46.1679C71.4648 46.1679 81.7147 37.4841 86.2491 39.0731C86.2491 39.0731 89.9262 43.0763 82.3584 50.5886L71.4648 46.1679Z" fill="black"/>
<path d="M103.428 87.7663C103.428 99.0842 95.2817 108.026 87.6165 108.026C79.9513 108.026 75.6699 99.0842 75.6699 87.7663C75.6699 76.4484 81.8967 67.7157 89.5491 67.2734C101.671 66.5728 103.428 76.4484 103.428 87.7663Z" fill="#DC2020"/>
<path opacity="0.2" d="M103.428 87.7663C103.428 99.0842 95.2817 108.026 87.6165 108.026C79.9513 108.026 75.6699 99.0842 75.6699 87.7663C75.6699 76.4484 81.8967 67.7157 89.5491 67.2734C101.671 66.5728 103.428 76.4484 103.428 87.7663Z" fill="black"/>
<path d="M87.147 92.7285C88.5701 92.7285 89.7237 91.2647 89.7237 89.459C89.7237 87.6533 88.5701 86.1895 87.147 86.1895C85.7239 86.1895 84.5703 87.6533 84.5703 89.459C84.5703 91.2647 85.7239 92.7285 87.147 92.7285Z" fill="#FB7979"/>
<path d="M96.2828 89.9258C97.7058 89.9258 98.8595 88.462 98.8595 86.6562C98.8595 84.8505 97.7058 83.3867 96.2828 83.3867C94.8597 83.3867 93.7061 84.8505 93.7061 86.6562C93.7061 88.462 94.8597 89.9258 96.2828 89.9258Z" fill="#FB7979"/>
<path d="M73.1418 47.3993C73.1436 48.1316 72.9722 48.8541 72.6417 49.5081C72.2054 50.3772 71.4975 51.0812 70.6248 51.5142C68.7567 49.5277 66.7185 47.7074 64.5332 46.074C64.7279 45.4069 65.0723 44.7927 65.5405 44.2781C65.9441 43.8295 66.4376 43.4704 66.9892 43.224C67.5408 42.9776 68.1382 42.8494 68.7426 42.8477C71.1718 42.8477 73.1418 44.8853 73.1418 47.3993Z" fill="#FAD46F"/>
</g>
<defs>
<linearGradient id="paint0_linear" x1="132.396" y1="122.74" x2="132.396" y2="43.6328" gradientUnits="userSpaceOnUse">
<stop stop-color="#808080" stop-opacity="0.25"/>
<stop offset="0.53514" stop-color="#808080" stop-opacity="0.12"/>
<stop offset="1" stop-color="#808080" stop-opacity="0.1"/>
</linearGradient>
<clipPath id="clip0">
<rect width="176" height="126" fill="white"/>
</clipPath>
</defs>
</svg>
