<svg width="107" height="46" viewBox="0 0 107 46" fill="none" xmlns="http://www.w3.org/2000/svg">
<path d="M9.9375 13.4375C9.9375 11.5833 10.2917 9.84375 11 8.21875C11.7083 6.59375 12.6667 5.17708 13.875 3.96875C15.1042 2.73958 16.5312 1.77083 18.1562 1.0625C19.7812 0.354167 21.5208 0 23.375 0L57 0.09375L60.5 8.96875H23.375C22.75 8.96875 22.1667 9.08333 21.625 9.3125C21.0833 9.54167 20.6042 9.86458 20.1875 10.2812C19.7917 10.6771 19.4792 11.1458 19.25 11.6875C19.0208 12.2292 18.9062 12.8125 18.9062 13.4375C18.9062 14.0625 19.0208 14.6562 19.25 15.2188C19.4792 15.7604 19.7917 16.2396 20.1875 16.6562C20.6042 17.0521 21.0833 17.3646 21.625 17.5938C22.1667 17.8229 22.75 17.9375 23.375 17.9375H32.3438C34.1979 17.9375 35.9375 18.2917 37.5625 19C39.2083 19.6875 40.6354 20.6458 41.8438 21.875C43.0729 23.0833 44.0312 24.5104 44.7188 26.1562C45.4271 27.7812 45.7812 29.5208 45.7812 31.375C45.7812 33.2292 45.4271 34.9688 44.7188 36.5938C44.0312 38.2188 43.0729 39.6458 41.8438 40.875C40.6354 42.0833 39.2083 43.0417 37.5625 43.75C35.9375 44.4583 34.1979 44.8125 32.3438 44.8125H12.4375L0 35.8438H32.3438C32.9688 35.8438 33.5521 35.7292 34.0938 35.5C34.6354 35.2708 35.1042 34.9583 35.5 34.5625C35.9167 34.1458 36.2396 33.6667 36.4688 33.125C36.6979 32.5833 36.8125 32 36.8125 31.375C36.8125 30.75 36.6979 30.1667 36.4688 29.625C36.2396 29.0833 35.9167 28.6146 35.5 28.2188C35.1042 27.8021 34.6354 27.4792 34.0938 27.25C33.5521 27.0208 32.9688 26.9062 32.3438 26.9062H23.375C21.5208 26.9062 19.7812 26.5521 18.1562 25.8438C16.5312 25.1354 15.1042 24.1771 13.875 22.9688C12.6667 21.7396 11.7083 20.3125 11 18.6875C10.2917 17.0417 9.9375 15.2917 9.9375 13.4375Z" fill="#FF0000"/>
<path d="M77 41.5938C77 43.8029 75.2091 45.5938 73 45.5938H56.1562C53.9471 45.5938 52.1562 43.8029 52.1562 41.5938V4.09375C52.1562 1.88461 53.9471 0.09375 56.1562 0.09375H57.125C59.3341 0.09375 61.125 1.88461 61.125 4.09375V32.625C61.125 34.8341 62.9159 36.625 65.125 36.625H73C75.2091 36.625 77 38.4159 77 40.625V41.5938Z" fill="#FF0000"/>
<path d="M71 14.0875C71 12.2255 71.3557 10.4787 72.0671 8.84689C72.7786 7.21509 73.7411 5.7925 74.9547 4.57911C76.1892 3.3448 77.6225 2.37199 79.2546 1.6607C80.8867 0.949399 82.6338 0.59375 84.4961 0.59375H93.5039L105.148 9.60003H84.4961C83.8684 9.60003 83.2825 9.71509 82.7384 9.94521C82.1944 10.1753 81.7132 10.4996 81.2947 10.918C80.8971 11.3155 80.5833 11.7862 80.3531 12.3302C80.1229 12.8741 80.0078 13.4599 80.0078 14.0875C80.0078 14.7151 80.1229 15.3113 80.3531 15.8762C80.5833 16.4201 80.8971 16.9013 81.2947 17.3197C81.7132 17.7172 82.1944 18.031 82.7384 18.2611C83.2825 18.4912 83.8684 18.6063 84.4961 18.6063H93.5039C95.3662 18.6063 97.1133 18.962 98.7454 19.6732C100.398 20.3636 101.832 21.326 103.045 22.5603C104.28 23.7737 105.242 25.2067 105.933 26.8594C106.644 28.4912 107 30.2381 107 32.1C107 33.9619 106.644 35.7088 105.933 37.3406C105.242 38.9724 104.28 40.4055 103.045 41.6398C101.832 42.8532 100.398 43.8155 98.7454 44.5268C97.1133 45.2381 95.3662 45.5938 93.5039 45.5938H73.5109V36.5875H93.5039C94.1316 36.5875 94.7175 36.4724 95.2616 36.2423C95.8056 36.0122 96.2764 35.6984 96.6739 35.3009C97.0924 34.8825 97.4167 34.4013 97.6469 33.8573C97.8771 33.3134 97.9922 32.7276 97.9922 32.1C97.9922 31.4724 97.8771 30.8866 97.6469 30.3427C97.4167 29.7988 97.0924 29.3281 96.6739 28.9306C96.2764 28.5122 95.8056 28.1879 95.2616 27.9578C94.7175 27.7276 94.1316 27.6126 93.5039 27.6126H84.4961C82.6338 27.6126 80.8867 27.2569 79.2546 26.5456C77.6225 25.8343 76.1892 24.872 74.9547 23.6586C73.7411 22.4243 72.7786 20.9912 72.0671 19.3594C71.3557 17.7067 71 15.9494 71 14.0875Z" fill="#FF0000"/>
</svg>
