<svg width="4275" height="4275" fill="none" xmlns="http://www.w3.org/2000/svg"><path d="M3309.68 1241.13v-150.6c80.06-28.55 137.9-104.402 137.9-194.161 0-114.033-92.82-206.855-206.85-206.855-37.98 0-68.96-30.974-68.96-68.951 0-37.977 30.98-68.952 68.96-68.952 37.97 0 68.95 30.975 68.95 68.952h137.9c0-89.759-57.84-165.612-137.9-194.162V275.805h-137.91v150.596c-80.06 28.55-137.9 104.403-137.9 194.162 0 114.033 92.82 206.855 206.86 206.855 37.97 0 68.95 30.974 68.95 68.951 0 37.977-30.98 68.952-68.95 68.952-37.98 0-68.96-30.975-68.96-68.952h-137.9c0 89.759 57.84 165.611 137.9 194.161v150.6h137.91z" fill="#262d36"/><path d="M4068.15 2206.45v-222.58c0-142.92-89.93-272.64-223.76-322.84l-327.86-122.92v-73.86c282.07-110.67 482.66-384.96 482.66-705.782C3999.19 340.28 3658.91 0 3240.73 0c-418.19 0-758.47 340.28-758.47 758.468 0 320.822 200.59 595.112 482.66 705.782v73.86l-327.86 122.99c-133.83 50.13-223.75 179.85-223.75 322.77v222.58H2275.4V1103.23h-896.37c-190.09 0-344.76 154.67-344.76 344.75 0 113.16 55.59 212.92 140.03 275.81-84.44 62.89-140.03 162.65-140.03 275.81 0 77.9 26.97 149.08 70.74 206.85H896.371V1103.23H206.855v1103.22C92.822 2206.45 0 2299.27 0 2413.31v137.9c0 114.03 92.822 206.85 206.855 206.85V4275H4068.15V2758.06c114.03 0 206.85-92.82 206.85-206.85v-137.9c0-114.04-92.82-206.86-206.85-206.86zm-896.78-322.33l-221.47 88.58-44.2-265.1 104.03-38.96 161.64 215.48zm300.35-215.48l103.97 39.02-44.21 265.1-221.47-88.58 161.71-215.54zm-851.56-910.172c0-342.132 278.43-620.565 620.57-620.565 342.13 0 620.56 278.433 620.56 620.565 0 342.132-278.43 620.562-620.56 620.562-342.14 0-620.57-278.43-620.57-620.562zm620.57 758.472c47.16 0 93.09-4.89 137.9-13.17v59.16l-137.9 183.89-137.91-183.89v-59.16c44.81 8.28 90.74 13.17 137.91 13.17zm-689.52 466.93c0-85.78 53.94-163.55 134.23-193.69l88.68-33.23 67.91 407.45 398.7-159.48 398.69 159.41 67.91-407.44 88.68 33.23c80.3 30.2 134.23 107.97 134.23 193.75v222.58H2551.21v-222.58zm-413.71 222.58h-137.9v-413.71h137.9v413.71zm-413.71-551.61v-413.71h137.9v413.71h-137.9zm137.9 137.9v413.71h-137.9v-413.71h137.9zm275.81-137.9h-137.9v-413.71h137.9v413.71zm-965.32-206.86c0-114.03 92.82-206.85 206.85-206.85h206.86v413.71h-206.86c-114.03 0-206.85-92.82-206.85-206.86zm0 551.62c0-114.04 92.82-206.86 206.85-206.86h206.86v413.71h-206.86c-114.03 0-206.85-92.82-206.85-206.85zm-413.712-68.95h-413.71v-137.91h413.71v137.91zm0-689.52v413.71h-413.71v-413.71h413.71zm-413.71 827.42h413.71v137.9h-413.71v-137.9zM3930.24 4137.1H344.758V2758.06H3930.24V4137.1zm206.86-1585.89c0 37.98-30.98 68.95-68.95 68.95H206.855c-37.977 0-68.952-30.97-68.952-68.95v-137.9c0-37.98 30.975-68.96 68.952-68.96H4068.15c37.97 0 68.95 30.98 68.95 68.96v137.9z" fill="#262d36"/><path d="M2689.11 3861.29h1103.23v137.9H2689.11v-137.9zm-275.8-275.81h1379.03v137.91H2413.31v-137.91zM482.662 2895.97H1585.89v137.9H482.662v-137.9zm0 275.8H1861.69v137.91H482.662v-137.91zm0-1792.74h137.903v137.9H482.662v-137.9zm827.418 551.61h137.9v137.91h-137.9v-137.91zm0-551.61h137.9v137.9h-137.9v-137.9z" fill="#262d36"/></svg>