<svg width="6698" height="6698" fill="none" xmlns="http://www.w3.org/2000/svg"><path d="M6698 3457.03v-866.84c0-240.38-154.72-448.32-384.92-517.37l-695.4-208.63v-164.11c195.65-136.83 324.09-363.39 324.09-619.65V756.226C5941.77 339.236 5602.54 0 5185.55 0s-756.23 339.236-756.23 756.226v324.094c0 256.37 128.45 482.93 324.1 619.66v164.1l-612.85 183.89c-229.99-205.67-523.02-319.45-834.14-319.45-309.85 0-593.33 113.51-812.4 300.57l-549.45-164.9v-164.11c195.65-136.83 324.1-363.39 324.1-619.65V756.226C2268.68 339.236 1929.44 0 1512.45 0S756.226 339.236 756.226 756.226v324.094c0 256.37 128.446 482.93 324.094 619.66v164.1l-695.402 208.63C154.716 2141.87 0 2349.81 0 2590.19v866.84h216.065v-866.84c0-144.22 92.787-269.03 230.992-310.38l695.613-208.73c62.88 81.65 184.52 197.6 369.78 197.6 185.26 0 306.9-115.95 369.78-197.6l443.05 132.87c-140.63 176.87-234.32 392.15-262.75 627.68-137.94-146.6-333.28-238.86-550.08-238.86-416.99 0-756.224 339.24-756.224 756.23v324.1c0 256.36 128.446 482.92 324.094 619.65v164.11l-695.402 208.62C154.716 4734.64 0 4942.58 0 5182.96v974.88h1296.39c59.5 0 108.03 48.53 108.03 108.03V6698h3889.16v-432.13c0-59.5 48.53-108.03 108.03-108.03H6698v-974.88c0-240.38-154.72-448.32-384.92-517.37l-695.4-208.63v-164.1c195.65-136.84 324.09-363.4 324.09-619.66v-324.09c0-416.99-339.23-756.23-756.22-756.23-211.53 0-402.75 87.51-540.16 227.93v-102.39c0-213.37-115.95-405.43-296.88-506.98l467.26-140.26c62.88 81.55 184.52 197.5 369.78 197.5 185.26 0 306.9-115.95 369.78-197.6l695.72 208.73c138.1 41.35 230.89 166.16 230.89 310.38v866.84H6698zM1512.45 216.065c297.83 0 540.16 242.334 540.16 540.161h-495.43c-68.62 0-135.93-27.852-184.41-76.382l-76.38-76.383-76.39 76.383c-48.47 48.53-115.78 76.382-184.41 76.382h-63.3c0-297.827 242.33-540.161 540.16-540.161zM972.29 1080.32V972.29h63.3c94.11 0 183.99-27.008 260.8-77.437 76.8 50.429 166.69 77.437 260.79 77.437h495.43v108.03c0 297.83-242.33 540.16-540.16 540.16-297.83 0-540.16-242.33-540.16-540.16zm540.16 972.29c-114.84 0-189.27-96.48-216.06-137.73v-110.09c68.47 20.42 141 31.76 216.06 31.76 75.07 0 147.6-11.34 216.07-31.86v110.09c-26.8 41.46-101.23 137.83-216.07 137.83zm2969.57 1896.16c55.02 139.73 149.97 259.21 271.4 344.09v164.1l-695.3 208.63c-22.89 6.81-45.15 15.67-66.89 25.48l-102.07-23.53V4454.7c115.47-92.79 206.47-214.64 262.33-354.33 124.44-10.92 241.12-63.88 330.53-151.6zM3349 4645.39c114.63 0 223.98-22.9 324.1-63.62v117.63L3349 4942.48l-324.1-243.08v-117.63c100.12 40.72 209.47 63.62 324.1 63.62zM2892.24 4870l263.38 197.6-270.93 162.57-68.52-342.55 76.07-17.62zm337.39 855.71h238.74l84.03 756.23h-406.8l84.03-756.23zm257.52-216.06h-276.41l-62.03-186.05L3349 5203.48l200.19 120.12-62.04 186.05zm55.23-442.05l263.38-197.6 76.07 17.51-68.52 342.56-270.93-162.47zm802.7-1284.52c-37.4 41.04-84.93 69.79-136.46 87.3 3-29.38 4.64-59.13 4.64-89.25v-516.95c116.26 44.1 202.77 146.38 214.43 268.6 8.86 93-20.42 181.78-82.61 250.3zm-347.89-1.95c0 357.49-290.7 648.19-648.19 648.19-357.49 0-648.19-290.7-648.19-648.19v-540.16h366.77c235.42 0 464.52-58.77 669.34-171.02l85.46 171.02h174.81v540.16zm-1507.81 89.25c-51.53-17.51-99.06-46.26-136.46-87.3-62.19-68.42-91.47-157.3-82.61-250.19 11.66-122.23 98.17-224.61 214.43-268.61v516.85c0 30.12 1.64 59.87 4.64 89.25zm57.13 229.99c55.76 139.69 146.75 261.54 262.33 354.33v212.84l-102.07 23.53c-21.84-9.81-44-18.57-66.78-25.48l-695.41-208.63v-164.1c121.33-84.88 216.38-204.36 271.4-344.09 89.41 87.72 206.09 140.68 330.53 151.6zM1512.45 2808.84c297.83 0 540.16 242.33 540.16 540.16h-63.3c-68.63 0-135.93-27.85-184.41-76.38l-76.38-76.38-76.39 76.38c-48.47 48.53-115.78 76.38-184.41 76.38H972.29c0-297.83 242.33-540.16 540.16-540.16zM972.29 3673.1v-108.04h495.43c94.11 0 183.99-27 260.8-77.43 76.8 50.43 166.69 77.43 260.79 77.43h63.3v108.04c0 297.82-242.33 540.16-540.16 540.16-297.83 0-540.16-242.34-540.16-540.16zm540.16 756.22c75.07 0 147.6-11.34 216.07-31.86v110.09c-26.8 41.46-101.23 137.84-216.07 137.84-114.84 0-189.27-96.48-216.06-137.73v-110.09c68.47 20.41 141 31.75 216.06 31.75zm-216.06 1512.45H864.258v-756.22H648.194v756.22H216.065v-758.81c0-144.22 92.787-269.02 230.992-310.38l695.613-208.73c62.88 81.66 184.52 197.6 369.78 197.6 185.26 0 306.9-115.94 369.78-197.6l409.66 122.96-301.31 69.47c-345.15 79.71-586.16 382.76-586.16 736.87v132.56h216.06v-132.56c0-252.99 172.23-469.37 418.73-526.34l566.33-130.72 127.34 636.96 226.03-135.57 63.94 191.86-94.64 852.6h-551.5v-864.26h-216.06v864.26h-540.17v-216.07c0-178.66-145.43-324.1-324.09-324.1zm4954.55-1069.19c138.21 41.36 231 166.16 231 310.38v758.81h-432.13v-756.22h-216.07v756.22h-432.13c-178.66 0-324.09 145.44-324.09 324.1v216.07h-540.17v-864.26h-216.06v864.26h-551.5l-94.74-852.6 63.93-191.86 226.04 135.57 127.33-636.96 566.44 130.72c246.5 56.97 418.73 273.35 418.73 526.34v132.56h216.06v-132.56c0-354.11-241.01-657.16-586.16-736.87l-301.31-69.47 409.66-122.96c62.88 81.66 184.52 197.6 369.78 197.6 185.26 0 306.9-115.94 369.78-197.6l695.61 208.73zm-849.33-364.92c-26.79 41.35-101.22 137.73-216.06 137.73-115.05 0-189.59-96.8-216.07-137.73v-110.2c68.47 20.52 141 31.86 216.07 31.86 75.06 0 147.59-11.34 216.06-31.86v110.2zm-216.06-294.4c-297.83 0-540.16-242.34-540.16-540.16v-108.04h63.3c94.1 0 183.99-27 260.79-77.43 76.81 50.43 166.69 77.43 260.8 77.43h495.43v108.04c0 297.82-242.33 540.16-540.16 540.16zm0-1404.42c297.83 0 540.16 242.33 540.16 540.16h-495.43c-68.63 0-135.94-27.85-184.41-76.38l-76.39-76.38-76.38 76.38c-48.48 48.53-115.78 76.38-184.41 76.38h-63.3c0-297.83 242.33-540.16 540.16-540.16zm-756.23 333.27c-95.58-72.37-214.32-117.21-342.66-117.21h-130.72l-132.87-265.75-101.81 67.83c-194.33 129.56-420.32 197.92-653.68 197.92h-456.24c-128.34 0-247.08 44.84-342.66 117.21v-159.78c0-572.12 465.62-1037.75 1037.75-1037.75 277.2 0 537.89 107.93 733.86 303.89l114.63 114.63 24.21 8.12c149.6 49.91 250.19 189.38 250.19 347.1v423.79zm756.23-2926.045c297.83 0 540.16 242.334 540.16 540.161h-63.3c-68.63 0-135.94-27.852-184.41-76.382l-76.39-76.383-76.38 76.383c-48.48 48.53-115.79 76.382-184.41 76.382h-495.43c0-297.827 242.33-540.161 540.16-540.161zm-540.16 864.255V972.29h495.43c94.1 0 183.99-27.008 260.79-77.437 76.81 50.429 166.69 77.437 260.8 77.437h63.3v108.03c0 297.83-242.33 540.16-540.16 540.16-297.83 0-540.16-242.33-540.16-540.16zm540.16 972.29c-115.05 0-189.59-96.79-216.07-137.73v-110.19c68.47 20.52 141 31.86 216.07 31.86 75.06 0 147.59-11.34 216.06-31.86v110.09c-26.79 41.46-101.22 137.83-216.06 137.83z" fill="#E53B24"/><path d="M2484.74 0h216.07v216.065h-216.07V0zm0 432.133h216.07V1620.49h-216.07V432.133zM3997.19 0h216.07v216.065h-216.07V0zm0 432.133h216.07V1620.49h-216.07V432.133zm-1080.32 0h216.07v756.227h-216.07V432.133zm0 972.287h216.07v216.07h-216.07v-216.07zm648.19-972.287h216.07v756.227h-216.07V432.133zm0 972.287h216.07v216.07h-216.07v-216.07z" fill="#E53B24"/></svg>