<svg width="561" height="323" fill="none" xmlns="http://www.w3.org/2000/svg"><g clip-path="url(#clip0)"><path opacity=".5" d="M139.215 211.536c-33.919-11.708-72.7-21.617-104.391-4.794-4.016 2.133-7.974 4.817-10.138 8.812-5.716 10.509 3.37 24.137-1.058 35.245-4.428 11.108-21.094 16.7-19.73 28.566.36 3.102 2.041 5.91 4.023 8.33 12.413 15.15 35.171 16.683 54.406 12.923 19.235-3.759 38.047-11.554 57.629-10.573 18.818.969 36.13 9.986 53.372 17.575 29.067 12.83 63.015 22.035 92.059 9.141 13.307-5.91 24.31-15.972 37.047-22.998a91.265 91.265 0 0156.276-10.315c12.937 1.821 25.287 6.403 37.947 9.563 28.756 7.173 58.77 6.938 88.402 6.656 5.516-.053 11.12-.118 16.406-1.692 7.827-2.35 14.284-7.76 20.5-13.053 8.168-6.949 16.771-14.585 19.406-24.977 3.11-12.336-3.329-25.447-12.879-33.83-9.55-8.382-21.758-12.964-33.671-17.381-2.941-1.081-6.081-2.18-9.092-1.363-1.976.54-3.64 1.856-5.116 3.272-8.456 8.13-15.601 21.881-27.132 19.673-4.117-.788-7.486-3.648-10.744-6.292-17.395-14.098-40.793-24.983-61.787-17.194-15.354 5.698-26.191 20.331-41.751 25.495-11.067 3.677-23.093 2.085-34.736 2.802-16.936 1.033-33.419 7.013-50.379 6.649-43.245-.928-79.275-42.235-122.343-38.3-3.376.306-7.057 1.081-9.127 3.748" fill="red"/><path d="M84.679 172.244s-35.936 21.67 30.331 55.048c0 0 14.602-27.081-1.54-49.162a21.779 21.779 0 00-28.227-6.18l-.564.294z" fill="red"/><path d="M85.108 171.791s30.767 23.497 29.909 55.482" stroke="#535461" stroke-miterlimit="10"/><path d="M539.33 154.193c7.281 26.593-23.774 102.353-23.774 102.353s-65.345-49.42-72.631-76.013a49.896 49.896 0 0117.031-53.561 50.023 50.023 0 0156.128-3.808 49.956 49.956 0 0114.756 13.168 49.904 49.904 0 018.485 17.855l.005.006z" fill="red"/><path opacity=".1" d="M539.33 154.193c7.281 26.593-23.774 102.353-23.774 102.353s-65.345-49.42-72.631-76.013a49.896 49.896 0 0117.031-53.561 50.023 50.023 0 0156.128-3.808 49.956 49.956 0 0114.756 13.168 49.904 49.904 0 018.485 17.855l.005.006z" fill="#000"/><path d="M478.208 119.365s40.675 61.339 37.635 137.328" stroke="#535461" stroke-miterlimit="10"/><path d="M549.709 202.795s-36.883-20.042-32.213 53.943c0 0 30.766-1.098 41.686-26.169a21.706 21.706 0 00.759-15.427 21.734 21.734 0 00-9.691-12.035l-.541-.312z" fill="red"/><path d="M550.315 202.926s-4.763 38.405-32.819 53.814" stroke="#535461" stroke-miterlimit="10"/><path d="M9.738 194.549s-35.953 21.664 30.32 55.024c0 0 14.601-27.08-1.54-49.162a21.76 21.76 0 00-12.939-8.446 21.779 21.779 0 00-15.288 2.267l-.553.317z" fill="red"/><path d="M10.15 194.096s30.766 23.497 29.908 55.482" stroke="#535461" stroke-miterlimit="10"/><path d="M458.344 222.75h-37.782a12.562 12.562 0 001.317-5.622V45.272c0-3.351-1.332-6.565-3.704-8.934a12.658 12.658 0 00-8.945-3.701H116.775a12.656 12.656 0 00-8.944 3.7 12.63 12.63 0 00-3.705 8.935v171.862a12.566 12.566 0 001.318 5.622H66.326a3.35 3.35 0 00-3.096 2.075 3.346 3.346 0 00-.25 1.285v2.696a18.68 18.68 0 005.481 13.217 18.72 18.72 0 0013.231 5.475H442.98a18.72 18.72 0 0013.231-5.475 18.68 18.68 0 005.48-13.217v-2.696a3.333 3.333 0 00-2.06-3.109 3.336 3.336 0 00-1.286-.257zm-232.803 10.691l-3.258-3.671h80.434l-3.587 3.677-73.589-.006z" fill="url(#paint0_linear)"/><path d="M404.59 35.07H121.385c-7.554 0-13.678 6.118-13.678 13.664v165.341c0 7.547 6.124 13.664 13.678 13.664H404.59c7.554 0 13.678-6.117 13.678-13.664V48.734c0-7.546-6.124-13.664-13.678-13.664z" fill="#535461"/><path d="M411.076 63.154h-296.83v157.4h296.83v-157.4zM262.665 52.05a2.615 2.615 0 100-5.228 2.615 2.615 0 100 5.228z" fill="#fff"/><path d="M308.491 220.877l-10.197 10.45h-71.895l-9.215-10.45H70.766a3.27 3.27 0 00-3.27 3.266v2.632a18.26 18.26 0 005.357 12.918 18.298 18.298 0 0012.931 5.35h353.101a18.308 18.308 0 0012.932-5.35 18.28 18.28 0 005.357-12.918v-2.632a3.27 3.27 0 00-3.27-3.266H308.491z" fill="#535461"/><path d="M152.17 72.953v133.885h221.636" stroke="#535461" stroke-width="2" stroke-miterlimit="10"/><path opacity=".5" d="M194.662 166.346h-22.881v35.269h22.881v-35.269z" fill="red"/><path opacity=".7" d="M233.891 134.996H211.01v66.62h22.881v-66.62z" fill="red"/><path opacity=".5" d="M273.12 153.934h-22.881v47.675h22.881v-47.675z" fill="red"/><path opacity=".8" d="M312.349 124.545h-22.881v77.07h22.881v-77.07z" fill="red"/><path d="M351.577 97.113h-22.881V201.61h22.881V97.113z" fill="red"/><path d="M182.896 144.793l39.881-35.921 39.229 33.959 38.576-41.143 39.229-16.33" stroke="#535461" stroke-width="2" stroke-miterlimit="10"/><path d="M182.895 149.363a4.572 4.572 0 004.575-4.57 4.572 4.572 0 00-4.575-4.57 4.573 4.573 0 00-4.575 4.57 4.573 4.573 0 004.575 4.57zm78.458-2.613a4.572 4.572 0 004.575-4.57 4.572 4.572 0 00-4.575-4.571 4.573 4.573 0 00-4.575 4.571 4.573 4.573 0 004.575 4.57zm39.881-40.491a4.572 4.572 0 004.575-4.57 4.572 4.572 0 00-4.575-4.57 4.572 4.572 0 00-4.575 4.57 4.572 4.572 0 004.575 4.57zm-78.457 6.526a4.572 4.572 0 004.575-4.57 4.572 4.572 0 00-4.575-4.57 4.572 4.572 0 00-4.575 4.57 4.572 4.572 0 004.575 4.57zM339.81 89.93a4.572 4.572 0 004.575-4.57 4.572 4.572 0 00-4.575-4.57 4.573 4.573 0 00-4.575 4.57 4.573 4.573 0 004.575 4.57z" fill="red"/><path d="M510.021 226.598c-2.411-.793-5.986-1.709-8.82-1.386-2.699-.981-9.045-3.525-13.378-7.355a96.237 96.237 0 00-.289-11.29c-2.217-25.183 2.77-41.783 2.77-41.783s3.917-12.665 3.487-23.174c.253.476.394.758.394.758.341-9.064 3.434-18.445 5.751-24.29.089-.026.175-.057.259-.094l2.588-6.133c.206-.358.37-.738.488-1.134l.417-.969-.123-.053c.041-.158.082-.329.123-.499 1.653-6.985 2.94-23.55 2.94-23.55 4.434-17.435-6.092-28.196-6.092-28.196l-17.865-15.355c.089.2.149.411.177.628l-.147-.13a38.674 38.674 0 01-.8-2.572c.63-.452 1.22-.957 1.764-1.51a13.708 13.708 0 004.005-7.137c.346-2.135.435-4.305.264-6.461l-.294-7.408a23.446 23.446 0 00-.441-4.317c-1.346-5.875-7.374-9.987-13.425-10.257-1.925-.011-3.85.09-5.763.306a38.81 38.81 0 01-4.704.1.847.847 0 01-.506-.136.744.744 0 01-.218-.51 2.545 2.545 0 01.624-1.91c.236-.207.512-.365.811-.464l-.429.1c.212-.167.45-.296.706-.382a13.709 13.709 0 00-4.458 1.616c-.38.25-.73.543-1.041.875a4.542 4.542 0 00-1.505 2.796 5.207 5.207 0 01-1.588-2.35 2.362 2.362 0 010-1.14c-.106.13-.208.263-.306.4V2.11a11.884 11.884 0 00-2.352 4.781 1.871 1.871 0 01-.423-1.374c-.088.276-.171.552-.247.828a1.892 1.892 0 010-.552 18.904 18.904 0 00-.923 6.567c0 2.22.988 5.68 3.369 6.462.124.041.247.07.377.1a14.92 14.92 0 00-1.106 14.12 14.937 14.937 0 004.498 5.756 14.964 14.964 0 006.693 2.94c.039.27.076.553.111.851h.094c.065.587.118 1.234.153 1.892a12.74 12.74 0 01-1.964 1.574 16.203 16.203 0 01-6.539 2.161 19.48 19.48 0 00-7.862 2.35c-2.852 1.592-5.998 3.912-6.986 6.732-1.647 4.7-10.714 12.013-16.795 12.923l-2.164-.123-.159-.047v.041l-.529-.03h-.17v.03l-.547-.03s-.053.253-.13.7c-3.058-1.052-9.556-3.965-18.012-11.631-9.409-8.535-22.14-6.855-27.05-5.78a.839.839 0 00-.223 1.556c1.981 1.087 5.051 2.667 6.468 2.843 0 0-2.94 3.073.188 4.7a2.275 2.275 0 002.352-.23c1.518-1.11 5.734 1.405 11.844 2.715 0 0 17.241 17.822 25.803 20.56.198.388.416.767.653 1.133l.529-.041v.041h.224l.065.588s13.313-.7 17.641-5.528c.306-.274.588-.575.841-.899l-4.628 58.155h.041l-.041.552h3.405a128.18 128.18 0 01-.923 21.417v37.913s-.177 3.336 6.762 8.224a259.055 259.055 0 0121.005 16.265l.841.729c-1.276 11.601-3.946 33.224-6.174 34.029l1.376.241c-2.352 2.978-9.033 11.161-11.067 11.378-2.494.276-4.158 4.153 0 4.982a46.63 46.63 0 0024.698-2.432 3.761 3.761 0 002.352-4.006l-.806-6.11a.858.858 0 01.353.37c.553 1.663 0-2.214 0-2.214a172.91 172.91 0 005.357-22.322l8.233 7.108s.165-.206.453-.588c2.017 4.57 5.616 13.922 4.81 20.771-1.105 9.399 9.409 1.105 8.309-4.429-.894-4.476 3.105-23.45 4.663-30.546a3.153 3.153 0 00-2.117-3.677z" fill="url(#paint1_linear)"/><path d="M423.984 73.088s-7.844-1.351-19.476-11.89c-9.203-8.335-21.617-6.696-26.403-5.645a.82.82 0 00-.637.683.82.82 0 00.419.833c1.935 1.057 4.934 2.602 6.339 2.778 0 0-2.899 2.996.183 4.6a2.22 2.22 0 002.317-.223c1.481-1.081 5.598 1.374 11.566 2.65 0 0 23.264 24.048 28.674 19.971l-2.982-13.757zm40.052-32.698s2.164 9.188 0 15.673l9.738 1.351 8.656-4.323v-5.675s-4.057-8.647-2.975-18.644L464.036 40.39z" fill="#FEC3BE"/><path d="M491.61 239.527s7.057 13.781 5.951 22.968c-1.105 9.187 9.197 1.081 8.115-4.323-.876-4.371 3.029-22.91 4.552-29.806a3.079 3.079 0 00-2.046-3.589c-3.252-1.069-8.698-2.379-11.432-.376-4.04 2.966-5.14 15.126-5.14 15.126zm-26.762 15.131s-9.197 11.89-11.631 12.16c-2.435.27-4.058 4.053 0 4.864a45.534 45.534 0 0024.11-2.35 3.68 3.68 0 002.311-3.912l-1.553-11.572-13.237.81z" fill="#8B416F"/><path d="M449.699 128.475l-8.82 1.174a128.857 128.857 0 01-.106 30.975v37.008s-.171 3.26 6.604 8.001a253.452 253.452 0 0120.511 15.86l24.545 21.241s9.738-11.889 8.386-18.915c0 0-16.231-5.134-18.395-13.511-1.24-4.793-7.532-8.811-12.684-11.337a15.763 15.763 0 01-7.376-7.454 15.736 15.736 0 01-1.062-10.427 13.777 13.777 0 011.382-3.472c4.328-7.566 10.549-24.589 10.549-24.589l-11.902-22.663-11.632-1.891z" fill="red"/><path opacity=".05" d="M449.699 128.475l-8.82 1.174a128.857 128.857 0 01-.106 30.975v37.008s-.171 3.26 6.604 8.001a253.452 253.452 0 0120.511 15.86l24.545 21.241s9.738-11.889 8.386-18.915c0 0-16.231-5.134-18.395-13.511-1.24-4.793-7.532-8.811-12.684-11.337a15.763 15.763 0 01-7.376-7.454 15.736 15.736 0 01-1.062-10.427 13.777 13.777 0 011.382-3.472c4.328-7.566 10.549-24.589 10.549-24.589l-11.902-22.663-11.632-1.891z" fill="red"/><path d="M462.684 255.489s15.96 2.702 16.501 4.323c.541 1.621 0-2.162 0-2.162s9.197-27.832 7.057-52.415c-2.141-24.584 2.705-40.803 2.705-40.803s5.68-18.374 2.434-28.913c-3.246-10.538-37.329-5.944-37.329-5.944s11.902 27.832 11.631 41.072c0 0 1.353 39.992 3.787 44.585-.023-.023-3.81 39.158-6.786 40.257z" fill="red"/><path d="M464.56 47.416s1.623 9.986 17.853 5.675l-10.797 82.139s-31.378 1.081-31.107-2.702l6.468-49.714 17.583-35.398z" fill="#fff"/><path opacity=".1" d="M464.983 46.875a13.188 13.188 0 01-7.815 3.707 19.029 19.029 0 00-7.68 2.279c-2.781 1.556-5.88 3.818-6.821 6.573-1.894 5.404-13.796 14.321-19.206 12.43l1.893 16.213s15.419-.81 18.124-6.755l-4.592 57.855h4.057s2.164-15.673 3.787-18.915c1.623-3.243 4.869-21.077 5.14-25.4.27-4.324 4.328-29.184 7.844-33.483l5.293-12.836-.024-1.668z" fill="#000"/><path opacity=".1" d="M464.983 47.688a16.75 16.75 0 01-8.356 3.436 19.02 19.02 0 00-7.674 2.29c-2.782 1.557-5.881 3.82-6.822 6.574-1.893 5.404-13.795 14.322-19.205 12.43l1.893 16.213s15.419-.81 18.124-6.755l-4.599 57.819h4.058s2.164-15.672 3.787-18.915c1.623-3.242 4.869-21.076 5.14-25.4.27-4.323 4.328-29.183 7.844-33.483l5.81-12.594v-1.615z" fill="#000"/><path d="M464.983 47.147a16.75 16.75 0 01-8.356 3.436 19.029 19.029 0 00-7.68 2.28c-2.781 1.556-5.88 3.817-6.821 6.572-1.894 5.405-13.796 14.322-19.206 12.43l1.893 16.213s15.419-.81 18.124-6.755l-4.593 57.855h4.058s2.164-15.672 3.787-18.915c1.623-3.243 4.869-21.077 5.14-25.4.27-4.324 4.328-29.183 7.844-33.483l5.816-12.565-.006-1.668z" fill="#FD6F8D"/><path opacity=".1" d="M478.779 36.743c-.353-2.562.352-4.16.676-7.161l-15.419 11.62s.371 1.568.653 3.864c.778.126 1.564.189 2.352.188 5.351 0 9.203-4.176 11.738-8.511z" fill="#000"/><path d="M467.011 44.45c8.068 0 14.608-6.532 14.608-14.59 0-8.06-6.54-14.592-14.608-14.592-8.067 0-14.607 6.532-14.607 14.591s6.54 14.592 14.607 14.592z" fill="#FEC3BE"/><path opacity=".1" d="M451.07 15.555a18.444 18.444 0 011.176-7.22 1.801 1.801 0 00.306 2.35 11.559 11.559 0 013.669-6.497c-1.041.17-1.576 1.457-1.317 2.48a5.644 5.644 0 001.805 2.537c-.088-1.545.935-2.99 2.229-3.836a13.385 13.385 0 014.352-1.574 2.523 2.523 0 00-1.67 2.585.719.719 0 00.217.499.83.83 0 00.494.13c1.524.058 3.05.024 4.569-.1a48.11 48.11 0 015.628-.3c5.88.246 11.79 4.258 13.108 9.986.273 1.39.416 2.801.429 4.218l.288 7.23c.167 2.11.08 4.232-.259 6.321a13.4 13.4 0 01-6.886 9.093c-2.123-3.072-2.311-7.019-3.046-10.679a5.401 5.401 0 00-.917-2.35 2.069 2.069 0 00-2.264-.763c-.794.317-1.135 1.527-.477 2.068-.588.693-1.687.176-2.352-.44a12.616 12.616 0 01-3.663-6.539c-.265-1.257-.53-2.808-1.764-3.237a3.287 3.287 0 00-1.306-.088c-2.576.177-6.604 1.24-9.097.423-2.288-.746-3.252-4.13-3.252-6.297z" fill="#000"/><path d="M451.341 15.286a18.444 18.444 0 011.176-7.22 1.801 1.801 0 00.305 2.35 11.56 11.56 0 013.67-6.497c-1.041.17-1.576 1.457-1.317 2.479a5.637 5.637 0 001.805 2.538c-.088-1.545.935-2.99 2.229-3.836a13.38 13.38 0 014.351-1.575 2.52 2.52 0 00-1.67 2.585.724.724 0 00.218.5.841.841 0 00.494.129c1.523.058 3.049.025 4.569-.1a48.08 48.08 0 015.627-.3c5.881.247 11.791 4.259 13.108 9.986.273 1.39.417 2.802.429 4.218l.289 7.231c.167 2.11.08 4.232-.259 6.32a13.4 13.4 0 01-6.886 9.094c-2.123-3.072-2.311-7.02-3.046-10.68a5.403 5.403 0 00-.918-2.349 2.06 2.06 0 00-2.264-.764c-.794.318-1.135 1.528-.476 2.068-.588.693-1.688.176-2.352-.44a12.61 12.61 0 01-3.664-6.538c-.264-1.258-.529-2.808-1.764-3.237a3.283 3.283 0 00-1.305-.088c-2.576.176-6.604 1.24-9.098.423-2.287-.752-3.251-4.13-3.251-6.297z" fill="#784F69"/><path opacity=".1" d="M422.22 71.871s-2.164 9.986 1.894 16.213l2.299-.188-1.253-15.86-2.94-.165z" fill="#000"/><path d="M422.808 71.871s-2.164 9.986 1.893 16.213l2.3-.188-1.253-15.86-2.94-.165z" fill="#FD6F8D"/><path opacity=".1" d="M480.943 44.603L498.39 59.6s10.279 10.539 5.951 27.562c0 0-1.893 24.86-4.057 25.941 0 0-7.575 15.132-8.116 29.453 0 0-10.143-20.401-14.742-7.971s-15.289 14.186-15.289 14.186l5.951-73.522s15.019-26.075 12.855-30.645z" fill="#000"/><path d="M481.484 44.603L498.931 59.6s10.279 10.539 5.951 27.562c0 0-1.893 24.86-4.057 25.941 0 0-7.575 15.132-8.116 29.453 0 0-10.684-21.482-15.289-9.052-4.604 12.43-14.742 15.273-14.742 15.273l5.951-73.492s15.019-26.111 12.855-30.681z" fill="#FD6F8D"/><path d="M489.464 107.944s4.328-2.972 11.361 5.134l-17.312 31.345-5.816-8.77s12.308-24.196 11.767-27.709z" fill="#FEC3BE"/><path opacity=".1" d="M485.271 109.701s9.573 10.738 13.307 9.017l3.458-8.042-12.978-5.569-3.787 4.594z" fill="#000"/><path d="M485.271 109.16s9.573 10.738 13.307 9.017l3.458-8.042-12.978-5.569-3.787 4.594z" fill="#FD6F8D"/><path opacity=".1" d="M478.284 133.604s4.558 9.328 6.986 9.868l-3.528 4.053-5.139-9.727 1.681-4.194z" fill="#000"/><path d="M478.014 133.891s4.557 9.328 6.986 9.868l-3.528 4.054-5.152-9.746 1.694-4.176z" fill="red"/><path opacity=".1" d="M486.623 76.193s.541 19.456-1.623 26.752l1.623-26.752zm-43.821 3.783s3.246-1.08 3.246-3.783l-3.246 3.783z" fill="#000"/><path d="M48.626 83.232s-15.42 31.862-5.293 69.569c10.126 37.706 6.91 82.826-3.187 93.987" stroke="#535461" stroke-width="2" stroke-miterlimit="10"/><path d="M48.626 87.484a4.25 4.25 0 004.251-4.247 4.25 4.25 0 00-4.251-4.247 4.25 4.25 0 00-4.252 4.247 4.25 4.25 0 004.252 4.247z" fill="red"/><path d="M42.216 103.726s15.983 2.879 20.235-2.937M40.7 112.979s-9.615-10.627-9.086-17m8.268 36.466s8.744 2.303 16.724-14.685m-14.39 28.843s-21.758-13.986-19.106-23.009m22.505 39.017s15.242-13.511 13.649-26.804m-11.991 36.214s-19.406-5.416-18.818-13.91m20.171 25.124s12.226-11.313 13.82-18.21m-12.967 37.447S36.935 187.845 36.4 180.414m13.078 34.166s14.037-15.579 15.096-23.01" stroke="#535461" stroke-width="2" stroke-miterlimit="10"/><path d="M31.614 101.289a4.25 4.25 0 004.251-4.247 4.25 4.25 0 00-4.251-4.247 4.25 4.25 0 00-4.252 4.247 4.25 4.25 0 004.252 4.247zm-4.781 61.068a4.249 4.249 0 004.251-4.247 4.25 4.25 0 00-4.251-4.247 4.25 4.25 0 00-4.252 4.247 4.249 4.249 0 004.252 4.247zM23.11 127.84a4.25 4.25 0 004.252-4.247 4.249 4.249 0 00-4.252-4.247 4.249 4.249 0 00-4.252 4.247 4.25 4.25 0 004.252 4.247zm39.34-22.832a4.25 4.25 0 004.252-4.247 4.25 4.25 0 00-4.251-4.247 4.25 4.25 0 00-4.252 4.247 4.25 4.25 0 004.252 4.247zm0 65.314a4.249 4.249 0 004.252-4.247 4.25 4.25 0 00-4.251-4.247 4.25 4.25 0 00-4.252 4.247 4.249 4.249 0 004.252 4.247zm-6.908-48.32a4.25 4.25 0 004.251-4.247 4.249 4.249 0 00-4.251-4.247 4.249 4.249 0 00-4.252 4.247 4.25 4.25 0 004.252 4.247zm8.503 76.471a4.25 4.25 0 004.251-4.247 4.249 4.249 0 00-4.251-4.247 4.249 4.249 0 00-4.252 4.247 4.25 4.25 0 004.252 4.247zm-28.709-11.157a4.249 4.249 0 004.251-4.247 4.25 4.25 0 00-4.251-4.247 4.25 4.25 0 00-4.252 4.247 4.249 4.249 0 004.252 4.247zm24.457-47.263a4.25 4.25 0 004.251-4.247 4.249 4.249 0 00-4.251-4.247 4.249 4.249 0 00-4.252 4.247 4.25 4.25 0 004.252 4.247z" fill="red"/></g><defs><linearGradient id="paint0_linear" x1="262.335" y1="247.481" x2="262.335" y2="32.631" gradientUnits="userSpaceOnUse"><stop stop-color="gray" stop-opacity=".25"/><stop offset=".54" stop-color="gray" stop-opacity=".12"/><stop offset="1" stop-color="gray" stop-opacity=".1"/></linearGradient><linearGradient id="paint1_linear" x1="119950" y1="177242" x2="119950" y2="48200.2" gradientUnits="userSpaceOnUse"><stop stop-color="gray" stop-opacity=".25"/><stop offset=".54" stop-color="gray" stop-opacity=".12"/><stop offset="1" stop-color="gray" stop-opacity=".1"/></linearGradient><clipPath id="clip0"><path fill="#fff" d="M0 0h561v323H0z"/></clipPath></defs></svg>