<svg width="11929" height="11929" fill="none" xmlns="http://www.w3.org/2000/svg"><g clip-path="url(#clip0)"><path d="M5966.61 1.262C3580.07.914 1423.16 1423.47 483.819 3617.38l-74.342 24.65 28.822 86.47C-798.481 6778.85 671.686 10254.3 3722.04 11491c712.44 288.9 1474.02 437.2 2242.81 436.8 3293.41.5 5963.65-2668.98 5964.15-5962.39.5-3293.4-2668.96-5963.676-5962.39-5964.148zM10644.1 8971.09l-306.2-306.01v-712.81c.4-30.76-6.5-61.17-19.9-88.85l-775.2-1548.26v-748.19c0-66.44-33.17-128.51-88.45-165.38l-596.33-397.55c-46.74-31.21-104.51-41.17-159.02-27.43l-730.3 182.47-1226.64-526.36-168.76-1182.31 467.72-467.52h1004.01l337.92 507.87c30.51 45.67 78.59 76.7 132.78 85.67l1192.65 198.78c31.95 5.37 64.7 2.76 95.41-7.55l1098.41-366.15c921.3 1767.98 822.8 3894.41-258.1 5569.58zm-819.83-7011.1l-323.21 215.48-901.05-180.29-584.6-194.6c-35.78-12.15-74.29-13.7-110.91-4.38l-739.05 184.66-324-107.93 240.12-480.24h672.25c30.84.02 61.25-7.11 88.86-20.87l687.76-343.88a5586.073 5586.073 0 011293.83 932.05zM3787.66 842.677l477.06 318.043a198.62 198.62 0 0077.72 30.61l963.27 160.61-94.02 281.27-501.91 167.56a198.806 198.806 0 00-107.54 86.07l-570.88 951.34-916.95 550.21-1351.67 193.01c-97.97 13.84-170.82 97.65-170.95 196.59v596.33c0 52.72 20.97 103.26 58.24 140.53l339.31 339.31v341.5l-826.9-551.41-299.955-899.85C1433.17 2440.43 2479.15 1402.83 3787.66 842.677zM3221.75 7359.92l-898.47-179.89-333.94-666.1v-467.12l740.64-740.63 274.11 548.42c33.67 67.38 102.57 109.94 177.9 109.92h1278.92l538.49 897.47c35.92 59.81 100.58 96.38 170.35 96.41h552.59l-139.14 697.1-752.56 752.56a198.838 198.838 0 00-58.44 140.54v496.94l-715.59 536.69c-50.05 37.54-79.52 96.45-79.52 159.02v717.95l-247.27-81.9-349.05-872.99V7554.72c.02-94.47-66.47-175.91-159.02-194.8zm-597.52 3055.68C750.053 9009.56-42.538 6580.13 641.845 4339.33l165.182 495.35a198.64 198.64 0 0078.119 102.57l990.894 660.53-226.01 226.21c-37.27 37.27-58.24 87.8-58.24 140.53v596.33c-.02 30.83 7.11 61.24 20.87 88.85l397.55 795.1a198.863 198.863 0 00139.15 105.95l834.85 166.77v1824.95a198.81 198.81 0 0014.12 73.75l397.55 993.88c21.76 54.3 66.34 96.3 121.85 114.7l596.32 198.8c19.93 6.7 40.8 10.2 61.82 10.3 109.77 0 198.78-89 198.78-198.8v-894.46l715.59-536.7c50.04-37.54 79.51-96.45 79.51-159.02v-514.03l736.86-736.86a198.94 198.94 0 0054.26-101.57l198.78-993.88c21.51-107.66-48.31-212.37-155.97-233.88a197.798 197.798 0 00-38.83-3.85h-682.6l-538.48-897.48c-35.93-59.8-100.58-96.38-170.35-96.4H3304.84l-341.5-685.18c-28.6-57.2-82.96-97.15-146.1-107.34-63.11-10.91-127.54 9.92-172.34 55.66l-258.01 257.02v-315.26c0-52.73-20.97-103.27-58.24-140.54l-339.31-339.31v-341.69L3210.22 3776a199.69 199.69 0 0074.14-26.43l993.88-596.33a198.683 198.683 0 0067.98-67.98l558.56-930.86 526.55-175.72c59.46-19.51 106.13-66.14 125.63-125.63l198.78-596.32c34.43-104.24-22.14-216.67-126.38-251.11-9.61-3.18-19.48-5.61-29.46-7.302L4449.39 806.5l-202.16-134.769C5498.1 264.589 6852.9 314.979 8070.08 813.855l-363.17 181.283h-748.19c-75.71-.422-145.05 42.212-178.89 109.922l-397.55 795.1c-48.98 98.25-9.05 217.61 89.2 266.58 8.37 4.18 17.02 7.76 25.89 10.71l596.32 198.78c35.78 12.15 74.29 13.69 110.92 4.37l739.04-184.66 541.47 180.29a146.36 146.36 0 0023.85 6.36l993.88 198.77a197.383 197.383 0 00149.28-29.41l452.37-301.75c222.7 248 422.8 515.35 598 798.88l-978.02 325.99-1058.87-176.51-349.85-524.76c-36.67-54.99-98.29-88.14-164.39-88.46H6958.72c-52.72 0-103.26 20.97-140.53 58.24l-596.33 596.33c-44.27 44.25-65.12 106.79-56.25 168.76l198.78 1391.42c10.01 68.81 55.23 127.37 119.26 154.45l1391.43 596.33c39.85 17.27 84.33 20.82 126.42 10.14l709.82-177.51 433.93 289.81v688.76c-.35 30.76 6.46 61.17 19.88 88.85l775.22 1548.26v748.19c0 52.73 20.97 103.27 58.24 140.54l415.81 416.03C8570.22 11762.1 5082.41 12259.9 2624.23 10415.6z" fill="#E53B24"/></g><defs><clipPath id="clip0"><path fill="#fff" d="M0 0h11929v11929H0z"/></clipPath></defs></svg>