<svg width="17653" height="17653" fill="none" xmlns="http://www.w3.org/2000/svg"><g clip-path="url(#clip0)" fill="#E53B24"><path d="M2933.15 15685.3c-64.09-64.2-153.05-101-243.72-101-90.68 0-179.64 36.8-243.77 101-64.13 64.2-101.02 153.1-101.02 243.8 0 90.7 36.86 179.6 101.02 243.7 64.13 64.1 153.09 101.1 243.77 101.1 90.67 0 179.63-36.9 243.72-101.1 64.13-64.1 101.06-153 101.06-243.7 0-90.7-36.89-179.7-101.06-243.8zM16188.5 6307.42c-64.1-64.16-152.7-101.02-243.8-101.02-90.6 0-179.6 36.86-243.7 101.02-64.1 64.13-101.1 153.09-101.1 243.77s36.9 179.63 101.1 243.73c64.1 64.13 153.1 101.05 243.7 101.05 91.1 0 179.7-36.89 243.8-101.05 64.4-64.1 101.3-153.05 101.3-243.73 0-90.68-36.9-179.64-101.3-243.77z"/><path d="M17551.8 100.988C17487.1 36.34 17399.4 0 17307.9 0L8826.42.448c-190.39 0-344.75 154.395-344.75 344.785v985.987l-3268.18 875.72c-183.94 49.3-293.1 238.35-243.8 422.25l1693.83 6321.36-1465.3 1465.35c-186.5-272.4-499.63-451.44-853.83-451.44H1034.56C464.214 9964.46.236 10428.5.236 10998.8v5619.8c0 570.4 463.978 1034.4 1034.324 1034.4h3309.87c484.52 0 892.13-335 1003.84-785.4l409.95 357.5c316.47 276 721.94 427.9 1141.86 427.9H17308c190.4 0 344.8-154.4 344.8-344.8V344.785c-.1-91.437-36.4-179.15-101-243.797zM4689.14 16618.7c0 190.1-154.67 344.8-344.78 344.8H1034.52c-190.112 0-344.782-154.7-344.782-344.8v-5619.9c0-190.1 154.67-344.8 344.782-344.8h1310.15v3971.8c0 190.4 154.4 344.8 344.79 344.8 190.39 0 344.78-154.4 344.78-344.8V10654h1310.15c190.12 0 344.79 154.7 344.79 344.8v5619.9h-.04zM5724.98 2783.76l2756.69-738.67v1277.6l-231.07 61.93a344.654 344.654 0 00-209.35 160.63c-45.72 79.2-58.14 173.29-34.45 261.63 132.5 494.45-161.98 1004.49-656.43 1136.99-88.44 23.73-163.85 81.58-209.53 160.95-45.68 79.34-57.99 173.6-34.1 262l1343.94 4976.58h-691.99l-356.61-1395.16a344.28 344.28 0 00-57.78-120.91L5724.98 2783.76zm2756.69 2120.08v2909.34l-628.85-2328.51c262.69-135.64 477.67-338.58 628.85-580.83zM13435 16963.4H6900.01c-253.25 0-497.8-91.6-688.68-258l-832.62-726.2v-4768.6l1505.26-1505.28 273.01 1068.18c39.03 152.6 176.49 259.3 334.02 259.3l6778.6.5c266.2 0 482.7 216.5 482.7 482.7 0 266.1-216.5 482.7-482.7 482.7h-3473.3c-190.4 0-344.8 154.4-344.8 344.7 0 190.4 154.4 344.8 344.8 344.8h4552.5c266.2 0 482.7 216.6 482.7 482.7 0 266.2-216.5 482.7-482.7 482.7h-4552.5c-190.4 0-344.8 154.4-344.8 344.8s154.4 344.8 344.8 344.8h3814.8c266.1 0 482.7 216.5 482.7 482.7s-216.6 482.7-482.7 482.7h-3814.8c-190.4 0-344.8 154.4-344.8 344.8s154.4 344.8 344.8 344.8H13435c266.2 0 482.7 216.5 482.7 482.7 0 266-216.6 482.5-482.7 482.5zm3528.2 0h-2460.4c66.9-147.3 104.4-310.6 104.4-482.7 0-172-37.5-335.3-104.4-482.7h108.3c646.3 0 1172.2-525.8 1172.2-1172.2 0-188.5-45-366.7-124.4-524.7 496.3-136.3 862.1-591.2 862.1-1130.2 0-261.5-86.1-503.3-231.4-698.4V8102.69c0-190.39-154.4-344.78-344.8-344.78s-344.8 154.39-344.8 344.78v3923.41c-81-17.8-165-27.4-251.3-27.4h-11.3c66.9-147.4 104.4-310.7 104.4-482.7 0-646.4-525.8-1172.3-1172.2-1172.3h-554.3c588.6-252.4 1001.9-837.32 1001.9-1517.2 0-909.85-740.2-1650.07-1650.1-1650.07-909.8 0-1650 740.22-1650 1650.07 0 679.88 413.4 1264.8 1001.8 1517.2h-1884.7V3787.91c616-134.22 1102-620.2 1236.2-1236.15h2593.5c134.2 615.95 620.2 1101.93 1236.1 1236.15v1071.94c0 190.39 154.4 344.79 344.8 344.79s344.8-154.4 344.8-344.79V3480.09c0-190.39-154.4-344.79-344.8-344.79-511.9 0-928.3-416.46-928.3-928.33 0-190.39-154.4-344.79-344.8-344.79h-3209.1c-190.4 0-344.8 154.4-344.8 344.79 0 511.9-416.4 928.33-928.3 928.33-190.39 0-344.79 154.4-344.79 344.79v6863.61h-673.43V689.95l7791.92-.38V16963.4zm-3896-7176.4c-529.6 0-960.5-430.88-960.5-960.47s430.9-960.5 960.5-960.5 960.5 430.88 960.5 960.47-430.9 960.5-960.5 960.5z"/></g><defs><clipPath id="clip0"><path fill="#fff" d="M0 0h17653v17653H0z"/></clipPath></defs></svg>