<svg width="513" height="513" fill="none" xmlns="http://www.w3.org/2000/svg"><path d="M502.049 407.127l-56.76-37.844-50.46-33.633c-9.738-6.479-22.824-4.355-30.013 4.873l-31.224 40.139c-6.707 8.71-18.771 11.213-28.389 5.888-21.186-11.785-46.239-22.881-101.517-78.23-55.278-55.349-66.445-80.331-78.23-101.517-5.325-9.618-2.822-21.683 5.888-28.389l40.139-31.223c9.227-7.188 11.352-20.275 4.873-30.014l-32.6-48.905-38.877-58.316C98.261.03 85.015-2.95 74.785 3.185L29.95 30.083A54.779 54.779 0 005.073 62.277C-7.187 106.98-9.66 205.593 148.38 363.633s256.644 155.56 301.347 143.298a54.771 54.771 0 0032.194-24.876l26.898-44.835c6.136-10.231 3.155-23.476-6.771-30.093zM291.309 79.448c82.842.092 149.977 67.226 150.069 150.069a8.828 8.828 0 0017.656 0c-.102-92.589-75.135-167.622-167.724-167.724a8.828 8.828 0 00-8.828 8.828 8.826 8.826 0 008.827 8.827z" fill="#ED1C25"/><path d="M291.308 132.412c53.603.063 97.04 43.501 97.103 97.103a8.828 8.828 0 0017.656 0c-.073-63.349-51.409-114.686-114.759-114.759a8.828 8.828 0 000 17.656z" fill="#ED1C25"/><path d="M291.309 185.378c24.365.029 44.109 19.773 44.138 44.138a8.828 8.828 0 0017.656 0c-.039-34.111-27.682-61.754-61.793-61.793a8.828 8.828 0 00-8.828 8.828 8.826 8.826 0 008.827 8.827z" fill="#ED1C25"/></svg>