<svg height="511pt" viewBox="1 -1 512 511" width="511pt" xmlns="http://www.w3.org/2000/svg"><path d="M79.297 300.793H13.23c-7.308 0-13.23 5.922-13.23 13.23v196.399h92.527V314.023c0-7.308-5.925-13.23-13.23-13.23zm0 0" fill="#49c3e0"/><path d="M44.137 300.793H13.23c-7.308 0-13.23 5.922-13.23 13.23v196.395h30.906V314.023c0-7.308 5.922-13.23 13.23-13.23zm0 0" fill="#00a5c6"/><path d="M219.121 248.98h-66.066c-7.309 0-13.23 5.922-13.23 13.23v248.212h92.527V262.21c0-7.309-5.926-13.23-13.23-13.23zm0 0" fill="#3ac7b4"/><path d="M183.96 248.98h-30.905c-7.309 0-13.23 5.922-13.23 13.23v248.212h30.905V262.21c0-7.309 5.922-13.23 13.23-13.23zm0 0" fill="#00ad94"/><path d="M358.945 197.168H292.88c-7.305 0-13.23 5.922-13.23 13.23v300.02h92.527v-300.02c0-7.308-5.922-13.23-13.23-13.23zm0 0" fill="#ffcd38"/><path d="M323.785 197.168H292.88c-7.305 0-13.23 5.926-13.23 13.23v300.024h30.906V210.398c0-7.308 5.925-13.23 13.23-13.23zm0 0" fill="#e7b835"/><path d="M498.77 145.355h-66.067c-7.305 0-13.226 5.922-13.226 13.23v351.833H512V158.586c0-7.309-5.922-13.23-13.23-13.23zm0 0" fill="#ff8c57"/><path d="M463.61 145.355h-30.907c-7.305 0-13.23 5.922-13.23 13.23v351.837h30.906V158.586c0-7.309 5.926-13.23 13.23-13.23zm0 0" fill="#ec6a34"/><path d="M488.207 3.465L404.617.504c-6.91-.242-11.14 7.504-7.195 13.187l13.484 19.407C365.508 60.297 220.234 136.762 22.332 136.762v55.515c134.11 0 244.898-33.214 314.223-61.078 50.718-20.387 87.082-40.785 106.093-52.398l11.957 17.215c3.946 5.68 12.684 4.421 14.868-2.141l26.406-79.363c1.77-5.32-2.07-10.848-7.672-11.047zm0 0" fill="#da5b65"/></svg>