<svg width="176" height="126" fill="none" xmlns="http://www.w3.org/2000/svg"><g clip-path="url(#clip0)"><path opacity=".1" d="M88 126c48.601 0 88-4.775 88-10.664 0-5.89-39.399-10.664-88-10.664s-88 4.774-88 10.664C0 121.225 39.399 126 88 126z" fill="red"/><path d="M150.573 120.563s4.59-5.822 4.219-11.599a11.194 11.194 0 011.771-6.874 18.82 18.82 0 012.156-2.7" stroke="#535461" stroke-width="2" stroke-miterlimit="10"/><path d="M158.508 95.749c-.324.809.207 3.738.207 3.738s2.407-1.761 2.73-2.57a1.575 1.575 0 00-.883-2.047 1.584 1.584 0 00-2.054.879zm-4.22 3.511c.169.855 2.211 3.026 2.211 3.026s1.06-2.782.891-3.636a1.571 1.571 0 00-1.24-1.24 1.588 1.588 0 00-1.625.668 1.57 1.57 0 00-.237 1.183zm-2.957 7.697c.578.652 3.44 1.499 3.44 1.499s-.493-2.936-1.072-3.588a1.573 1.573 0 00-1.087-.529 1.584 1.584 0 00-1.518.882 1.56 1.56 0 00-.074 1.204c.067.196.173.377.311.532zm-.922 6.327c.46.74 3.137 2.057 3.137 2.057s.011-2.976-.448-3.717a1.57 1.57 0 00-.982-.705 1.583 1.583 0 00-1.902 1.174 1.573 1.573 0 00.195 1.191zm9.111-9.614c-.808.332-3.751-.162-3.751-.162s1.737-2.42 2.545-2.752a1.58 1.58 0 012.063 2.062 1.58 1.58 0 01-.857.852zm-1.173 7.385c-.87.076-3.531-1.274-3.531-1.274s2.385-1.791 3.255-1.867a1.597 1.597 0 011.155.362 1.579 1.579 0 01.56 1.071 1.568 1.568 0 01-.365 1.151 1.583 1.583 0 01-1.074.557zm-2.128 7.02c-.844.222-3.696-.66-3.696-.66s2.047-2.167 2.892-2.389a1.581 1.581 0 011.931 1.124 1.571 1.571 0 01-1.127 1.925z" fill="red"/><path opacity=".25" d="M158.508 95.749c-.324.809.207 3.738.207 3.738s2.407-1.761 2.73-2.57a1.575 1.575 0 00-.883-2.047 1.584 1.584 0 00-2.054.879zm-4.22 3.511c.169.855 2.211 3.026 2.211 3.026s1.06-2.782.891-3.636a1.571 1.571 0 00-1.24-1.24 1.588 1.588 0 00-1.625.668 1.57 1.57 0 00-.237 1.183zm-2.957 7.697c.578.652 3.44 1.499 3.44 1.499s-.493-2.936-1.072-3.588a1.573 1.573 0 00-1.087-.529 1.584 1.584 0 00-1.518.882 1.56 1.56 0 00-.074 1.204c.067.196.173.377.311.532zm-.922 6.327c.46.74 3.137 2.057 3.137 2.057s.011-2.976-.448-3.717a1.57 1.57 0 00-.982-.705 1.583 1.583 0 00-1.902 1.174 1.573 1.573 0 00.195 1.191zm9.111-9.614c-.808.332-3.751-.162-3.751-.162s1.737-2.42 2.545-2.752a1.58 1.58 0 012.063 2.062 1.58 1.58 0 01-.857.852zm-1.173 7.385c-.87.076-3.531-1.274-3.531-1.274s2.385-1.791 3.255-1.867a1.597 1.597 0 011.155.362 1.579 1.579 0 01.56 1.071 1.568 1.568 0 01-.365 1.151 1.583 1.583 0 01-1.074.557zm-2.128 7.02c-.844.222-3.696-.66-3.696-.66s2.047-2.167 2.892-2.389a1.581 1.581 0 011.931 1.124 1.571 1.571 0 01-1.127 1.925z" fill="#000"/><path d="M150.612 120.319s6.563-3.468 8.572-8.9a11.224 11.224 0 014.413-5.569 19.044 19.044 0 013.068-1.596" stroke="#535461" stroke-width="2" stroke-miterlimit="10"/><path d="M167.952 100.84c-.624.608-1.33 3.5-1.33 3.5s2.916-.637 3.541-1.246a1.574 1.574 0 00-1.087-2.703 1.58 1.58 0 00-1.124.449zm-5.285 1.506c-.193.849.791 3.659.791 3.659s2.101-2.115 2.293-2.964a1.572 1.572 0 00-1.194-1.885 1.577 1.577 0 00-1.192.205 1.57 1.57 0 00-.698.985zm-5.832 5.843c.263.83 2.536 2.761 2.536 2.761s.742-2.883.478-3.713a1.59 1.59 0 00-.297-.539 1.589 1.589 0 00-1.688-.488 1.595 1.595 0 00-.926.777 1.572 1.572 0 00-.103 1.202zm-3.414 5.409c.119.863 2.032 3.148 2.032 3.148s1.22-2.716 1.101-3.578a1.584 1.584 0 00-.612-1.042 1.599 1.599 0 00-1.171-.305 1.601 1.601 0 00-1.044.61 1.572 1.572 0 00-.306 1.167zm12.236-5.106c-.873-.023-3.363-1.664-3.363-1.664s2.572-1.51 3.445-1.488a1.583 1.583 0 011.54 1.617 1.584 1.584 0 01-1.622 1.535zm-4.073 6.277c-.826-.282-2.71-2.591-2.71-2.591s2.908-.674 3.734-.392a1.578 1.578 0 01.984 2.002 1.582 1.582 0 01-2.008.981zm-4.798 5.558c-.862-.139-3.11-2.097-3.11-2.097s2.752-1.154 3.614-1.015a1.58 1.58 0 011.309 1.807 1.578 1.578 0 01-1.813 1.305z" fill="red"/><path opacity=".1" d="M100.301 14.922c-8.695-.3-16.977-3.1-24.886-6.162-7.908-3.062-15.742-6.454-24.23-8.076-5.458-1.044-11.7-1.192-16.1 1.726-4.232 2.808-5.6 7.655-6.335 12.153-.553 3.384-.879 6.945.637 10.113 1.053 2.2 2.921 4.048 4.213 6.154 4.497 7.33 1.319 16.37-3.554 23.526-2.286 3.358-4.937 6.56-6.7 10.134-1.765 3.574-2.58 7.67-1.037 11.315 1.53 3.614 5.174 6.328 9.123 8.237 8.02 3.877 17.47 4.987 26.685 5.616 20.399 1.39 40.906.789 61.359.185 7.57-.223 15.172-.45 22.618-1.616 4.135-.648 8.404-1.677 11.406-4.16 3.811-3.151 4.756-8.488 2.202-12.44-4.283-6.63-16.126-8.277-19.12-15.391-1.648-3.916.044-8.278 2.439-11.91 5.138-7.791 13.749-14.626 14.203-23.532.311-6.116-3.828-12.242-10.229-15.136-6.71-3.033-16.013-2.651-20.963 2.37-5.096 5.17-14.053 7.16-21.731 6.894z" fill="red"/><path d="M85.412 110.553c3.266 0 5.913-2.802 5.913-6.257 0-3.456-2.647-6.257-5.913-6.257-3.265 0-5.912 2.801-5.912 6.257 0 3.455 2.647 6.257 5.912 6.257z" fill="#FBD56F"/><path opacity=".1" d="M85.412 110.553c3.266 0 5.913-2.802 5.913-6.257 0-3.456-2.647-6.257-5.913-6.257-3.265 0-5.912 2.801-5.912 6.257 0 3.455 2.647 6.257 5.912 6.257z" fill="#000"/><path d="M86.433 110.553c3.265 0 5.912-2.739 5.912-6.117 0-3.379-2.647-6.118-5.912-6.118s-5.913 2.739-5.913 6.118c0 3.378 2.648 6.117 5.913 6.117z" fill="#FBD56F"/><path d="M88.828 109.979l-.615-.341s-.288 1.197-.194 2.049a.422.422 0 00.32.367c1.415.351 8.158 1.843 12.795-.259a.417.417 0 00.168-.138.415.415 0 00.078-.203c.057-.524-.144-1.605-.225-1.816-.173-.454-12.328.341-12.328.341z" fill="#FBD56F"/><path opacity=".1" d="M88.828 109.979l-.615-.341s-.288 1.197-.194 2.049a.422.422 0 00.32.367c1.415.351 8.158 1.843 12.795-.259a.417.417 0 00.168-.138.415.415 0 00.078-.203c.057-.524-.144-1.605-.225-1.816-.173-.454-12.328.341-12.328.341z" fill="#000"/><path d="M94.684 111.092c3.574 0 6.472-.651 6.472-1.454 0-.803-2.898-1.454-6.472-1.454-3.574 0-6.471.651-6.471 1.454 0 .803 2.897 1.454 6.471 1.454z" fill="#FBD56F"/><path d="M91.3 107.835l-.615-.342s-.288 1.197-.194 2.05a.428.428 0 00.32.367c1.416.35 8.159 1.843 12.795-.259a.43.43 0 00.247-.341c.057-.524-.145-1.606-.225-1.817-.173-.453-12.328.342-12.328.342z" fill="#FBD56F"/><path opacity=".1" d="M91.3 107.835l-.615-.342s-.288 1.197-.194 2.05a.428.428 0 00.32.367c1.416.35 8.159 1.843 12.795-.259a.43.43 0 00.247-.341c.057-.524-.145-1.606-.225-1.817-.173-.453-12.328.342-12.328.342z" fill="#000"/><path d="M97.156 108.946c3.574 0 6.471-.651 6.471-1.455 0-.803-2.897-1.454-6.471-1.454-3.574 0-6.471.651-6.471 1.454 0 .804 2.897 1.455 6.471 1.455z" fill="#FBD56F"/><path d="M93.486 105.014l-.615-.341s-.288 1.197-.194 2.05a.422.422 0 00.32.367c1.415.35 8.158 1.842 12.795-.26a.427.427 0 00.246-.341c.057-.524-.144-1.605-.224-1.816-.173-.453-12.328.341-12.328.341z" fill="#FBD56F"/><path opacity=".1" d="M93.486 105.014l-.615-.341s-.288 1.197-.194 2.05a.422.422 0 00.32.367c1.415.35 8.158 1.842 12.795-.26a.427.427 0 00.246-.341c.057-.524-.144-1.605-.224-1.816-.173-.453-12.328.341-12.328.341z" fill="#000"/><path d="M99.343 106.125c3.574 0 6.471-.651 6.471-1.454 0-.803-2.897-1.454-6.471-1.454-3.575 0-6.472.651-6.472 1.454 0 .803 2.898 1.454 6.472 1.454z" fill="#FBD56F"/><path d="M91.066 102.077l-.615-.341s-.288 1.196-.194 2.049a.424.424 0 00.32.367c1.415.35 8.158 1.843 12.795-.259a.43.43 0 00.247-.341c.056-.524-.145-1.606-.225-1.816-.173-.454-12.328.341-12.328.341z" fill="#FBD56F"/><path opacity=".1" d="M91.066 102.077l-.615-.341s-.288 1.196-.194 2.049a.424.424 0 00.32.367c1.415.35 8.158 1.843 12.795-.259a.43.43 0 00.247-.341c.056-.524-.145-1.606-.225-1.816-.173-.454-12.328.341-12.328.341z" fill="#000"/><path d="M96.922 103.19c3.574 0 6.471-.651 6.471-1.454 0-.804-2.897-1.455-6.471-1.455-3.574 0-6.472.651-6.472 1.455 0 .803 2.898 1.454 6.472 1.454z" fill="#FBD56F"/><path d="M96.511 99.721l-.615-.341s-.287 1.197-.194 2.05a.425.425 0 00.32.367c1.415.35 8.159 1.842 12.795-.26a.421.421 0 00.247-.341c.057-.524-.145-1.605-.225-1.816-.173-.453-12.328.341-12.328.341z" fill="#FBD56F"/><path opacity=".1" d="M96.511 99.721l-.615-.341s-.287 1.197-.194 2.05a.425.425 0 00.32.367c1.415.35 8.159 1.842 12.795-.26a.421.421 0 00.247-.341c.057-.524-.145-1.605-.225-1.816-.173-.453-12.328.341-12.328.341z" fill="#000"/><path d="M102.367 100.834c3.574 0 6.471-.651 6.471-1.454 0-.803-2.897-1.454-6.471-1.454-3.574 0-6.472.65-6.472 1.454 0 .803 2.898 1.454 6.472 1.454z" fill="#FBD56F"/><path d="M92.831 98.14l-.615-.342s-.287 1.197-.193 2.05a.425.425 0 00.32.367c1.415.35 8.158 1.842 12.795-.26a.424.424 0 00.246-.34c.057-.525-.144-1.606-.225-1.817-.173-.454-12.328.341-12.328.341z" fill="#FBD56F"/><path opacity=".1" d="M92.831 98.14l-.615-.342s-.287 1.197-.193 2.05a.425.425 0 00.32.367c1.415.35 8.158 1.842 12.795-.26a.424.424 0 00.246-.34c.057-.525-.144-1.606-.225-1.817-.173-.454-12.328.341-12.328.341z" fill="#000"/><path d="M98.687 99.25c3.574 0 6.472-.65 6.472-1.454 0-.803-2.898-1.454-6.472-1.454-3.574 0-6.471.65-6.471 1.454 0 .803 2.897 1.454 6.471 1.454z" fill="#FBD56F"/><path d="M95.288 95.08l-.614-.34s-.288 1.196-.194 2.049a.425.425 0 00.32.367c1.415.35 8.158 1.843 12.795-.26a.424.424 0 00.246-.34c.057-.524-.144-1.606-.225-1.817-.173-.453-12.328.342-12.328.342z" fill="#FBD56F"/><path opacity=".1" d="M95.288 95.08l-.614-.34s-.288 1.196-.194 2.049a.425.425 0 00.32.367c1.415.35 8.158 1.843 12.795-.26a.424.424 0 00.246-.34c.057-.524-.144-1.606-.225-1.817-.173-.453-12.328.342-12.328.342z" fill="#000"/><path d="M101.144 96.194c3.574 0 6.472-.651 6.472-1.454 0-.804-2.898-1.455-6.472-1.455-3.574 0-6.471.651-6.471 1.455 0 .803 2.897 1.454 6.471 1.454z" fill="#FBD56F"/><path d="M96.5 91.454l-.616-.341s-.287 1.196-.193 2.05a.423.423 0 00.32.366c1.415.35 8.158 1.843 12.795-.26a.425.425 0 00.246-.34c.057-.524-.144-1.606-.225-1.817-.173-.453-12.328.342-12.328.342z" fill="#FBD56F"/><path opacity=".1" d="M96.5 91.454l-.616-.341s-.287 1.196-.193 2.05a.423.423 0 00.32.366c1.415.35 8.158 1.843 12.795-.26a.425.425 0 00.246-.34c.057-.524-.144-1.606-.225-1.817-.173-.453-12.328.342-12.328.342z" fill="#000"/><path d="M102.356 92.565c3.574 0 6.472-.651 6.472-1.454 0-.804-2.898-1.455-6.472-1.455-3.574 0-6.471.651-6.471 1.455 0 .803 2.897 1.454 6.471 1.454zm5.068 18.256l-.615-.341s-.287 1.196-.193 2.049a.424.424 0 00.32.367c1.415.351 8.158 1.843 12.794-.259a.422.422 0 00.247-.341c.057-.524-.145-1.606-.225-1.816-.173-.454-12.328.341-12.328.341z" fill="#FBD56F"/><path opacity=".1" d="M107.424 110.821l-.615-.341s-.287 1.196-.193 2.049a.424.424 0 00.32.367c1.415.351 8.158 1.843 12.794-.259a.422.422 0 00.247-.341c.057-.524-.145-1.606-.225-1.816-.173-.454-12.328.341-12.328.341z" fill="#000"/><path d="M113.281 111.934c3.574 0 6.471-.651 6.471-1.454 0-.803-2.897-1.455-6.471-1.455-3.574 0-6.471.652-6.471 1.455s2.897 1.454 6.471 1.454z" fill="#FBD56F"/><path d="M109.61 108.001l-.615-.342s-.288 1.197-.194 2.05a.427.427 0 00.32.367c1.415.35 8.158 1.843 12.795-.259a.43.43 0 00.247-.341c.056-.524-.145-1.606-.225-1.817-.173-.453-12.328.342-12.328.342z" fill="#FBD56F"/><path opacity=".1" d="M109.61 108.001l-.615-.342s-.288 1.197-.194 2.05a.427.427 0 00.32.367c1.415.35 8.158 1.843 12.795-.259a.43.43 0 00.247-.341c.056-.524-.145-1.606-.225-1.817-.173-.453-12.328.342-12.328.342z" fill="#000"/><path d="M115.467 109.114c3.574 0 6.471-.651 6.471-1.455 0-.803-2.897-1.454-6.471-1.454-3.575 0-6.472.651-6.472 1.454 0 .804 2.897 1.455 6.472 1.455z" fill="#FBD56F"/><path d="M107.189 105.065l-.615-.341s-.288 1.197-.194 2.049a.424.424 0 00.32.367c1.415.351 8.158 1.843 12.795-.259a.427.427 0 00.247-.341c.056-.524-.145-1.605-.225-1.816-.173-.454-12.328.341-12.328.341z" fill="#FBD56F"/><path opacity=".1" d="M107.189 105.065l-.615-.341s-.288 1.197-.194 2.049a.424.424 0 00.32.367c1.415.351 8.158 1.843 12.795-.259a.427.427 0 00.247-.341c.056-.524-.145-1.605-.225-1.816-.173-.454-12.328.341-12.328.341z" fill="#000"/><path d="M113.046 106.178c3.574 0 6.471-.651 6.471-1.454 0-.803-2.897-1.454-6.471-1.454-3.574 0-6.472.651-6.472 1.454 0 .803 2.898 1.454 6.472 1.454z" fill="#FBD56F"/><path d="M112.634 102.708l-.615-.342s-.288 1.197-.193 2.05a.42.42 0 00.32.367c1.415.35 8.158 1.843 12.794-.259a.422.422 0 00.247-.341c.057-.524-.145-1.606-.225-1.817-.173-.453-12.328.342-12.328.342z" fill="#FBD56F"/><path opacity=".1" d="M112.634 102.708l-.615-.342s-.288 1.197-.193 2.05a.42.42 0 00.32.367c1.415.35 8.158 1.843 12.794-.259a.422.422 0 00.247-.341c.057-.524-.145-1.606-.225-1.817-.173-.453-12.328.342-12.328.342z" fill="#000"/><path d="M118.491 103.823c3.574 0 6.471-.651 6.471-1.455 0-.803-2.897-1.454-6.471-1.454-3.574 0-6.471.651-6.471 1.454 0 .804 2.897 1.455 6.471 1.455z" fill="#FBD56F"/><path d="M108.955 101.126l-.615-.342s-.287 1.197-.193 2.05a.427.427 0 00.32.367c1.415.35 8.158 1.843 12.795-.259a.426.426 0 00.246-.341c.057-.524-.144-1.606-.225-1.817-.173-.453-12.328.342-12.328.342z" fill="#FBD56F"/><path opacity=".1" d="M108.955 101.126l-.615-.342s-.287 1.197-.193 2.05a.427.427 0 00.32.367c1.415.35 8.158 1.843 12.795-.259a.426.426 0 00.246-.341c.057-.524-.144-1.606-.225-1.817-.173-.453-12.328.342-12.328.342z" fill="#000"/><path d="M114.811 102.239c3.574 0 6.472-.651 6.472-1.455 0-.803-2.898-1.454-6.472-1.454-3.574 0-6.471.651-6.471 1.454 0 .804 2.897 1.455 6.471 1.455z" fill="#FBD56F"/><path d="M111.411 98.07l-.615-.342s-.287 1.197-.193 2.05a.424.424 0 00.32.366c1.415.351 8.158 1.843 12.795-.259a.424.424 0 00.246-.34c.057-.525-.144-1.607-.225-1.817-.173-.454-12.328.341-12.328.341z" fill="#FBD56F"/><path opacity=".1" d="M111.411 98.07l-.615-.342s-.287 1.197-.193 2.05a.424.424 0 00.32.366c1.415.351 8.158 1.843 12.795-.259a.424.424 0 00.246-.34c.057-.525-.144-1.607-.225-1.817-.173-.454-12.328.341-12.328.341z" fill="#000"/><path d="M117.268 99.18c3.574 0 6.472-.651 6.472-1.454 0-.803-2.898-1.454-6.472-1.454-3.574 0-6.471.65-6.471 1.454 0 .803 2.897 1.454 6.471 1.454z" fill="#FBD56F"/><path d="M112.623 94.44l-.615-.341s-.287 1.197-.193 2.05a.424.424 0 00.32.366c1.415.35 8.158 1.843 12.795-.259a.424.424 0 00.246-.34c.057-.525-.144-1.606-.225-1.817-.173-.454-12.328.341-12.328.341z" fill="#FBD56F"/><path opacity=".1" d="M112.623 94.44l-.615-.341s-.287 1.197-.193 2.05a.424.424 0 00.32.366c1.415.35 8.158 1.843 12.795-.259a.424.424 0 00.246-.34c.057-.525-.144-1.606-.225-1.817-.173-.454-12.328.341-12.328.341z" fill="#000"/><path d="M118.479 95.553c3.574 0 6.472-.65 6.472-1.454 0-.803-2.898-1.455-6.472-1.455-3.574 0-6.471.652-6.471 1.455s2.897 1.454 6.471 1.454z" fill="#FBD56F"/><path d="M151.63 119.381c-.901-.031-.933-.38-2.092-.981-.653-.339-1.646-1.325-2.386-2.118l-.172-.186.306-.006s-.289-2.532-.032-3.134c.258-.601.065-4.178.065-4.178s.16-2.721-.129-3.354c-.29-.633.096-4.685.096-4.685s.258-2.405.322-7.31c.064-4.907-2.831-5.065-2.831-5.065s-.386-.03-.972-.085l-.176-.017c.38-.792.601-1.385.601-1.385s-.483-4.59-.611-5.38c-.129-.792-.901-4.052-.901-4.052s-.547-1.393-.869-2.374c-.321-.981-1.287-2.12-1.287-2.12s-1.737-3.419-2.219-3.925a18.848 18.848 0 00-.81-.781l-.142-.13c.073-.356.111-.719.115-1.083 0 0-1.801-1.772-1.93-2.215-.129-.444-1.834-2.09-1.834-2.09s-.965-1.772-2.059-1.803a8.936 8.936 0 00-1.549.046 56.478 56.478 0 01.807-2.686 5.495 5.495 0 002.041-2.539c.011 0 .023.003.034.002a.87.87 0 00.136-.012c.36-.062.664-.467.498-.787a.118.118 0 00.105.058c.12-.004.267-.178.295-.33.005-.026.007-.053.012-.08l.014-.099c.004-.03.006-.062.009-.093l.007-.097.003-.091v-.105c-.001-.028-.001-.056-.003-.083a2.7 2.7 0 00-.009-.127l-.004-.053v.003a2.865 2.865 0 00-.104-.51c-.178-.589-.551-1.172-.407-1.77l.006-.018c.12-.463.522-.8.768-1.213.024-.04.045-.08.065-.122l.012-.022c.014-.03.027-.062.04-.094.008-.02.018-.04.025-.06.011-.028.019-.056.028-.084a1.075 1.075 0 00.043-.151l.02-.091.011-.066.014-.104.005-.057.006-.117.001-.047c0-.042-.001-.085-.004-.128l-.002-.038a2.081 2.081 0 00-.014-.136l-.002-.02v.002a2.283 2.283 0 00-.461-1.09 2.822 2.822 0 00-2.316-1 3.89 3.89 0 01-.728.014c-.404-.059-.745-.315-1.067-.562l-2.695-2.07c-.3-.26-.645-.464-1.019-.603-.38-.116-.837-.076-1.119.201-.504.497-.184 1.35-.386 2.024-.176.583-.74.978-1.325 1.175-.585.197-1.21.24-1.811.383a1.004 1.004 0 00-.485.222.933.933 0 00-.21.673 3.62 3.62 0 00.418 1.711c.114.215.251.432.372.652l.029.055a2.635 2.635 0 01.1.2l.023.053a1.598 1.598 0 01.057.145c.012.034.023.07.033.104.064.205.07.423.018.631-.093.34-.36.602-.594.868-.192.208-.329.46-.397.734l-.002.006a.599.599 0 00-.007.194l.004.023a.314.314 0 00.012.043l.012.03a.252.252 0 00.058.08.219.219 0 00.023.017.25.25 0 00.068.037.405.405 0 00.066.018l.019.004a.588.588 0 00.103.005l.031-.003a.836.836 0 00.099-.012l.036-.007c.048-.01.098-.022.152-.038a3.39 3.39 0 00.526-.208l-.002.058c0 .033 0 .068.004.101.009.62.126 1.235.347 1.816a5.486 5.486 0 001.678 2.31l-.031.165c-.155.76-.479 1.52-.679 1.462a2.741 2.741 0 00-.597-.065 7.203 7.203 0 00-.175-.003 2.383 2.383 0 00-.547 0 .598.598 0 01-.24-.033 3.27 3.27 0 00-1.607-.09c-1.113.227-2.805.643-3.269 1.14-.707.76-1.737 1.488-2.895 4.653 0 0-.579 1.93-1.03 2.184.1-.052.202-.097.306-.137a.814.814 0 01-.241.263 3.55 3.55 0 01.506-.21c-.351 2.062.169 7.96.169 7.96s-.418 1.017.129 1.619c.325.357.502.915.592 1.309l-.079.123c-.29.448-.677 1.032-.931 1.353-.451.57-.322 2.374-.322 2.374s-.096.854-.418 1.17c-.322.317-.258 1.488-.258 1.488l-.836 3.07s-.772.697-.772 1.013c0 .317-.611 1.203-.611 1.203s-.933 1.52 0 1.298c.34-.1.659-.26.942-.473l-.001.023-.003.17c-.027 1.654.154 3.983 1.378 3.983 1.898 0 6.788 2.247 6.788 2.247.997.76 2.349.506 2.349.506s-2.381 2.374-2.317 3.355c.065.981-1.351 2.595-1.351 2.595l-4.375 8.514c.024.593.13 1.181.313 1.745l-.062.054c-1.682 1.532-1.828 4.563-1.828 4.563l-.386 1.551 5.856 2.563s7.592.159 8.911-.189c1.319-.349 1.03-1.805-.708-2.089-1.737-.285-2.155-1.045-2.734-1.393-.391-.235-1.778-1.753-2.639-2.715a1.594 1.594 0 00-.038-.042l.2-1.104c.386-.19.965-2.089.965-2.089s0-.76.386-.981c.386-.222 1.19-2.501 1.19-2.501s1.737-2.88 1.641-3.26c-.097-.379 1.255-2.31 1.255-2.31s2.284-2.216 2.187-2.611c-.096-.396 1.834-2.421 1.834-2.421a6.426 6.426 0 001.708-1.962c.174-.027.361-.057.558-.09 2.526-.413 6.723-1.159 7.192-1.367.644-.284.515.981.258 2.058-.258 1.076-.451 6.235-.161 6.899.29.665.161 1.741.161 1.741l-.386 5.792.257 1.234s-.868.697-.515 1.108c.354.412.033 2.184.033 2.184.03-.011.066-.022.106-.033-.031.069-.06.141-.086.216-.499 1.417-.213 3.742-.213 3.742v1.835s8.911.159 10.874.159c1.962 0 4.665-.95 4.825-1.71.161-.759-2.252-1.392-3.152-1.424zm-25.347-32.949l-.584.049c.194-.028.389-.044.584-.049zm3.559-24.294c.082-.366.181-.76.291-1.163l-.291 1.163zm1.101 25.182c-.557.22-1.176.22-1.733.002l-.004-.002s.032-2.216.289-3.134c.258-.918.612-2.595.612-2.595s.289-2.31.579-3.355c.289-1.044 1.415-6.868 1.994-7.248.58-.38.901.285.901.285s.087-.002.232-.018c.027.061.058.126.092.194.686 1.383 2.7 4.224 2.7 4.224a4.622 4.622 0 011.48 1.455c.547.918.708 3.07.708 3.07s1.223 4.78 1.802 5.444c.289.333.16.53-.04.645a2.848 2.848 0 00-1.016.935c-.082.13-.169.274-.258.426a6.404 6.404 0 01-.584-.16c-1.577-.527-6.885-.548-7.754-.168z" fill="url(#paint0_linear)"/><path d="M138.871 120.538v1.821s8.72.157 10.64.157 4.565-.942 4.722-1.695c.158-.753-2.203-1.381-3.085-1.413-.881-.031-.913-.376-2.046-.972-.64-.337-1.611-1.314-2.335-2.101-.559-.607-.971-1.101-.971-1.101s-4.69-.094-6.044.659c-.311.174-.527.514-.673.935-.488 1.405-.208 3.71-.208 3.71z" fill="red"/><path opacity=".1" d="M139.079 116.828c.984-.341 6.741-.473 7.688-.493-.559-.607-.971-1.101-.971-1.101s-4.69-.094-6.044.659c-.312.174-.527.514-.673.935z" fill="#000"/><path d="M113.781 87.804l.509.306.191.115.74.445c3.956 2.377 14.749 8.82 15.339 8.77.155-.014.621-.083 1.263-.188.17-.027.352-.057.545-.09 2.472-.409 6.579-1.149 7.038-1.355.63-.282.504.973.252 2.04-.252 1.068-.44 6.183-.157 6.842.283.66.157 1.727.157 1.727l-.377 5.743.251 1.224s-.85.691-.503 1.099c.346.408.031 2.165.031 2.165 1.008-.376 7.839-.502 7.839-.502s-.283-2.511-.032-3.107c.252-.596.063-4.143.063-4.143s.158-2.699-.126-3.327c-.283-.627.095-4.645.095-4.645s.252-2.385.315-7.25c.063-4.864-2.771-5.021-2.771-5.021s-.377-.03-.951-.085c-1.122-.107-2.992-.313-4.241-.583a7.049 7.049 0 01-.757-.2c-1.543-.524-6.737-.545-7.587-.168a2.289 2.289 0 01-1.696.002l-.004-.002-.661-1.067-6.315.536-.669.058-6.216.528-.428.037-1.137.096z" fill="#700909"/><path opacity=".1" d="M139.092 92.62c1.834.89 3.584-2.27 4.4-4.053-1.122-.107-2.992-.312-4.241-.583-.821 1.375-1.918 3.781-.159 4.635z" fill="#000"/><path d="M133.582 71.263c.039.216.114.424.223.614.671 1.372 2.642 4.188 2.642 4.188a4.56 4.56 0 011.448 1.444c.535.91.693 3.044.693 3.044s1.196 4.74 1.763 5.398c.283.33.157.527-.039.64a2.8 2.8 0 00-.994.927c-.825 1.323-2.143 3.948-.29 4.849 2.519 1.224 4.88-5.192 4.88-5.192s-.472-4.55-.598-5.335c-.126-.785-.882-4.017-.882-4.017s-.535-1.381-.85-2.354c-.314-.973-1.259-2.103-1.259-2.103s-1.7-3.39-2.172-3.892a17.946 17.946 0 00-.793-.774c-.308-.287-.561-.513-.561-.513s-3.242 2.323-3.211 3.076z" fill="#EE8E9E"/><path d="M112.238 120.162l5.73 2.542s7.429.157 8.72-.189c1.291-.345 1.007-1.789-.693-2.071-1.7-.282-2.109-1.036-2.676-1.381-.382-.233-1.739-1.738-2.582-2.692-.405-.46-.692-.792-.692-.792s-1.101-2.919-4.155-2.259a3.133 3.133 0 00-1.486.779c-1.645 1.519-1.788 4.525-1.788 4.525l-.378 1.538z" fill="red"/><path opacity=".1" d="M114.481 88.226l.74.444c3.957 2.377 14.749 8.822 15.34 8.77.155-.013.62-.083 1.262-.187.17-.028.353-.057.546-.09l.021-.036c.317-.552.56-1.143.721-1.758.661-2.511-2.613-4.426-2.613-4.426l-.692-.536c-.787-1.322-6.454-2.57-6.454-2.57l-.73-.49-.39-.26-.103-.07-.886-.593-4.439.314-1.318.845-.139.089-.49.314-.376.24zm-.077 25.873c1.205 4.156 6.24 2.798 6.24 2.798l.094-.526c-.406-.46-.692-.792-.692-.792s-1.102-2.919-4.156-2.259a3.133 3.133 0 00-1.486.779z" fill="#000"/><path d="M113.089 95.243c1.858 0 6.643 2.228 6.643 2.228.975.753 2.298.502 2.298.502s-2.33 2.354-2.267 3.327c.063.973-1.322 2.573-1.322 2.573l-4.281 8.443c.314 5.995 6.485 4.331 6.485 4.331l.251-1.412c.378-.188.945-2.072.945-2.072s0-.753.378-.972c.377-.22 1.164-2.48 1.164-2.48s1.7-2.856 1.606-3.233c-.095-.376 1.228-2.291 1.228-2.291s2.235-2.197 2.14-2.589c-.094-.392 1.795-2.401 1.795-2.401a6.333 6.333 0 001.671-1.945c.317-.552.56-1.143.721-1.758.533-2.022-1.487-3.658-2.293-4.217-.196-.136-.32-.209-.32-.209l-.692-.536c-.358-.602-1.725-1.187-3.11-1.647a36.814 36.814 0 00-2.651-.76c-.426-.105-.693-.164-.693-.164l-.73-.489-.257-.172-.235-.157-.887-.594-1.975.14-2.464.174-1.318.845-.628.403-2.461 1.576s-.065.604-.086 1.415l-.003.191c-.026 1.64.151 3.95 1.348 3.95z" fill="#700909"/><path d="M122.564 60.09l.662 2.354s1.164 4.05 1.29 4.331c.126.283 3.18 3.14 3.306 3.202.126.063 1.788 1.004 1.788 1.004s.132-5.178.006-6.685a4.3 4.3 0 01.082-.987c.201-1.18.709-2.912 1.13-4.245a78.18 78.18 0 01.645-1.955s-7.366-.314-7.114.408c.095.273.064.73-.028 1.187-.152.752-.469 1.508-.665 1.45a2.634 2.634 0 00-.583-.065c-.272-.008-.519.002-.519.002z" fill="#EE8E9E"/><path opacity=".1" d="M124.331 58.704a5.457 5.457 0 006.497.36 78.18 78.18 0 01.645-1.955s-7.366-.314-7.114.408c.095.273.064.73-.028 1.187z" fill="#000"/><path d="M133.268 54.35a5.393 5.393 0 01-.43 2.11 5.43 5.43 0 01-2.054 2.444 5.46 5.46 0 01-6.114-.127 5.436 5.436 0 01-1.951-2.527 5.35 5.35 0 01-.34-1.8c-.003-.033-.003-.068-.003-.1 0-1.44.574-2.822 1.595-3.84a5.455 5.455 0 017.702 0 5.423 5.423 0 011.595 3.84z" fill="#EE8E9E"/><path opacity=".1" d="M122.564 60.091l.662 2.354s1.164 4.049 1.29 4.331c.126.282 3.18 3.139 3.306 3.201.126.063 1.788 1.005 1.788 1.005s.132-5.179.006-6.685a4.3 4.3 0 01.082-.987l-.428 1.74.031 3.484.252.188-.567.847v-.627s-2.014-1.946-2.329-2.762c-.315-.816-1.448-2.294-1.448-2.294s-1.291-2.163-1.322-2.54c-.025-.293-.567-.972-.804-1.257-.272-.008-.519.002-.519.002zm11.018 11.172c.039.216.114.424.223.614.688-.07 3.033-.506 3.549-3.177-.308-.287-.561-.513-.561-.513s-3.242 2.323-3.211 3.076zm-21.842 20.03c.636-.448 1.24-1.06 1.601-1.229.535-.251 1.353-1.067 1.353-1.067s.208-.14.527-.327c.584-.342 1.542-.836 2.275-.897a376.04 376.04 0 014.559-.3c1.242-.079 2.241-.14 2.241-.14s2.046-.721 2.928-.25a9.248 9.248 0 001.983.721l.004-.186-.004-.002-.661-1.067-6.984.594-.886-.594-4.439.314-1.318.845-1.138.096.509.307-2.46 1.576s-.076.701-.09 1.606z" fill="#000"/><path d="M110.823 91.57c.333-.098.645-.257.921-.468.635-.448 1.237-1.058 1.597-1.226.535-.252 1.354-1.068 1.354-1.068s1.668-1.13 2.802-1.224a528.468 528.468 0 014.301-.284c.487-.03.946-.06 1.334-.083l1.164-.072s2.047-.722 2.928-.251a9.273 9.273 0 001.983.722s.032-2.197.284-3.107c.252-.91.598-2.574.598-2.574s.283-2.29.566-3.327c.284-1.035 1.386-6.81 1.952-7.187.567-.377.882.283.882.283s3.777-.063 3.84-4.206c0 0-1.763-1.758-1.888-2.197-.126-.44-1.795-2.071-1.795-2.071s-.944-1.758-2.015-1.79a8.64 8.64 0 00-1.516.047l-.908 3.688.032 3.484.252.189-.567.847v-.628s-2.015-1.946-2.33-2.762c-.314-.816-1.448-2.293-1.448-2.293s-1.29-2.163-1.322-2.54c-.031-.377-.913-1.386-.913-1.386a2.301 2.301 0 00-.535 0 .573.573 0 01-.234-.033 3.163 3.163 0 00-1.573-.089c-1.088.226-2.744.638-3.198 1.131-.693.754-1.7 1.476-2.834 4.614l6.108 2.197-.523.99-4.86 9.21s-.162.262-.38.604c-.283.444-.662 1.023-.911 1.342-.441.565-.315 2.354-.315 2.354s-.094.847-.409 1.161c-.315.314-.252 1.475-.252 1.475l-.819 3.045s-.755.69-.755 1.004c0 .314-.598 1.193-.598 1.193s-.913 1.506 0 1.286z" fill="#A81616"/><path opacity=".1" d="M143.058 93.83s-1.983.66-2.518 1.6c-.536.942 2.518-1.6 2.518-1.6zm-1.007-2.072c-.063.094-2.717 2.748-2.55 3.39.166.64 2.55-3.39 2.55-3.39zm-14.575 1.885s-2.959 1.39-3.211 1.998c-.252.607 3.211-1.998 3.211-1.998zm-.189 1.787s-2.67 1.13-3.035 1.412c-.365.282 3.035-1.412 3.035-1.412zm-1.228 2.416s-1.183.88-1.835.189c-.652-.69 1.835-.189 1.835-.189zm4.439-22.91c-.064.094-3.999 7.155-5.038 7.689-1.039.533 5.038-7.69 5.038-7.69zm-.19 2.667c0 .157-3.84 8.349-4.47 8.443-.63.094 4.47-8.443 4.47-8.443zm-14.607 5.274s-1.855 3.949-2.581 4.174c-.727.225 2.581-4.174 2.581-4.174zm-.314-1.757s-.64 1.38-1.029 1.38c-.388 0 1.029-1.38 1.029-1.38zm17.881-26.77a5.393 5.393 0 01-.43 2.11 1.602 1.602 0 01-.763-.334 1.89 1.89 0 01-.572-.609 7.656 7.656 0 01-.278-.792 1.854 1.854 0 00-1.494-1.129c.181.308-.107.73-.461.785-.355.053-.699-.157-.943-.42-.244-.261-.421-.58-.663-.842-.244-.262-.589-.472-.943-.419-.313.047-.556.286-.819.463-.261.177-.628.297-.881.107-.142-.105-.211-.284-.347-.399-.348-.29-.889.01-1.146.385-.395.58-.636.932-1.149 1.194-.003-.033-.003-.068-.003-.1 0-1.44.574-2.822 1.595-3.84a5.455 5.455 0 017.702 0 5.423 5.423 0 011.595 3.84z" fill="#000"/><path d="M123.529 53.098c.257-.375.798-.675 1.147-.383.135.113.204.292.345.398.253.19.621.07.882-.107.262-.178.505-.416.818-.463.355-.054.7.157.943.419s.42.58.663.843c.244.262.589.472.943.418.354-.054.643-.477.461-.784a1.857 1.857 0 011.494 1.128c.078.27.171.534.279.793.142.243.338.45.572.608.289.211.639.39.992.328.352-.061.651-.464.487-.782.113.17.355-.067.392-.268a2.869 2.869 0 00-.073-1.325c-.174-.583-.539-1.162-.398-1.754.111-.469.513-.806.757-1.221.432-.738.318-1.731-.208-2.405a2.744 2.744 0 00-2.266-.99 3.768 3.768 0 01-.713.013c-.395-.059-.729-.313-1.044-.558l-2.637-2.052a3.254 3.254 0 00-.997-.599c-.373-.115-.819-.075-1.095.2-.494.492-.18 1.34-.378 2.007-.172.578-.724.97-1.297 1.165-.572.195-1.184.238-1.772.38a.973.973 0 00-.474.22.932.932 0 00-.206.667c-.004.59.137 1.173.409 1.697.306.586.79 1.188.618 1.825-.09.337-.351.597-.581.86-.498.572-.666 1.416.271 1.121.903-.284 1.157-.652 1.666-1.399z" fill="red"/><path opacity=".1" d="M133.947 54.626c-.037.2-.279.439-.392.268.164.317-.134.72-.487.782-.353.06-.703-.117-.992-.328a1.874 1.874 0 01-.572-.609 7.43 7.43 0 01-.279-.792 1.852 1.852 0 00-1.494-1.128c.182.307-.106.73-.461.784-.354.054-.699-.156-.943-.419-.243-.262-.419-.58-.663-.842-.243-.263-.588-.473-.943-.42-.313.048-.556.286-.817.464-.262.177-.629.297-.883.107-.141-.106-.21-.285-.345-.399-.349-.292-.89.009-1.146.384-.51.747-.763 1.115-1.667 1.4-.296.093-.482.071-.581-.019-.199.454-.108.854.581.637.904-.284 1.157-.652 1.667-1.4.256-.375.797-.675 1.146-.383.135.113.204.292.345.398.254.19.621.071.883-.107.261-.178.504-.415.817-.463.355-.053.7.157.943.42.244.262.42.58.663.842.244.262.589.473.943.419.354-.054.643-.477.461-.785a1.856 1.856 0 011.494 1.129c.078.269.171.533.279.792.142.243.338.451.572.609.289.21.639.389.992.328.352-.062.651-.465.487-.782.113.17.355-.067.392-.269a2.86 2.86 0 00.028-.82 2.747 2.747 0 01-.028.202zm-11.782-2.706l.008-.024c.171-.637-.313-1.239-.618-1.824a3.627 3.627 0 01-.391-1.326 1.703 1.703 0 00-.018.247 3.62 3.62 0 00.409 1.697c.209.4.501.809.61 1.23zm12.068-1.595c-.244.416-.646.753-.758 1.222-.043.198-.041.404.006.601.117-.46.511-.793.752-1.204a2.06 2.06 0 00.242-1.325 1.949 1.949 0 01-.242.706zM114.881 78.71c.042.174.074.35.096.526 0 0 2.487 5.806 2.802 6.151.097.107.462.629.921 1.301l.527.776a548.012 548.012 0 012.015 3.008l2.329 2.04s5.068.404 6.679-1.235a5.698 5.698 0 00-.32-.209l-.692-.537c-.358-.6-1.725-1.186-3.11-1.647a28.68 28.68 0 00-2.319.113l-.331-.871-.347-.91-1.761-4.622s-1.136-5.837-1.513-6.12c-.378-.282-.284-1.161-.284-1.161s.693-2.48.441-2.825c-.252-.345.409-2.887.409-2.887a2.593 2.593 0 00-.302-.704l-4.86 9.21s-.162.26-.38.603z" fill="#000"/><path d="M120.487 69.41s-.661 2.543-.41 2.888c.252.346-.44 2.825-.44 2.825s-.095.879.283 1.161c.378.283 1.513 6.12 1.513 6.12l2.44 6.403s7.632-.753 6.845 1.632c-.787 2.385-7.083 1.883-7.083 1.883l-2.33-2.04s-3.148-4.74-3.463-5.084c-.315-.346-2.802-6.152-2.802-6.152s-.125-1.161-.661-1.757c-.535-.597-.126-1.605-.126-1.605s-.661-7.591.032-8.501c.693-.91 5.478-.503 6.202 2.228z" fill="#EE8E9E"/><path opacity=".1" d="M116.582 64.641l-1.983 1.193s-.566 1.914-1.007 2.165c0 0 3.966-2.197 6.957 2.857 0 0-.094-.66.315-.973.409-.314.315-1.664.315-1.664a5.6 5.6 0 00.283-.659c.283-.69-1.196-4.645-4.88-2.919z" fill="#000"/><path d="M116.52 64.516l-1.983 1.193s-.567 1.914-1.008 2.165c0 0 3.967-2.197 6.958 2.857 0 0-.095-.66.314-.973.41-.314.315-1.664.315-1.664a5.29 5.29 0 00.283-.659c.284-.69-1.196-4.645-4.879-2.919z" fill="red"/><path d="M98.843 119.48c3.265 0 5.912-2.801 5.912-6.256 0-3.456-2.647-6.257-5.912-6.257s-5.912 2.801-5.912 6.257c0 3.455 2.647 6.256 5.912 6.256z" fill="#FBD56F"/><path opacity=".1" d="M98.843 119.48c3.265 0 5.912-2.801 5.912-6.256 0-3.456-2.647-6.257-5.912-6.257s-5.912 2.801-5.912 6.257c0 3.455 2.647 6.256 5.912 6.256z" fill="#000"/><path d="M99.864 119.481c3.265 0 5.912-2.739 5.912-6.118 0-3.378-2.647-6.117-5.912-6.117-3.266 0-5.913 2.739-5.913 6.117 0 3.379 2.647 6.118 5.913 6.118z" fill="#FBD56F"/><path d="M14.19 116.663c4.034 0 7.303-.551 7.303-1.231s-3.27-1.231-7.302-1.231c-4.033 0-7.302.551-7.302 1.231s3.269 1.231 7.302 1.231z" fill="red"/><path d="M17.21 113.416c.313-.289.606-.631.696-1.047.09-.416-.087-.915-.486-1.067-.447-.17-.924.138-1.286.45s-.777.668-1.25.602a1.899 1.899 0 00.588-1.777.74.74 0 00-.164-.36c-.248-.265-.697-.151-.995.057-.944.662-1.207 1.941-1.213 3.092-.095-.415-.015-.847-.017-1.273-.002-.426-.12-.899-.48-1.127a1.447 1.447 0 00-.732-.172c-.424-.015-.897.027-1.187.337-.36.384-.267 1.03.047 1.453.313.423.79.689 1.229.981.352.209.652.495.878.835a.844.844 0 01.065.15h2.661a7.428 7.428 0 001.646-1.134zm63.017-6.012c.325.444.591.929.791 1.441.053.133.105.272.154.418.787 2.344-.46 5.155-.816 4.852-.357-.304-1.467-.866-1.682-.076-.215.791-1.008 1.599-1.008 1.599-1.445 1.449-2.753-.117-3.612-1.734a15.81 15.81 0 01-.747-1.646c-.19-.497-.3-.84-.3-.84l6.02-5.113s.581.266 1.2 1.099zm-9.487 3.272c.325.444.59.928.79 1.441.054.132.105.271.154.417.787 2.344-.46 5.155-.816 4.852-.356-.303-1.467-.866-1.681-.075-.215.79-1.008 1.598-1.008 1.598-1.445 1.45-2.754-.116-3.612-1.734-.28-.534-.53-1.083-.747-1.646-.191-.496-.3-.84-.3-.84l6.019-5.113s.582.267 1.2 1.1zm-19.05 4.516a6.334 6.334 0 01-.313 1.613 7.932 7.932 0 01-.149.42c-.895 2.305-3.654 3.676-3.734 3.216-.08-.461-.575-1.6-1.246-1.128-.672.472-1.8.589-1.8.589-2.04.196-2.045-1.842-1.67-3.633.126-.59.285-1.171.478-1.743.171-.503.307-.837.307-.837l7.907-.107s.278.575.22 1.61zm-10.215-2.568a6.33 6.33 0 01-.313 1.613 7.598 7.598 0 01-.15.419c-.894 2.305-3.653 3.676-3.734 3.216-.08-.46-.575-1.6-1.246-1.128-.671.472-1.8.59-1.8.59-2.04.196-2.044-1.842-1.67-3.634a15.65 15.65 0 01.478-1.742c.172-.504.307-.838.307-.838l7.907-.106s.278.575.22 1.61z" fill="red"/><path opacity=".2" d="M80.227 107.404c.325.444.591.929.791 1.441.053.133.105.272.154.418.787 2.344-.46 5.155-.816 4.852-.357-.304-1.467-.866-1.682-.076-.215.791-1.008 1.599-1.008 1.599-1.445 1.449-2.753-.117-3.612-1.734a15.81 15.81 0 01-.747-1.646c-.19-.497-.3-.84-.3-.84l6.02-5.113s.581.266 1.2 1.099zm-9.487 3.272c.325.444.59.928.79 1.441.054.132.105.271.154.417.787 2.344-.46 5.155-.816 4.852-.356-.303-1.467-.866-1.681-.075-.215.79-1.008 1.598-1.008 1.598-1.445 1.45-2.754-.116-3.612-1.734-.28-.534-.53-1.083-.747-1.646-.191-.496-.3-.84-.3-.84l6.019-5.113s.582.267 1.2 1.1zm-19.05 4.516a6.334 6.334 0 01-.313 1.613 7.932 7.932 0 01-.149.42c-.895 2.305-3.654 3.676-3.734 3.216-.08-.461-.575-1.6-1.246-1.128-.672.472-1.8.589-1.8.589-2.04.196-2.045-1.842-1.67-3.633.126-.59.285-1.171.478-1.743.171-.503.307-.837.307-.837l7.907-.107s.278.575.22 1.61zm-10.215-2.568a6.33 6.33 0 01-.313 1.613 7.598 7.598 0 01-.15.419c-.894 2.305-3.653 3.676-3.734 3.216-.08-.46-.575-1.6-1.246-1.128-.671.472-1.8.59-1.8.59-2.04.196-2.044-1.842-1.67-3.634a15.65 15.65 0 01.478-1.742c.172-.504.307-.838.307-.838l7.907-.106s.278.575.22 1.61z" fill="#000"/><path d="M96.284 78.074c0 21.056-7.145 38.125-40.115 38.125-22.155 0-39.295-5.488-40.115-38.125-.529-21.05 17.96-38.125 40.115-38.125s40.115 17.07 40.115 38.125z" fill="red"/><path opacity=".2" d="M48.643 40.613h.004a.009.009 0 01-.003.001h-.001zm.078-.011c.102-.017.304-.045.596-.067l-.652.077a.52.52 0 01.035-.007l.021-.003zM78.363 56.18l-2.928 1.051a65.253 65.253 0 00-4.81-5.717 46.947 46.947 0 00-6.092-5.44c-7.497-5.54-13.296-5.68-15.21-5.538l4.4-.517a35.85 35.85 0 0111.817 4.26 39.033 39.033 0 017.102 5.23c3.832 3.545 5.721 6.671 5.721 6.671z" fill="#000"/><path opacity=".2" d="M51.894 58.166s-3.865-12.844-.586-16.348c0 0 5.154-1.751 9.019 8.174l-8.433 8.174z" fill="#000"/><path d="M71.465 46.168s10.25-8.684 14.784-7.095c0 0 3.677 4.003-3.89 11.516l-10.894-4.421z" fill="red"/><path opacity=".2" d="M71.465 46.168s10.25-8.684 14.784-7.095c0 0 3.677 4.003-3.89 11.516l-10.894-4.421z" fill="#000"/><path d="M103.428 87.766c0 11.318-8.146 20.26-15.811 20.26-7.666 0-11.947-8.942-11.947-20.26 0-11.318 6.227-20.05 13.88-20.493 12.121-.7 13.878 9.175 13.878 20.493z" fill="#DC2020"/><path opacity=".2" d="M103.428 87.766c0 11.318-8.146 20.26-15.811 20.26-7.666 0-11.947-8.942-11.947-20.26 0-11.318 6.227-20.05 13.88-20.493 12.121-.7 13.878 9.175 13.878 20.493z" fill="#000"/><path d="M87.147 92.728c1.423 0 2.577-1.463 2.577-3.269s-1.154-3.27-2.577-3.27-2.577 1.464-2.577 3.27 1.154 3.27 2.577 3.27zm9.136-2.802c1.423 0 2.576-1.464 2.576-3.27s-1.153-3.27-2.576-3.27-2.577 1.465-2.577 3.27c0 1.806 1.154 3.27 2.577 3.27z" fill="#FB7979"/><path d="M73.142 47.4a4.65 4.65 0 01-.5 2.108 4.488 4.488 0 01-2.017 2.006 46.933 46.933 0 00-6.092-5.44 4.572 4.572 0 011.007-1.796 4.317 4.317 0 013.203-1.43c2.429 0 4.399 2.037 4.399 4.551z" fill="#FAD46F"/></g><defs><linearGradient id="paint0_linear" x1="132.396" y1="122.74" x2="132.396" y2="43.633" gradientUnits="userSpaceOnUse"><stop stop-color="gray" stop-opacity=".25"/><stop offset=".535" stop-color="gray" stop-opacity=".12"/><stop offset="1" stop-color="gray" stop-opacity=".1"/></linearGradient><clipPath id="clip0"><path fill="#fff" d="M0 0h176v126H0z"/></clipPath></defs></svg>