<svg width="7669" height="7669" fill="none" xmlns="http://www.w3.org/2000/svg"><g clip-path="url(#clip0)" fill="#262d36"><path d="M7508.61 3819.1h-417.68V2596.25c-.25-87.66-71.22-158.56-158.81-158.81h-646.35V1397.23c-.38-306.9-249.02-555.534-555.84-555.845H3641.56l-398.64-400.254c-97.52-98.451-233.13-149.506-371.35-139.766-138.28 9.801-265.39 79.405-348.08 190.635l-258.82 349.385H952.868C426.806 841.758.434 1268.13 0 1794.25v4621.41c.434 526.07 426.806 952.44 952.868 952.87H6941.67c87.59-.31 158.56-71.21 158.81-158.81V5939.23h409.68c87.66-.31 158.57-71.22 158.82-158.81V3977.91c-1-87.97-72.46-158.69-160.37-158.81zM5729.93 1159.01c63.21-.13 123.82 24.94 168.55 69.66 44.66 44.67 69.72 105.34 69.66 168.56v1040.21h-736.92L3959.18 1159.01h1770.75zM2777.59 682.574c27.6-37.035 69.91-60.175 115.94-63.525 46.03-3.349 91.25 13.4 123.89 46.031l1764.41 1772.36h-3306.5L2777.59 682.574zM317.623 1794.25c-.124-350.93 284.371-635.37 635.245-635.24H2029.62l-949.7 1278.43H952.868c-350.874.06-635.369-284.37-635.245-635.25v-7.94zM6781.24 7050.91H952.868c-350.874.06-635.369-284.37-635.245-635.25V2512.07c174.444 156.76 400.75 243.3 635.245 242.99H5131.22c26.05 6.33 53.29 6.33 79.41 0h1564.29V3819.1h-898.9c-438.47.12-793.87 355.52-794.06 794.06v533.56c.19 438.47 355.59 793.94 794.06 794.06h906.84v1110.13h-1.62zm568.56-1427.75H5874.41c-262.79-.75-475.63-213.59-476.44-476.44v-533.56c.81-262.85 213.65-475.69 476.44-476.44h1008.45a157.261 157.261 0 0098.51 0h368.43v1486.44z"/><path d="M6033.22 4454.27c-87.6.25-158.57 71.16-158.81 158.82v533.57c0 87.71 71.15 158.81 158.81 158.81 87.72 0 158.81-71.1 158.81-158.81v-533.57c.18-42.19-16.5-82.7-46.34-112.47-29.78-29.84-70.29-46.53-112.47-46.35z"/></g><defs><clipPath id="clip0"><path fill="#fff" d="M0 0h7669v7669H0z"/></clipPath></defs></svg>