<svg width="123" height="91" fill="none" xmlns="http://www.w3.org/2000/svg"><g clip-path="url(#clip0)"><path d="M123 89.97H0V91h123v-1.03z" fill="#85848B"/><path d="M97.448 71.81c0 .791-4.03 3.098-8.817 3.098-4.788 0-8.518-2.306-8.518-3.098 0-.79 3.88-.536 8.672-.536 4.792 0 8.663-.256 8.663.536z" fill="#504F60"/><path opacity=".2" d="M97.448 71.81c0 .792-4.03 3.098-8.817 3.098-4.788 0-8.518-2.306-8.518-3.097" fill="#000"/><path d="M49.237 57.294c.777.114 1.584.186 2.328-.09.117-.042.246-.134.234-.269a.348.348 0 00-.053-.134 8.763 8.763 0 01-.703-1.532.135.135 0 00-.043-.07.097.097 0 00-.075 0c-.343.103-.64.357-.981.465-.174.055-.355.07-.534.046-.155-.02-.366-.166-.507-.148.08.586.275 1.134.334 1.732zm14.694-1.487c.512-.402 1.043-.825 1.346-1.446a.277.277 0 00.036-.124.28.28 0 00-.043-.121 4.792 4.792 0 00-1.094-1.35c-.227.183-.431.4-.61.643-.128.156-.484.403-.488.64 0 .134.136.29.2.402.085.145.166.293.243.443.045.074.451.884.41.913z" fill="#6C63FF"/><path d="M52.283 59.087a.662.662 0 01-.094.39.453.453 0 01-.197.133c-1.086.445-2.343-.11-3.427.329-.223.09-.434.22-.658.306a3.173 3.173 0 01-.82.166 15.1 15.1 0 01-1.153.08 2.438 2.438 0 01-.87-.087 1 1 0 01-.39-.221 1.174 1.174 0 01-.277-.384.657.657 0 01-.032-.43.48.48 0 01.071-.134c.074-.095.16-.175.255-.238l.4-.295c.188-.151.391-.275.606-.367.158-.06.326-.085.486-.134.562-.188.99-.697 1.39-1.187l.543-.664a.57.57 0 01.188-.173.46.46 0 01.235-.025 2.878 2.878 0 011.482.568c.114.098.236.18.366.247.319.142.728.035 1.022-.145.14-.086.109-.134.167-.287.059-.153.202-.25.326-.111a.417.417 0 01.078.169c.117.442.072.918.072 1.382a.691.691 0 00.024.215c.03.07.065.136.106.199a.483.483 0 01.023.05c.071.206.098.428.078.648z" fill="#514E7F"/><path d="M52.283 59.087a.662.662 0 01-.094.39.454.454 0 01-.197.133c-1.086.446-2.343-.11-3.427.329-.223.09-.434.22-.658.306a3.173 3.173 0 01-.82.166 15.1 15.1 0 01-1.153.08 2.436 2.436 0 01-.87-.087 1 1 0 01-.39-.221 1.174 1.174 0 01-.277-.384.657.657 0 01-.032-.43.48.48 0 01.071-.134c.063.151.11.352.149.425a.84.84 0 00.215.273.715.715 0 00.294.147c.158.01.317-.012.468-.069.985-.279 2.031-.283 2.977-.705.325-.146.634-.34.975-.43.34-.088.703-.064 1.055-.097.555-.051 1.093-.243 1.64-.344.07.208.096.431.074.652z" fill="#464353"/><path d="M66.419 55.725c-.051.472-.313.879-.6 1.223-.287.345-.612.655-.84 1.052-.281.492-.408 1.102-.774 1.518-.14.15-.298.28-.468.382a3.117 3.117 0 01-.604.318c-.546.2-1.134.154-1.705.106a1.367 1.367 0 01-.541-.12 1.61 1.61 0 01-.226-.158 1.164 1.164 0 01-.351-.402.454.454 0 01-.034-.293.702.702 0 01.163-.284c.128-.153.266-.295.412-.425.201-.148.382-.329.537-.536a1.88 1.88 0 00.208-.537 5.39 5.39 0 00.15-1.026c0-.23.02-.46.063-.686.087-.354.316-.67.29-1.037a.295.295 0 01.012-.157.19.19 0 01.108-.076 1.71 1.71 0 01.56-.15.578.578 0 01.283.05c.09.041.171.104.237.184.08.11.133.269.25.311a.337.337 0 00.178.008c.289-.033.593-.075.82-.288.106-.108.19-.24.249-.386.058-.147.09-.307.091-.468 0-.122-.048-.25.117-.268.125-.02.223.134.286.228.229.35.463.716.549 1.142a.262.262 0 01.104-.023c.073 0 .145.02.21.057a.478.478 0 01.164.162c.093.173.13.379.102.58z" fill="#514E7F"/><path d="M66.42 55.726c-.052.472-.313.879-.6 1.223-.287.345-.612.655-.84 1.052-.282.492-.408 1.102-.774 1.518-.14.15-.298.28-.469.382a3.1 3.1 0 01-.603.318c-.547.2-1.135.154-1.706.106a1.365 1.365 0 01-.54-.12 1.617 1.617 0 01-.226-.158 1.165 1.165 0 01-.352-.402.77.77 0 01.352-.097c.253.016.438.29.681.374.346.12.69-.16 1.04-.255.23-.061.47-.045.696-.134.188-.083.362-.204.514-.356a2.82 2.82 0 00.55-.606c.13-.232.237-.479.322-.737.185-.494.403-.97.651-1.427.037-.072.082-.138.133-.198.055-.058.117-.098.18-.149.234-.202.33-.536.413-.864.022-.099.053-.195.093-.288.073 0 .145.019.21.057a.478.478 0 01.163.162.96.96 0 01.112.6z" fill="#464353"/><path d="M41.846 13.915c.292.25.532.57.703.939.164.367 1.11 3.218 1.055 3.633.308-.356 1.523-.413 1.835-.769.13-.148.832-.891.937-1.064.106-.173.889-.537.974-.72.32-.655-2.269-3.14-1.937-3.788a.186.186 0 00.027-.102.171.171 0 00-.043-.079c-.212-.248-.494-.402-.75-.586-.255-.183-.5-.44-.57-.777a2.472 2.472 0 00-.662.512c-.475.466-.942.94-1.4 1.425-.18.19-.527.444-.61.716-.098.293.27.5.44.66z" fill="#A1616A"/><path d="M46.037 12.861a7.939 7.939 0 00-1.109 1.038c-.32.364-.625.785-.703 1.293-.033.2-.028.402-.055.605-.117.878-.78 1.522-1.073 2.344a4.537 4.537 0 00-.187.784 10.563 10.563 0 00-.134 1.54c-.008.5.421.845.578 1.311.157.467.2.947.28 1.426.15.904.425 1.775.702 2.642.578 1.826 2.45 6.875 3.029 8.703 1.77-.508 6.484-1.676 8.052-2.748.522-.357-3.627-4.38-3.068-4.659a.194.194 0 00.088-.04.23.23 0 00.064-.083.263.263 0 00.005-.213c-.56-2.797-2.308-5.096-3.101-7.82-.276-.945-.77-1.752-1.145-2.65-.34-.815-.521-1.715-.928-2.488a1.552 1.552 0 00-.297-.423 1.72 1.72 0 00-.327-.226c-.232-.13-.447-.206-.671-.336z" fill="#514E7F"/><path d="M41.94 13.597c1.531 0 2.772-1.42 2.772-3.172 0-1.751-1.24-3.171-2.772-3.171-1.53 0-2.771 1.42-2.771 3.171 0 1.752 1.24 3.172 2.772 3.172z" fill="#A1616A"/><path d="M44.76 11.916a.886.886 0 01.497-.27.828.828 0 01.545.099c.187.111.351.336.309.573l1.375.024c.218-.007.437.016.651.068a.941.941 0 01.544.39c.016.026.035.056.063.06a.093.093 0 00.063-.024c.212-.12.45-.168.685-.134.743.055 1.43.48 2.012 1.011a.734.734 0 01.234.334c.048.179-.009.403.118.53 0 1.475.443 2.854.738 4.291.053.257.267.483.416.684.184.223.334.48.444.76.25.745-.095 1.622.149 2.37.103.317.302.577.469.852.219.317.358.698.4 1.1.011.179-.009.36 0 .536.016.241.056.48.118.712.1.432.204.865.314 1.297.178.697.41 1.45.956 1.82-1.318.257-2.708.508-3.965-.017a1.967 1.967 0 01-.494-.283c-.454-.37-.673-1.003-.869-1.6-.217-.671-.439-1.354-.483-2.067a2.69 2.69 0 00-.084-.67c-.127-.39-.468-.624-.778-.84a3.856 3.856 0 01-.937-.834 1.729 1.729 0 01-.304-.582 1.89 1.89 0 01-.076-.671c.023-.221.1-.434.107-.657.007-.223-.08-.477-.266-.537-.96-.332-1.418-1.633-1.632-2.754a10.094 10.094 0 01-.123-1.757l-.013-1.144a1.517 1.517 0 01-.313-.491 1.693 1.693 0 01-.118-.593c.013-.12.01-.24-.006-.36a1.012 1.012 0 00-.22-.382 3.443 3.443 0 01-.526-.844zm-2.953 3.626c-.031.354.039.718-.03 1.065-.027.134-.074.268-.108.393-.104.5-.059 1.025.128 1.492.186.463.41.905.667 1.321.087.142.158.296.213.458.044.17.072.345.082.521.068.71.176 1.415.326 2.108.13.601 1.621 5.737 1.968 6.213.063.106.159.18.268.208a.435.435 0 00.227-.053l.703-.309a.445.445 0 00.163-.102.523.523 0 00.1-.316c.051-.655-1.443-5.827-1.633-6.445-.574-1.867-1.338-3.666-1.712-5.599-.104-.536-.16-1.362-.503-1.79-.142-.177-.093-.102-.263-.01a1.858 1.858 0 00-.249.15.898.898 0 00-.242.302 1.03 1.03 0 00-.105.393z" fill="#464353"/><path d="M43.942 19.084c.188 1.142.383 2.28.576 3.421l2.752-.824c.022-.33-.132-.636-.235-.939-.25-.72-.256-1.522-.459-2.262-.154-.564-.42-1.081-.565-1.648-.083-.33-.125-.67-.207-1.005a7.943 7.943 0 00-.324-.959 6.326 6.326 0 00-.6-1.272c-.351.15-.726.324-.927.688a1.65 1.65 0 00-.17.67c-.049.707.175 1.418.101 2.12a7.119 7.119 0 00.058 2.01z" fill="red"/><path d="M47.315 34.264c.155.67-.069 1.376-.252 2.04a17.81 17.81 0 00-.56 3.07 2.995 2.995 0 01-.138.777c-.087.224-.235.413-.336.627-.276.56-.269 1.244-.21 1.885.04.423.1.844.174 1.26.09.508.202 1.038.072 1.535.218-.055.365.268.351.521-.014.254-.085.537.021.755.27.113.272.537.264.865.005.57.067 1.137.188 1.69.407 2.244.84 4.482 1.298 6.713.99.351 2.147.718 3.092.23.175-.09.351-.233.39-.45a.892.892 0 00-.037-.346l-.447-1.864c-.11-.45-.218-.916-.16-1.378.043-.345.174-.717.026-1.02-.05-.105-.13-.187-.189-.286-.234-.393-.11-.92-.092-1.395a1.259 1.259 0 00-.019-.32 1.714 1.714 0 00-.133-.35 6.003 6.003 0 01-.516-2.663.746.746 0 00-.041-.347 1.159 1.159 0 01-.076-.142.44.44 0 01.024-.256 2.21 2.21 0 01-.36-.402.547.547 0 00.16-.183.657.657 0 00.048-.502.591.591 0 00-.122-.22.254.254 0 00.128-.074.312.312 0 00.074-.14.343.343 0 000-.165.31.31 0 00-.076-.14c-.058-.045-.134-.065-.175-.133-.063-.1-.012-.238.04-.344l.273-.564c.204-.42.25-.939.468-1.341.315-.586.52-1.24.722-1.886l.79-2.49.53.527c.177.155.325.348.436.569.075.218.123.447.142.68.194 1.353.937 2.525 1.213 3.856.06.297.102.608.25.861.054.078.102.16.143.247.04.132.06.27.06.409.025.272.1.535.222.772.12.235.285.439.481.596.262.205.586.346.728.67.028.1.068.197.117.286.127.174.4.194.454.413.03.122-.026.268.034.375.034.05.079.089.13.112l.763.436c.853.488 1.289 1.609 1.918 2.425.217.267.41.558.574.87.272.556.398 1.255.857 1.609.123.073.236.169.333.283.144.217.091.521.104.795.013.273.196.6.423.516-.08.331-.08.681 0 1.013.998-.06 1.95-.5 2.703-1.253.222-.223.437-.507.439-.845a.338.338 0 00-.033-.167.429.429 0 00-.172-.15c-.714-.442-.928-1.468-1.29-2.3-.314-.735-.78-1.368-1.171-2.05-.848-1.47-1.427-3.246-2.71-4.216-.283-.213-.611-.402-.753-.755-.079-.197-.088-.422-.15-.626-.062-.204-.21-.402-.4-.402.105-.295.084-.655.09-.974a1.396 1.396 0 00-.042-.42 2.159 2.159 0 00-.188-.415 4.446 4.446 0 01-.483-2.146c.01-.387.07-.787-.033-1.157-.051-.187-.142-.357-.204-.537a3.795 3.795 0 01-.146-1.008l-.07-1.289a7.249 7.249 0 00-.146-1.274c-.234-1-.469-5.19-1.271-5.663-.803-.472-2.182 2.753-3.086 2.816-.4.02-.795.107-1.172.26-.601.257-1.105.737-1.596 1.206l-1.662 1.597c-.351.331-.642.648-1.03.881zM39.34 6.904c.365-.572.993-.875 1.612-.9.619-.026 1.228.197 1.783.512.163.107.338.189.52.244.293.069.619-.023.884.134.351.214.42.757.389 1.207-.03.45-.105.951.105 1.341.075.112.142.229.203.35.09.232.037.5-.017.746-.137-.134-.214-.337-.336-.492-.122-.156-.334-.26-.485-.144-.151.117-.149.329-.157.52-.008.19-.05.418-.208.48a.297.297 0 01-.196-.017.349.349 0 01-.155-.14c-.268-.376-.16-.975-.427-1.354-.15-.214-.403-.319-.542-.544-.11-.177-.139-.402-.235-.593-.096-.19-.32-.33-.468-.198a.726.726 0 00-.126.191.734.734 0 01-.383.318.636.636 0 01-.472-.023 1.344 1.344 0 00-.37-.183.412.412 0 00-.246.065.496.496 0 00-.178.203c-.084.17-.124.365-.117.56 0 .269.042.554-.091.769a.746.746 0 01-.188.204c-.196.143-.468.24-.649.076a.574.574 0 01-.132-.238.636.636 0 01-.013-.282c.035-.187.081-.37.138-.55.103-.416-.032-.884.08-1.275a4.31 4.31 0 01.477-.987z" fill="#464353"/><path d="M40.824 16.367a.553.553 0 00.026.291.434.434 0 00.138.152c.394.28.843.447 1.306.484.063.001.125.02.18.053.11.083.117.269.076.416-.054.14-.083.29-.083.443.034.28.325.402.57.444.343.05.72.024.991-.222a1.79 1.79 0 00.41-.701c.672-1.769.907-3.724 1.588-5.488.052-.115.086-.239.102-.367a.41.41 0 00-.023-.189.359.359 0 00-.103-.149c-.127-.09-.324-.039-.41-.18-.041-.07-.037-.167-.074-.242-.079-.16-.285-.134-.426-.227-.11-.067-.186-.205-.31-.232a.345.345 0 00-.175.036.398.398 0 00-.144.122c-.4.427-.61 1.031-.832 1.603a19.8 19.8 0 01-1.19 2.526c.052-.094-.254-.804-.373-.835-.21-.048-.478.373-.592.53a3.636 3.636 0 00-.652 1.732z" fill="red"/><path opacity=".1" d="M45.082 11.008a.506.506 0 00-.242.068.587.587 0 00-.193.181c-.125.187-.15.433-.181.67a6.368 6.368 0 01-.69 2.122m1.904-2.506a.608.608 0 00-.33.109.728.728 0 00-.24.281 2.474 2.474 0 00-.142.663c-.1.505-.295.98-.569 1.393" fill="#000"/><path d="M73.53 37.76v-1.665c0-1.226-.426-2.402-1.183-3.268-.758-.867-1.786-1.354-2.857-1.354H12.01c-1.072 0-2.1.487-2.857 1.354-.758.866-1.184 2.042-1.184 3.268v3.071l65.562-1.405z" fill="#33323D"/><path d="M28 29.52S27.836 41.168 29.64 45c1.805 3.833 2.579 20.506 2.579 20.506s18.919 2.24 32.103-2.682c13.184-4.922 41.236-6.935 41.236-6.935l-4.727-36.46s-23.355-1.714-36.64 5.537C50.904 32.216 28 29.52 28 29.52z" fill="#8DD070"/><path opacity=".1" d="M28 29.52S27.836 41.168 29.64 45c1.805 3.833 2.579 20.506 2.579 20.506s18.919 2.24 32.103-2.682c13.184-4.922 41.236-6.935 41.236-6.935l-4.727-36.46s-23.355-1.714-36.64 5.537C50.904 32.216 28 29.52 28 29.52z" fill="#000"/><path d="M32.188 33.775s-.592 9.61.893 12.681c1.484 3.071 1.554 16.78 1.554 16.78s17.026.904 29.138-3.813c12.111-4.718 37.563-7.778 37.563-7.778l-2.893-29.818s-21.059-.248-33.35 6.393c-12.29 6.64-32.905 5.555-32.905 5.555z" fill="#8DD070"/><path opacity=".1" d="M64.906 53.963c2.422-.346 3.862-5.446 3.215-11.391-.648-5.946-3.136-10.486-5.559-10.14-2.422.345-3.862 5.445-3.214 11.39.647 5.946 3.135 10.486 5.558 10.14z" fill="#000"/><path opacity=".2" d="M88.027 1.668s-22.69 6.571-33.389 18.137c-10.7 11.567-33.223 17.043-33.223 17.043s2.967 11.143 5.712 14.157c2.744 3.015 7.95 18.614 7.95 18.614s18.606-4.514 29.833-13.832c11.227-9.317 37.392-21.084 37.392-21.084L88.027 1.668z" fill="#000"/><path d="M21.074 35.179s2.966 11.144 5.708 14.158c2.743 3.015 7.95 18.612 7.95 18.612s18.61-4.512 29.837-13.83c11.228-9.317 37.391-21.08 37.391-21.08L87.685 0S64.997 6.571 54.297 18.137C43.599 29.703 21.075 35.18 21.075 35.18z" fill="#8DD070"/><path opacity=".1" d="M21.074 35.179s2.966 11.144 5.708 14.158c2.743 3.015 7.95 18.612 7.95 18.612s18.61-4.512 29.837-13.83c11.228-9.317 37.391-21.08 37.391-21.08L87.685 0S64.997 6.571 54.297 18.137C43.599 29.703 21.075 35.18 21.075 35.18z" fill="#000"/><path d="M26.196 37.76s2.015 9.356 4.252 11.756c2.237 2.4 5.977 15.422 5.977 15.422s16.446-5.12 26.708-13.864c10.263-8.743 33.668-20.58 33.668-20.58L86.053 3.12s-20.108 7.157-30.026 17.794-29.83 16.845-29.83 16.845z" fill="#8DD070"/><path opacity=".1" d="M62.754 45.485c2.213-1.179 2.215-6.538.005-11.97-2.21-5.431-5.797-8.878-8.01-7.7-2.213 1.18-2.215 6.54-.005 11.97 2.21 5.433 5.797 8.88 8.01 7.7z" fill="#000"/><path opacity=".1" d="M75.082 39.395V85.66c0 .525-.09 1.045-.266 1.53a4.08 4.08 0 01-.758 1.299c-.325.371-.71.666-1.134.867a3.116 3.116 0 01-1.338.304H11.467c-.927 0-1.816-.422-2.47-1.172-.656-.75-1.024-1.768-1.024-2.828V34.73c1.722.733 1.722.733 3.494.671h60.119c.926 0 1.814.42 2.47 1.17.655.748 1.025 1.764 1.026 2.824z" fill="#000"/><path d="M75.082 39.984v46.265c0 1.06-.368 2.078-1.024 2.829-.656.75-1.545 1.171-2.472 1.171H11.467c-.927 0-1.816-.422-2.47-1.172-.656-.75-1.024-1.767-1.024-2.828v-50.93c1.722.73 1.722.73 3.494.67h60.119c.926 0 1.815.42 2.47 1.17.656.748 1.025 1.765 1.026 2.825z" fill="#504F60"/><path opacity=".1" d="M74.912 57.088v14.795h-12.54c-1.699-.026-3.321-.817-4.515-2.201-1.194-1.385-1.863-3.252-1.863-5.196 0-1.945.67-3.812 1.863-5.197 1.194-1.384 2.816-2.175 4.516-2.201h12.539z" fill="#000"/><path d="M75.083 56.693v14.799h-12.54c-1.7-.027-3.321-.818-4.515-2.202-1.194-1.385-1.863-3.251-1.863-5.196 0-1.945.67-3.812 1.863-5.196 1.194-1.385 2.816-2.176 4.515-2.202l12.54-.003z" fill="#33323D"/><path opacity=".1" d="M63.144 67.373c1.392 0 2.52-1.292 2.52-2.885 0-1.593-1.128-2.885-2.52-2.885-1.392 0-2.521 1.292-2.521 2.885 0 1.593 1.129 2.885 2.52 2.885z" fill="#000"/><path d="M63.316 66.98c1.392 0 2.52-1.291 2.52-2.885 0-1.593-1.128-2.884-2.52-2.884-1.393 0-2.521 1.291-2.521 2.885 0 1.593 1.128 2.884 2.52 2.884z" fill="red"/><path d="M96.849 56.566c.1 1.235-.718 2.434-.48 3.644.052.259.149.503.184.764.099.72-.275 1.399-.633 2l-3.07 5.155a3.16 3.16 0 01-.438.62c-.586.597-1.468.536-2.239.714a3.608 3.608 0 00-1.5.759.122.122 0 00-.014.15c.128.199.296.358.491.462.195.105.41.152.625.138.08.122 0 .3-.117.387-.165.134-.392.166-.424.486a.592.592 0 00.056.322c.123.216.316.37.536.427 1.063.372 2.212-.281 3.008-1.17.795-.89 1.366-2.012 2.147-2.917.432-.5.923-.93 1.368-1.415.888-.968 1.579-2.146 2.246-3.324.2-.356.401-.72.486-1.132.084-.412.044-.828.14-1.226.124-.523.458-.938.735-1.377.545-.858.909-1.908.837-2.965-.071-1.057-.644-2.101-1.516-2.46a1.189 1.189 0 00-.85-.06c-.357.126-.621.464-.865.787l-.586.771c-.146.17-.261.37-.34.59a.703.703 0 00-.025.348c.02.116.07.223.142.308" fill="#FBBEBE"/><path opacity=".05" d="M96.849 56.566c.1 1.235-.718 2.434-.48 3.644.052.259.149.503.184.764.099.72-.275 1.399-.633 2l-3.07 5.155a3.16 3.16 0 01-.438.62c-.586.597-1.468.536-2.239.714a3.608 3.608 0 00-1.5.759.122.122 0 00-.014.15c.128.199.296.358.491.462.195.105.41.152.625.138.08.122 0 .3-.117.387-.165.134-.392.166-.424.486a.592.592 0 00.056.322c.123.216.316.37.536.427 1.063.372 2.212-.281 3.008-1.17.795-.89 1.366-2.012 2.147-2.917.432-.5.923-.93 1.368-1.415.888-.968 1.579-2.146 2.246-3.324.2-.356.401-.72.486-1.132.084-.412.044-.828.14-1.226.124-.523.458-.938.735-1.377.545-.858.909-1.908.837-2.965-.071-1.057-.644-2.101-1.516-2.46a1.189 1.189 0 00-.85-.06c-.357.126-.621.464-.865.787l-.586.771c-.146.17-.261.37-.34.59a.703.703 0 00-.025.348c.02.116.07.223.142.308" fill="#000"/><path d="M99.172 88.362c-.67.468-1.506.496-2.285.388-.126-.018-.274-.029-.352.083-.117.16.021.402.164.527.46.395 1 .649 1.57.739a9.062 9.062 0 001.535.116c1.406.028 2.812.055 4.196-.175a.542.542 0 00.235-.078.5.5 0 00.173-.302c.095-.413-.088-.855-.364-1.142-.277-.287-.632-.447-.979-.601l-1.219-.543c-.286-.128-.744-.466-1.054-.439-.584.048-1.136 1.102-1.62 1.427z" fill="#3F3D56"/><path opacity=".05" d="M99.172 88.362c-.67.468-1.506.496-2.285.388-.126-.018-.274-.029-.352.083-.117.16.021.402.164.527.46.395 1 .649 1.57.739a9.062 9.062 0 001.535.116c1.406.028 2.812.055 4.196-.175a.542.542 0 00.235-.078.5.5 0 00.173-.302c.095-.413-.088-.855-.364-1.142-.277-.287-.632-.447-.979-.601l-1.219-.543c-.286-.128-.744-.466-1.054-.439-.584.048-1.136 1.102-1.62 1.427z" fill="#000"/><path d="M100.026 69.848c-.507.772-1.032 1.664-.907 2.62.068.515.32.97.505 1.446.251.646.382 1.34.511 2.033.19 1.011.381 2.025.497 3.052.133 1.16-.49 4.517-.547 5.685-.014.281-.043.586-.214.788-.067.08-.156.145-.187.25a.48.48 0 00.041.294c.286.738.871 1.288 1.524 1.602.652.314 2.226.855 2.938.883a.518.518 0 00.276-.041.603.603 0 00.214-.28c.509-1.116.019-5.083.026-6.342.007-1.05.224-2.093.184-3.142-.032-.842-.234-1.666-.301-2.505-.117-1.376.103-2.758.325-4.118a68.58 68.58 0 01.555-3.117c.133-.629.286-1.263.586-1.809.235-.433.564-.795.837-1.207.758-1.137 1.095-2.57.938-3.988-.017-.134-1.758.506-1.912.582a5.931 5.931 0 00-1.704 1.254c-.403.44-.72 1.027-1.073 1.52a118.948 118.948 0 00-3.112 4.54z" fill="#464353"/><path opacity=".05" d="M100.026 69.802c-.507.773-1.032 1.666-.907 2.62.068.517.32.971.505 1.448.251.644.382 1.34.511 2.031.19 1.013.381 2.026.497 3.052.133 1.162-.49 4.517-.547 5.685-.014.281-.043.587-.214.79-.067.079-.156.143-.187.248a.48.48 0 00.041.295c.286.739.871 1.287 1.524 1.609.652.322 2.226.602 2.938.629a.517.517 0 00.276-.042.582.582 0 00.213-.279c.51-1.115.02-4.827.027-6.088.007-1.051.224-2.093.184-3.143-.032-.842-.234-1.666-.301-2.504-.117-1.377.103-2.76.325-4.12.169-1.041.339-2.085.555-3.116.133-.629.286-1.263.586-1.809.235-.433.564-.795.837-1.207.758-1.137 1.095-2.57.938-3.988-.017-.134-1.758.506-1.912.582a5.968 5.968 0 00-1.704 1.255c-.403.439-.72 1.026-1.073 1.518a137.687 137.687 0 00-3.112 4.534z" fill="#000"/><path d="M94.38 52.836c1.571 0 2.845-1.458 2.845-3.255 0-1.798-1.274-3.255-2.845-3.255-1.57 0-2.844 1.457-2.844 3.255 0 1.797 1.273 3.255 2.844 3.255z" fill="#FBBEBE"/><path d="M96.942 49.443c.263.48.607.894 1.013 1.218.406.324.864.551 1.348.668l-.214.892c-.37 1.531-.786 3.151-1.82 4.213.117-.519-.033-1.073-.288-1.523-.256-.45-.614-.805-.966-1.155l-1.637-1.623a.551.551 0 01-.117-.158.54.54 0 010-.357c.208-.742.804-1.206 1.289-1.708.243-.26.46-.549.648-.864.327-.533.53.003.744.397z" fill="#FBBEBE"/><path d="M90.634 46.309l-.065-.612c.45.134.876-.303 1.163-.755.287-.452.553-.984.99-1.173.531-.228 1.094.134 1.6.44.569.36 1.192.593 1.837.684.103.004.205.023.304.056.33.134.487.609.535 1.04.048.43.035.887.198 1.27.118.292.336.508.47.794.35.77.01 1.823.378 2.578l-.912-.956c-.083-.087-.2-.179-.293-.105-.073.06-.079.187-.108.288-.088.298-.413.387-.65.269-.235-.118-.407-.375-.585-.608-.403-.544-.884-1.023-1.446-1.255a1.644 1.644 0 00-1.524.115c-.425.275-.737.916-1.258.94-.715.03-1.013-1.494-1.343-2.096a.754.754 0 00.24-.422.834.834 0 00-.053-.5c.048-.023.511-.086.522.008z" fill="#464353"/><path d="M55.455 27.28c-.229.233-.44.487-.632.76a1.664 1.664 0 00-.29.975c0 .102.03.202.081.285a.21.21 0 00.106.084.185.185 0 00.129-.002.333.333 0 00.117-.118 6.22 6.22 0 01.394-.488c.05-.058.117-.118.185-.096.03.012.058.033.08.06.078.078.136.18.165.295.04.205-.063.41-.182.571-.118.161-.258.315-.306.518a.26.26 0 000 .166c.023.039.055.07.092.089a1.159 1.159 0 001.106.083c.234-.109.443-.295.684-.392.105-.032.206-.077.303-.134a.681.681 0 00.174-.2.78.78 0 00.094-.26c.03-.186.036-.376.018-.564a7.299 7.299 0 00-.403-2.123.272.272 0 00-.068-.113.197.197 0 00-.118-.036c-.3-.036-.792-.212-1.081-.085a.808.808 0 00-.256.26c-.054.069-.392.376-.392.466z" fill="#A1616A"/><path d="M55.36 26.978c0-.327-.352-1.117.206-1.17 0-.35-.432-.567-.351-.938.026-.123.117-.224.128-.35.035-.358-.53-.553-.436-.896.035-.134.16-.212.186-.345.063-.31-.42-.448-.43-.765 0-.108.053-.208.048-.315 0-.135-.102-.236-.158-.353-.147-.3-.075-.762-.342-.916.177.017.234-.283.161-.467-.072-.183-.221-.343-.222-.547a.953.953 0 000-.222c-.05-.196-.33-.212-.377-.403a1.97 1.97 0 01-.005-.22c-.02-.151-.155-.248-.283-.29a1.06 1.06 0 01-.377-.155c-.082-.071-.177-.189-.265-.134-.033.023-.05.066-.074.098-.105.14-.307.079-.44-.024-.39-.305-.585-.85-.669-1.383-.083-.532-.08-1.082-.185-1.609a3.81 3.81 0 00-.126-.483c-.045-.134-.188-.344-.197-.48-.021-.308.537-.098.749-.067.206.023.41.068.608.134.212.092.42.196.622.313.846.427 1.868.48 2.548 1.198.224.236.413.546.703.654.133.029.265.068.394.116.322.173.372.663.548 1.017.056.093.104.192.145.295.033.121.05.248.046.375l.025.93c.04 1.556.08 3.117-.066 4.665-.046.51-.117 1.037.016 1.527.035.134.084.26.117.396.029.159.044.32.044.483l.019.602a.21.21 0 01-.026.134.16.16 0 01-.067.038.147.147 0 01-.075 0c-.732-.074-1.473-.546-2.164-.26" fill="#464353"/><path d="M88.784 73.244c4.786 0 8.667-.642 8.667-1.433 0-.792-3.88-1.434-8.667-1.434s-8.668.642-8.668 1.434c0 .791 3.88 1.433 8.668 1.433z" fill="#504F60"/><path d="M96.24 71.88a27.895 27.895 0 01-.246-1.402s.035-.813-.284-1.423v-1.706c.09-.273.202-.536.332-.787.234-.472 0-2.202 0-2.202s-.876-2.44-.664-3.987c.212-1.548-1.797-6.871-1.797-6.871a7.705 7.705 0 01.188-1.521c.022-.105.03-.212.026-.32v-.038.012c-.03-1.02-.736-2.933-.736-2.933l.095-3.645s.45-2.145-.284-5.035a30.08 30.08 0 01-.525-2.436c-.011-.07-.023-.134-.032-.202 1.51-.268 2.665-.483 2.665-.483s-.877-4.196-1.469-4.93c-.592-.736-1.065-3.044-1.065-3.044s-.308-2.962.19-3.828c.498-.866.568-2.36.568-2.36s1.136-.94 1.279-1.364c.143-.425.378-1.364.378-1.861 0-.498-.142-.94-.095-1.207.047-.269-.331-1.26-.142-1.732a1.429 1.429 0 00.075-.468 7.26 7.26 0 00-.1-1.23 2.952 2.952 0 00-1.124-.689l-.025-.112-.064-.295a1.219 1.219 0 00-.112-.075v-.108l-.01-.426.178-.958c.352-1.665-1.593-1.913-1.593-1.913a1.083 1.083 0 00-.55-.553c-.39-.157-.065 2.505.117 2.682.137.134.561.963.766 1.373l.033.067a.89.89 0 00-.089.108l.074.578.012.088a2.498 2.498 0 00-.311.605s.352.445.285.939c-.067.493.109 1.12.117 1.153-.021-.028-.27-.337-.52-.261-.25.075-.947.315-.947.315s-.52.104-.47.236c.052.131-.35.708-.35.708l-1.4-1.518c-.014-.046-.03-.091-.04-.134a4.169 4.169 0 01-.118-.67c.152-.042.302-.097.448-.163a.962.962 0 00.386-.284c.142-.192.17-.452.226-.691.11-.467.352-.881.52-1.325.283-.75.375-1.577.263-2.384a1.705 1.705 0 00-.214-.698c-.229-.359-.643-.505-.945-.792-.3-.287-.495-.726-.847-.939-.318-.194-.703-.172-1.062-.104-.7.132-1.373.412-1.984.826-.204.134-.429.299-.663.249-.202-.042-.352-.225-.478-.402a.155.155 0 01.006-.022.131.131 0 01-.015-.021 3.18 3.18 0 00-.212 1.39v.123a.347.347 0 01-.01.084.62.62 0 01-.131.216 1.45 1.45 0 00-.118.178c0-.021.012-.043.02-.065-.09.149-.14.324-.146.505a.565.565 0 00.105.362c.07.078.147.148.229.21a3.449 3.449 0 00.314 2.056c.232.463.563.85.963 1.123.017.044.032.09.047.134.18.536.314 1.167.254 1.743 0 .042-.01.085-.016.126-.006.042-.035.045-.05.067 0 0-2.313.027-2.856-.536-.544-.563-1.374 1.377-1.374 1.377s-.828.184-.995 0c-.166-.183-1.135-.025-1.135-.025a1.94 1.94 0 00-1.445-.604 4.12 4.12 0 00-1.055-.67l-.026-.01a1.043 1.043 0 00-.521-.076s-1.137-1.073-1.468-1.652c-.332-.58-1.91-2.718-1.918-2.728v-.103l-.017-.311a.845.845 0 01-.142.013l-.032-.108a6.475 6.475 0 00-.335-.881s0-.393.1-.493c.1-.099-.041-1.54-.041-1.54s-1.025-2.74-1.942-.695c0 0-1.735 1.324-.28 2.866 0 0 .587.322.664.576.054.165.251.628.383.939l.06.134-.016.016.02.258.01.099c-.274.178-.46.355-.415.488.081.227.137.465.166.708 0 0 2.013 2.886 2.273 4.118 0 0 5.4 3.672 7.174 3.934l-.314 1.83a16.96 16.96 0 00-.07 1.495c.023.393-.213 2.177-.213 2.177s-.308 2.623-.569 2.99c-.26.368-.213 1.94-.213 1.94-.061.754-.179 1.5-.351 2.23-.26.996-.072 2.23-.072 2.23s-.899 2.36 1.255.76c0 0 1.055-.075 2.276-.123v.134c0 .18 0 .374-.008.578-.017 1.351-.024 3.218.03 4.623.095 2.492.758 7.423.758 7.423v2.482c-.042.233-.063.47-.063.708-.014.874.19 1.734.586 2.48l.167 1.652s.389 1.089.396 1.743a1.043 1.043 0 01-.017.157 1.2 1.2 0 00-.018.254c-.023.75.372 2.547.372 2.547s.024 1.81.26 1.915c.203.09-.27 1.043-.411 1.316a.432.432 0 01-.008-.05l-.03.053a1.453 1.453 0 00-.073.458.742.742 0 00.05.362c.047.112.12.207.212.274.45.315.692.577.31.681a3.79 3.79 0 00-.418.1c0-.02-.014-.04-.02-.06a.264.264 0 00-.127.127.323.323 0 00-.028.19c.003.213.051.421.14.609.378.97.64 1.34.64 1.34l.182-.022a1.07 1.07 0 01-.106.224.798.798 0 01-.267.268.76.76 0 01-.325.127.823.823 0 00-.37.105.944.944 0 00-.3.268c-.234.35-.384.826.082 1.245l1.694.67s2.913.433 2.758-.315c-.154-.748-.248-1.403-.248-1.403a3.328 3.328 0 00-.235-1.326 1.787 1.787 0 00-.103-.196l.103-.012s.214-1.653.497-1.967c.066-.072.081-.134.066-.172.03-.09-.046-.142-.14-.173l-.022.066a1.222 1.222 0 00-.282-.036s-.095-.865.213-1.18a.38.38 0 00.06-.257 1.578 1.578 0 00-.033-.353.177.177 0 01-.01.021c-.155-.786-.68-2.034-.68-2.034s-.024-.786.166-1.101c.19-.315-.025-4.275-.025-4.275s.072-1.914-.141-2.806c-.214-.892.26-1.941.26-1.941v-.07l-.027-.302v.019a41.41 41.41 0 00-.205-1.85c-.095-.603.024-3.486.024-3.486l.426-1.234.758 2.126.805 2.832s.399.598.408 1.207v.088c-.007.063-.01.126-.01.19a1.87 1.87 0 00.246 1.01s.213 1.34.544 1.677c.332.336.332.996.332.996s.402 1.942.586 2.28c.16.287.168 1.073.166 1.318v.07s.057.694.054 1.276v.195c0 .159-.016.317-.049.472l-.007.026c0-.033 0-.065.008-.097-.082.395-.121.8-.117 1.206-.01.698.082 1.524.451 2.012.64.84 1.042.735 1.042.735s-.307 1.048-.687 1.26a.174.174 0 00-.04.029c0-.022-.007-.042-.009-.062a.531.531 0 00-.095.181.58.58 0 00-.022.21c-.027.462.227 1.207.469 1.555.09.1.2.174.32.214a1.2 1.2 0 01-.19.113.616.616 0 01-.194.058.811.811 0 00-.37.103.931.931 0 00-.3.27c-.234.348-.384.824.082 1.242l1.694.671s2.894.425 2.742-.322z" fill="url(#paint0_linear)"/><path d="M85.119 73.118l-1.64-.67c-.453-.418-.309-.894-.08-1.244a.911.911 0 01.289-.267.79.79 0 01.36-.106.718.718 0 00.313-.128.797.797 0 00.26-.268 1.53 1.53 0 00.186-.725s1.8-.604 2.293 0c.087.109.16.232.218.366.163.416.243.87.234 1.326 0 0 .091.654.24 1.403.149.748-2.673.313-2.673.313zm8.019-.925l-1.64-.67c-.453-.418-.308-.894-.08-1.243a.9.9 0 01.288-.268.78.78 0 01.36-.105.549.549 0 00.188-.058 1.17 1.17 0 00.126-.07c.459-.29.447-.997.447-.997s1.799-.604 2.292 0c.066.082.124.172.172.268.309.61.275 1.424.275 1.424s.091.656.234 1.403c.143.747-2.662.316-2.662.316z" fill="#2D293D"/><path opacity=".1" d="M87.1 69.708c.088.11.162.233.218.366l-2.695.358c.12-.217.184-.468.186-.725 0 0 1.8-.602 2.291.001zm8.194-.654v.578c-.42.79-2.448.617-3.037.221.043-.02.085-.044.126-.07.459-.29.447-.997.447-.997s1.799-.604 2.292 0c.066.082.124.171.172.268z" fill="#000"/><path d="M95.613 66.562a5.637 5.637 0 00-.32.787v2.072c-.459.865-2.842.577-3.164.105-.322-.472-.658-1.7-.296-1.914.362-.213.664-1.26.664-1.26s-.39.105-1.009-.734c-.618-.84-.434-2.7-.32-3.146.115-.445 0-1.94 0-1.94s.024-1.05-.16-1.391c-.182-.34-.572-2.28-.572-2.28s0-.656-.321-.996c-.321-.34-.528-1.68-.528-1.68a1.92 1.92 0 01-.228-1.127c.068-.656-.39-1.364-.39-1.364l-.78-2.833-.733-2.125-.413 1.233s-.117 2.884-.022 3.486c.095.603.234 2.204.234 2.204s-.458 1.048-.252 1.94c.207.892.132 2.808.132 2.808s.206 3.959.022 4.274c-.184.315-.16 1.102-.16 1.102s.937 2.307.642 2.622c-.296.315-.207 1.18-.207 1.18s.641 0 .367.315c-.274.316-.482 1.968-.482 1.968l-2.771.371s-.253-.366-.62-1.341.068-.865.437-.97c.37-.107.136-.367-.3-.682-.436-.315-.183-1.023-.183-1.023s.665-1.285.435-1.39c-.23-.104-.252-1.915-.252-1.915s-.458-2.145-.343-2.727c.115-.582-.367-1.966-.367-1.966l-.16-1.652a5.104 5.104 0 01-.504-3.122v-2.548s-.643-4.93-.734-7.421c-.059-1.596-.042-3.774-.024-5.132.012-.762.024-1.268.024-1.268l9.9-1.18s-.01.523.18 1.683c.101.623.26 1.428.508 2.436.71 2.884.275 5.034.275 5.034l-.092 3.646s.87 2.438.688 3.277a7.944 7.944 0 00-.186 1.524s1.948 5.324 1.742 6.871c-.206 1.548.641 3.987.641 3.987s.232 1.73.002 2.202z" fill="#464353"/><path opacity=".05" d="M89.953 52.9l3.014-.46s-1.707 1.994-3.014.46z" fill="#000"/><path opacity=".1" d="M92.532 49.068s.103 1.22-.55 1.68c0 0 1.169-.21.55-1.68zm-.185-3.88s-2.52 2.373-3.436 2.176c-.916-.197 3.436-2.176 3.436-2.176zm-6.129 8.824s-1.914.497-1.972 1.377c-.057.88 1.972-1.377 1.972-1.377z" fill="#000"/><path opacity=".05" d="M86.639 64.95s-2.704.576-1.936.969c.767.393 2.028.708 2.028.708s.873.052-.092-1.678zm-2.483 1.594a.577.577 0 01-.168-.192.671.671 0 01-.079-.256l-.028.055s-.252.708.184 1.022c.05.036.097.072.14.107.082-.018.168-.031.251-.055.37-.105.136-.366-.3-.681zm3.484-.211c.074-.078.072-.279.026-.536-.117.202-.151.519-.153.759a.669.669 0 01.126-.223zm-.417-13.046c-.1.31-.161.635-.183.964.052-.227.122-.45.21-.662l-.027-.302zm6.192-1.377c.018-.094.026-.19.024-.287a8.612 8.612 0 00-.075.537c.015-.082.032-.16.05-.25zm-6.257 10.7c.038-.064.059-.28.068-.583-.085.234-.13.484-.132.737a.75.75 0 01.064-.153zm.563 4.947a11.707 11.707 0 00-.315 1.609l-2.772.366s-.253-.366-.62-1.341a2.628 2.628 0 01-.078-.23c-.167.087-.235.284-.014.859.367.97.62 1.34.62 1.34l2.772-.367s.207-1.652.48-1.967c.142-.151.055-.23-.073-.27zm-3.656-4.71s.022 1.809.252 1.913c.117-.299.193-.583.09-.63-.234-.105-.252-1.915-.252-1.915s-.458-2.146-.343-2.728c.114-.581-.367-1.965-.367-1.965l-.16-1.653a5.105 5.105 0 01-.505-3.121V50.2s-.642-4.93-.733-7.422c-.059-1.595-.043-3.773-.024-5.132 0-.245.007-.462.01-.646l-.078.01s-.013.504-.023 1.267c-.019 1.358-.037 3.536.023 5.13.092 2.492.733 7.423.733 7.423v2.548a5.108 5.108 0 00.505 3.12l.16 1.653s.48 1.389.366 1.967c-.115.578.346 2.729.346 2.729zm8.159 5.979a3.33 3.33 0 01-.44-1.246c-.282.292.042 1.427.352 1.877.32.473 2.703.76 3.164-.105v-.5c-.625.702-2.774.42-3.076-.026zm3.483-2.965a5.702 5.702 0 00-.321.787v.372c.053-.134.126-.314.234-.526.073-.206.107-.428.1-.65l-.013.017zm-3.342.415c.087-.202.162-.41.226-.624 0 0-.39.105-1.01-.734-.45-.61-.475-1.764-.41-2.518-.118.447-.3 2.308.32 3.148.403.548.71.693.874.728zm-1.196-5.816c.04.517.056 1.036.046 1.555.011-.082.027-.163.046-.243.118-.447 0-1.94 0-1.94s.024-1.05-.16-1.391c-.184-.34-.567-2.283-.567-2.283s0-.655-.321-.996c-.322-.34-.528-1.679-.528-1.679a1.926 1.926 0 01-.234-1.128c.069-.655-.39-1.363-.39-1.363l-.779-2.833-.733-2.124-.414 1.234s0 .155-.014.402l.335-1.002.734 2.12.78 2.833s.457.708.388 1.364c-.038.395.045.794.235 1.127 0 0 .206 1.342.527 1.68.321.337.32.996.32.996s.39 1.94.573 2.28c.183.339.156 1.392.156 1.392z" fill="#000"/><path d="M93.093 12.21l-.172.958.01.426.007.314-.956.113-.106-.227c-.199-.41-.61-1.244-.742-1.373-.177-.169-.493-2.832-.118-2.674.231.102.42.298.532.551 0 0 1.884.247 1.545 1.912z" fill="#FFCDD3"/><path opacity=".1" d="M92.938 13.909l-.956.112-.107-.226a.821.821 0 01.496-.315.753.753 0 01.559.116l.008.313z" fill="#000"/><path d="M93.18 14.428l-1.261.334-.027-.215-.072-.578s.5-.761 1.221-.19l.064.293.075.356z" fill="#6C63FF"/><path d="M72.754 12.316l-1.346.826-.118-.29c-.127-.307-.318-.77-.371-.938-.08-.255-.641-.577-.641-.577-1.406-1.541.27-2.866.27-2.866.888-2.045 1.874.695 1.874.695s.139 1.444.041 1.54c-.097.097-.097.493-.097.493a6.553 6.553 0 01.388 1.117z" fill="#FFCDD3"/><path opacity=".1" d="M72.754 12.314l-1.347.826-.117-.29c.19-.182.864-.804 1.085-.779.106.015.213.018.319.01l.06.233z" fill="#000"/><path d="M72.89 12.78l-1.512.854-.03-.372-.022-.257s.877-.86 1.136-.826c.13.021.264.021.395 0l.017.31.017.292z" fill="#6C63FF"/><path d="M89.426 18.57s-6.595.852-5.362.393c.858-.32 1.199-.938 1.27-1.636.059-.58-.073-1.207-.245-1.743a8.107 8.107 0 00-.586-1.364s5.04-3.173 4.033-.288a5.212 5.212 0 00-.286 1.367c-.03.466.013.935.13 1.383.19.728.552 1.382 1.046 1.889z" fill="#FFCDD3"/><path opacity=".1" d="M88.532 13.928a5.212 5.212 0 00-.286 1.367c-.475.457-.995.426-1.664.426-.513 0-1.083.142-1.493-.14a8.099 8.099 0 00-.586-1.365s5.038-3.172 4.029-.288z" fill="#000"/><path d="M86.493 15.923c1.506 0 2.727-1.397 2.727-3.12 0-1.724-1.221-3.121-2.727-3.121-1.506 0-2.727 1.397-2.727 3.12 0 1.724 1.22 3.12 2.727 3.12z" fill="#FFCDD3"/><path opacity=".1" d="M89.426 18.57s-6.595.85-5.362.392c.858-.32 1.199-.938 1.27-1.636.328-.402.988-.701 1.406-.857a1.738 1.738 0 011.196-.023c.153.053.3.131.434.231a4.23 4.23 0 001.056 1.892zm3.754-4.143l-1.261.334-.027-.214a1.14 1.14 0 01.54-.457.982.982 0 01.672-.018l.076.355zM72.891 12.78l-1.513.854-.03-.372c.49-.302.999-.56 1.523-.774l.02.293zm19.144 24.807c-2.556.467-6.19 1.062-6.766.861-.48-.166-2.007-.149-3.337-.096.011-.762.023-1.268.023-1.268l9.9-1.18s-.01.523.18 1.683z" fill="#000"/><path d="M94.583 36.9s-8.41 1.652-9.313 1.34c-.902-.31-5.537.026-5.537.026-2.086 1.6-1.215-.76-1.215-.76s-.183-1.233.069-2.229c.169-.731.285-1.478.346-2.231 0 0-.046-1.575.206-1.942s.55-2.99.55-2.99.229-1.783.207-2.176c-.022-.393.068-1.495.068-1.495l.299-1.836c-1.72-.261-6.945-3.933-6.945-3.933-.252-1.232-2.2-4.117-2.2-4.117a3.392 3.392 0 00-.16-.708c-.137-.42 1.925-1.26 1.925-1.26s1.535 2.146 1.856 2.729c.322.582 1.42 1.652 1.42 1.652a.976.976 0 01.505.075l.027.01c.368.165.713.39 1.025.67a1.856 1.856 0 011.398.603s.938-.158 1.1.026c.163.183.963 0 .963 0s.801-1.94 1.329-1.378c.527.564 2.764.537 2.764.537.298-.454 1.023-.778 1.477-.939a1.744 1.744 0 011.195-.023c.169.058.327.149.469.268l1.36 1.521s.39-.578.344-.708c-.046-.13.458-.236.458-.236s.664-.236.916-.315c.252-.08.483.233.504.261-.008-.033-.18-.67-.117-1.153.063-.483-.275-.939-.275-.939.801-2.255 2.612-.367 2.612-.367s.206 1.232.023 1.704.183 1.469.137 1.732c-.045.262.093.708.093 1.207 0 .498-.234 1.441-.367 1.86-.132.42-1.237 1.365-1.237 1.365s-.07 1.495-.551 2.36c-.482.865-.18 3.823-.18 3.823s.459 2.308 1.032 3.043c.573.735 1.42 4.923 1.42 4.923z" fill="#3F3D56"/><path opacity=".1" d="M82.322 19.645s-.252-.864-.482-.938a5 5 0 01-.664-.34l.147-.324s.86.268.999.56c.138.29 0 1.042 0 1.042zm-4.607-1.913c-.046.268-2.086.498-2.086.498l1.031-1.183.026.01c.37.167.716.394 1.029.675z" fill="#000"/><path d="M71.814 14.34c.1 0 .183-.093.183-.209 0-.116-.082-.21-.183-.21-.101 0-.183.095-.183.21 0 .116.082.21.183.21zm.234.42c.101 0 .183-.094.183-.209 0-.116-.082-.21-.183-.21-.1 0-.183.095-.183.21 0 .115.082.21.183.21zm.23.389c.101 0 .183-.094.183-.21 0-.115-.082-.209-.183-.209-.1 0-.182.094-.182.21 0 .115.082.209.182.209zm.24.418c.1 0 .183-.094.183-.21 0-.115-.082-.209-.183-.209-.101 0-.183.094-.183.21 0 .115.082.209.183.209zm21.602-.062c.083 0 .15-.077.15-.17 0-.095-.067-.17-.15-.17-.082 0-.148.075-.148.17 0 .093.066.17.149.17zm.024.388c.082 0 .149-.076.149-.17 0-.094-.067-.17-.15-.17-.081 0-.148.076-.148.17 0 .094.067.17.149.17zm.021.387c.082 0 .148-.076.148-.17 0-.094-.066-.17-.148-.17-.083 0-.15.076-.15.17 0 .094.067.17.15.17z" fill="#575988"/><path opacity=".1" d="M82.33 26.752c-.022-.03 5.145 7.435 9.155 3.12.004.002-6.333.985-9.155-3.12zm-2.965 3.881s3.092.096 3.415 1.114v1.06a.535.535 0 01-.575 0c-.312-.194-2.181-1.28-2.84-.757v-1.417z" fill="#000"/><path d="M79.423 30.633s2.956.092 3.266 1.063v1.009a.512.512 0 01-.55 0c-.298-.183-2.086-1.22-2.716-.72v-1.352z" fill="#3F3D56"/><path opacity=".1" d="M81.053 22.951a11.87 11.87 0 001.199 2.354 8.691 8.691 0 001.875 2.074s-3.023-3.942-3.074-4.428zm-1.011-4.109s.516 2.548 1.845 3.413l-1.845-3.413zm-.791.256c-.013-.046-.458 2.012 1.713 3.156 0 0-.922-.358-1.713-3.156zM92.75 17.39c-.034 0 1.07.805 1.372 1.18 0 0-.72-1.233-1.372-1.18z" fill="#000"/><path d="M85.755 15.63a.531.531 0 00.141.36.422.422 0 00.153.103.38.38 0 00.175.023c.83.06 1.697.1 2.461-.268a.939.939 0 00.375-.284c.136-.192.163-.452.218-.691.108-.467.337-.881.503-1.325.28-.75.373-1.573.27-2.38a1.767 1.767 0 00-.208-.696c-.22-.36-.622-.507-.914-.794-.292-.287-.48-.726-.82-.939-.308-.196-.684-.171-1.03-.104a5.003 5.003 0 00-1.92.824c-.197.134-.414.3-.641.25-.2-.043-.345-.235-.469-.415-.16.43-.227.896-.196 1.361a.67.67 0 01-.006.206.628.628 0 01-.127.216c-.205.268-.333.704-.13.98.087.12.223.185.309.307.153.218.102.536.098.815a.467.467 0 00.061.277.34.34 0 00.158.096.31.31 0 00.179-.004.805.805 0 01.358-.039.616.616 0 01.312.268c.379.565.529 1.18.69 1.852z" fill="#2D293D"/><path opacity=".1" d="M89.158 15.326a.94.94 0 01-.375.285c-.769.366-1.633.324-2.46.268a.517.517 0 01-.257-.066c-.127-.084-.175-.261-.214-.422-.161-.67-.31-1.286-.695-1.845a.62.62 0 00-.311-.275.846.846 0 00-.359.038.31.31 0 01-.179.006.34.34 0 01-.157-.097.467.467 0 01-.061-.276c0-.282.055-.597-.099-.815-.085-.122-.221-.188-.31-.309a.69.69 0 01-.053-.625c-.145.269-.207.605-.037.836.087.12.223.185.309.307.153.22.102.536.098.815a.465.465 0 00.06.277.34.34 0 00.158.097c.06.016.121.014.18-.005a.806.806 0 01.358-.039.616.616 0 01.312.268c.383.56.533 1.174.695 1.847a.701.701 0 00.203.425c.08.044.168.066.257.064.831.06 1.697.102 2.461-.268a.93.93 0 00.375-.284.865.865 0 00.118-.252.074.074 0 01-.017.045zm-5.304-4.548a.477.477 0 00.084-.158.672.672 0 000-.205 3.3 3.3 0 01.127-1.13l-.015-.02c-.16.43-.227.896-.196 1.36a.977.977 0 010 .153zm1.416 6.742s3.406.517 3.712-.069l-3.713.069zm6.622-1.612s1.893 0 2.31.816l-2.31-.816z" fill="#000"/><path d="M102.488 88.341c-.562.575-1.292.887-2.045.874-.192 0-.458.042-.46.262a.394.394 0 00.057.18c.237.453.613.79 1.054.948.411.142.849.118 1.277.092l1.248-.073c.234-.015.468-.029.703-.062.234-.034.49-.089.735-.134a8.409 8.409 0 011.817-.097c.162.007.352 0 .448-.134.096-.134.047-.39.01-.591-.075-.415 0-.85-.069-1.265-.117-.73-.669-1.289-1.274-1.553-.562-.244-1.558-.524-2.09-.117-.562.428-.905 1.143-1.411 1.67z" fill="#3F3D56"/><path d="M103.728 63.901c.11.6.617 1.058.631 1.67.013.49-.293.902-.513 1.322a9.47 9.47 0 00-.524 1.357 22.044 22.044 0 01-1.537 3.5c-.293.537-.621 1.11-.555 1.733.047.291.137.572.266.828l.879 1.999c.193.399.344.822.449 1.261.076.38.083.773.128 1.16.138 1.225.641 2.459.343 3.647-.025.102-.117.225-.188.154.29.62.523 1.246.501 1.95-.012.369-.11.753.008 1.097.051.143.139.277.138.431 0 .102-.041.198-.051.297-.024.283.203.519.438.609.236.09.493.083.731.165.457.157.784.607 1.171.92a2.29 2.29 0 001.35.502.307.307 0 00.2-.045.377.377 0 00.081-.125.41.41 0 00.029-.151 1.743 1.743 0 00-.096-.736 1.533 1.533 0 00-.387-.597.578.578 0 01-.179-.215.589.589 0 01-.017-.24c.071-1.1.054-2.203-.051-3.299a5.669 5.669 0 01-.046-1.05c.025-.292.102-.582.074-.873-.028-.29-.158-.556-.235-.837-.135-.498-.098-1.035-.117-1.557-.023-.906-.205-1.797-.385-2.682-.072-.347-.15-.71-.365-.968-.183-.218-.478-.428-.409-.719a.886.886 0 01.168-.285c.085-.122.147-.262.183-.413.036-.15.044-.307.025-.462a.305.305 0 00.231-.024.37.37 0 00.164-.187c1.428-.772 2.579-2.314 3.092-4.023.03-.127.077-.249.138-.36.133-.212.362-.303.566-.42.64-.368 1.082-1.059 1.487-1.735.235-.391.469-.796.575-1.258.055-.298.081-.603.078-.908l.036-1.575a.969.969 0 00-.025-.309.798.798 0 00-.149-.25 2.57 2.57 0 00-1.46-.9c-.375-.077-.759-.062-1.138-.098-.736-.07-1.463-.331-2.199-.268-1.156.097-2.187 1.015-2.732 2.187-.191.413-.392.772-.802.78z" fill="#464353"/><path d="M97.305 53.656c.016.243-.013.487-.084.717-.09.22-.316.392-.514.302.06-.154-.099-.33-.246-.311a.441.441 0 00-.197.113.532.532 0 00-.128.206 1.34 1.34 0 00-.094.728c.047.308.203.605.162.914-.033.258-.198.514-.11.753.057.109.128.207.212.29a.903.903 0 01.158.581.87.87 0 01-.234.546l2.217.051c-.081.424.085.857.275 1.234a7.438 7.438 0 002.145 2.574 6.286 6.286 0 002.923 1.212.467.467 0 00-.142.15.56.56 0 00.035.62c.18.206.486.18.712.048.227-.133.404-.353.61-.523a1.703 1.703 0 011.253-.387c.277.031.547.135.826.15.82.05 1.523-.626 2.313-.902.575-.202 1.228-.202 1.711-.614.209-.177.38-.468.319-.755a1.304 1.304 0 00-.235-.444c-.277-.412-.441-.907-.641-1.374a8.217 8.217 0 00-1.602-2.457 14.704 14.704 0 00-1.589-1.379 2.626 2.626 0 00-.429-.296c-.194-.098-.41-.145-.586-.268-.26-.188-.41-.52-.61-.786-.44-.587-1.115-.857-1.656-1.318-.363-.31-.684-.718-1.118-.867-.211-.074-.435-.079-.646-.151-.479-.166-.828-.653-1.298-.85-.372-.156-.782-.116-1.172-.17a2.547 2.547 0 01-1.225-.535 1.424 1.424 0 00-.39-.26c-.594-.206-.642 1.06-.703 1.498-.079.652-.222 1.3-.222 1.96z" fill="red"/><path d="M97.884 57.9c.1 1.237-.716 2.435-.478 3.646.05.257.147.502.182.764.1.717-.275 1.397-.632 1.998l-3.07 5.156a3.208 3.208 0 01-.439.62c-.586.597-1.467.536-2.238.713a3.647 3.647 0 00-1.5.76.116.116 0 00-.037.072.124.124 0 00.018.081c.127.199.296.358.49.462.195.105.41.152.624.138.081.12 0 .3-.11.388-.165.134-.392.165-.425.485a.602.602 0 00.056.322.885.885 0 00.537.426c1.063.373 2.211-.281 3.007-1.17.796-.89 1.366-2.012 2.147-2.916.432-.501.923-.93 1.369-1.415.888-.97 1.58-2.145 2.245-3.324.2-.355.403-.72.486-1.132.084-.411.045-.828.14-1.227.124-.522.458-.938.736-1.376.545-.858.909-1.908.836-2.966-.072-1.058-.644-2.101-1.516-2.46a1.202 1.202 0 00-.85-.06c-.357.126-.62.464-.865.789l-.585.77c-.143.17-.255.37-.33.59a.703.703 0 00-.026.35.65.65 0 00.143.308" fill="#FBBEBE"/><path d="M99.44 52.83c-.403.027-.847.073-1.132.402a1.89 1.89 0 00-.286.513c-.276.645-.546 1.32-.566 2.038-.016.574.13 1.136.205 1.703.064.472-.097.954-.127 1.431.5-.176 1.161-.414 1.615-.71.309-.203.608-.434.945-.563.482-.183 1.289.134 1.748.39.024-.368-.217-1.01-.191-1.378.003-.155.027-.309.071-.456.069-.155.15-.303.243-.441a2.023 2.023 0 00-.142-2.115c-.407-.523-1.043-.719-1.65-.804a6.245 6.245 0 00-1.152-.046" fill="red"/></g><defs><linearGradient id="paint0_linear" x1="82.762" y1="73.244" x2="82.762" y2="7.714" gradientUnits="userSpaceOnUse"><stop stop-color="gray" stop-opacity=".25"/><stop offset=".54" stop-color="gray" stop-opacity=".12"/><stop offset="1" stop-color="gray" stop-opacity=".1"/></linearGradient><clipPath id="clip0"><path fill="#fff" d="M0 0h123v91H0z"/></clipPath></defs></svg>