<svg width="7669" height="7669" viewBox="0 0 7669 7669" fill="none" xmlns="http://www.w3.org/2000/svg">
<g clip-path="url(#clip0)">
<path d="M7508.61 3819.1H7090.93V2596.25C7090.68 2508.59 7019.71 2437.69 6932.12 2437.44H6285.77V1397.23C6285.39 1090.33 6036.75 841.696 5729.93 841.385H3641.56L3242.92 441.131C3145.4 342.68 3009.79 291.625 2871.57 301.365C2733.29 311.166 2606.18 380.77 2523.49 492L2264.67 841.385H952.868C426.806 841.758 0.434251 1268.13 0 1794.25V6415.66C0.434251 6941.73 426.806 7368.1 952.868 7368.53H6941.67C7029.26 7368.22 7100.23 7297.32 7100.48 7209.72V5939.23H7510.16C7597.82 5938.92 7668.73 5868.01 7668.98 5780.42V3977.91C7667.98 3889.94 7596.52 3819.22 7508.61 3819.1V3819.1ZM5729.93 1159.01C5793.14 1158.88 5853.75 1183.95 5898.48 1228.67C5943.14 1273.34 5968.2 1334.01 5968.14 1397.23V2437.44H5231.22L3959.18 1159.01H5729.93ZM2777.59 682.574C2805.19 645.539 2847.5 622.399 2893.53 619.049C2939.56 615.7 2984.78 632.449 3017.42 665.08L4781.83 2437.44H1475.33L2777.59 682.574ZM317.623 1794.25C317.499 1443.32 601.994 1158.88 952.868 1159.01H2029.62L1079.92 2437.44H952.868C601.994 2437.5 317.499 2153.07 317.623 1802.19V1794.25ZM6781.24 7050.91H952.868C601.994 7050.97 317.499 6766.54 317.623 6415.66V2512.07C492.067 2668.83 718.373 2755.37 952.868 2755.06H5131.22C5157.27 2761.39 5184.51 2761.39 5210.63 2755.06H6774.92V3819.1H5876.02C5437.55 3819.22 5082.15 4174.62 5081.96 4613.16V5146.72C5082.15 5585.19 5437.55 5940.66 5876.02 5940.78H6782.86V7050.91H6781.24ZM7349.8 5623.16H5874.41C5611.62 5622.41 5398.78 5409.57 5397.97 5146.72V4613.16C5398.78 4350.31 5611.62 4137.47 5874.41 4136.72H6882.86C6914.87 4147.27 6949.36 4147.27 6981.37 4136.72H7349.8V5623.16Z" fill="#262d36"/>
<path d="M6033.22 4454.27C5945.62 4454.52 5874.65 4525.43 5874.41 4613.09V5146.66C5874.41 5234.37 5945.56 5305.47 6033.22 5305.47C6120.94 5305.47 6192.03 5234.37 6192.03 5146.66V4613.09C6192.21 4570.9 6175.53 4530.39 6145.69 4500.62C6115.91 4470.78 6075.4 4454.09 6033.22 4454.27V4454.27Z" fill="#262d36"/>
</g>
<defs>
<clipPath id="clip0">
<rect width="7669" height="7669" fill="white"/>
</clipPath>
</defs>
</svg>
