<svg width="4275" height="4275" viewBox="0 0 4275 4275" fill="none" xmlns="http://www.w3.org/2000/svg">
<path d="M3309.68 1241.13V1090.53C3389.74 1061.98 3447.58 986.128 3447.58 896.369C3447.58 782.336 3354.76 689.514 3240.73 689.514C3202.75 689.514 3171.77 658.54 3171.77 620.563C3171.77 582.586 3202.75 551.611 3240.73 551.611C3278.7 551.611 3309.68 582.586 3309.68 620.563H3447.58C3447.58 530.804 3389.74 454.951 3309.68 426.401V275.805H3171.77V426.401C3091.71 454.951 3033.87 530.804 3033.87 620.563C3033.87 734.596 3126.69 827.418 3240.73 827.418C3278.7 827.418 3309.68 858.392 3309.68 896.369C3309.68 934.346 3278.7 965.321 3240.73 965.321C3202.75 965.321 3171.77 934.346 3171.77 896.369H3033.87C3033.87 986.128 3091.71 1061.98 3171.77 1090.53V1241.13H3309.68Z" fill="#262d36"/>
<path d="M4068.15 2206.45V1983.87C4068.15 1840.95 3978.22 1711.23 3844.39 1661.03L3516.53 1538.11V1464.25C3798.6 1353.58 3999.19 1079.29 3999.19 758.468C3999.19 340.28 3658.91 0 3240.73 0C2822.54 0 2482.26 340.28 2482.26 758.468C2482.26 1079.29 2682.85 1353.58 2964.92 1464.25V1538.11L2637.06 1661.1C2503.23 1711.23 2413.31 1840.95 2413.31 1983.87V2206.45H2275.4V1103.23H1379.03C1188.94 1103.23 1034.27 1257.9 1034.27 1447.98C1034.27 1561.14 1089.86 1660.9 1174.3 1723.79C1089.86 1786.68 1034.27 1886.44 1034.27 1999.6C1034.27 2077.5 1061.24 2148.68 1105.01 2206.45H896.371V1103.23H206.855V2206.45C92.8221 2206.45 0 2299.27 0 2413.31V2551.21C0 2665.24 92.8221 2758.06 206.855 2758.06V4275H4068.15V2758.06C4182.18 2758.06 4275 2665.24 4275 2551.21V2413.31C4275 2299.27 4182.18 2206.45 4068.15 2206.45ZM3171.37 1884.12L2949.9 1972.7L2905.7 1707.6L3009.73 1668.64L3171.37 1884.12ZM3471.72 1668.64L3575.69 1707.66L3531.48 1972.76L3310.01 1884.18L3471.72 1668.64ZM2620.16 758.468C2620.16 416.336 2898.59 137.903 3240.73 137.903C3582.86 137.903 3861.29 416.336 3861.29 758.468C3861.29 1100.6 3582.86 1379.03 3240.73 1379.03C2898.59 1379.03 2620.16 1100.6 2620.16 758.468ZM3240.73 1516.94C3287.89 1516.94 3333.82 1512.05 3378.63 1503.77V1562.93L3240.73 1746.82L3102.82 1562.93V1503.77C3147.63 1512.05 3193.56 1516.94 3240.73 1516.94ZM2551.21 1983.87C2551.21 1898.09 2605.15 1820.32 2685.44 1790.18L2774.12 1756.95L2842.03 2164.4L3240.73 2004.92L3639.42 2164.33L3707.33 1756.89L3796.01 1790.12C3876.31 1820.32 3930.24 1898.09 3930.24 1983.87V2206.45H2551.21V1983.87ZM2137.5 2206.45H1999.6V1792.74H2137.5V2206.45ZM1723.79 1654.84V1241.13H1861.69V1654.84H1723.79ZM1861.69 1792.74V2206.45H1723.79V1792.74H1861.69ZM2137.5 1654.84H1999.6V1241.13H2137.5V1654.84ZM1172.18 1447.98C1172.18 1333.95 1265 1241.13 1379.03 1241.13H1585.89V1654.84H1379.03C1265 1654.84 1172.18 1562.02 1172.18 1447.98ZM1172.18 1999.6C1172.18 1885.56 1265 1792.74 1379.03 1792.74H1585.89V2206.45H1379.03C1265 2206.45 1172.18 2113.63 1172.18 1999.6ZM758.468 1930.65H344.758V1792.74H758.468V1930.65ZM758.468 1241.13V1654.84H344.758V1241.13H758.468ZM344.758 2068.55H758.468V2206.45H344.758V2068.55ZM3930.24 4137.1H344.758V2758.06H3930.24V4137.1ZM4137.1 2551.21C4137.1 2589.19 4106.12 2620.16 4068.15 2620.16H206.855C168.878 2620.16 137.903 2589.19 137.903 2551.21V2413.31C137.903 2375.33 168.878 2344.35 206.855 2344.35H4068.15C4106.12 2344.35 4137.1 2375.33 4137.1 2413.31V2551.21Z" fill="#262d36"/>
<path d="M2689.11 3861.29H3792.34V3999.19H2689.11V3861.29Z" fill="#262d36"/>
<path d="M2413.31 3585.48H3792.34V3723.39H2413.31V3585.48Z" fill="#262d36"/>
<path d="M482.662 2895.97H1585.89V3033.87H482.662V2895.97Z" fill="#262d36"/>
<path d="M482.662 3171.77H1861.69V3309.68H482.662V3171.77Z" fill="#262d36"/>
<path d="M482.662 1379.03H620.565V1516.93H482.662V1379.03Z" fill="#262d36"/>
<path d="M1310.08 1930.64H1447.98V2068.55H1310.08V1930.64Z" fill="#262d36"/>
<path d="M1310.08 1379.03H1447.98V1516.93H1310.08V1379.03Z" fill="#262d36"/>
</svg>
