<svg width="6698" height="6698" viewBox="0 0 6698 6698" fill="none" xmlns="http://www.w3.org/2000/svg">
<path d="M6698 3457.03V2590.19C6698 2349.81 6543.28 2141.87 6313.08 2072.82L5617.68 1864.19V1700.08C5813.33 1563.25 5941.77 1336.69 5941.77 1080.43V756.226C5941.77 339.236 5602.54 0 5185.55 0C4768.56 0 4429.32 339.236 4429.32 756.226V1080.32C4429.32 1336.69 4557.77 1563.25 4753.42 1699.98V1864.08L4140.57 2047.97C3910.58 1842.3 3617.55 1728.52 3306.43 1728.52C2996.58 1728.52 2713.1 1842.03 2494.03 2029.09L1944.58 1864.19V1700.08C2140.23 1563.25 2268.68 1336.69 2268.68 1080.43V756.226C2268.68 339.236 1929.44 0 1512.45 0C1095.46 0 756.226 339.236 756.226 756.226V1080.32C756.226 1336.69 884.672 1563.25 1080.32 1699.98V1864.08L384.918 2072.71C154.716 2141.87 0 2349.81 0 2590.19V3457.03H216.065V2590.19C216.065 2445.97 308.852 2321.16 447.057 2279.81L1142.67 2071.08C1205.55 2152.73 1327.19 2268.68 1512.45 2268.68C1697.71 2268.68 1819.35 2152.73 1882.23 2071.08L2325.28 2203.95C2184.65 2380.82 2090.96 2596.1 2062.53 2831.63C1924.59 2685.03 1729.25 2592.77 1512.45 2592.77C1095.46 2592.77 756.226 2932.01 756.226 3349V3673.1C756.226 3929.46 884.672 4156.02 1080.32 4292.75V4456.86L384.918 4665.48C154.716 4734.64 0 4942.58 0 5182.96V6157.84H1296.39C1355.89 6157.84 1404.42 6206.37 1404.42 6265.87V6698H5293.58V6265.87C5293.58 6206.37 5342.11 6157.84 5401.61 6157.84H6698V5182.96C6698 4942.58 6543.28 4734.64 6313.08 4665.59L5617.68 4456.96V4292.86C5813.33 4156.02 5941.77 3929.46 5941.77 3673.2V3349.11C5941.77 2932.12 5602.54 2592.88 5185.55 2592.88C4974.02 2592.88 4782.8 2680.39 4645.39 2820.81V2718.42C4645.39 2505.05 4529.44 2312.99 4348.51 2211.44L4815.77 2071.18C4878.65 2152.73 5000.29 2268.68 5185.55 2268.68C5370.81 2268.68 5492.45 2152.73 5555.33 2071.08L6251.05 2279.81C6389.15 2321.16 6481.94 2445.97 6481.94 2590.19V3457.03H6698ZM1512.45 216.065C1810.28 216.065 2052.61 458.399 2052.61 756.226H1557.18C1488.56 756.226 1421.25 728.374 1372.77 679.844L1296.39 603.461L1220 679.844C1171.53 728.374 1104.22 756.226 1035.59 756.226H972.29C972.29 458.399 1214.62 216.065 1512.45 216.065ZM972.29 1080.32V972.29H1035.59C1129.7 972.29 1219.58 945.282 1296.39 894.853C1373.19 945.282 1463.08 972.29 1557.18 972.29H2052.61V1080.32C2052.61 1378.15 1810.28 1620.48 1512.45 1620.48C1214.62 1620.48 972.29 1378.15 972.29 1080.32ZM1512.45 2052.61C1397.61 2052.61 1323.18 1956.13 1296.39 1914.88V1804.79C1364.86 1825.21 1437.39 1836.55 1512.45 1836.55C1587.52 1836.55 1660.05 1825.21 1728.52 1804.69V1914.78C1701.72 1956.24 1627.29 2052.61 1512.45 2052.61ZM4482.02 3948.77C4537.04 4088.5 4631.99 4207.98 4753.42 4292.86V4456.96L4058.12 4665.59C4035.23 4672.4 4012.97 4681.26 3991.23 4691.07L3889.16 4667.54V4454.7C4004.63 4361.91 4095.63 4240.06 4151.49 4100.37C4275.93 4089.45 4392.61 4036.49 4482.02 3948.77V3948.77ZM3349 4645.39C3463.63 4645.39 3572.98 4622.49 3673.1 4581.77V4699.4L3349 4942.48L3024.9 4699.4V4581.77C3125.02 4622.49 3234.37 4645.39 3349 4645.39V4645.39ZM2892.24 4870L3155.62 5067.6L2884.69 5230.17L2816.17 4887.62L2892.24 4870ZM3229.63 5725.71H3468.37L3552.4 6481.94H3145.6L3229.63 5725.71ZM3487.15 5509.65H3210.74L3148.71 5323.6L3349 5203.48L3549.19 5323.6L3487.15 5509.65ZM3542.38 5067.6L3805.76 4870L3881.83 4887.51L3813.31 5230.07L3542.38 5067.6ZM4345.08 3783.08C4307.68 3824.12 4260.15 3852.87 4208.62 3870.38C4211.62 3841 4213.26 3811.25 4213.26 3781.13V3264.18C4329.52 3308.28 4416.03 3410.56 4427.69 3532.78C4436.55 3625.78 4407.27 3714.56 4345.08 3783.08V3783.08ZM3997.19 3781.13C3997.19 4138.62 3706.49 4429.32 3349 4429.32C2991.51 4429.32 2700.81 4138.62 2700.81 3781.13V3240.97H3067.58C3303 3240.97 3532.1 3182.2 3736.92 3069.95L3822.38 3240.97H3997.19V3781.13ZM2489.38 3870.38C2437.85 3852.87 2390.32 3824.12 2352.92 3783.08C2290.73 3714.66 2261.45 3625.78 2270.31 3532.89C2281.97 3410.66 2368.48 3308.28 2484.74 3264.28V3781.13C2484.74 3811.25 2486.38 3841 2489.38 3870.38ZM2546.51 4100.37C2602.27 4240.06 2693.26 4361.91 2808.84 4454.7V4667.54L2706.77 4691.07C2684.93 4681.26 2662.77 4672.5 2639.99 4665.59L1944.58 4456.96V4292.86C2065.91 4207.98 2160.96 4088.5 2215.98 3948.77C2305.39 4036.49 2422.07 4089.45 2546.51 4100.37ZM1512.45 2808.84C1810.28 2808.84 2052.61 3051.17 2052.61 3349H1989.31C1920.68 3349 1853.38 3321.15 1804.9 3272.62L1728.52 3196.24L1652.13 3272.62C1603.66 3321.15 1536.35 3349 1467.72 3349H972.29C972.29 3051.17 1214.62 2808.84 1512.45 2808.84ZM972.29 3673.1V3565.06H1467.72C1561.83 3565.06 1651.71 3538.06 1728.52 3487.63C1805.32 3538.06 1895.21 3565.06 1989.31 3565.06H2052.61V3673.1C2052.61 3970.92 1810.28 4213.26 1512.45 4213.26C1214.62 4213.26 972.29 3970.92 972.29 3673.1ZM1512.45 4429.32C1587.52 4429.32 1660.05 4417.98 1728.52 4397.46V4507.55C1701.72 4549.01 1627.29 4645.39 1512.45 4645.39C1397.61 4645.39 1323.18 4548.91 1296.39 4507.66V4397.57C1364.86 4417.98 1437.39 4429.32 1512.45 4429.32V4429.32ZM1296.39 5941.77H864.258V5185.55H648.194V5941.77H216.065V5182.96C216.065 5038.74 308.852 4913.94 447.057 4872.58L1142.67 4663.85C1205.55 4745.51 1327.19 4861.45 1512.45 4861.45C1697.71 4861.45 1819.35 4745.51 1882.23 4663.85L2291.89 4786.81L1990.58 4856.28C1645.43 4935.99 1404.42 5239.04 1404.42 5593.15V5725.71H1620.48V5593.15C1620.48 5340.16 1792.71 5123.78 2039.21 5066.81L2605.54 4936.09L2732.88 5573.05L2958.91 5437.48L3022.85 5629.34L2928.21 6481.94H2376.71V5617.68H2160.65V6481.94H1620.48V6265.87C1620.48 6087.21 1475.05 5941.77 1296.39 5941.77V5941.77ZM6250.94 4872.58C6389.15 4913.94 6481.94 5038.74 6481.94 5182.96V5941.77H6049.81V5185.55H5833.74V5941.77H5401.61C5222.95 5941.77 5077.52 6087.21 5077.52 6265.87V6481.94H4537.35V5617.68H4321.29V6481.94H3769.79L3675.05 5629.34L3738.98 5437.48L3965.02 5573.05L4092.35 4936.09L4658.79 5066.81C4905.29 5123.78 5077.52 5340.16 5077.52 5593.15V5725.71H5293.58V5593.15C5293.58 5239.04 5052.57 4935.99 4707.42 4856.28L4406.11 4786.81L4815.77 4663.85C4878.65 4745.51 5000.29 4861.45 5185.55 4861.45C5370.81 4861.45 5492.45 4745.51 5555.33 4663.85L6250.94 4872.58ZM5401.61 4507.66C5374.82 4549.01 5300.39 4645.39 5185.55 4645.39C5070.5 4645.39 4995.96 4548.59 4969.48 4507.66V4397.46C5037.95 4417.98 5110.48 4429.32 5185.55 4429.32C5260.61 4429.32 5333.14 4417.98 5401.61 4397.46V4507.66ZM5185.55 4213.26C4887.72 4213.26 4645.39 3970.92 4645.39 3673.1V3565.06H4708.69C4802.79 3565.06 4892.68 3538.06 4969.48 3487.63C5046.29 3538.06 5136.17 3565.06 5230.28 3565.06H5725.71V3673.1C5725.71 3970.92 5483.38 4213.26 5185.55 4213.26ZM5185.55 2808.84C5483.38 2808.84 5725.71 3051.17 5725.71 3349H5230.28C5161.65 3349 5094.34 3321.15 5045.87 3272.62L4969.48 3196.24L4893.1 3272.62C4844.62 3321.15 4777.32 3349 4708.69 3349H4645.39C4645.39 3051.17 4887.72 2808.84 5185.55 2808.84ZM4429.32 3142.11C4333.74 3069.74 4215 3024.9 4086.66 3024.9H3955.94L3823.07 2759.15L3721.26 2826.98C3526.93 2956.54 3300.94 3024.9 3067.58 3024.9H2611.34C2483 3024.9 2364.26 3069.74 2268.68 3142.11V2982.33C2268.68 2410.21 2734.3 1944.58 3306.43 1944.58C3583.63 1944.58 3844.32 2052.51 4040.29 2248.47L4154.92 2363.1L4179.13 2371.22C4328.73 2421.13 4429.32 2560.6 4429.32 2718.32V3142.11ZM5185.55 216.065C5483.38 216.065 5725.71 458.399 5725.71 756.226H5662.41C5593.78 756.226 5526.47 728.374 5478 679.844L5401.61 603.461L5325.23 679.844C5276.75 728.374 5209.44 756.226 5140.82 756.226H4645.39C4645.39 458.399 4887.72 216.065 5185.55 216.065ZM4645.39 1080.32V972.29H5140.82C5234.92 972.29 5324.81 945.282 5401.61 894.853C5478.42 945.282 5568.3 972.29 5662.41 972.29H5725.71V1080.32C5725.71 1378.15 5483.38 1620.48 5185.55 1620.48C4887.72 1620.48 4645.39 1378.15 4645.39 1080.32ZM5185.55 2052.61C5070.5 2052.61 4995.96 1955.82 4969.48 1914.88V1804.69C5037.95 1825.21 5110.48 1836.55 5185.55 1836.55C5260.61 1836.55 5333.14 1825.21 5401.61 1804.69V1914.78C5374.82 1956.24 5300.39 2052.61 5185.55 2052.61Z" fill="#E53B24"/>
<path d="M2484.74 0H2700.81V216.065H2484.74V0Z" fill="#E53B24"/>
<path d="M2484.74 432.133H2700.81V1620.49H2484.74V432.133Z" fill="#E53B24"/>
<path d="M3997.19 0H4213.26V216.065H3997.19V0Z" fill="#E53B24"/>
<path d="M3997.19 432.133H4213.26V1620.49H3997.19V432.133Z" fill="#E53B24"/>
<path d="M2916.87 432.133H3132.94V1188.36H2916.87V432.133Z" fill="#E53B24"/>
<path d="M2916.87 1404.42H3132.94V1620.49H2916.87V1404.42Z" fill="#E53B24"/>
<path d="M3565.06 432.133H3781.13V1188.36H3565.06V432.133Z" fill="#E53B24"/>
<path d="M3565.06 1404.42H3781.13V1620.49H3565.06V1404.42Z" fill="#E53B24"/>
</svg>
