<svg width="512" height="384" viewBox="0 0 512 384" fill="none" xmlns="http://www.w3.org/2000/svg">
<path d="M10.6884 31.156C80.9584 90.667 204.26 195.365 240.5 228.01C245.365 232.416 250.583 234.656 256 234.656C261.406 234.656 266.615 232.437 271.469 228.052C307.74 195.375 431.042 90.667 501.313 31.156C505.688 27.458 506.355 20.958 502.813 16.437C494.625 5.99 482.417 0 469.333 0H42.6674C29.5844 0 17.3754 5.99 9.18839 16.438C5.64638 20.958 6.31339 27.458 10.6884 31.156Z" fill="#ED1C25"/>
<path d="M505.813 63.4066C502.032 61.6466 497.584 62.2606 494.438 64.9486C416.51 131.011 317.052 215.689 285.76 243.886C268.197 259.74 243.822 259.74 226.218 243.865C192.864 213.813 81.176 118.865 17.562 64.9476C14.395 62.2596 9.937 61.6666 6.187 63.4056C2.417 65.1566 0 68.9275 0 73.0835V341.334C0 364.866 19.135 384.001 42.667 384.001H469.334C492.865 384.001 512 364.866 512 341.334V73.0835C512 68.9275 509.583 65.1466 505.813 63.4066Z" fill="#ED1C25"/>
</svg>
