<svg width="5690" height="5690" viewBox="0 0 5690 5690" fill="none" xmlns="http://www.w3.org/2000/svg">
<path d="M5088.17 273.574H601.829C269.975 273.574 0 543.56 0 875.403V3337.42V3720.4C0 4052.25 269.975 4322.23 601.829 4322.23H2054.99L1879.91 5197.61H1313.08C1252.64 5197.61 1203.66 5246.6 1203.66 5307.03C1203.66 5367.47 1252.64 5416.46 1313.08 5416.46H4376.92C4437.36 5416.46 4486.34 5367.47 4486.34 5307.03C4486.34 5246.6 4437.36 5197.61 4376.92 5197.61H3810.09L3635.01 4322.23H5088.17C5420.01 4322.23 5690 4052.26 5690 3720.4V3337.42V875.403C5690 543.56 5420.03 273.574 5088.17 273.574ZM2103.09 5197.61L2278.17 4322.23H3411.83L3586.91 5197.61H2103.09ZM5471.16 3720.4C5471.16 3931.58 5299.36 4103.39 5088.17 4103.39H601.829C390.654 4103.39 218.843 3931.59 218.843 3720.4V3446.85H5471.15V3720.4H5471.16ZM5471.16 3228.01H218.843V3009.16H875.382C935.816 3009.16 984.803 2960.18 984.803 2899.74C984.803 2839.31 935.816 2790.32 875.382 2790.32H218.843V875.403C218.843 664.228 390.643 492.417 601.829 492.417H5088.17C5299.35 492.417 5471.16 664.217 5471.16 875.403V3228.01Z" fill="#262d36"/>
<path d="M2845 3556.25C2724.33 3556.25 2626.15 3654.42 2626.15 3775.09C2626.15 3895.76 2724.33 3993.94 2845 3993.94C2965.66 3993.94 3063.84 3895.76 3063.84 3775.09C3063.84 3654.42 2965.66 3556.25 2845 3556.25Z" fill="#262d36"/>
<path d="M3740.86 2369.16L3508.74 2137.04L3702.17 1943.61C3730.3 1915.48 3740.95 1874.31 3729.98 1836.07C3719.01 1797.84 3688.16 1768.57 3649.4 1759.61L2643.53 1527.49C2606.78 1519.03 2568.24 1530.05 2541.55 1556.74C2514.88 1583.42 2503.82 1621.95 2512.3 1658.72L2744.44 2664.57C2753.39 2703.33 2782.66 2734.19 2820.9 2745.16C2859.15 2756.11 2900.31 2745.47 2928.45 2717.35L3121.87 2523.91L3354 2756.04C3375.37 2777.41 3403.37 2788.09 3431.37 2788.09C3459.36 2788.09 3487.38 2777.41 3508.74 2756.04L3740.86 2523.91C3783.58 2481.18 3783.58 2411.9 3740.86 2369.16ZM3431.37 2523.91L3199.24 2291.79C3177.87 2270.42 3149.87 2259.74 3121.87 2259.74C3093.88 2259.74 3065.86 2270.42 3044.5 2291.79L2913.3 2423L2764.94 1780.11L3407.83 1928.46L3276.61 2059.67C3233.88 2102.4 3233.88 2171.69 3276.61 2214.42L3508.74 2446.54L3431.37 2523.91Z" fill="#262d36"/>
<path d="M2394.59 1255.05L2285.17 1145.63C2242.44 1102.9 2173.15 1102.9 2130.42 1145.63C2087.69 1188.36 2087.69 1257.64 2130.42 1300.38L2239.85 1409.8C2261.22 1431.17 2289.23 1441.85 2317.22 1441.85C2345.21 1441.85 2373.23 1431.17 2394.59 1409.8C2437.32 1367.08 2437.32 1297.79 2394.59 1255.05Z" fill="#262d36"/>
<path d="M2181.25 1551.26H2026.51C1966.07 1551.26 1917.08 1600.25 1917.08 1660.68C1917.08 1721.11 1966.07 1770.1 2026.51 1770.1H2181.25C2241.68 1770.1 2290.67 1721.11 2290.67 1660.68C2290.67 1600.25 2241.68 1551.26 2181.25 1551.26Z" fill="#262d36"/>
<path d="M2394.59 1911.58C2351.87 1868.85 2282.59 1868.85 2239.85 1911.58L2130.43 2021C2087.7 2063.73 2087.7 2133.02 2130.43 2175.75C2151.8 2197.12 2179.81 2207.8 2207.8 2207.8C2235.79 2207.8 2263.81 2197.12 2285.17 2175.75L2394.59 2066.33C2437.32 2023.61 2437.32 1954.32 2394.59 1911.58Z" fill="#262d36"/>
<path d="M3160.56 1145.63C3117.83 1102.9 3048.55 1102.9 3005.81 1145.63L2896.39 1255.05C2853.66 1297.78 2853.66 1367.07 2896.39 1409.8C2917.76 1431.17 2945.76 1441.85 2973.77 1441.85C3001.78 1441.85 3029.78 1431.17 3051.14 1409.8L3160.56 1300.38C3203.29 1257.66 3203.29 1188.37 3160.56 1145.63Z" fill="#262d36"/>
<path d="M2645.51 932.297C2585.07 932.297 2536.09 981.284 2536.09 1041.72V1196.46C2536.09 1256.89 2585.07 1305.88 2645.51 1305.88C2705.94 1305.88 2754.93 1256.89 2754.93 1196.46V1041.72C2754.93 981.284 2705.94 932.297 2645.51 932.297Z" fill="#262d36"/>
<path d="M1310.89 2878.34C1309.58 2871.34 1307.39 2864.45 1304.65 2857.77C1301.92 2851.21 1298.53 2844.86 1294.59 2838.95C1290.65 2832.92 1286.05 2827.35 1281.02 2822.31C1275.98 2817.28 1270.4 2812.69 1264.38 2808.74C1258.47 2804.81 1252.12 2801.41 1245.45 2798.67C1238.89 2795.94 1232 2793.75 1224.99 2792.44C1210.88 2789.59 1196.43 2789.59 1182.32 2792.44C1175.32 2793.75 1168.43 2795.94 1161.86 2798.67C1155.18 2801.41 1148.83 2804.8 1142.93 2808.74C1136.91 2812.68 1131.33 2817.28 1126.3 2822.31C1121.26 2827.35 1116.67 2832.92 1112.73 2838.95C1108.79 2844.86 1105.39 2851.21 1102.66 2857.77C1099.93 2864.45 1097.74 2871.34 1096.42 2878.34C1095 2885.35 1094.24 2892.57 1094.24 2899.68C1094.24 2906.79 1095 2914.02 1096.42 2921.02C1097.74 2928.02 1099.93 2934.91 1102.66 2941.48C1105.39 2948.16 1108.78 2954.5 1112.73 2960.4C1116.66 2966.43 1121.26 2972.01 1126.3 2977.04C1131.33 2982.08 1136.91 2986.67 1142.93 2990.61C1148.85 2994.54 1155.19 2997.95 1161.86 3000.68C1168.43 3003.41 1175.32 3005.6 1182.32 3007.02C1189.32 3008.45 1196.54 3009.1 1203.66 3009.1C1210.77 3009.1 1217.99 3008.45 1224.99 3007.02C1232 3005.6 1238.89 3003.41 1245.45 3000.68C1252.13 2997.95 1258.48 2994.56 1264.38 2990.61C1270.4 2986.68 1275.98 2982.08 1281.02 2977.04C1286.05 2972.01 1290.64 2966.43 1294.59 2960.4C1298.52 2954.49 1301.92 2948.15 1304.65 2941.48C1307.39 2934.91 1309.58 2928.02 1310.89 2921.02C1312.31 2914.02 1313.08 2906.79 1313.08 2899.68C1313.08 2892.57 1312.31 2885.35 1310.89 2878.34Z" fill="#262d36"/>
</svg>
