<svg width="561" height="323" viewBox="0 0 561 323" fill="none" xmlns="http://www.w3.org/2000/svg">
<g clip-path="url(#clip0)">
<path opacity="0.5" d="M139.215 211.536C105.296 199.828 66.5141 189.919 34.824 206.742C30.8077 208.875 26.8501 211.559 24.6861 215.554C18.9702 226.063 28.0556 239.691 23.6276 250.799C19.1995 261.907 2.53421 267.499 3.89848 279.365C4.25719 282.467 5.93902 285.275 7.92075 287.695C20.3345 302.845 43.092 304.378 62.3272 300.618C81.5623 296.859 100.374 289.064 119.956 290.045C138.774 291.014 156.086 300.031 173.328 307.62C202.395 320.45 236.343 329.655 265.387 316.761C278.694 310.851 289.697 300.789 302.434 293.763C319.599 284.382 339.33 280.766 358.71 283.448C371.647 285.269 383.997 289.851 396.657 293.011C425.413 300.184 455.427 299.949 485.059 299.667C490.575 299.614 496.179 299.549 501.465 297.975C509.292 295.625 515.749 290.215 521.965 284.922C530.133 277.973 538.736 270.337 541.371 259.945C544.481 247.609 538.042 234.498 528.492 226.115C518.942 217.733 506.734 213.151 494.821 208.734C491.88 207.653 488.74 206.554 485.729 207.371C483.753 207.911 482.089 209.227 480.613 210.643C472.157 218.773 465.012 232.524 453.481 230.316C449.364 229.528 445.995 226.668 442.737 224.024C425.342 209.926 401.944 199.041 380.95 206.83C365.596 212.528 354.759 227.161 339.199 232.325C328.132 236.002 316.106 234.41 304.463 235.127C287.527 236.16 271.044 242.14 254.084 241.776C210.839 240.848 174.809 199.541 131.741 203.476C128.365 203.782 124.684 204.557 122.614 207.224" fill="#FF0000"/>
<path d="M84.6788 172.244C84.6788 172.244 48.7431 193.914 115.01 227.292C115.01 227.292 129.612 200.211 113.47 178.13C110.337 173.828 105.734 170.823 100.532 169.684C95.3297 168.545 89.8901 169.351 85.2434 171.95L84.6788 172.244Z" fill="#FF0000"/>
<path d="M85.1084 171.791C85.1084 171.791 115.875 195.288 115.017 227.273" stroke="#535461" stroke-miterlimit="10"/>
<path d="M539.33 154.193C546.611 180.786 515.556 256.546 515.556 256.546C515.556 256.546 450.211 207.126 442.925 180.533C441.02 174.157 440.409 167.465 441.129 160.85C441.849 154.235 443.885 147.83 447.119 142.012C450.352 136.195 454.716 131.081 459.956 126.972C465.196 122.864 471.205 119.842 477.63 118.086C484.055 116.33 490.766 115.875 497.37 116.747C503.974 117.619 510.337 119.801 516.084 123.164C521.832 126.527 526.849 131.004 530.84 136.332C534.831 141.659 537.716 147.73 539.325 154.187L539.33 154.193Z" fill="#FF0000"/>
<path opacity="0.1" d="M539.33 154.193C546.611 180.786 515.556 256.546 515.556 256.546C515.556 256.546 450.211 207.126 442.925 180.533C441.02 174.157 440.409 167.465 441.129 160.85C441.849 154.235 443.885 147.83 447.119 142.012C450.352 136.195 454.716 131.081 459.956 126.972C465.196 122.864 471.205 119.842 477.63 118.086C484.055 116.33 490.766 115.875 497.37 116.747C503.974 117.619 510.337 119.801 516.084 123.164C521.832 126.527 526.849 131.004 530.84 136.332C534.831 141.659 537.716 147.73 539.325 154.187L539.33 154.193Z" fill="black"/>
<path d="M478.208 119.365C478.208 119.365 518.883 180.704 515.843 256.693" stroke="#535461" stroke-miterlimit="10"/>
<path d="M549.709 202.795C549.709 202.795 512.826 182.753 517.496 256.738C517.496 256.738 548.262 255.64 559.182 230.569C561.318 225.693 561.588 220.203 559.941 215.142C558.295 210.08 554.847 205.798 550.25 203.107L549.709 202.795Z" fill="#FF0000"/>
<path d="M550.315 202.926C550.315 202.926 545.552 241.331 517.496 256.74" stroke="#535461" stroke-miterlimit="10"/>
<path d="M9.73814 194.549C9.73814 194.549 -26.2153 216.213 40.058 249.573C40.058 249.573 54.6593 222.493 38.5173 200.411C35.3848 196.109 30.7815 193.104 25.5794 191.965C20.3772 190.826 14.9376 191.633 10.2909 194.232L9.73814 194.549Z" fill="#FF0000"/>
<path d="M10.1494 194.096C10.1494 194.096 40.9162 217.593 40.0577 249.578" stroke="#535461" stroke-miterlimit="10"/>
<path d="M458.344 222.75H420.562C421.432 221.004 421.882 219.079 421.879 217.128V45.2722C421.879 41.921 420.547 38.7072 418.175 36.3376C415.802 33.9679 412.585 32.6367 409.23 32.6367H116.775C113.421 32.6367 110.203 33.9679 107.831 36.3376C105.459 38.7072 104.126 41.921 104.126 45.2722V217.134C104.123 219.085 104.574 221.009 105.444 222.756H66.3265C65.8856 222.756 65.4491 222.843 65.042 223.012C64.6349 223.181 64.2652 223.429 63.9543 223.741C63.6433 224.053 63.3972 224.424 63.2301 224.831C63.063 225.239 62.9782 225.676 62.9805 226.116V228.812C62.9805 233.77 64.9519 238.524 68.4611 242.029C71.9702 245.535 76.7296 247.504 81.6923 247.504H442.979C447.941 247.504 452.701 245.535 456.21 242.029C459.719 238.524 461.69 233.77 461.69 228.812V226.116C461.694 225.675 461.609 225.238 461.443 224.83C461.276 224.421 461.03 224.05 460.719 223.737C460.408 223.424 460.038 223.176 459.63 223.007C459.223 222.837 458.786 222.75 458.344 222.75ZM225.541 233.441L222.283 229.77H302.717L299.13 233.447L225.541 233.441Z" fill="url(#paint0_linear)"/>
<path d="M404.59 35.0703H121.385C113.831 35.0703 107.707 41.1876 107.707 48.7338V214.075C107.707 221.622 113.831 227.739 121.385 227.739H404.59C412.144 227.739 418.268 221.622 418.268 214.075V48.7338C418.268 41.1876 412.144 35.0703 404.59 35.0703Z" fill="#535461"/>
<path d="M411.076 63.1543H114.246V220.554H411.076V63.1543Z" fill="white"/>
<path d="M262.665 52.0503C264.11 52.0503 265.281 50.88 265.281 49.4363C265.281 47.9926 264.11 46.8223 262.665 46.8223C261.219 46.8223 260.048 47.9926 260.048 49.4363C260.048 50.88 261.219 52.0503 262.665 52.0503Z" fill="white"/>
<path d="M308.491 220.877L298.294 231.327H226.399L217.184 220.877H70.7657C69.8985 220.877 69.0669 221.221 68.4537 221.834C67.8406 222.446 67.4961 223.277 67.4961 224.143V226.775C67.4961 231.62 69.4229 236.267 72.8526 239.693C76.2824 243.119 80.9341 245.043 85.7845 245.043H438.885C441.287 245.043 443.665 244.571 445.884 243.653C448.103 242.735 450.119 241.389 451.817 239.693C453.515 237.996 454.862 235.982 455.781 233.766C456.7 231.549 457.174 229.174 457.174 226.775V224.143C457.174 223.277 456.829 222.446 456.216 221.834C455.603 221.221 454.771 220.877 453.904 220.877H308.491Z" fill="#535461"/>
<path d="M152.17 72.9531V206.838H373.806" stroke="#535461" stroke-width="2" stroke-miterlimit="10"/>
<path opacity="0.5" d="M194.662 166.346H171.781V201.615H194.662V166.346Z" fill="#FF0000"/>
<path opacity="0.7" d="M233.891 134.996H211.01V201.616H233.891V134.996Z" fill="#FF0000"/>
<path opacity="0.5" d="M273.12 153.934H250.239V201.609H273.12V153.934Z" fill="#FF0000"/>
<path opacity="0.8" d="M312.349 124.545H289.468V201.615H312.349V124.545Z" fill="#FF0000"/>
<path d="M351.577 97.1133H328.696V201.61H351.577V97.1133Z" fill="#FF0000"/>
<path d="M182.896 144.793L222.777 108.872L262.006 142.831L300.582 101.688L339.811 85.3574" stroke="#535461" stroke-width="2" stroke-miterlimit="10"/>
<path d="M182.895 149.363C185.422 149.363 187.47 147.317 187.47 144.793C187.47 142.269 185.422 140.223 182.895 140.223C180.369 140.223 178.32 142.269 178.32 144.793C178.32 147.317 180.369 149.363 182.895 149.363Z" fill="#FF0000"/>
<path d="M261.353 146.75C263.88 146.75 265.928 144.704 265.928 142.18C265.928 139.655 263.88 137.609 261.353 137.609C258.827 137.609 256.778 139.655 256.778 142.18C256.778 144.704 258.827 146.75 261.353 146.75Z" fill="#FF0000"/>
<path d="M301.234 106.259C303.761 106.259 305.809 104.213 305.809 101.689C305.809 99.1653 303.761 97.1191 301.234 97.1191C298.707 97.1191 296.659 99.1653 296.659 101.689C296.659 104.213 298.707 106.259 301.234 106.259Z" fill="#FF0000"/>
<path d="M222.777 112.785C225.304 112.785 227.352 110.739 227.352 108.215C227.352 105.691 225.304 103.645 222.777 103.645C220.25 103.645 218.202 105.691 218.202 108.215C218.202 110.739 220.25 112.785 222.777 112.785Z" fill="#FF0000"/>
<path d="M339.81 89.9294C342.337 89.9294 344.385 87.8832 344.385 85.3592C344.385 82.8352 342.337 80.7891 339.81 80.7891C337.284 80.7891 335.235 82.8352 335.235 85.3592C335.235 87.8832 337.284 89.9294 339.81 89.9294Z" fill="#FF0000"/>
<path d="M510.021 226.598C507.61 225.805 504.035 224.889 501.201 225.212C498.502 224.231 492.156 221.687 487.823 217.857C487.948 214.091 487.851 210.321 487.534 206.567C485.317 181.384 490.304 164.784 490.304 164.784C490.304 164.784 494.221 152.119 493.791 141.61C494.044 142.086 494.185 142.368 494.185 142.368C494.526 133.304 497.619 123.923 499.936 118.078C500.025 118.052 500.111 118.021 500.195 117.984L502.783 111.851C502.989 111.493 503.153 111.113 503.271 110.717L503.688 109.748L503.565 109.695C503.606 109.537 503.647 109.366 503.688 109.196C505.341 102.211 506.628 85.6461 506.628 85.6461C511.062 68.2114 500.536 57.4498 500.536 57.4498L482.671 42.0946C482.76 42.2945 482.82 42.5062 482.848 42.7231L482.701 42.5939C482.448 41.8714 482.171 41.0079 481.901 40.021C482.531 39.569 483.121 39.0639 483.665 38.5113C485.696 36.5951 487.093 34.105 487.67 31.3741C488.016 29.2386 488.105 27.0692 487.934 24.9125L487.64 17.5051C487.627 16.0554 487.479 14.6101 487.199 13.1875C485.853 7.31332 479.825 3.20136 473.774 2.93114C471.849 2.91994 469.924 3.02194 468.011 3.23661C466.446 3.36501 464.875 3.39836 463.307 3.33647C463.128 3.34592 462.951 3.29863 462.801 3.20136C462.665 3.06568 462.587 2.8824 462.583 2.6903C462.553 2.3465 462.592 2.00002 462.699 1.67186C462.806 1.34369 462.979 1.04067 463.207 0.781176C463.443 0.573796 463.719 0.415995 464.018 0.317116L463.589 0.416977C463.801 0.250262 464.039 0.121112 464.295 0.0351562C462.726 0.310644 461.218 0.857306 459.837 1.65057C459.457 1.9002 459.107 2.194 458.796 2.52582C457.974 3.24655 457.44 4.23933 457.291 5.32196C456.554 4.70057 456.005 3.88717 455.703 2.97227C455.61 2.59816 455.61 2.20678 455.703 1.83267C455.597 1.9619 455.495 2.09504 455.397 2.23211C455.397 2.19099 455.397 2.14988 455.397 2.10876C454.261 3.50414 453.457 5.13914 453.045 6.89037C452.887 6.70074 452.768 6.48155 452.695 6.24557C452.623 6.00959 452.598 5.76152 452.622 5.51581C452.534 5.7919 452.451 6.06798 452.375 6.34407C452.348 6.16097 452.348 5.97498 452.375 5.79189C451.683 7.90965 451.37 10.1329 451.452 12.3593C451.452 14.5797 452.44 18.0396 454.821 18.8209C454.945 18.862 455.068 18.8914 455.198 18.9208C453.858 20.9992 453.056 23.3771 452.863 25.8414C452.67 28.3057 453.092 30.7793 454.092 33.0405C455.091 35.3016 456.637 37.2797 458.59 38.7974C460.543 40.315 462.843 41.3248 465.283 41.7363C465.322 42.0065 465.359 42.2904 465.394 42.588H465.488C465.553 43.1754 465.606 43.8216 465.641 44.4795C465.04 45.0678 464.382 45.5951 463.677 46.0538C461.678 47.2344 459.448 47.9717 457.138 48.2155C454.38 48.4317 451.7 49.2327 449.276 50.5652C446.424 52.1571 443.278 54.4774 442.29 57.2971C440.643 61.9964 431.576 69.3099 425.495 70.2204L423.331 70.097L423.172 70.05V70.0911L422.643 70.0618H422.614H422.473V70.0911L421.926 70.0618C421.926 70.0618 421.873 70.3144 421.796 70.7608C418.738 69.7093 412.24 66.7957 403.784 59.1298C394.375 50.5946 381.644 52.2746 376.734 53.3496C376.567 53.3864 376.415 53.4732 376.299 53.5985C376.182 53.7238 376.107 53.8815 376.083 54.0506C376.058 54.2198 376.086 54.3923 376.163 54.5452C376.239 54.6981 376.361 54.824 376.511 54.9063C378.492 55.993 381.562 57.5732 382.979 57.7494C382.979 57.7494 380.039 60.8216 383.167 62.4488C383.543 62.63 383.961 62.7046 384.376 62.6641C384.79 62.6237 385.186 62.4699 385.519 62.2197C387.037 61.1094 391.253 63.6236 397.363 64.9336C397.363 64.9336 414.604 82.7559 423.166 85.4933C423.364 85.8825 423.582 86.261 423.819 86.6271L424.348 86.5859V86.6271H424.572L424.637 87.2145C424.637 87.2145 437.95 86.5155 442.278 81.6869C442.584 81.4128 442.866 81.112 443.119 80.7881L438.491 138.943H438.532L438.491 139.495H441.896C442.187 146.647 441.878 153.812 440.973 160.912V198.825C440.973 198.825 440.796 202.161 447.735 207.049C455.011 212.108 462.021 217.537 468.74 223.314L469.581 224.043C468.305 235.644 465.635 257.267 463.407 258.072L464.783 258.313C462.431 261.291 455.75 269.474 453.716 269.691C451.222 269.967 449.558 273.844 453.716 274.673C462.017 276.108 470.553 275.268 478.414 272.241C479.198 271.932 479.855 271.369 480.282 270.643C480.708 269.917 480.879 269.069 480.766 268.235L479.96 262.125C480.113 262.21 480.236 262.339 480.313 262.495C480.866 264.158 480.313 260.281 480.313 260.281C482.591 252.967 484.381 245.51 485.67 237.959L493.903 245.067C493.903 245.067 494.068 244.861 494.356 244.479C496.373 249.049 499.972 258.401 499.166 265.25C498.061 274.649 508.575 266.355 507.475 260.821C506.581 256.345 510.58 237.371 512.138 230.275C512.306 229.509 512.182 228.708 511.791 228.028C511.4 227.348 510.769 226.838 510.021 226.598Z" fill="url(#paint1_linear)"/>
<path d="M423.984 73.088C423.984 73.088 416.14 71.7369 404.508 61.1986C395.305 52.8631 382.891 54.502 378.105 55.5535C377.942 55.5887 377.793 55.6729 377.679 55.7949C377.566 55.9168 377.492 56.0706 377.468 56.2356C377.445 56.4006 377.472 56.569 377.547 56.7179C377.622 56.8669 377.74 56.9894 377.887 57.069C379.822 58.1264 382.821 59.6713 384.226 59.8475C384.226 59.8475 381.327 62.8434 384.409 64.447C384.778 64.628 385.19 64.703 385.599 64.6636C386.008 64.6242 386.398 64.4719 386.726 64.2238C388.207 63.143 392.324 65.5984 398.292 66.8731C398.292 66.8731 421.556 90.9222 426.966 86.8454L423.984 73.088Z" fill="#FEC3BE"/>
<path d="M464.036 40.3907C464.036 40.3907 466.2 49.578 464.036 56.0631L473.774 57.4142L482.43 53.0908V47.4163C482.43 47.4163 478.373 38.7694 479.455 28.7715L464.036 40.3907Z" fill="#FEC3BE"/>
<path d="M491.61 239.527C491.61 239.527 498.667 253.308 497.561 262.495C496.456 271.682 506.758 263.576 505.676 258.172C504.8 253.801 508.705 235.262 510.228 228.366C510.393 227.621 510.275 226.841 509.897 226.177C509.519 225.514 508.907 225.015 508.182 224.777C504.93 223.708 499.484 222.398 496.75 224.401C492.71 227.367 491.61 239.527 491.61 239.527Z" fill="#8B416F"/>
<path d="M464.848 254.658C464.848 254.658 455.651 266.548 453.217 266.818C450.782 267.088 449.159 270.871 453.217 271.682C461.318 273.09 469.65 272.278 477.327 269.332C478.095 269.033 478.74 268.484 479.159 267.775C479.578 267.066 479.747 266.236 479.638 265.42L478.085 253.848L464.848 254.658Z" fill="#8B416F"/>
<path d="M449.699 128.475L440.879 129.649C442.089 139.941 442.054 150.341 440.773 160.624V197.632C440.773 197.632 440.602 200.892 447.377 205.633C454.48 210.566 461.326 215.86 467.888 221.493L492.433 242.734C492.433 242.734 502.171 230.845 500.819 223.819C500.819 223.819 484.588 218.685 482.424 210.308C481.184 205.515 474.892 201.497 469.74 198.971C466.502 197.4 463.899 194.77 462.364 191.517C460.829 188.264 460.454 184.585 461.302 181.09C461.603 179.876 462.067 178.708 462.684 177.618C467.012 170.052 473.233 153.029 473.233 153.029L461.331 130.366L449.699 128.475Z" fill="#FF0000"/>
<path opacity="0.05" d="M449.699 128.475L440.879 129.649C442.089 139.941 442.054 150.341 440.773 160.624V197.632C440.773 197.632 440.602 200.892 447.377 205.633C454.48 210.566 461.326 215.86 467.888 221.493L492.433 242.734C492.433 242.734 502.171 230.845 500.819 223.819C500.819 223.819 484.588 218.685 482.424 210.308C481.184 205.515 474.892 201.497 469.74 198.971C466.502 197.4 463.899 194.77 462.364 191.517C460.829 188.264 460.454 184.585 461.302 181.09C461.603 179.876 462.067 178.708 462.684 177.618C467.012 170.052 473.233 153.029 473.233 153.029L461.331 130.366L449.699 128.475Z" fill="#FF0000"/>
<path d="M462.684 255.489C462.684 255.489 478.644 258.191 479.185 259.812C479.726 261.433 479.185 257.65 479.185 257.65C479.185 257.65 488.382 229.818 486.242 205.235C484.101 180.651 488.947 164.432 488.947 164.432C488.947 164.432 494.627 146.058 491.381 135.519C488.135 124.981 454.052 129.575 454.052 129.575C454.052 129.575 465.954 157.407 465.683 170.647C465.683 170.647 467.036 210.639 469.47 215.232C469.447 215.209 465.66 254.39 462.684 255.489Z" fill="#FF0000"/>
<path d="M464.56 47.416C464.56 47.416 466.183 57.4022 482.413 53.0905L471.616 135.23C471.616 135.23 440.238 136.311 440.509 132.528L446.977 82.8141L464.56 47.416Z" fill="white"/>
<path opacity="0.1" d="M464.983 46.875C462.87 48.9535 460.116 50.2594 457.168 50.5816C454.475 50.7878 451.857 51.5648 449.488 52.8608C446.707 54.4175 443.608 56.6791 442.667 59.4341C440.773 64.8384 428.871 73.7554 423.461 71.864L425.354 88.0768C425.354 88.0768 440.773 87.2662 443.478 81.3215L438.886 139.177H442.943C442.943 139.177 445.107 123.504 446.73 120.262C448.353 117.019 451.599 99.185 451.87 94.8615C452.14 90.5381 456.198 65.6784 459.714 61.3785L465.007 48.5433L464.983 46.875Z" fill="black"/>
<path opacity="0.1" d="M464.983 47.6875C462.566 49.5764 459.675 50.7652 456.627 51.1239C453.935 51.3345 451.319 52.1155 448.953 53.4149C446.171 54.9715 443.072 57.2331 442.131 59.9881C440.238 65.3924 428.336 74.3095 422.926 72.418L424.819 88.6308C424.819 88.6308 440.238 87.8202 442.943 81.8755L438.344 139.695H442.402C442.402 139.695 444.566 124.023 446.189 120.78C447.812 117.538 451.058 99.7038 451.329 95.3803C451.599 91.0569 455.657 66.1972 459.173 61.8972L464.983 49.3029V47.6875Z" fill="black"/>
<path d="M464.983 47.1465C462.566 49.0354 459.675 50.2242 456.627 50.5829C453.934 50.7891 451.316 51.5661 448.947 52.8621C446.166 54.4188 443.067 56.6803 442.126 59.4354C440.232 64.8396 428.33 73.7567 422.92 71.8652L424.813 88.0781C424.813 88.0781 440.232 87.2674 442.937 81.3227L438.344 139.178H442.402C442.402 139.178 444.566 123.506 446.189 120.263C447.812 117.02 451.058 99.1862 451.329 94.8628C451.599 90.5394 455.657 65.6797 459.173 61.3797L464.989 48.8148L464.983 47.1465Z" fill="#FD6F8D"/>
<path opacity="0.1" d="M478.779 36.7427C478.426 34.1815 479.131 32.5838 479.455 29.582L464.036 41.2013C464.036 41.2013 464.407 42.7697 464.689 45.0665C465.467 45.192 466.253 45.2549 467.041 45.2545C472.392 45.2545 476.244 41.0779 478.779 36.7427Z" fill="black"/>
<path d="M467.011 44.4507C475.079 44.4507 481.619 37.9178 481.619 29.8591C481.619 21.8004 475.079 15.2676 467.011 15.2676C458.944 15.2676 452.404 21.8004 452.404 29.8591C452.404 37.9178 458.944 44.4507 467.011 44.4507Z" fill="#FEC3BE"/>
<path opacity="0.1" d="M451.07 15.5551C450.976 13.0944 451.376 10.6398 452.246 8.33569C452.004 8.69821 451.902 9.13585 451.958 9.56775C452.015 9.99966 452.225 10.3966 452.552 10.6854C453.023 8.17421 454.313 5.88959 456.221 4.18849C455.18 4.35885 454.645 5.6453 454.904 6.66742C455.256 7.66576 455.881 8.54517 456.709 9.20508C456.621 7.66016 457.644 6.21511 458.938 5.36922C460.286 4.59579 461.759 4.06304 463.29 3.79492C462.765 3.98108 462.316 4.3356 462.014 4.80316C461.712 5.27071 461.573 5.82501 461.62 6.37958C461.624 6.56799 461.702 6.74717 461.837 6.87889C461.984 6.9728 462.157 7.01802 462.331 7.00812C463.855 7.06678 465.381 7.03343 466.9 6.90826C468.769 6.6982 470.648 6.59817 472.528 6.60868C478.408 6.8554 484.318 10.8675 485.636 16.5949C485.909 17.9845 486.052 19.3964 486.065 20.8125L486.353 28.0437C486.52 30.1533 486.433 32.2754 486.094 34.3644C485.687 36.2928 484.859 38.1077 483.668 39.6796C482.478 41.2514 480.955 42.5415 479.208 43.4577C477.085 40.3855 476.897 36.438 476.162 32.7783C476.046 31.9338 475.732 31.1286 475.245 30.4286C474.993 30.0825 474.64 29.8231 474.235 29.6863C473.829 29.5495 473.391 29.542 472.981 29.665C472.187 29.9822 471.846 31.1923 472.504 31.7327C471.916 32.4259 470.817 31.9089 470.152 31.2922C468.297 29.5336 467.019 27.2538 466.489 24.7542C466.224 23.4971 465.959 21.9463 464.725 21.5175C464.3 21.4008 463.856 21.3709 463.419 21.4293C460.843 21.6056 456.815 22.6688 454.322 21.8523C452.034 21.1063 451.07 17.7227 451.07 15.5551Z" fill="black"/>
<path d="M451.341 15.2856C451.247 12.8248 451.647 10.3702 452.517 8.06616C452.275 8.42868 452.173 8.86631 452.229 9.29821C452.285 9.73012 452.496 10.1271 452.822 10.4159C453.293 7.90468 454.584 5.62006 456.492 3.91896C455.451 4.08931 454.916 5.37577 455.175 6.39789C455.526 7.39623 456.152 8.27563 456.98 8.93554C456.892 7.39062 457.915 5.94557 459.209 5.09968C460.557 4.32625 462.029 3.79351 463.56 3.52539C463.035 3.71155 462.587 4.06607 462.285 4.53362C461.982 5.00118 461.844 5.55548 461.89 6.11005C461.895 6.29846 461.973 6.47764 462.108 6.60936C462.255 6.70327 462.427 6.74848 462.602 6.73858C464.125 6.79724 465.651 6.76389 467.171 6.63872C469.039 6.42866 470.918 6.32863 472.798 6.33914C478.679 6.58586 484.589 10.598 485.906 16.3253C486.179 17.715 486.323 19.1269 486.335 20.543L486.624 27.7742C486.791 29.8838 486.704 32.0059 486.365 34.0948C485.957 36.0233 485.129 37.8382 483.939 39.41C482.749 40.9819 481.226 42.2719 479.479 43.1881C477.356 40.1159 477.168 36.1684 476.433 32.5088C476.317 31.6643 476.002 30.8591 475.515 30.1591C475.264 29.813 474.911 29.5536 474.505 29.4167C474.099 29.2799 473.661 29.2725 473.251 29.3955C472.457 29.7127 472.116 30.9228 472.775 31.4632C472.187 32.1564 471.087 31.6394 470.423 31.0226C468.567 29.2641 467.289 26.9842 466.759 24.4846C466.495 23.2275 466.23 21.6767 464.995 21.2479C464.57 21.1313 464.126 21.1013 463.69 21.1598C461.114 21.336 457.086 22.3993 454.592 21.5827C452.305 20.8308 451.341 17.4532 451.341 15.2856Z" fill="#784F69"/>
<path opacity="0.1" d="M422.22 71.8711C422.22 71.8711 420.056 81.8573 424.114 88.0839L426.413 87.896L425.16 72.0356L422.22 71.8711Z" fill="black"/>
<path d="M422.808 71.8711C422.808 71.8711 420.644 81.8573 424.701 88.0839L427.001 87.896L425.748 72.0356L422.808 71.8711Z" fill="#FD6F8D"/>
<path opacity="0.1" d="M480.943 44.6035L498.39 59.6004C498.39 59.6004 508.669 70.1388 504.341 87.1623C504.341 87.1623 502.448 112.022 500.284 113.103C500.284 113.103 492.709 128.235 492.168 142.556C492.168 142.556 482.025 122.155 477.426 134.585C472.827 147.015 462.137 148.771 462.137 148.771L468.088 75.2493C468.088 75.2493 483.107 49.1737 480.943 44.6035Z" fill="black"/>
<path d="M481.484 44.6035L498.931 59.6004C498.931 59.6004 509.21 70.1388 504.882 87.1623C504.882 87.1623 502.989 112.022 500.825 113.103C500.825 113.103 493.25 128.235 492.709 142.556C492.709 142.556 482.025 121.074 477.42 133.504C472.816 145.934 462.678 148.777 462.678 148.777L468.629 75.2846C468.629 75.2846 483.648 49.1737 481.484 44.6035Z" fill="#FD6F8D"/>
<path d="M489.464 107.944C489.464 107.944 493.792 104.972 500.825 113.078L483.513 144.423L477.697 135.653C477.697 135.653 490.005 111.457 489.464 107.944Z" fill="#FEC3BE"/>
<path opacity="0.1" d="M485.271 109.701C485.271 109.701 494.844 120.439 498.578 118.718L502.036 110.676L489.058 105.107L485.271 109.701Z" fill="black"/>
<path d="M485.271 109.16C485.271 109.16 494.844 119.898 498.578 118.177L502.036 110.135L489.058 104.566L485.271 109.16Z" fill="#FD6F8D"/>
<path opacity="0.1" d="M478.284 133.604C478.284 133.604 482.842 142.932 485.27 143.472L481.742 147.525L476.603 137.798L478.284 133.604Z" fill="black"/>
<path d="M478.014 133.891C478.014 133.891 482.571 143.219 485 143.759L481.472 147.813L476.32 138.067L478.014 133.891Z" fill="#FF0000"/>
<path opacity="0.1" d="M486.623 76.1934C486.623 76.1934 487.164 95.6488 485 102.945L486.623 76.1934Z" fill="black"/>
<path opacity="0.1" d="M442.802 79.9764C442.802 79.9764 446.048 78.8955 446.048 76.1934L442.802 79.9764Z" fill="black"/>
<path d="M48.6256 83.2324C48.6256 83.2324 33.2069 115.094 43.3331 152.801C53.4593 190.507 50.2427 235.627 40.1459 246.788" stroke="#535461" stroke-width="2" stroke-miterlimit="10"/>
<path d="M48.6256 87.4844C50.9737 87.4844 52.8772 85.5829 52.8772 83.2373C52.8772 80.8917 50.9737 78.9902 48.6256 78.9902C46.2775 78.9902 44.374 80.8917 44.374 83.2373C44.374 85.5829 46.2775 87.4844 48.6256 87.4844Z" fill="#FF0000"/>
<path d="M42.2158 103.726C42.2158 103.726 58.199 106.605 62.4506 100.789" stroke="#535461" stroke-width="2" stroke-miterlimit="10"/>
<path d="M40.6992 112.979C40.6992 112.979 31.0846 102.352 31.6138 95.9785" stroke="#535461" stroke-width="2" stroke-miterlimit="10"/>
<path d="M39.8818 132.445C39.8818 132.445 48.6261 134.748 56.606 117.76" stroke="#535461" stroke-width="2" stroke-miterlimit="10"/>
<path d="M42.2156 146.603C42.2156 146.603 20.4578 132.617 23.1099 123.594" stroke="#535461" stroke-width="2" stroke-miterlimit="10"/>
<path d="M45.6152 162.611C45.6152 162.611 60.8575 149.1 59.2639 135.807" stroke="#535461" stroke-width="2" stroke-miterlimit="10"/>
<path d="M47.2731 172.021C47.2731 172.021 27.8674 166.605 28.4555 158.111" stroke="#535461" stroke-width="2" stroke-miterlimit="10"/>
<path d="M48.626 183.235C48.626 183.235 60.8515 171.922 62.4452 165.025" stroke="#535461" stroke-width="2" stroke-miterlimit="10"/>
<path d="M49.4786 202.472C49.4786 202.472 36.9355 187.845 36.4004 180.414" stroke="#535461" stroke-width="2" stroke-miterlimit="10"/>
<path d="M49.4785 214.58C49.4785 214.58 63.5153 199.001 64.5738 191.57" stroke="#535461" stroke-width="2" stroke-miterlimit="10"/>
<path d="M31.6139 101.289C33.962 101.289 35.8655 99.3876 35.8655 97.042C35.8655 94.6964 33.962 92.7949 31.6139 92.7949C29.2658 92.7949 27.3623 94.6964 27.3623 97.042C27.3623 99.3876 29.2658 101.289 31.6139 101.289Z" fill="#FF0000"/>
<path d="M26.8327 162.357C29.1808 162.357 31.0843 160.456 31.0843 158.11C31.0843 155.765 29.1808 153.863 26.8327 153.863C24.4846 153.863 22.5811 155.765 22.5811 158.11C22.5811 160.456 24.4846 162.357 26.8327 162.357Z" fill="#FF0000"/>
<path d="M23.11 127.84C25.4581 127.84 27.3616 125.938 27.3616 123.593C27.3616 121.247 25.4581 119.346 23.11 119.346C20.7619 119.346 18.8584 121.247 18.8584 123.593C18.8584 125.938 20.7619 127.84 23.11 127.84Z" fill="#FF0000"/>
<path d="M62.4508 105.008C64.7989 105.008 66.7024 103.106 66.7024 100.761C66.7024 98.4151 64.7989 96.5137 62.4508 96.5137C60.1027 96.5137 58.1992 98.4151 58.1992 100.761C58.1992 103.106 60.1027 105.008 62.4508 105.008Z" fill="#FF0000"/>
<path d="M62.4508 170.322C64.7989 170.322 66.7024 168.421 66.7024 166.075C66.7024 163.73 64.7989 161.828 62.4508 161.828C60.1027 161.828 58.1992 163.73 58.1992 166.075C58.1992 168.421 60.1027 170.322 62.4508 170.322Z" fill="#FF0000"/>
<path d="M55.5416 122.002C57.8897 122.002 59.7932 120.1 59.7932 117.755C59.7932 115.409 57.8897 113.508 55.5416 113.508C53.1935 113.508 51.29 115.409 51.29 117.755C51.29 120.1 53.1935 122.002 55.5416 122.002Z" fill="#FF0000"/>
<path d="M64.0446 198.473C66.3927 198.473 68.2962 196.571 68.2962 194.226C68.2962 191.88 66.3927 189.979 64.0446 189.979C61.6965 189.979 59.793 191.88 59.793 194.226C59.793 196.571 61.6965 198.473 64.0446 198.473Z" fill="#FF0000"/>
<path d="M35.3356 187.316C37.6837 187.316 39.5872 185.415 39.5872 183.069C39.5872 180.724 37.6837 178.822 35.3356 178.822C32.9875 178.822 31.084 180.724 31.084 183.069C31.084 185.415 32.9875 187.316 35.3356 187.316Z" fill="#FF0000"/>
<path d="M59.7926 140.053C62.1407 140.053 64.0442 138.151 64.0442 135.806C64.0442 133.46 62.1407 131.559 59.7926 131.559C57.4445 131.559 55.541 133.46 55.541 135.806C55.541 138.151 57.4445 140.053 59.7926 140.053Z" fill="#FF0000"/>
</g>
<defs>
<linearGradient id="paint0_linear" x1="262.335" y1="247.481" x2="262.335" y2="32.6308" gradientUnits="userSpaceOnUse">
<stop stop-color="#808080" stop-opacity="0.25"/>
<stop offset="0.54" stop-color="#808080" stop-opacity="0.12"/>
<stop offset="1" stop-color="#808080" stop-opacity="0.1"/>
</linearGradient>
<linearGradient id="paint1_linear" x1="119950" y1="177242" x2="119950" y2="48200.2" gradientUnits="userSpaceOnUse">
<stop stop-color="#808080" stop-opacity="0.25"/>
<stop offset="0.54" stop-color="#808080" stop-opacity="0.12"/>
<stop offset="1" stop-color="#808080" stop-opacity="0.1"/>
</linearGradient>
<clipPath id="clip0">
<rect width="561" height="323" fill="white"/>
</clipPath>
</defs>
</svg>
