<svg width="11929" height="11929" viewBox="0 0 11929 11929" fill="none" xmlns="http://www.w3.org/2000/svg">
<g clip-path="url(#clip0)">
<path d="M5966.61 1.26178C3580.07 0.913926 1423.16 1423.47 483.819 3617.38L409.477 3642.03L438.299 3728.5C-798.481 6778.85 671.686 10254.3 3722.04 11491C4434.48 11779.9 5196.06 11928.2 5964.85 11927.8C9258.26 11928.3 11928.5 9258.82 11929 5965.41C11929.5 2672.01 9260.04 1.73387 5966.61 1.26178ZM10644.1 8971.09L10337.9 8665.08V7952.27C10338.3 7921.51 10331.4 7891.1 10318 7863.42L9542.8 6315.16V5566.97C9542.8 5500.53 9509.63 5438.46 9454.35 5401.59L8858.02 5004.04C8811.28 4972.83 8753.51 4962.87 8699 4976.61L7968.7 5159.08L6742.06 4632.72L6573.3 3450.41L7041.02 2982.89H8045.03L8382.95 3490.76C8413.46 3536.43 8461.54 3567.46 8515.73 3576.43L9708.38 3775.21C9740.33 3780.58 9773.08 3777.97 9803.79 3767.66L10902.2 3401.51C11823.5 5169.49 11725 7295.92 10644.1 8971.09ZM9824.27 1959.99L9501.06 2175.47L8600.01 1995.18L8015.41 1800.58C7979.63 1788.43 7941.12 1786.88 7904.5 1796.2L7165.45 1980.86L6841.45 1872.93L7081.57 1392.69H7753.82C7784.66 1392.71 7815.07 1385.58 7842.68 1371.82L8530.44 1027.94C9004.07 1275.16 9439.79 1589.03 9824.27 1959.99ZM3787.66 842.677L4264.72 1160.72C4288.18 1176.32 4314.67 1186.76 4342.44 1191.33L5305.71 1351.94L5211.69 1633.21L4709.78 1800.77C4664.83 1815.73 4626.69 1846.24 4602.24 1886.84L4031.36 2838.18L3114.41 3388.39L1762.74 3581.4C1664.77 3595.24 1591.92 3679.05 1591.79 3777.99V4374.32C1591.79 4427.04 1612.76 4477.58 1650.03 4514.85L1989.34 4854.16V5195.66L1162.44 4644.25L862.485 3744.4C1433.17 2440.43 2479.15 1402.83 3787.66 842.677ZM3221.75 7359.92L2323.28 7180.03L1989.34 6513.93V6046.81L2729.98 5306.18L3004.09 5854.6C3037.76 5921.98 3106.66 5964.54 3181.99 5964.52H4460.91L4999.4 6861.99C5035.32 6921.8 5099.98 6958.37 5169.75 6958.4H5722.34L5583.2 7655.5L4830.64 8408.06C4793.29 8445.31 4772.27 8495.85 4772.2 8548.6V9045.54L4056.61 9582.23C4006.56 9619.77 3977.09 9678.68 3977.09 9741.25V10459.2L3729.82 10377.3L3380.77 9504.31V7554.72C3380.79 7460.25 3314.3 7378.81 3221.75 7359.92ZM2624.23 10415.6C750.053 9009.56 -42.5383 6580.13 641.845 4339.33L807.027 4834.68C820.941 4876.6 848.422 4912.7 885.146 4937.25L1876.04 5597.78L1650.03 5823.99C1612.76 5861.26 1591.79 5911.79 1591.79 5964.52V6560.85C1591.77 6591.68 1598.9 6622.09 1612.66 6649.7L2010.21 7444.8C2037.74 7499.71 2089.1 7538.82 2149.36 7550.75L2984.21 7717.52V9542.47C2984.19 9567.72 2988.98 9592.76 2998.33 9616.22L3395.88 10610.1C3417.64 10664.4 3462.22 10706.4 3517.73 10724.8L4114.05 10923.6C4133.98 10930.3 4154.85 10933.8 4175.87 10933.9C4285.64 10933.9 4374.65 10844.9 4374.65 10735.1V9840.64L5090.24 9303.94C5140.28 9266.4 5169.75 9207.49 5169.75 9144.92V8630.89L5906.61 7894.03C5934.31 7866.28 5953.19 7830.92 5960.87 7792.46L6159.65 6798.58C6181.16 6690.92 6111.34 6586.21 6003.68 6564.7C5990.89 6562.14 5977.89 6560.85 5964.85 6560.85H5282.25L4743.77 5663.37C4707.84 5603.57 4643.19 5566.99 4573.42 5566.97H3304.84L2963.34 4881.79C2934.74 4824.59 2880.38 4784.64 2817.24 4774.45C2754.13 4763.54 2689.7 4784.37 2644.9 4830.11L2386.89 5087.13V4771.87C2386.89 4719.14 2365.92 4668.6 2328.65 4631.33L1989.34 4292.02V3950.33L3210.22 3776C3236.43 3772.2 3261.65 3763.21 3284.36 3749.57L4278.24 3153.24C4306.12 3136.49 4329.47 3113.14 4346.22 3085.26L4904.78 2154.4L5431.33 1978.68C5490.79 1959.17 5537.46 1912.54 5556.96 1853.05L5755.74 1256.73C5790.17 1152.49 5733.6 1040.06 5629.36 1005.62C5619.75 1002.44 5609.88 1000.01 5599.9 998.318L4449.39 806.5L4247.23 671.731C5498.1 264.589 6852.9 314.979 8070.08 813.855L7706.91 995.138H6958.72C6883.01 994.716 6813.67 1037.35 6779.83 1105.06L6382.28 1900.16C6333.3 1998.41 6373.23 2117.77 6471.48 2166.74C6479.85 2170.92 6488.5 2174.5 6497.37 2177.45L7093.69 2376.23C7129.47 2388.38 7167.98 2389.92 7204.61 2380.6L7943.65 2195.94L8485.12 2376.23C8492.87 2379.01 8500.85 2381.15 8508.97 2382.59L9502.85 2581.36C9554.53 2591.9 9608.3 2581.31 9652.13 2551.95L10104.5 2250.2C10327.2 2498.2 10527.3 2765.55 10702.5 3049.08L9724.48 3375.07L8665.61 3198.56L8315.76 2673.8C8279.09 2618.81 8217.47 2585.66 8151.37 2585.34H6958.72C6906 2585.34 6855.46 2606.31 6818.19 2643.58L6221.86 3239.91C6177.59 3284.16 6156.74 3346.7 6165.61 3408.67L6364.39 4800.09C6374.4 4868.9 6419.62 4927.46 6483.65 4954.54L7875.08 5550.87C7914.93 5568.14 7959.41 5571.69 8001.5 5561.01L8711.32 5383.5L9145.25 5673.31V6362.07C9144.9 6392.83 9151.71 6423.24 9165.13 6450.92L9940.35 7999.18V8747.37C9940.35 8800.1 9961.32 8850.64 9998.59 8887.91L10414.4 9303.94C8570.22 11762.1 5082.41 12259.9 2624.23 10415.6Z" fill="#E53B24"/>
</g>
<defs>
<clipPath id="clip0">
<rect width="11929" height="11929" fill="white"/>
</clipPath>
</defs>
</svg>
