<svg width="17653" height="17653" viewBox="0 0 17653 17653" fill="none" xmlns="http://www.w3.org/2000/svg">
<g clip-path="url(#clip0)">
<path d="M2933.15 15685.3C2869.06 15621.1 2780.1 15584.3 2689.43 15584.3C2598.75 15584.3 2509.79 15621.1 2445.66 15685.3C2381.53 15749.5 2344.64 15838.4 2344.64 15929.1C2344.64 16019.8 2381.5 16108.7 2445.66 16172.8C2509.79 16236.9 2598.75 16273.9 2689.43 16273.9C2780.1 16273.9 2869.06 16237 2933.15 16172.8C2997.28 16108.7 3034.21 16019.8 3034.21 15929.1C3034.21 15838.4 2997.32 15749.4 2933.15 15685.3Z" fill="#E53B24"/>
<path d="M16188.5 6307.42C16124.4 6243.26 16035.8 6206.4 15944.7 6206.4C15854.1 6206.4 15765.1 6243.26 15701 6307.42C15636.9 6371.55 15599.9 6460.51 15599.9 6551.19C15599.9 6641.87 15636.8 6730.82 15701 6794.92C15765.1 6859.05 15854.1 6895.97 15944.7 6895.97C16035.8 6895.97 16124.4 6859.08 16188.5 6794.92C16252.9 6730.82 16289.8 6641.87 16289.8 6551.19C16289.8 6460.51 16252.9 6371.55 16188.5 6307.42Z" fill="#E53B24"/>
<path d="M17551.8 100.988C17487.1 36.3404 17399.4 0 17307.9 0L8826.42 0.448221C8636.03 0.448221 8481.67 154.843 8481.67 345.233V1331.22L5213.49 2206.94C5029.55 2256.24 4920.39 2445.29 4969.69 2629.19L6663.52 8950.55L5198.22 10415.9C5011.72 10143.5 4698.59 9964.46 4344.39 9964.46H1034.56C464.214 9964.46 0.236328 10428.5 0.236328 10998.8V16618.6C0.236328 17189 464.214 17653 1034.56 17653H4344.43C4828.95 17653 5236.56 17318 5348.27 16867.6L5758.22 17225.1C6074.69 17501.1 6480.16 17653 6900.08 17653H17308C17498.4 17653 17652.8 17498.6 17652.8 17308.2V344.785C17652.7 253.348 17616.4 165.635 17551.8 100.988ZM4689.14 16618.7C4689.14 16808.8 4534.47 16963.5 4344.36 16963.5H1034.52C844.408 16963.5 689.738 16808.8 689.738 16618.7V10998.8C689.738 10808.7 844.408 10654 1034.52 10654H2344.67V14625.8C2344.67 14816.2 2499.07 14970.6 2689.46 14970.6C2879.85 14970.6 3034.24 14816.2 3034.24 14625.8V10654H4344.39C4534.51 10654 4689.18 10808.7 4689.18 10998.8V16618.7H4689.14ZM5724.98 2783.76L8481.67 2045.09V3322.69L8250.6 3384.62C8162.23 3408.3 8086.96 3466.06 8041.25 3545.25C7995.53 3624.45 7983.11 3718.54 8006.8 3806.88C8139.3 4301.33 7844.82 4811.37 7350.37 4943.87C7261.93 4967.6 7186.52 5025.45 7140.84 5104.82C7095.16 5184.16 7082.85 5278.42 7106.74 5366.82L8450.68 10343.4H7758.69L7402.08 8948.24C7390.74 8903.84 7370.88 8862.91 7344.3 8827.33L5724.98 2783.76ZM8481.67 4903.84V7813.18L7852.82 5484.67C8115.51 5349.03 8330.49 5146.09 8481.67 4903.84ZM13435 16963.4H6900.01C6646.76 16963.4 6402.21 16871.8 6211.33 16705.4L5378.71 15979.2V11210.6L6883.97 9705.32L7156.98 10773.5C7196.01 10926.1 7333.47 11032.8 7491 11032.8L14269.6 11033.3C14535.8 11033.3 14752.3 11249.8 14752.3 11516C14752.3 11782.1 14535.8 11998.7 14269.6 11998.7H10796.3C10605.9 11998.7 10451.5 12153.1 10451.5 12343.4C10451.5 12533.8 10605.9 12688.2 10796.3 12688.2H15348.8C15615 12688.2 15831.5 12904.8 15831.5 13170.9C15831.5 13437.1 15615 13653.6 15348.8 13653.6H10796.3C10605.9 13653.6 10451.5 13808 10451.5 13998.4C10451.5 14188.8 10605.9 14343.2 10796.3 14343.2H14611.1C14877.2 14343.2 15093.8 14559.7 15093.8 14825.9C15093.8 15092.1 14877.2 15308.6 14611.1 15308.6H10796.3C10605.9 15308.6 10451.5 15463 10451.5 15653.4C10451.5 15843.8 10605.9 15998.2 10796.3 15998.2H13435C13701.2 15998.2 13917.7 16214.7 13917.7 16480.9C13917.7 16746.9 13701.1 16963.4 13435 16963.4ZM16963.2 16963.4H16963.2H14502.8C14569.7 16816.1 14607.2 16652.8 14607.2 16480.7C14607.2 16308.7 14569.7 16145.4 14502.8 15998H14611.1C15257.4 15998 15783.3 15472.2 15783.3 14825.8C15783.3 14637.3 15738.3 14459.1 15658.9 14301.1C16155.2 14164.8 16521 13709.9 16521 13170.9C16521 12909.4 16434.9 12667.6 16289.6 12472.5V8102.69C16289.6 7912.3 16135.2 7757.91 15944.8 7757.91C15754.4 7757.91 15600 7912.3 15600 8102.69V12026.1C15519 12008.3 15435 11998.7 15348.7 11998.7H15337.4C15404.3 11851.3 15441.8 11688 15441.8 11516C15441.8 10869.6 14916 10343.7 14269.6 10343.7H13715.3C14303.9 10091.3 14717.2 9506.38 14717.2 8826.5C14717.2 7916.65 13977 7176.43 13067.1 7176.43C12157.3 7176.43 11417.1 7916.65 11417.1 8826.5C11417.1 9506.38 11830.5 10091.3 12418.9 10343.7H10534.2V3787.91C11150.2 3653.69 11636.2 3167.71 11770.4 2551.76H14363.9C14498.1 3167.71 14984.1 3653.69 15600 3787.91V4859.85C15600 5050.24 15754.4 5204.64 15944.8 5204.64C16135.2 5204.64 16289.6 5050.24 16289.6 4859.85V3480.09C16289.6 3289.7 16135.2 3135.3 15944.8 3135.3C15432.9 3135.3 15016.5 2718.84 15016.5 2206.97C15016.5 2016.58 14862.1 1862.18 14671.7 1862.18H11462.6C11272.2 1862.18 11117.8 2016.58 11117.8 2206.97C11117.8 2718.87 10701.4 3135.3 10189.5 3135.3C9999.11 3135.3 9844.71 3289.7 9844.71 3480.09V10343.7H9171.28V689.95L16963.2 689.57V16963.4ZM13067.2 9787C12537.6 9787 12106.7 9356.12 12106.7 8826.53C12106.7 8296.94 12537.6 7866.03 13067.2 7866.03C13596.8 7866.03 14027.7 8296.91 14027.7 8826.5C14027.7 9356.09 13596.8 9787 13067.2 9787Z" fill="#E53B24"/>
</g>
<defs>
<clipPath id="clip0">
<rect width="17653" height="17653" fill="white"/>
</clipPath>
</defs>
</svg>
