<svg width="123" height="91" viewBox="0 0 123 91" fill="none" xmlns="http://www.w3.org/2000/svg">
<g clip-path="url(#clip0)">
<path d="M123 89.9707H0V90.9993H123V89.9707Z" fill="#85848B"/>
<path d="M97.448 71.8103C97.448 72.6015 93.4178 74.908 88.6306 74.908C83.8434 74.908 80.1133 72.6015 80.1133 71.8103C80.1133 71.0191 83.9934 71.2739 88.7853 71.2739C93.5772 71.2739 97.448 71.0177 97.448 71.8103Z" fill="#504F60"/>
<path opacity="0.2" d="M97.448 71.8105C97.448 72.6017 93.4178 74.9083 88.6306 74.9083C83.8434 74.9083 80.1133 72.6017 80.1133 71.8105" fill="black"/>
<path d="M49.2373 57.2936C50.0143 57.4076 50.8205 57.48 51.5647 57.2037C51.6819 57.1622 51.8108 57.0696 51.7991 56.9355C51.7907 56.8868 51.7727 56.8409 51.7463 56.8014C51.4658 56.32 51.2302 55.8063 51.0432 55.2687C51.0358 55.2406 51.0206 55.2161 50.9998 55.1989C50.9756 55.1889 50.9491 55.1889 50.9248 55.1989C50.5815 55.3022 50.285 55.5556 49.944 55.6643C49.7701 55.7189 49.5886 55.7343 49.4096 55.7099C49.2549 55.6897 49.0439 55.5436 48.9033 55.5623C48.983 56.1484 49.1775 56.6955 49.2373 57.2936Z" fill="#6C63FF"/>
<path d="M63.9313 55.8071C64.4434 55.4048 64.9743 54.9823 65.2766 54.3614C65.2982 54.3243 65.3107 54.2813 65.313 54.2367C65.3078 54.1929 65.2929 54.1513 65.2696 54.116C64.9816 53.5921 64.6108 53.1341 64.1762 52.7656C63.9495 52.9489 63.7446 53.1653 63.5668 53.4093C63.4379 53.5649 63.0816 53.8116 63.0781 54.049C63.0781 54.1831 63.2141 54.3386 63.2774 54.4513C63.3629 54.5961 63.4438 54.7436 63.5211 54.8938C63.5656 54.9676 63.9723 55.7776 63.9313 55.8071Z" fill="#6C63FF"/>
<path d="M52.2831 59.0872C52.2922 59.2254 52.2591 59.3629 52.1893 59.4761C52.1346 59.5391 52.0669 59.5852 51.9925 59.6102C50.9061 60.0554 49.6487 59.5002 48.5647 59.9388C48.342 60.0286 48.1311 60.1587 47.9072 60.2445C47.6404 60.3363 47.3651 60.3921 47.0869 60.4108C46.7037 60.4524 46.3181 60.4792 45.9338 60.4913C45.6417 60.5149 45.3482 60.4855 45.0642 60.4041C44.9222 60.3625 44.7894 60.2871 44.6745 60.1829C44.5596 60.0787 44.4652 59.948 44.3974 59.7993C44.3385 59.666 44.3267 59.5118 44.3646 59.3688C44.3816 59.3198 44.4058 59.2744 44.4361 59.2347C44.5095 59.1404 44.5958 59.0603 44.6915 58.9974L45.0912 58.7023C45.2785 58.5507 45.4822 58.4272 45.697 58.3349C45.8552 58.2759 46.0228 58.2504 46.1834 58.2008C46.7447 58.0131 47.1736 57.5035 47.5721 57.014L48.1158 56.3502C48.1667 56.2772 48.2311 56.2181 48.3045 56.1772C48.3799 56.1484 48.4601 56.1397 48.5389 56.1517C49.0671 56.1949 49.5771 56.3905 50.0213 56.7203C50.1349 56.8178 50.2575 56.9005 50.387 56.9671C50.7057 57.1092 51.1147 57.0019 51.4089 56.8222C51.5483 56.7364 51.5178 56.6881 51.5764 56.5353C51.635 56.3824 51.778 56.2845 51.9022 56.4239C51.9397 56.4722 51.9663 56.5302 51.9796 56.5929C52.0968 57.0355 52.0522 57.5115 52.0522 57.9755C52.0488 58.0481 52.0567 58.1207 52.0757 58.1901C52.1056 58.26 52.1413 58.3264 52.1823 58.3885C52.1907 58.405 52.1981 58.422 52.2046 58.4395C52.2763 58.6449 52.3032 58.8672 52.2831 59.0872Z" fill="#514E7F"/>
<path d="M52.2831 59.0873C52.2923 59.2254 52.2591 59.3629 52.1894 59.4762C52.1347 59.5391 52.0669 59.5853 51.9925 59.6103C50.9061 60.0555 49.6487 59.5003 48.5647 59.9388C48.342 60.0287 48.1311 60.1588 47.9072 60.2446C47.6404 60.3364 47.3651 60.3922 47.0869 60.4109C46.7037 60.4524 46.3181 60.4793 45.9338 60.4913C45.6417 60.515 45.3482 60.4856 45.0642 60.4042C44.9222 60.3626 44.7894 60.2872 44.6745 60.183C44.5596 60.0788 44.4652 59.9481 44.3974 59.7994C44.3385 59.666 44.3267 59.5119 44.3646 59.3689C44.3816 59.3199 44.4058 59.2745 44.4361 59.2348C44.4994 59.3863 44.5451 59.5875 44.5849 59.6599C44.6387 59.7672 44.7119 59.8602 44.7996 59.9325C44.8873 60.0049 44.9875 60.0551 45.0935 60.0796C45.2521 60.0908 45.4112 60.0676 45.5623 60.0112C46.5467 59.7323 47.5932 59.7283 48.5389 59.3059C48.8635 59.1597 49.1729 58.9653 49.5139 58.8767C49.8549 58.7882 50.217 58.8124 50.5686 58.7788C51.1241 58.7279 51.662 58.5361 52.2093 58.4355C52.2799 58.6427 52.3053 58.8664 52.2831 59.0873Z" fill="#464353"/>
<path d="M66.419 55.7253C66.3675 56.1974 66.1061 56.6037 65.819 56.9483C65.5319 57.293 65.2073 57.6027 64.9788 57.9997C64.6975 58.4918 64.5709 59.102 64.2053 59.5177C64.065 59.6689 63.9073 59.7975 63.7366 59.8999C63.5453 60.029 63.3431 60.1355 63.133 60.2177C62.5869 60.4175 61.9986 60.3719 61.4279 60.3237C61.2426 60.3216 61.0592 60.2812 60.8865 60.2043C60.8079 60.1586 60.7326 60.1057 60.6615 60.0461C60.5184 59.9453 60.398 59.8075 60.3099 59.6438C60.2667 59.5548 60.2545 59.4503 60.276 59.3514C60.3086 59.2425 60.3646 59.1448 60.4389 59.0671C60.5673 58.9143 60.7051 58.7722 60.8514 58.642C61.052 58.4939 61.2328 58.3132 61.3881 58.1056C61.4834 57.9416 61.5535 57.7602 61.5955 57.5692C61.6785 57.2346 61.7292 56.8906 61.7467 56.5433C61.746 56.3126 61.7669 56.0824 61.8088 55.8567C61.8955 55.5027 62.1252 55.1862 62.0994 54.8201C62.089 54.7677 62.0931 54.7129 62.1111 54.6632C62.1384 54.6245 62.1765 54.5975 62.219 54.5868C62.398 54.5051 62.5869 54.4549 62.7791 54.4379C62.8755 54.4303 62.9722 54.4473 63.0622 54.4877C63.1522 54.528 63.2332 54.5907 63.2994 54.6713C63.3791 54.7812 63.4319 54.9395 63.5491 54.9824C63.6071 55.0005 63.668 55.0033 63.7272 54.9904C64.0155 54.9569 64.3202 54.9154 64.5475 54.7021C64.6526 54.5943 64.737 54.4627 64.7955 54.3157C64.854 54.1687 64.8853 54.0094 64.8874 53.8479C64.8874 53.7259 64.8393 53.5985 65.0045 53.5797C65.1288 53.5609 65.2272 53.7138 65.2905 53.8077C65.519 54.1577 65.7534 54.5238 65.8389 54.9502C65.8722 54.9354 65.9075 54.9277 65.9432 54.9274C66.0163 54.9267 66.0885 54.9462 66.1536 54.9842C66.2187 55.0223 66.2748 55.0778 66.3171 55.146C66.4104 55.319 66.4466 55.5245 66.419 55.7253Z" fill="#514E7F"/>
<path d="M66.4196 55.7262C66.3681 56.1983 66.1068 56.6046 65.8196 56.9493C65.5325 57.2939 65.2079 57.6037 64.9794 58.0006C64.6981 58.4928 64.5716 59.1029 64.2059 59.5186C64.0656 59.6698 63.9079 59.7984 63.7372 59.9008C63.546 60.0299 63.3437 60.1364 63.1337 60.2187C62.5875 60.4185 61.9993 60.3729 61.4285 60.3246C61.2433 60.3226 61.0598 60.2821 60.8871 60.2052C60.8085 60.1595 60.7333 60.1066 60.6621 60.047C60.5191 59.9462 60.3986 59.8084 60.3105 59.6447C60.4204 59.5843 60.5403 59.5513 60.6621 59.5481C60.9152 59.5642 61.1004 59.8378 61.343 59.9223C61.6887 60.0416 62.0332 59.7627 62.3836 59.6675C62.6122 59.6058 62.8524 59.6219 63.0786 59.5334C63.2671 59.45 63.4412 59.3293 63.593 59.1767C63.8011 59.0064 63.9863 58.8022 64.1427 58.5705C64.2725 58.3389 64.3805 58.0921 64.4649 57.8343C64.65 57.3404 64.8678 56.8634 65.1165 56.4075C65.1533 56.3353 65.1978 56.2686 65.2489 56.209C65.304 56.1513 65.3661 56.1111 65.4282 56.0602C65.6626 55.8577 65.7599 55.5238 65.8419 55.1965C65.8641 55.0971 65.8952 55.0005 65.9345 54.9082C66.0076 54.9075 66.0797 54.927 66.1448 54.965C66.2099 55.0031 66.266 55.0586 66.3083 55.1268C66.4092 55.3039 66.4488 55.5176 66.4196 55.7262Z" fill="#464353"/>
<path d="M41.8458 13.9152C42.1375 14.1653 42.3775 14.4858 42.5489 14.8539C42.713 15.2214 43.6587 18.0724 43.6036 18.4867C43.9118 18.1314 45.1271 18.0737 45.4388 17.7183C45.5689 17.5695 46.2709 16.8266 46.3763 16.6536C46.4818 16.4806 47.2646 16.1172 47.3502 15.9348C47.6701 15.279 45.0814 12.7941 45.413 12.1464C45.4314 12.1167 45.4408 12.0809 45.44 12.0445C45.4324 12.0139 45.4174 11.9865 45.3966 11.9654C45.1845 11.7173 44.9033 11.5631 44.6478 11.3794C44.3923 11.1956 44.1462 10.9395 44.0771 10.6016C43.8334 10.7299 43.6098 10.9029 43.4149 11.1138C42.9399 11.5796 42.4731 12.0548 42.0145 12.5393C41.8352 12.7298 41.4883 12.9832 41.4051 13.2554C41.3067 13.5478 41.6747 13.7556 41.8458 13.9152Z" fill="#A1616A"/>
<path d="M46.0369 12.8613C45.6397 13.1667 45.2685 13.5143 44.9283 13.8993C44.6072 14.2627 44.3025 14.6838 44.2251 15.192C44.1923 15.3918 44.197 15.5943 44.17 15.7968C44.0528 16.6752 43.3895 17.3189 43.0966 18.1409C43.0117 18.3946 42.9493 18.6574 42.9102 18.9254C42.8279 19.4334 42.7828 19.9483 42.7755 20.4649C42.7684 20.9651 43.1974 21.3097 43.3544 21.7764C43.5114 22.2431 43.5536 22.7232 43.6333 23.2019C43.7833 24.1057 44.0587 24.9774 44.3364 25.8437C44.9142 27.6702 46.7869 32.7191 47.3646 34.5469C49.1354 34.0387 53.8487 32.8706 55.4167 31.7992C55.9394 31.4424 51.7897 27.4181 52.3487 27.1405C52.3807 27.1348 52.411 27.1207 52.4374 27.0992C52.4638 27.0778 52.4854 27.0497 52.5006 27.017C52.5159 26.9844 52.5243 26.9481 52.5251 26.9111C52.526 26.8741 52.5194 26.8374 52.5057 26.8039C51.9467 24.0065 50.1983 21.708 49.4049 18.9844C49.1295 18.039 48.635 17.2317 48.26 16.3332C47.9201 15.5192 47.7385 14.6194 47.3318 13.8456C47.2551 13.6862 47.1548 13.5433 47.0353 13.4232C46.9339 13.3342 46.8243 13.2582 46.7084 13.1966C46.4763 13.0678 46.2607 12.9914 46.0369 12.8613Z" fill="#514E7F"/>
<path d="M41.9405 13.5969C43.4712 13.5969 44.712 12.177 44.712 10.4254C44.712 8.67384 43.4712 7.25391 41.9405 7.25391C40.4098 7.25391 39.1689 8.67384 39.1689 10.4254C39.1689 12.177 40.4098 13.5969 41.9405 13.5969Z" fill="#A1616A"/>
<path d="M44.7598 11.9165C44.8979 11.7707 45.0714 11.6763 45.2574 11.6456C45.4434 11.615 45.6331 11.6496 45.8016 11.7448C45.9891 11.8562 46.1532 12.0814 46.111 12.3175L47.4856 12.3416C47.7044 12.3347 47.9231 12.3577 48.1372 12.41C48.3526 12.4637 48.5449 12.6017 48.6809 12.8002C48.6973 12.8257 48.7161 12.8565 48.7442 12.8606C48.7671 12.861 48.7894 12.8525 48.8075 12.8364C49.019 12.7151 49.2572 12.6684 49.4919 12.7023C50.2349 12.7573 50.9216 13.1824 51.504 13.7135C51.6091 13.7961 51.6906 13.9122 51.7384 14.0474C51.7865 14.2257 51.729 14.4497 51.8556 14.5771C51.8556 16.0522 52.2986 17.4308 52.5939 18.8683C52.6466 19.1245 52.8611 19.3511 53.0099 19.5522C53.1938 19.7752 53.3439 20.0318 53.4541 20.3113C53.7049 21.0569 53.3591 21.9339 53.6029 22.6822C53.706 22.9987 53.9052 23.2588 54.0717 23.5337C54.291 23.8512 54.4297 24.2316 54.4725 24.6334C54.483 24.813 54.4631 24.9941 54.4725 25.1698C54.4882 25.4114 54.5275 25.6502 54.5896 25.8818C54.6896 26.3145 54.7943 26.7468 54.9037 27.1786C55.0818 27.8759 55.3139 28.6282 55.86 28.9997C54.5416 29.2558 53.1517 29.5066 51.8954 28.9823C51.7202 28.9139 51.5539 28.8187 51.4009 28.6993C50.9474 28.3292 50.7282 27.6962 50.5325 27.0981C50.3146 26.4276 50.0931 25.7451 50.0485 25.0316C50.049 24.8047 50.0209 24.5789 49.9653 24.3611C49.8376 23.9722 49.4966 23.7376 49.1872 23.5217C48.8378 23.3026 48.5213 23.021 48.2497 22.6875C48.1149 22.5196 48.0116 22.3218 47.9463 22.1063C47.881 21.8909 47.855 21.6624 47.87 21.435C47.8934 21.2138 47.9696 21.0005 47.9766 20.7779C47.9837 20.5553 47.8969 20.3005 47.7106 20.2415C46.7508 19.909 46.2926 18.6082 46.0793 17.4871C45.9873 16.9077 45.9461 16.3192 45.9563 15.7303L45.9434 14.5865C45.8109 14.4486 45.7044 14.2813 45.6303 14.0948C45.5561 13.9083 45.5159 13.7064 45.5121 13.5016C45.5249 13.3821 45.5229 13.2611 45.5063 13.1422C45.4599 12.9969 45.3845 12.866 45.2859 12.76C45.074 12.5111 44.8966 12.2267 44.7598 11.9165Z" fill="#464353"/>
<path d="M41.8072 15.5423C41.7756 15.8963 41.8459 16.2597 41.7768 16.6071C41.7498 16.7412 41.7029 16.8753 41.669 17C41.5651 17.4999 41.61 18.0252 41.7967 18.4925C41.9831 18.9553 42.2063 19.3974 42.4635 19.8134C42.5505 19.9554 42.6221 20.109 42.6768 20.2707C42.7211 20.4405 42.7486 20.6155 42.7588 20.7924C42.8267 21.5025 42.9355 22.2067 43.0846 22.9004C43.2159 23.5012 44.7065 28.6373 45.0534 29.1134C45.1163 29.2188 45.2118 29.293 45.3206 29.3212C45.399 29.3246 45.477 29.3062 45.5479 29.2676L46.2511 28.9591C46.3109 28.9382 46.3663 28.9035 46.414 28.8572C46.4799 28.7691 46.5157 28.6567 46.5147 28.5408C46.5651 27.8863 45.071 22.714 44.8811 22.0958C44.3069 20.2291 43.5428 18.4295 43.169 16.4971C43.0647 15.9607 43.0096 15.1346 42.6662 14.7068C42.5244 14.5298 42.5725 14.6049 42.4026 14.6974C42.3167 14.7401 42.2337 14.7898 42.1541 14.8463C42.0547 14.9254 41.9719 15.029 41.9119 15.1494C41.8519 15.2698 41.8161 15.404 41.8072 15.5423Z" fill="#464353"/>
<path d="M43.9416 19.0845C44.1303 20.2257 44.3248 21.3642 44.5182 22.5054L47.2698 21.6807C47.2921 21.3508 47.1385 21.045 47.0354 20.742C46.7846 20.0219 46.7788 19.2199 46.576 18.4797C46.4225 17.9165 46.1553 17.3988 46.0112 16.8316C45.928 16.5017 45.8858 16.1611 45.8037 15.8272C45.7158 15.4992 45.6077 15.1788 45.4803 14.8683C45.3258 14.418 45.1244 13.9907 44.8803 13.5957C44.5287 13.7459 44.1537 13.9202 43.9533 14.2836C43.8505 14.4884 43.7919 14.7183 43.7822 14.9542C43.7342 15.6609 43.958 16.3716 43.8842 17.0743C43.8081 17.7435 43.8275 18.4224 43.9416 19.0845Z" fill="#FF0000"/>
<path d="M47.3151 34.2643C47.4698 34.9348 47.246 35.6401 47.0632 36.3039C46.7879 37.3038 46.6003 38.3325 46.503 39.3749C46.4911 39.6401 46.4444 39.9019 46.3647 40.1513C46.278 40.3753 46.1303 40.5644 46.0295 40.7776C45.753 41.3381 45.76 42.022 45.8198 42.663C45.8596 43.0855 45.9194 43.5065 45.9932 43.9223C46.0835 44.4305 46.1948 44.9615 46.0647 45.4577C46.2827 45.4027 46.4303 45.7259 46.4163 45.9794C46.4022 46.2328 46.3307 46.5158 46.4374 46.7344C46.7069 46.847 46.7092 47.2708 46.701 47.5993C46.7055 48.169 46.7684 48.7361 46.8885 49.289C47.2964 51.533 47.7292 53.7707 48.187 56.0021C49.1773 56.3535 50.3339 56.7196 51.2785 56.2328C51.4543 56.1429 51.63 55.9995 51.6699 55.7822C51.6802 55.6651 51.6674 55.5469 51.6324 55.4362L51.1847 53.5722C51.0757 53.1216 50.9667 52.6563 51.0242 52.1936C51.0675 51.849 51.1988 51.4775 51.0511 51.1731C51.0007 51.0685 50.921 50.9867 50.8624 50.8875C50.6281 50.4946 50.7511 49.9689 50.7699 49.4928C50.7772 49.386 50.7709 49.2785 50.7511 49.1737C50.719 49.0513 50.6742 48.9338 50.6175 48.8237C50.2476 48.0018 50.0699 47.0842 50.1019 46.1604C50.1159 46.0425 50.1017 45.9225 50.0609 45.8131C50.0324 45.7679 50.007 45.7204 49.9847 45.6709C49.9672 45.5848 49.9759 45.4945 50.0093 45.4148C49.875 45.2982 49.7538 45.1631 49.6484 45.0125C49.7134 44.9663 49.7683 44.9037 49.8091 44.8296C49.8499 44.7555 49.8754 44.6718 49.8838 44.5847C49.8921 44.4977 49.8831 44.4096 49.8573 44.3271C49.8316 44.2446 49.7898 44.1699 49.7351 44.1087C49.7829 44.0976 49.8271 44.0717 49.8627 44.0337C49.8984 43.9956 49.9242 43.9471 49.9372 43.8933C49.9502 43.8395 49.9499 43.7827 49.9363 43.7291C49.9228 43.6755 49.8965 43.6272 49.8605 43.5897C49.8031 43.5441 49.7269 43.524 49.6859 43.4556C49.6226 43.3564 49.6741 43.2182 49.7257 43.1123L49.9988 42.5477C50.2027 42.128 50.2484 41.609 50.4675 41.2067C50.7816 40.6207 50.9867 39.9676 51.1894 39.3212L51.9781 36.831L52.509 37.358C52.6858 37.5126 52.834 37.7058 52.9449 37.9266C53.0204 38.1447 53.0682 38.3741 53.0867 38.6078C53.2813 39.9596 54.0242 41.1316 54.2996 42.4632C54.3606 42.7596 54.4016 43.0707 54.5504 43.3242C54.6037 43.402 54.6515 43.4845 54.6934 43.5709C54.7322 43.7028 54.7523 43.8408 54.7532 43.9799C54.7777 44.2523 54.8532 44.5154 54.9746 44.7515C55.0959 44.9875 55.2602 45.1908 55.4563 45.3478C55.7176 45.5529 56.0422 45.6937 56.184 46.0183C56.2124 46.1188 56.2518 46.2147 56.3012 46.3039C56.4278 46.4782 56.7008 46.4984 56.7548 46.7169C56.7852 46.839 56.729 46.9851 56.7887 47.0924C56.8227 47.1421 56.8676 47.1805 56.9188 47.2037L57.6817 47.6396C58.5349 48.1277 58.9708 49.2488 59.6001 50.0655C59.8174 50.3315 60.0099 50.6227 60.1744 50.9344C60.4462 51.491 60.5716 52.1896 61.031 52.5437C61.1545 52.6169 61.2669 52.7125 61.3638 52.8266C61.508 53.0438 61.4552 53.3483 61.4681 53.6218C61.481 53.8954 61.6638 54.2213 61.8912 54.1381C61.8115 54.4695 61.8115 54.8193 61.8912 55.1506C62.8893 55.0919 63.8411 54.6508 64.5936 53.8981C64.8162 53.6755 65.0307 53.3912 65.033 53.0532C65.0365 52.9949 65.0251 52.9367 65.0002 52.8856C64.9552 52.8196 64.8958 52.7683 64.828 52.7368C64.1143 52.2942 63.8998 51.2683 63.5389 50.4356C63.2236 49.7007 62.7572 49.0677 62.367 48.3852C61.5185 46.9168 60.9396 45.1399 59.6564 44.1703C59.3739 43.9571 59.0458 43.768 58.904 43.4154C58.8255 43.2182 58.8161 42.9929 58.754 42.7891C58.6919 42.5853 58.5431 42.3868 58.3532 42.3868C58.4587 42.0918 58.4376 41.7324 58.4446 41.4132C58.4518 41.2716 58.4376 41.1296 58.4024 40.9935C58.3537 40.8471 58.2904 40.7076 58.2138 40.5778C57.879 39.9291 57.7116 39.1852 57.7309 38.4321C57.7403 38.0446 57.8001 37.645 57.6981 37.2748C57.6466 37.0884 57.5563 36.9181 57.4942 36.7384C57.4006 36.4128 57.3512 36.0727 57.3477 35.73L57.2774 34.4413C57.2668 34.0121 57.2181 33.5852 57.1321 33.1673C56.8977 32.1669 56.6633 27.9762 55.8606 27.5042C55.0578 27.0322 53.6785 30.2573 52.775 30.3203C52.3753 30.3394 51.9803 30.4266 51.6031 30.5791C51.0019 30.8366 50.498 31.3167 50.007 31.7861L48.3452 33.3832C47.9936 33.7144 47.703 34.0309 47.3151 34.2643Z" fill="#464353"/>
<path d="M39.3396 6.90376C39.7053 6.33249 40.3334 6.02942 40.9522 6.00394C41.5709 5.97846 42.1803 6.20107 42.7346 6.51621C42.8982 6.62267 43.0731 6.7047 43.2549 6.76027C43.5479 6.82866 43.8737 6.73747 44.1386 6.89437C44.4901 7.10759 44.5581 7.6507 44.5276 8.10129C44.4972 8.55187 44.4233 9.05207 44.6331 9.4423C44.7075 9.55359 44.7752 9.67053 44.8358 9.79231C44.9261 10.0243 44.8733 10.2925 44.8194 10.5379C44.6823 10.4038 44.605 10.2013 44.4831 10.0458C44.3612 9.8902 44.1491 9.7856 43.9979 9.90227C43.8467 10.0189 43.8491 10.2308 43.8409 10.4212C43.8327 10.6117 43.7905 10.8396 43.6335 10.9013C43.5679 10.9184 43.4993 10.9126 43.4366 10.8846C43.374 10.8566 43.3201 10.8078 43.2819 10.7444C43.0135 10.3689 43.1213 9.76951 42.8553 9.39134C42.7042 9.17678 42.4522 9.07218 42.3127 8.84689C42.2026 8.66988 42.1745 8.44459 42.0784 8.25416C41.9823 8.06374 41.7584 7.92427 41.6096 8.05569C41.5588 8.11122 41.5164 8.17603 41.4842 8.24746C41.3914 8.39957 41.2565 8.51144 41.1012 8.56497C40.946 8.61851 40.7795 8.61058 40.6287 8.54248C40.5135 8.46153 40.3888 8.39967 40.2584 8.35876C40.173 8.35387 40.0882 8.3764 40.0134 8.42379C39.9387 8.47118 39.877 8.54156 39.8354 8.62697C39.7512 8.7976 39.7106 8.9918 39.7182 9.18751C39.7182 9.45571 39.7604 9.74135 39.6268 9.95591C39.576 10.0367 39.5123 10.1058 39.4393 10.1597C39.2435 10.3032 38.9705 10.3998 38.79 10.2362C38.7288 10.171 38.6834 10.0889 38.6579 9.99777C38.6325 9.90665 38.6279 9.80958 38.6447 9.71587C38.6798 9.52922 38.726 9.34552 38.783 9.16605C38.8861 8.75034 38.7513 8.28232 38.8639 7.89075C38.9817 7.5381 39.1418 7.20592 39.3396 6.90376Z" fill="#464353"/>
<path d="M40.8242 16.3671C40.8066 16.4649 40.8156 16.5664 40.85 16.6581C40.8848 16.7206 40.9322 16.7725 40.9883 16.8097C41.3824 17.0906 41.8306 17.2568 42.2938 17.2938C42.3568 17.295 42.4187 17.3134 42.4742 17.3474C42.5844 17.4305 42.5914 17.6156 42.5504 17.7631C42.4957 17.9023 42.4674 18.0531 42.4672 18.2057C42.5012 18.4859 42.7918 18.608 43.0367 18.6495C43.3801 18.6992 43.7563 18.6737 44.0282 18.4283C44.2123 18.236 44.3527 17.9953 44.4372 17.7269C45.1098 15.9581 45.3454 14.0029 46.0263 12.2395C46.0779 12.1243 46.1123 12.0001 46.1282 11.872C46.1354 11.8079 46.1275 11.7427 46.1052 11.6833C46.0829 11.6239 46.0472 11.5724 46.0016 11.5341C45.8751 11.4443 45.6782 11.4952 45.5927 11.3544C45.5505 11.2833 45.5552 11.1868 45.5177 11.1117C45.4391 10.9521 45.2329 10.9776 45.0923 10.885C44.9821 10.818 44.9059 10.6799 44.7829 10.6531C44.7225 10.6491 44.6621 10.6614 44.6066 10.6889C44.551 10.7164 44.5018 10.7583 44.4629 10.8113C44.0633 11.2377 43.8536 11.8425 43.6309 12.4138C43.2909 13.2895 42.8929 14.1341 42.4403 14.9403C42.493 14.8464 42.1871 14.1357 42.0676 14.1048C41.8578 14.0566 41.5895 14.4776 41.4758 14.6345C41.1191 15.1294 40.893 15.7305 40.8242 16.3671Z" fill="#FF0000"/>
<path opacity="0.1" d="M45.082 11.0078C44.9979 11.0094 44.9151 11.0327 44.8398 11.0758C44.7646 11.119 44.6988 11.181 44.6473 11.2572C44.5219 11.4436 44.4973 11.6904 44.4656 11.9277C44.359 12.6797 44.1245 13.4005 43.7754 14.0492" fill="black"/>
<path opacity="0.1" d="M45.6791 11.543C45.5629 11.5459 45.4494 11.5835 45.3498 11.6519C45.2501 11.7203 45.1677 11.8173 45.1108 11.9332C45.0332 12.1441 44.9849 12.3677 44.9678 12.5957C44.8673 13.1012 44.6735 13.5762 44.3994 13.989" fill="black"/>
<path d="M73.5305 37.7607V36.0951C73.5302 34.8691 73.1044 33.6933 72.3466 32.8265C71.5889 31.9596 70.5613 31.4727 69.4898 31.4727H12.0095C10.938 31.4727 9.9104 31.9596 9.15266 32.8265C8.39491 33.6933 7.96906 34.8691 7.96875 36.0951V39.1661L73.5305 37.7607Z" fill="#33323D"/>
<path d="M28 29.5197C28 29.5197 27.8359 41.1677 29.6406 45.0004C31.4454 48.833 32.2188 65.5058 32.2188 65.5058C32.2188 65.5058 51.1379 67.7453 64.3218 62.8238C77.5056 57.9023 105.558 55.8894 105.558 55.8894L100.831 19.4285C100.831 19.4285 77.4763 17.7147 64.1905 24.9656C50.9047 32.2165 28 29.5197 28 29.5197Z" fill="#8DD070"/>
<path opacity="0.1" d="M28 29.5197C28 29.5197 27.8359 41.1677 29.6406 45.0004C31.4454 48.833 32.2188 65.5058 32.2188 65.5058C32.2188 65.5058 51.1379 67.7453 64.3218 62.8238C77.5056 57.9023 105.558 55.8894 105.558 55.8894L100.831 19.4285C100.831 19.4285 77.4763 17.7147 64.1905 24.9656C50.9047 32.2165 28 29.5197 28 29.5197Z" fill="black"/>
<path d="M32.1877 33.7745C32.1877 33.7745 31.5959 43.3855 33.0807 46.4565C34.5655 49.5274 34.6346 63.2366 34.6346 63.2366C34.6346 63.2366 51.6611 64.1404 63.7727 59.4227C75.8843 54.705 101.336 51.6449 101.336 51.6449L98.4433 21.8274C98.4433 21.8274 77.3843 21.5793 65.0934 28.22C52.8026 34.8607 32.1877 33.7745 32.1877 33.7745Z" fill="#8DD070"/>
<path opacity="0.1" d="M64.9059 53.9627C67.3285 53.6174 68.7678 48.5175 68.1206 42.5718C67.4734 36.6261 64.9849 32.0861 62.5623 32.4314C60.1397 32.7767 58.7004 37.8766 59.3476 43.8223C59.9948 49.768 62.4833 54.308 64.9059 53.9627Z" fill="black"/>
<path opacity="0.2" d="M88.0268 1.66797C88.0268 1.66797 65.3377 8.23895 54.6383 19.8052C43.9389 31.3715 21.415 36.8482 21.415 36.8482C21.415 36.8482 24.3823 47.9907 27.1269 51.0053C29.8714 54.0199 35.077 69.6186 35.077 69.6186C35.077 69.6186 53.6832 65.1047 64.91 55.7873C76.1368 46.47 102.302 34.7025 102.302 34.7025L88.0268 1.66797Z" fill="black"/>
<path d="M21.0742 35.1789C21.0742 35.1789 24.0403 46.3227 26.7825 49.3373C29.5248 52.3519 34.7327 67.9493 34.7327 67.9493C34.7327 67.9493 53.3412 63.4368 64.5692 54.1194C75.7971 44.802 101.96 33.0386 101.96 33.0386L87.6849 0C87.6849 0 64.9969 6.57098 54.2975 18.1372C43.5981 29.7035 21.0742 35.1789 21.0742 35.1789Z" fill="#8DD070"/>
<path opacity="0.1" d="M21.0742 35.1789C21.0742 35.1789 24.0403 46.3227 26.7825 49.3373C29.5248 52.3519 34.7327 67.9493 34.7327 67.9493C34.7327 67.9493 53.3412 63.4368 64.5692 54.1194C75.7971 44.802 101.96 33.0386 101.96 33.0386L87.6849 0C87.6849 0 64.9969 6.57098 54.2975 18.1372C43.5981 29.7035 21.0742 35.1789 21.0742 35.1789Z" fill="black"/>
<path d="M26.1963 37.7595C26.1963 37.7595 28.2108 47.1158 30.4479 49.5162C32.6851 51.9166 36.4246 64.9379 36.4246 64.9379C36.4246 64.9379 52.871 59.8179 63.1333 51.0745C73.3956 42.3311 96.8008 30.4939 96.8008 30.4939L86.0533 3.12109C86.0533 3.12109 65.9447 10.2781 56.0269 20.915C46.1092 31.552 26.1963 37.7595 26.1963 37.7595Z" fill="#8DD070"/>
<path opacity="0.1" d="M62.7538 45.4854C64.9669 44.3061 64.9692 38.9469 62.7588 33.5153C60.5485 28.0837 56.9625 24.6365 54.7494 25.8158C52.5363 26.9952 52.534 32.3544 54.7444 37.7859C56.9547 43.2175 60.5407 46.6647 62.7538 45.4854Z" fill="black"/>
<path opacity="0.1" d="M75.0825 39.3945V85.6596C75.0825 86.185 74.9921 86.7053 74.8163 87.1907C74.6406 87.6761 74.383 88.1172 74.0582 88.4887C73.7335 88.8601 73.348 89.1548 72.9237 89.3557C72.4995 89.5567 72.0447 89.66 71.5856 89.6598H11.4673C10.5403 89.6595 9.65146 89.2379 8.99613 88.4877C8.3408 87.7376 7.97266 86.7203 7.97266 85.6596V34.7305C9.69535 35.4627 9.69534 35.4627 11.4673 35.401H71.5856C72.5118 35.401 73.4002 35.8215 74.0558 36.5702C74.7114 37.3189 75.0807 38.3346 75.0825 39.3945Z" fill="black"/>
<path d="M75.0825 39.9838V86.2488C75.0822 87.3099 74.7136 88.3273 74.0579 89.0775C73.4021 89.8276 72.5128 90.249 71.5856 90.249H11.4673C10.5403 90.2487 9.65146 89.8271 8.99613 89.0769C8.3408 88.3268 7.97266 87.3095 7.97266 86.2488V35.3184C9.69535 36.0492 9.69534 36.0492 11.4673 35.9889H71.5856C72.512 35.9889 73.4006 36.4095 74.0562 37.1585C74.7119 37.9075 75.081 38.9236 75.0825 39.9838Z" fill="#504F60"/>
<path opacity="0.1" d="M74.9118 57.0879V71.8833H62.3725C60.673 71.8571 59.0508 71.0662 57.8571 69.6817C56.6634 68.2972 55.9941 66.4305 55.9941 64.4856C55.9941 62.5407 56.6634 60.674 57.8571 59.2895C59.0508 57.905 60.673 57.1141 62.3725 57.0879H74.9118Z" fill="black"/>
<path d="M75.0826 56.6934V71.4915H62.5434C60.8439 71.4653 59.2217 70.6744 58.028 69.2899C56.8343 67.9054 56.165 66.0387 56.165 64.0938C56.165 62.1488 56.8343 60.2821 58.028 58.8976C59.2217 57.5132 60.8439 56.7222 62.5434 56.696L75.0826 56.6934Z" fill="#33323D"/>
<path opacity="0.1" d="M63.1438 67.3726C64.536 67.3726 65.6646 66.0811 65.6646 64.488C65.6646 62.895 64.536 61.6035 63.1438 61.6035C61.7516 61.6035 60.623 62.895 60.623 64.488C60.623 66.0811 61.7516 67.3726 63.1438 67.3726Z" fill="black"/>
<path d="M63.3157 66.98C64.7078 66.98 65.8364 65.6885 65.8364 64.0955C65.8364 62.5024 64.7078 61.2109 63.3157 61.2109C61.9235 61.2109 60.7949 62.5024 60.7949 64.0955C60.7949 65.6885 61.9235 66.98 63.3157 66.98Z" fill="#FF0000"/>
<path d="M96.8485 56.5664C96.9481 57.8015 96.1313 59.0004 96.3691 60.21C96.4207 60.4688 96.518 60.7128 96.5531 60.9743C96.6516 61.6931 96.2777 62.373 95.9203 62.9738L92.85 68.1287C92.727 68.3553 92.5798 68.5634 92.4117 68.7482C91.8257 69.3463 90.9445 69.2846 90.1733 69.463C89.6313 69.5889 89.1195 69.8479 88.6733 70.222C88.6547 70.2402 88.6428 70.266 88.6402 70.2939C88.6376 70.3218 88.6444 70.3498 88.6593 70.3722C88.7867 70.5708 88.9555 70.7297 89.1504 70.8344C89.3453 70.9391 89.56 70.9863 89.7749 70.9716C89.8558 71.0937 89.7749 71.272 89.6577 71.3592C89.4925 71.4933 89.2663 71.5255 89.2335 71.8446C89.2218 71.956 89.2415 72.0688 89.2897 72.1665C89.4135 72.3833 89.6059 72.5366 89.8265 72.5943C90.8894 72.9657 92.0378 72.3126 92.8335 71.4235C93.6293 70.5345 94.2 69.412 94.9805 68.5068C95.4129 68.0066 95.9039 67.5775 96.3492 67.0921C97.2375 66.1238 97.9278 64.9464 98.5946 63.7677C98.795 63.4123 98.9965 63.0476 99.0809 62.6359C99.1653 62.2242 99.1254 61.8085 99.2204 61.4102C99.3446 60.8872 99.6786 60.4715 99.9563 60.033C100.501 59.1747 100.865 58.1247 100.793 57.068C100.722 56.0112 100.149 54.9666 99.2766 54.6072C99.0064 54.483 98.7083 54.4623 98.427 54.5482C98.0696 54.6743 97.8059 55.0122 97.5621 55.3354L96.9762 56.1065C96.8301 56.2756 96.7146 56.4762 96.6363 56.6965C96.5988 56.8072 96.5899 56.9278 96.6107 57.0441C96.6315 57.1604 96.6811 57.2674 96.7535 57.3523" fill="#FBBEBE"/>
<path opacity="0.05" d="M96.8485 56.5664C96.9481 57.8015 96.1313 59.0004 96.3691 60.21C96.4207 60.4688 96.518 60.7128 96.5531 60.9743C96.6516 61.6931 96.2777 62.373 95.9203 62.9738L92.85 68.1287C92.727 68.3553 92.5798 68.5634 92.4117 68.7482C91.8257 69.3463 90.9445 69.2846 90.1733 69.463C89.6313 69.5889 89.1195 69.8479 88.6733 70.222C88.6547 70.2402 88.6428 70.266 88.6402 70.2939C88.6376 70.3218 88.6444 70.3498 88.6593 70.3722C88.7867 70.5708 88.9555 70.7297 89.1504 70.8344C89.3453 70.9391 89.56 70.9863 89.7749 70.9716C89.8558 71.0937 89.7749 71.272 89.6577 71.3592C89.4925 71.4933 89.2663 71.5255 89.2335 71.8446C89.2218 71.956 89.2415 72.0688 89.2897 72.1665C89.4135 72.3833 89.6059 72.5366 89.8265 72.5943C90.8894 72.9657 92.0378 72.3126 92.8335 71.4235C93.6293 70.5345 94.2 69.412 94.9805 68.5068C95.4129 68.0066 95.9039 67.5775 96.3492 67.0921C97.2375 66.1238 97.9278 64.9464 98.5946 63.7677C98.795 63.4123 98.9965 63.0476 99.0809 62.6359C99.1653 62.2242 99.1254 61.8085 99.2204 61.4102C99.3446 60.8872 99.6786 60.4715 99.9563 60.033C100.501 59.1747 100.865 58.1247 100.793 57.068C100.722 56.0112 100.149 54.9666 99.2766 54.6072C99.0064 54.483 98.7083 54.4623 98.427 54.5482C98.0696 54.6743 97.8059 55.0122 97.5621 55.3354L96.9762 56.1065C96.8301 56.2756 96.7146 56.4762 96.6363 56.6965C96.5988 56.8072 96.5899 56.9278 96.6107 57.0441C96.6315 57.1604 96.6811 57.2674 96.7535 57.3523" fill="black"/>
<path d="M99.172 88.3619C98.5017 88.83 97.6661 88.8581 96.8868 88.7495C96.7614 88.7321 96.6126 88.7213 96.5352 88.8326C96.418 88.9936 96.5563 89.2349 96.6993 89.3597C97.1589 89.7546 97.699 90.0089 98.2685 90.0986C98.7769 90.181 99.2901 90.22 99.8036 90.2152C101.21 90.2434 102.616 90.2702 104 90.0395C104.082 90.0325 104.162 90.006 104.235 89.9618C104.324 89.8901 104.386 89.7822 104.408 89.66C104.503 89.247 104.32 88.8045 104.044 88.5175C103.767 88.2305 103.412 88.0709 103.065 87.9167L101.846 87.3736C101.56 87.2462 101.102 86.9083 100.792 86.9351C100.208 86.9834 99.656 88.0374 99.172 88.3619Z" fill="#3F3D56"/>
<path opacity="0.05" d="M99.172 88.3619C98.5017 88.83 97.6661 88.8581 96.8868 88.7495C96.7614 88.7321 96.6126 88.7213 96.5352 88.8326C96.418 88.9936 96.5563 89.2349 96.6993 89.3597C97.1589 89.7546 97.699 90.0089 98.2685 90.0986C98.7769 90.181 99.2901 90.22 99.8036 90.2152C101.21 90.2434 102.616 90.2702 104 90.0395C104.082 90.0325 104.162 90.006 104.235 89.9618C104.324 89.8901 104.386 89.7822 104.408 89.66C104.503 89.247 104.32 88.8045 104.044 88.5175C103.767 88.2305 103.412 88.0709 103.065 87.9167L101.846 87.3736C101.56 87.2462 101.102 86.9083 100.792 86.9351C100.208 86.9834 99.656 88.0374 99.172 88.3619Z" fill="black"/>
<path d="M100.026 69.8479C99.519 70.6203 98.994 71.5121 99.1194 72.4683C99.1873 72.9832 99.4393 73.4378 99.6245 73.9139C99.8752 74.5602 100.006 75.2549 100.135 75.9469C100.325 76.958 100.516 77.9718 100.632 78.999C100.765 80.159 100.142 83.5156 100.085 84.6836C100.071 84.9652 100.042 85.2696 99.8705 85.4721C99.8038 85.5526 99.7147 85.6169 99.6842 85.7215C99.6664 85.8223 99.6809 85.9271 99.7252 86.0165C100.011 86.7541 100.596 87.3039 101.249 87.6177C101.901 87.9315 103.475 88.4733 104.187 88.5015C104.28 88.5133 104.375 88.499 104.463 88.4599C104.558 88.3938 104.632 88.2959 104.677 88.1796C105.186 87.0639 104.696 83.0972 104.703 81.8379C104.71 80.7879 104.927 79.7446 104.887 78.6959C104.855 77.8538 104.653 77.0304 104.586 76.1909C104.469 74.815 104.689 73.4325 104.911 72.0727C105.08 71.0293 105.25 69.986 105.466 68.9561C105.599 68.3272 105.752 67.6929 106.052 67.1471C106.287 66.714 106.616 66.3519 106.889 65.9402C107.647 64.8032 107.984 63.3707 107.827 61.952C107.81 61.8179 106.069 62.4576 105.915 62.534C105.289 62.8375 104.712 63.2616 104.211 63.7879C103.808 64.2277 103.491 64.8151 103.138 65.3072C102.639 66.0037 102.146 66.705 101.659 67.4113C101.103 68.2186 100.559 69.0308 100.026 69.8479Z" fill="#464353"/>
<path opacity="0.05" d="M100.026 69.8022C99.519 70.5746 98.994 71.4677 99.1194 72.4225C99.1873 72.9388 99.4393 73.3934 99.6245 73.8695C99.8752 74.5145 100.006 75.2105 100.135 75.9011C100.325 76.9136 100.516 77.9274 100.632 78.9532C100.765 80.1146 100.142 83.4698 100.085 84.6378C100.071 84.9194 100.042 85.2252 99.8705 85.4277C99.8037 85.5068 99.7147 85.5712 99.6842 85.6758C99.6663 85.7765 99.6808 85.8814 99.7252 85.9708C100.011 86.7097 100.596 87.2582 101.249 87.58C101.901 87.9019 103.475 88.1821 104.187 88.2089C104.28 88.2208 104.375 88.2065 104.463 88.1674C104.558 88.1022 104.633 88.0046 104.676 87.8884C105.186 86.7727 104.696 83.0608 104.703 81.8002C104.71 80.7489 104.927 79.7069 104.887 78.6569C104.855 77.8147 104.653 76.9913 104.586 76.1532C104.469 74.776 104.689 73.3934 104.911 72.0336C105.08 70.9916 105.25 69.9483 105.466 68.9171C105.599 68.2881 105.752 67.6538 106.052 67.1081C106.287 66.6749 106.616 66.3128 106.889 65.9011C107.647 64.7642 107.984 63.3316 107.827 61.9129C107.81 61.7788 106.069 62.4185 105.915 62.495C105.289 62.7994 104.713 63.2239 104.211 63.7501C103.808 64.1887 103.491 64.776 103.138 65.2682C102.639 65.9646 102.146 66.6664 101.659 67.3736C101.103 68.1746 100.559 68.9841 100.026 69.8022Z" fill="black"/>
<path d="M94.3803 52.8355C95.9511 52.8355 97.2245 51.3783 97.2245 49.5808C97.2245 47.7833 95.9511 46.3262 94.3803 46.3262C92.8095 46.3262 91.5361 47.7833 91.5361 49.5808C91.5361 51.3783 92.8095 52.8355 94.3803 52.8355Z" fill="#FBBEBE"/>
<path d="M96.9421 49.4434C97.2048 49.923 97.5494 50.3371 97.9551 50.6611C98.3608 50.985 98.8193 51.2121 99.3034 51.3288L99.089 52.2206C98.7186 53.752 98.3026 55.372 97.269 56.4341C97.3862 55.9151 97.2362 55.3613 96.9807 54.9107C96.7253 54.4601 96.3667 54.1061 96.0151 53.7561L94.378 52.1334C94.3307 52.0894 94.291 52.0358 94.2608 51.9752C94.2204 51.8608 94.2204 51.7329 94.2608 51.6185C94.4694 50.8756 95.0647 50.4116 95.5498 49.91C95.7933 49.6507 96.0107 49.361 96.1979 49.0464C96.5249 48.5127 96.7276 49.0491 96.9421 49.4434Z" fill="#FBBEBE"/>
<path d="M90.6338 46.3088L90.5693 45.6973C91.0182 45.8314 91.4447 45.3942 91.7319 44.9423C92.019 44.4904 92.285 43.958 92.7221 43.7689C93.253 43.541 93.8155 43.903 94.3229 44.2088C94.891 44.5695 95.5145 44.8017 96.1593 44.8927C96.2621 44.8966 96.3641 44.9155 96.4628 44.949C96.7933 45.0831 96.9503 45.5579 96.9984 45.9883C97.0464 46.4188 97.0335 46.8761 97.1964 47.2596C97.3136 47.5506 97.5316 47.7665 97.6652 48.0535C98.0167 48.8232 97.6769 49.8759 98.0437 50.6309L97.1319 49.6748C97.0487 49.5876 96.9316 49.4964 96.839 49.5702C96.7663 49.6292 96.7605 49.7566 96.7312 49.8585C96.6433 50.1562 96.3175 50.2447 96.0819 50.1267C95.8464 50.0087 95.6741 49.7525 95.496 49.5192C95.0929 48.9748 94.6124 48.496 94.0499 48.264C93.8033 48.1585 93.54 48.1143 93.2773 48.1341C93.0146 48.154 92.7587 48.2376 92.5264 48.3793C92.101 48.6543 91.7893 49.2953 91.2678 49.3181C90.5529 49.3489 90.2553 47.8255 89.9248 47.2234C90.0457 47.1193 90.1308 46.9698 90.1651 46.8011C90.1994 46.6324 90.1807 46.4553 90.1123 46.3008C90.1604 46.278 90.6233 46.2149 90.6338 46.3088Z" fill="#464353"/>
<path d="M55.4547 27.2809C55.2262 27.5135 55.0149 27.7674 54.8231 28.04C54.6299 28.3163 54.5271 28.6611 54.5324 29.0149C54.5334 29.1175 54.5621 29.2172 54.6145 29.3005C54.6412 29.3404 54.6782 29.3697 54.7202 29.3843C54.7622 29.399 54.8072 29.3983 54.8488 29.3823C54.8959 29.3548 54.9362 29.3143 54.966 29.2643C55.0899 29.094 55.2213 28.9311 55.3598 28.7762C55.4102 28.7185 55.477 28.6582 55.5449 28.6796C55.5754 28.692 55.6028 28.7127 55.6246 28.74C55.7035 28.818 55.7609 28.9204 55.7899 29.035C55.8309 29.2402 55.7266 29.4453 55.6082 29.6063C55.4899 29.7672 55.3504 29.9214 55.3024 30.1239C55.2842 30.1774 55.2842 30.2367 55.3024 30.2902C55.325 30.3289 55.3567 30.3595 55.3938 30.3787C55.5616 30.4844 55.7477 30.5467 55.9388 30.561C56.13 30.5754 56.3216 30.5415 56.5 30.4618C56.7344 30.3532 56.943 30.1668 57.1844 30.0703C57.289 30.0375 57.3903 29.9926 57.4868 29.9361C57.5558 29.8836 57.6151 29.8158 57.6612 29.7369C57.7072 29.6579 57.7392 29.5693 57.7551 29.4762C57.7856 29.2901 57.7915 29.0997 57.7727 28.9116C57.7435 28.1831 57.6072 27.4655 57.3696 26.7888C57.3558 26.7451 57.3324 26.7063 57.3016 26.6761C57.2664 26.6515 57.2257 26.639 57.1844 26.6399C56.8844 26.6037 56.3922 26.4281 56.1028 26.5555C56.0015 26.619 55.9142 26.7079 55.8473 26.8156C55.7934 26.884 55.4547 27.1911 55.4547 27.2809Z" fill="#A1616A"/>
<path d="M55.3591 26.978C55.3591 26.6508 55.0075 25.8609 55.5665 25.8086C55.5665 25.4586 55.1341 25.2414 55.2149 24.8699C55.2407 24.7465 55.3321 24.6459 55.3427 24.5199C55.3778 24.1618 54.813 23.9674 54.9067 23.6241C54.9419 23.49 55.0661 23.4122 55.093 23.2794C55.1563 22.9697 54.6723 22.8315 54.6629 22.5137C54.6629 22.4064 54.7157 22.3059 54.711 22.1986C54.711 22.0645 54.609 21.9626 54.5528 21.8459C54.4063 21.5469 54.4778 21.0842 54.2106 20.93C54.3876 20.9474 54.445 20.647 54.3723 20.4633C54.2997 20.2796 54.1508 20.12 54.1497 19.9162C54.1584 19.8423 54.1584 19.7674 54.1497 19.6936C54.1004 19.4978 53.8204 19.4817 53.7735 19.2913C53.7674 19.2182 53.7655 19.1447 53.7676 19.0713C53.7489 18.9198 53.6129 18.8233 53.4852 18.7803C53.3525 18.7546 53.2248 18.7024 53.1078 18.6261C53.0258 18.555 52.9309 18.437 52.843 18.492C52.8102 18.5148 52.7938 18.5577 52.7692 18.5899C52.6637 18.7307 52.4621 18.669 52.3297 18.5658C51.9383 18.2614 51.7438 17.7156 51.6605 17.1832C51.5773 16.6508 51.5797 16.101 51.4754 15.574C51.4436 15.4097 51.4013 15.2484 51.3488 15.0912C51.3043 14.9571 51.1613 14.7466 51.1519 14.6111C51.1309 14.3027 51.6887 14.5132 51.9008 14.5441C52.1067 14.5671 52.3103 14.612 52.509 14.6782C52.7211 14.7698 52.9288 14.8741 53.1313 14.9906C53.9774 15.4184 54.9993 15.4707 55.679 16.1895C55.9028 16.4255 56.0915 16.7353 56.3821 16.8426C56.5154 16.8718 56.6469 16.9108 56.7759 16.9592C57.0982 17.1322 57.1485 17.6217 57.3243 17.9757C57.3796 18.0692 57.4278 18.1679 57.4685 18.2708C57.5024 18.392 57.5182 18.519 57.5154 18.6462L57.54 19.5756C57.5798 21.1325 57.6197 22.6934 57.4743 24.241C57.4275 24.7519 57.3571 25.2776 57.4896 25.7684C57.5247 25.9025 57.5739 26.0285 57.6068 26.164C57.6357 26.3228 57.6507 26.4845 57.6513 26.6467L57.67 27.2489C57.6766 27.2957 57.6673 27.3436 57.6443 27.383C57.6247 27.4012 57.6018 27.4141 57.5772 27.4208C57.5527 27.4276 57.5271 27.4279 57.5025 27.4218C56.77 27.3468 56.0294 26.8747 55.338 27.1603" fill="#464353"/>
<path d="M88.7836 73.244C93.5704 73.244 97.4509 72.6022 97.4509 71.8105C97.4509 71.0188 93.5704 70.377 88.7836 70.377C83.9967 70.377 80.1162 71.0188 80.1162 71.8105C80.1162 72.6022 83.9967 73.244 88.7836 73.244Z" fill="#504F60"/>
<path d="M96.2408 71.8802C96.0885 71.1332 95.9936 70.4775 95.9936 70.4775C95.9936 70.4775 96.0287 69.6648 95.71 69.0547V68.8508V67.3489C95.8007 67.0762 95.9117 66.8128 96.0416 66.5617C96.276 66.0897 96.0416 64.3598 96.0416 64.3598C96.0416 64.3598 95.1662 61.9204 95.3783 60.3729C95.5904 58.8254 93.5806 53.5016 93.5806 53.5016C93.593 52.9881 93.6563 52.4779 93.7693 51.9808C93.7908 51.8763 93.7994 51.7689 93.7951 51.6617C93.7951 51.6483 93.7951 51.6362 93.7951 51.6228C93.7951 51.6094 93.7951 51.6308 93.7951 51.6349C93.7646 50.6143 93.0591 48.7021 93.0591 48.7021L93.154 45.0572C93.154 45.0572 93.6041 42.9116 92.8704 40.0217C92.6138 39.0146 92.4497 38.2086 92.3454 37.5864C92.3337 37.5166 92.322 37.4523 92.3126 37.3839C93.8232 37.1157 94.9775 36.9011 94.9775 36.9011C94.9775 36.9011 94.1009 32.7051 93.5091 31.9702C92.9173 31.2353 92.4439 28.9274 92.4439 28.9274C92.4439 28.9274 92.1357 25.9651 92.6337 25.0988C93.1318 24.2325 93.2021 22.7387 93.2021 22.7387C93.2021 22.7387 94.3377 21.7999 94.4806 21.3748C94.6236 20.9497 94.8592 20.011 94.8592 19.5135C94.8592 19.016 94.7174 18.5748 94.7642 18.3066C94.8111 18.0384 94.4326 17.0474 94.6224 16.5753C94.6716 16.4303 94.697 16.2762 94.6974 16.1207C94.6979 16.1163 94.6979 16.1118 94.6974 16.1073C94.6992 15.6943 94.6658 15.282 94.5978 14.8763C94.2693 14.5589 93.886 14.3244 93.4728 14.1883L93.4482 14.0757L93.3837 13.7807C93.3478 13.7535 93.3106 13.7284 93.2724 13.7056V13.5983L93.2619 13.1718L93.44 12.2144C93.7916 10.5488 91.8474 10.3007 91.8474 10.3007C91.7295 10.0452 91.5334 9.84852 91.2966 9.74823C90.9063 9.59133 91.2321 12.2532 91.4138 12.4303C91.5509 12.5644 91.9751 13.3931 92.1802 13.8035L92.213 13.8705C92.1809 13.9035 92.1511 13.9394 92.124 13.9778L92.1978 14.5558L92.2095 14.6443C92.0806 14.8274 91.976 15.0312 91.8989 15.2491C91.8989 15.2491 92.2505 15.6943 92.1837 16.1878C92.1169 16.6813 92.2927 17.3075 92.3009 17.3411C92.2798 17.3129 92.0302 17.0045 91.7806 17.0796C91.531 17.1547 90.8337 17.3947 90.8337 17.3947C90.8337 17.3947 90.3134 17.4993 90.3649 17.6307C90.4165 17.7621 90.0134 18.3388 90.0134 18.3388L88.6141 16.8207C88.6001 16.7752 88.5848 16.7296 88.5731 16.6866C88.516 16.4678 88.4768 16.2433 88.4559 16.0161C88.6084 15.9747 88.758 15.9204 88.9036 15.8539C89.0506 15.7961 89.1833 15.6986 89.2903 15.5696C89.4321 15.3778 89.4591 15.1177 89.5165 14.879C89.6266 14.4123 89.868 13.9979 90.0356 13.554C90.3194 12.804 90.4109 11.977 90.2993 11.1697C90.2778 10.9209 90.2043 10.6817 90.0848 10.4724C89.8563 10.113 89.4415 9.96681 89.1403 9.67984C88.8391 9.39286 88.6446 8.95435 88.293 8.74113C87.9754 8.54668 87.5899 8.56948 87.2313 8.63653C86.5309 8.76868 85.8581 9.0488 85.2473 9.46259C85.0433 9.59669 84.8183 9.76164 84.584 9.71202C84.3824 9.67045 84.2324 9.48673 84.1058 9.30972C84.1073 9.30239 84.1092 9.29521 84.1117 9.28826C84.106 9.28173 84.1009 9.27454 84.0965 9.2668C83.9482 9.64342 83.8738 10.0526 83.8785 10.4657C83.8785 10.53 83.8785 10.5998 83.8855 10.6574V10.7245C83.8855 10.7433 83.8855 10.762 83.8855 10.7795C83.8855 10.8081 83.8819 10.8365 83.875 10.864C83.8454 10.946 83.8007 11.0197 83.7437 11.0799C83.7007 11.1358 83.6615 11.1954 83.6265 11.2582C83.6265 11.2368 83.6382 11.2153 83.6453 11.1925C83.5559 11.3418 83.5055 11.5172 83.5 11.6981C83.4934 11.8297 83.5311 11.9593 83.6054 12.0601C83.6756 12.1381 83.7521 12.2082 83.834 12.2693C83.8061 12.4464 83.792 12.6259 83.7918 12.8057C83.7944 13.339 83.9172 13.8625 84.1484 14.3255C84.3796 14.7885 84.7112 15.1755 85.1113 15.4489C85.1277 15.4931 85.143 15.5387 85.1582 15.583C85.3375 16.1194 85.4723 16.7497 85.4125 17.3263C85.4125 17.3679 85.4019 17.4108 85.3961 17.4524C85.3902 17.4939 85.3609 17.4966 85.3457 17.5194C85.3457 17.5194 83.0335 17.5462 82.4898 16.983C81.946 16.4198 81.1163 18.3602 81.1163 18.3602C81.1163 18.3602 80.2878 18.544 80.1214 18.3602C79.955 18.1765 78.9858 18.3348 78.9858 18.3348C78.5887 17.9307 78.072 17.7149 77.5409 17.7313C77.219 17.4514 76.8639 17.2256 76.4862 17.0608L76.4604 17.0501C76.2937 16.9805 76.1154 16.9549 75.9389 16.975C75.9389 16.975 74.8021 15.9022 74.4705 15.3228C74.1388 14.7435 72.5603 12.6046 72.5533 12.5952V12.4919L72.5357 12.1808C72.4888 12.1893 72.4414 12.1937 72.3939 12.1942C72.3857 12.1634 72.374 12.1272 72.3622 12.0856C72.2713 11.7822 72.1592 11.4875 72.0271 11.2046C72.0271 11.2046 72.0271 10.8117 72.1267 10.7124C72.2263 10.6132 72.0857 9.17159 72.0857 9.17159C72.0857 9.17159 71.0614 6.4319 70.1438 8.47695C70.1438 8.47695 68.4094 9.80053 69.8649 11.3427C69.8649 11.3427 70.4509 11.6645 70.5282 11.9193C70.5821 12.0843 70.779 12.5469 70.9114 12.858L70.9712 12.9921L70.9548 13.0082L70.9759 13.2657L70.9853 13.3649C70.711 13.5433 70.5247 13.7203 70.5704 13.8531C70.6512 14.0803 70.7067 14.3181 70.7357 14.5611C70.7357 14.5611 72.749 17.447 73.0091 18.6794C73.0091 18.6794 78.4081 22.3511 80.1835 22.6126L79.8694 24.4431C79.8237 24.9398 79.8002 25.4389 79.7991 25.9383C79.8225 26.3312 79.5858 28.1148 79.5858 28.1148C79.5858 28.1148 79.2776 30.7378 79.0174 31.1052C78.7573 31.4727 78.8042 33.0457 78.8042 33.0457C78.7427 33.7987 78.6251 34.5444 78.4526 35.2745C78.1924 36.2708 78.3811 37.5046 78.3811 37.5046C78.3811 37.5046 77.4823 39.8648 79.6362 38.2649C79.6362 38.2649 80.6909 38.1898 81.912 38.1416C81.912 38.1872 81.912 38.2341 81.912 38.2757C81.912 38.4554 81.912 38.6498 81.9038 38.8536C81.8874 40.2054 81.8804 42.0721 81.9343 43.4775C82.0292 45.9691 82.6925 50.9 82.6925 50.9V53.3822C82.6497 53.615 82.6285 53.8524 82.6292 54.0903C82.6152 54.9636 82.8184 55.8236 83.2152 56.5698L83.3816 58.2219C83.3816 58.2219 83.7707 59.3108 83.7777 59.9653C83.7762 60.018 83.7707 60.0705 83.7613 60.1222C83.7461 60.2055 83.7398 60.2906 83.7425 60.3756C83.7203 61.1266 84.1152 62.9235 84.1152 62.9235C84.1152 62.9235 84.1386 64.7326 84.3754 64.8385C84.5781 64.9283 84.1047 65.8805 83.964 66.154C83.9603 66.1373 83.9575 66.1203 83.9558 66.1031L83.9265 66.1567C83.8777 66.3032 83.8527 66.4586 83.8527 66.6153C83.8394 66.7389 83.8569 66.8642 83.9034 66.9767C83.9499 67.0892 84.0233 67.1844 84.1152 67.251C84.5652 67.5661 84.8066 67.8276 84.4246 67.9322C84.284 67.9572 84.1448 67.9908 84.0074 68.0328C84.0074 68.0127 83.9933 67.9912 83.9875 67.9725C83.9336 67.9965 83.8886 68.0412 83.8602 68.0989C83.8318 68.1566 83.8217 68.2237 83.8316 68.2889C83.8352 68.5017 83.883 68.7104 83.9711 68.8978C84.3496 69.8687 84.6121 70.2388 84.6121 70.2388L84.7937 70.216C84.7669 70.2954 84.7315 70.3706 84.6883 70.4399C84.6191 70.5524 84.5275 70.6443 84.4211 70.7081C84.3218 70.7761 84.2113 70.8195 84.0965 70.8355C83.9681 70.8403 83.8421 70.876 83.7266 70.9402C83.6111 71.0044 83.5087 71.0958 83.4261 71.2083C83.1917 71.5583 83.0417 72.0344 83.5082 72.4528L85.2016 73.1233C85.2016 73.1233 88.1149 73.5564 87.9602 72.8082C87.8055 72.0599 87.7118 71.4055 87.7118 71.4055C87.7243 70.9486 87.644 70.4946 87.4774 70.0792C87.4468 70.0114 87.4124 69.946 87.3742 69.8834L87.4774 69.8713C87.4774 69.8713 87.6907 68.2179 87.9743 67.9041C88.0399 67.8317 88.0551 67.77 88.0399 67.7324C88.0692 67.6426 87.9942 67.5903 87.8993 67.5594L87.8782 67.6251C87.7854 67.602 87.6907 67.5899 87.5957 67.5889C87.5957 67.5889 87.5008 66.724 87.809 66.4088C87.8339 66.3729 87.852 66.3315 87.8623 66.2872C87.8726 66.2429 87.8748 66.1967 87.8688 66.1514C87.8711 66.0327 87.8601 65.9141 87.836 65.7987C87.8329 65.8061 87.8294 65.8133 87.8254 65.8201C87.6707 65.0343 87.1457 63.7858 87.1457 63.7858C87.1457 63.7858 87.1223 63 87.3121 62.6848C87.502 62.3697 87.2875 58.4097 87.2875 58.4097C87.2875 58.4097 87.359 56.496 87.1457 55.6043C86.9324 54.7125 87.4059 53.6625 87.4059 53.6625C87.4059 53.6625 87.4059 53.6424 87.4059 53.6061V53.5927L87.3789 53.291C87.3783 53.2972 87.3783 53.3036 87.3789 53.3098C87.3309 52.8029 87.2407 51.8843 87.1739 51.4605C87.0789 50.8571 87.1985 47.9739 87.1985 47.9739L87.6239 46.7402L88.3821 48.8657L89.1872 51.6979C89.1872 51.6979 89.5856 52.296 89.595 52.9048C89.595 52.9343 89.595 52.9638 89.595 52.9933C89.5885 53.0561 89.5854 53.1192 89.5856 53.1824C89.5713 53.5402 89.6571 53.894 89.8305 54.1922C89.8305 54.1922 90.0438 55.5332 90.3755 55.8698C90.7071 56.2064 90.7071 56.8662 90.7071 56.8662C90.7071 56.8662 91.1091 58.808 91.2931 59.1459C91.4524 59.4329 91.4607 60.2187 91.4595 60.4641C91.4595 60.5084 91.4595 60.5338 91.4595 60.5338C91.4595 60.5338 91.5157 61.2285 91.5134 61.8105C91.5134 61.8829 91.5134 61.9526 91.5134 62.0183C91.5139 62.0135 91.5139 62.0085 91.5134 62.0036C91.5133 62.1626 91.4968 62.321 91.4642 62.4756L91.4571 62.5025C91.4571 62.4689 91.4571 62.4367 91.4653 62.4046C91.383 62.7998 91.3436 63.2052 91.3482 63.6115C91.3376 64.3088 91.4302 65.1349 91.7993 65.623C92.4392 66.4625 92.8412 66.3579 92.8412 66.3579C92.8412 66.3579 92.5341 67.4065 92.1544 67.6171C92.14 67.6248 92.1266 67.6348 92.1146 67.6466C92.1146 67.6251 92.1075 67.605 92.1052 67.5849C92.0629 67.6372 92.0306 67.6991 92.0104 67.7665C91.9902 67.8339 91.9826 67.9055 91.988 67.9765C91.9611 68.4378 92.2154 69.1834 92.4568 69.5307C92.5464 69.6312 92.6563 69.7049 92.7767 69.7453C92.7576 69.7607 92.7377 69.7746 92.7169 69.7868C92.6748 69.8133 92.6313 69.8371 92.5869 69.8579C92.5252 69.8879 92.4601 69.9073 92.3935 69.9156C92.265 69.9195 92.1387 69.9548 92.0231 70.0191C91.9075 70.0834 91.8052 70.1752 91.7232 70.2884C91.4888 70.6371 91.3388 71.1131 91.8052 71.5315L93.4986 72.202C93.4986 72.202 96.3932 72.6271 96.2408 71.8802Z" fill="url(#paint0_linear)"/>
<path d="M85.119 73.1185L83.4784 72.448C83.026 72.0296 83.1701 71.5535 83.3987 71.2035C83.4773 71.0919 83.576 71.0008 83.6879 70.9365C83.7999 70.8722 83.9227 70.8361 84.0479 70.8307C84.159 70.8145 84.2657 70.771 84.3608 70.7033C84.4648 70.6386 84.5539 70.5467 84.6209 70.4351C84.7407 70.2177 84.8052 69.9665 84.8073 69.7096C84.8073 69.7096 86.6073 69.1062 87.0995 69.7096C87.1873 69.8188 87.2608 69.9422 87.3175 70.0757C87.481 70.4923 87.5611 70.9454 87.5519 71.402C87.5519 71.402 87.6433 72.0564 87.7921 72.8047C87.9409 73.553 85.119 73.1185 85.119 73.1185Z" fill="#2D293D"/>
<path d="M93.1385 72.1934L91.4979 71.5229C91.0455 71.1045 91.1897 70.6285 91.4182 70.2798C91.4962 70.1677 91.5946 70.0764 91.7065 70.012C91.8184 69.9476 91.9411 69.9118 92.0663 69.907C92.1311 69.8994 92.1944 69.8799 92.2538 69.8493C92.2971 69.8284 92.3393 69.8047 92.3803 69.7782C92.8385 69.4899 92.8268 68.7819 92.8268 68.7819C92.8268 68.7819 94.6257 68.1784 95.1191 68.7819C95.1851 68.8636 95.2429 68.9536 95.2913 69.0501C95.5995 69.6602 95.5655 70.4742 95.5655 70.4742C95.5655 70.4742 95.657 71.13 95.7999 71.8769C95.9429 72.6239 93.1385 72.1934 93.1385 72.1934Z" fill="#2D293D"/>
<path opacity="0.1" d="M87.1004 69.708C87.1883 69.8172 87.2617 69.9406 87.3184 70.0741L84.623 70.4322C84.7428 70.2148 84.8073 69.9636 84.8094 69.7067C84.8094 69.7067 86.6082 69.1045 87.1004 69.708Z" fill="black"/>
<path opacity="0.1" d="M95.2944 69.054V69.632C94.8748 70.4218 92.8463 70.2488 92.2568 69.8532C92.3002 69.8323 92.3424 69.8086 92.3834 69.7822C92.8416 69.4938 92.8299 68.7858 92.8299 68.7858C92.8299 68.7858 94.6287 68.1823 95.1221 68.7858C95.1881 68.8675 95.2459 68.9575 95.2944 69.054Z" fill="black"/>
<path d="M95.6133 66.562C95.4879 66.8138 95.3809 67.0771 95.2934 67.3492V69.421C94.834 70.286 92.4515 69.9977 92.1293 69.5256C91.807 69.0536 91.4707 67.8252 91.8328 67.612C92.1949 67.3988 92.4972 66.3528 92.4972 66.3528C92.4972 66.3528 92.107 66.4574 91.4882 65.6179C90.8695 64.7784 91.0535 62.9171 91.1683 62.4719C91.2832 62.0267 91.1683 60.5314 91.1683 60.5314C91.1683 60.5314 91.1918 59.4814 91.0089 59.1408C90.8261 58.8002 90.4359 56.8611 90.4359 56.8611C90.4359 56.8611 90.4359 56.2053 90.1148 55.8647C89.7937 55.5241 89.5874 54.1857 89.5874 54.1857C89.3997 53.8513 89.3189 53.4528 89.3589 53.058C89.4269 52.4022 88.9687 51.6941 88.9687 51.6941L88.1893 48.8606L87.4557 46.7364L87.0432 47.9688C87.0432 47.9688 86.926 50.8533 87.021 51.4554C87.1159 52.0576 87.2553 53.6587 87.2553 53.6587C87.2553 53.6587 86.7971 54.7074 87.0034 55.5992C87.2096 56.491 87.1346 58.4073 87.1346 58.4073C87.1346 58.4073 87.3409 62.3659 87.1569 62.6811C86.9729 62.9962 86.9964 63.7834 86.9964 63.7834C86.9964 63.7834 87.9339 66.0899 87.6386 66.4051C87.3432 66.7202 87.4323 67.5852 87.4323 67.5852C87.4323 67.5852 88.0733 67.5852 87.7991 67.9003C87.5249 68.2155 87.3175 69.8676 87.3175 69.8676L84.5459 70.239C84.5459 70.239 84.2928 69.8729 83.926 68.898C83.5592 67.9231 83.9939 68.0331 84.3631 67.9271C84.7322 67.8212 84.499 67.561 84.0631 67.2459C83.6271 66.9308 83.8803 66.2227 83.8803 66.2227C83.8803 66.2227 84.5447 64.938 84.3151 64.8334C84.0854 64.7288 84.0631 62.9184 84.0631 62.9184C84.0631 62.9184 83.6049 60.7728 83.7197 60.1908C83.8346 59.6088 83.3529 58.2249 83.3529 58.2249L83.1924 56.5728C82.702 55.6352 82.5231 54.527 82.6885 53.4509V50.9029C82.6885 50.9029 82.0463 45.9734 81.9548 43.4818C81.8963 41.886 81.9127 39.7081 81.9314 38.3497C81.9431 37.588 81.9548 37.0824 81.9548 37.0824L91.8551 35.9023C91.8551 35.9023 91.8457 36.4253 92.0343 37.5853C92.1363 38.2075 92.2945 39.0135 92.543 40.0206C93.2531 42.9051 92.8183 45.0548 92.8183 45.0548L92.7258 48.701C92.7258 48.701 93.5965 51.139 93.4137 51.9784C93.3032 52.4769 93.2411 52.9878 93.2285 53.5018C93.2285 53.5018 95.1762 58.8257 94.97 60.3732C94.7637 61.9207 95.611 64.36 95.611 64.36C95.611 64.36 95.843 66.0899 95.6133 66.562Z" fill="#464353"/>
<path opacity="0.05" d="M89.9531 52.8994L92.9673 52.4395C92.9673 52.4395 91.2598 54.4335 89.9531 52.8994Z" fill="black"/>
<path opacity="0.1" d="M92.532 49.0684C92.532 49.0684 92.6352 50.2887 91.9824 50.7473C91.9824 50.7473 93.1508 50.5381 92.532 49.0684Z" fill="black"/>
<path opacity="0.1" d="M92.3469 45.1875C92.3469 45.1875 89.8274 47.5611 88.911 47.364C87.9945 47.1668 92.3469 45.1875 92.3469 45.1875Z" fill="black"/>
<path opacity="0.1" d="M86.2175 54.0117C86.2175 54.0117 84.3037 54.5092 84.2463 55.3889C84.1889 56.2687 86.2175 54.0117 86.2175 54.0117Z" fill="black"/>
<path opacity="0.05" d="M86.6386 64.9492C86.6386 64.9492 83.935 65.5259 84.7026 65.9188C85.4702 66.3117 86.7312 66.6268 86.7312 66.6268C86.7312 66.6268 87.6042 66.6791 86.6386 64.9492Z" fill="black"/>
<g opacity="0.05">
<path opacity="0.05" d="M84.1564 66.5436C84.0884 66.495 84.0309 66.4295 83.9881 66.352C83.9453 66.2744 83.9183 66.1868 83.9091 66.0957L83.881 66.1507C83.881 66.1507 83.6291 66.8588 84.065 67.1726C84.1142 67.2088 84.1623 67.245 84.2056 67.2798C84.2865 67.2624 84.3732 67.249 84.4564 67.2249C84.8256 67.1203 84.5924 66.8588 84.1564 66.5436Z" fill="black"/>
<path opacity="0.05" d="M87.6393 66.3333C87.7143 66.2555 87.7119 66.0544 87.6662 65.7969C87.549 65.9994 87.515 66.3158 87.5127 66.5559C87.5411 66.4726 87.5842 66.3968 87.6393 66.3333Z" fill="black"/>
<path opacity="0.05" d="M87.2229 53.2871C87.1233 53.5973 87.0618 53.9218 87.04 54.2513C87.0923 54.0237 87.1625 53.8019 87.2498 53.5888L87.2229 53.2871Z" fill="black"/>
<path opacity="0.05" d="M93.4147 51.91C93.4326 51.8158 93.4409 51.7195 93.4393 51.623C93.4053 51.8188 93.3818 51.9999 93.3643 52.1595C93.3795 52.0776 93.3959 51.9999 93.4147 51.91Z" fill="black"/>
<path opacity="0.05" d="M87.1582 62.6107C87.1957 62.5463 87.2168 62.3291 87.2262 62.0273C87.1414 62.2608 87.0964 62.5107 87.0938 62.7636C87.1098 62.7098 87.1314 62.6585 87.1582 62.6107Z" fill="black"/>
<path opacity="0.05" d="M87.7211 67.5566C87.579 68.0827 87.4736 68.6208 87.4059 69.1659L84.6343 69.532C84.6343 69.532 84.3812 69.1659 84.0144 68.1909C83.9848 68.1156 83.9586 68.0387 83.9359 67.9603C83.7695 68.0475 83.7015 68.2446 83.9218 68.8199C84.2886 69.7908 84.5429 70.1609 84.5429 70.1609L87.3145 69.7935C87.3145 69.7935 87.5207 68.1413 87.7949 67.8262C87.9356 67.6747 87.8488 67.5955 87.7211 67.5566Z" fill="black"/>
<path opacity="0.05" d="M84.0647 62.8468C84.0647 62.8468 84.087 64.6558 84.3167 64.7604C84.4339 64.4613 84.51 64.177 84.4069 64.1301C84.1725 64.0255 84.1549 62.2151 84.1549 62.2151C84.1549 62.2151 83.6967 60.0695 83.8116 59.4875C83.9264 58.9055 83.4448 57.5216 83.4448 57.5216L83.2842 55.8694C82.7938 54.9319 82.615 53.8237 82.7803 52.7476V50.1996C82.7803 50.1996 82.1381 45.27 82.0467 42.7784C81.9881 41.1826 82.0045 39.0048 82.0232 37.6464C82.0232 37.401 82.0303 37.1837 82.0338 37L81.9553 37.0094C81.9553 37.0094 81.9424 37.5136 81.9318 38.2766C81.9131 39.6351 81.8955 41.8129 81.9553 43.4074C82.0467 45.899 82.6877 50.8299 82.6877 50.8299V53.3778C82.5232 54.4537 82.7025 55.5613 83.1928 56.4984L83.3522 58.1505C83.3522 58.1505 83.8338 59.5398 83.719 60.1178C83.6041 60.6958 84.0647 62.8468 84.0647 62.8468Z" fill="black"/>
<path opacity="0.05" d="M92.2235 68.8259C91.9983 68.4529 91.8483 68.0274 91.784 67.5801C91.5016 67.8724 91.8262 69.0069 92.1356 69.4575C92.4555 69.9295 94.8392 70.2179 95.2997 69.3516V68.8527C94.6751 69.5541 92.5258 69.2725 92.2235 68.8259Z" fill="black"/>
<path opacity="0.05" d="M95.7068 65.8612C95.5812 66.1131 95.4738 66.3764 95.3857 66.6484V67.0198C95.4385 66.8857 95.5123 66.706 95.6201 66.4942C95.6927 66.2877 95.727 66.0662 95.7209 65.8438C95.7209 65.8438 95.7104 65.8558 95.7068 65.8612Z" fill="black"/>
<path opacity="0.05" d="M92.3645 66.2759C92.4516 66.0739 92.5272 65.8656 92.5907 65.6524C92.5907 65.6524 92.2004 65.757 91.5816 64.9175C91.1316 64.3073 91.1059 63.154 91.1703 62.4004C91.0531 62.8469 90.8715 64.7083 91.4902 65.5478C91.8945 66.0962 92.2004 66.2411 92.3645 66.2759Z" fill="black"/>
<path opacity="0.05" d="M91.1688 60.4605C91.2093 60.9772 91.2245 61.496 91.2145 62.0147C91.226 61.9328 91.2417 61.8518 91.2614 61.772C91.3786 61.3254 91.2614 59.8315 91.2614 59.8315C91.2614 59.8315 91.2848 58.7815 91.1009 58.4409C90.9169 58.1003 90.5337 56.1585 90.5337 56.1585C90.5337 56.1585 90.5337 55.5027 90.2126 55.1621C89.8915 54.8215 89.6852 53.4832 89.6852 53.4832C89.4958 53.1494 89.413 52.751 89.4508 52.3554C89.52 51.6996 89.0618 50.9915 89.0618 50.9915L88.2824 48.1593L87.5488 46.0352L87.1352 47.2689C87.1352 47.2689 87.1352 47.4244 87.1211 47.6712L87.4563 46.6695L88.1899 48.7896L88.9692 51.6218C88.9692 51.6218 89.4274 52.3299 89.3582 52.9856C89.3204 53.3813 89.4032 53.7797 89.5926 54.1134C89.5926 54.1134 89.7989 55.4545 90.12 55.7924C90.4411 56.1303 90.4399 56.7888 90.4399 56.7888C90.4399 56.7888 90.8302 58.7292 91.013 59.0685C91.1958 59.4078 91.1688 60.4605 91.1688 60.4605Z" fill="black"/>
</g>
<path d="M93.0931 12.2105L92.9208 13.1679L92.9314 13.5944L92.9384 13.9082L91.9821 14.0208L91.8755 13.7942C91.6775 13.3838 91.2661 12.5497 91.1337 12.421C90.9567 12.252 90.6415 9.58877 91.0165 9.74701C91.2474 9.84904 91.4369 10.0454 91.5485 10.2982C91.5485 10.2982 93.4318 10.5449 93.0931 12.2105Z" fill="#FFCDD3"/>
<path opacity="0.1" d="M92.9379 13.9087L91.9816 14.0213L91.875 13.7947C92.0036 13.6271 92.179 13.5158 92.3713 13.4796C92.5636 13.4434 92.761 13.4846 92.9297 13.5962L92.9379 13.9087Z" fill="black"/>
<path d="M93.1797 14.4279L91.9188 14.7618L91.8918 14.5473L91.8203 13.9693C91.8203 13.9693 92.3195 13.2076 93.0414 13.7789L93.1047 14.0725L93.1797 14.4279Z" fill="#6C63FF"/>
<path d="M72.7541 12.3158L71.4076 13.1418L71.2904 12.8522C71.1626 12.5451 70.9716 12.0824 70.9189 11.9135C70.8392 11.6587 70.2779 11.3368 70.2779 11.3368C68.8716 9.79601 70.5474 8.47109 70.5474 8.47109C71.4357 6.42604 72.4224 9.16573 72.4224 9.16573C72.4224 9.16573 72.5607 10.61 72.4635 10.7066C72.3662 10.8031 72.3662 11.1987 72.3662 11.1987C72.4945 11.4821 72.6031 11.7767 72.6908 12.0798C72.7318 12.2259 72.7541 12.3158 72.7541 12.3158Z" fill="#FFCDD3"/>
<path opacity="0.1" d="M72.7537 12.3138L71.4072 13.1399L71.29 12.8502C71.4799 12.6678 72.1537 12.0456 72.3752 12.0711C72.4809 12.0862 72.5877 12.0893 72.694 12.0805C72.7315 12.2239 72.7537 12.3138 72.7537 12.3138Z" fill="black"/>
<path d="M72.8907 12.7808L71.3777 13.6337L71.3473 13.2622L71.3262 13.0048C71.3262 13.0048 72.2028 12.1452 72.4617 12.1787C72.5927 12.2004 72.7257 12.2004 72.8567 12.1787L72.8743 12.4898L72.8907 12.7808Z" fill="#6C63FF"/>
<path d="M89.4263 18.5706C89.4263 18.5706 82.8309 19.4221 84.0637 18.9635C84.9215 18.643 85.2626 18.0248 85.3341 17.3275C85.3927 16.7468 85.2614 16.1205 85.0891 15.5841C84.9341 15.1083 84.7378 14.6514 84.5032 14.2203C84.5032 14.2203 89.5423 11.0475 88.5357 13.932C88.3804 14.3683 88.284 14.8291 88.2497 15.2985C88.2195 15.765 88.2635 16.234 88.3798 16.6824C88.5699 17.4102 88.9321 18.0636 89.4263 18.5706Z" fill="#FFCDD3"/>
<path opacity="0.1" d="M88.5319 13.9281C88.3767 14.3644 88.2802 14.8252 88.246 15.2946C87.7713 15.7519 87.251 15.721 86.5819 15.721C86.0686 15.721 85.499 15.8632 85.0889 15.5802C84.9339 15.1044 84.7376 14.6475 84.5029 14.2164C84.5029 14.2164 89.5409 11.0436 88.5319 13.9281Z" fill="black"/>
<path d="M86.4926 15.9227C87.9987 15.9227 89.2196 14.5256 89.2196 12.8022C89.2196 11.0788 87.9987 9.68164 86.4926 9.68164C84.9865 9.68164 83.7656 11.0788 83.7656 12.8022C83.7656 14.5256 84.9865 15.9227 86.4926 15.9227Z" fill="#FFCDD3"/>
<path opacity="0.1" d="M89.4263 18.5694C89.4263 18.5694 82.8309 19.4209 84.0637 18.9623C84.9215 18.6418 85.2626 18.0236 85.3341 17.3263C85.6622 16.9239 86.322 16.6249 86.7403 16.4693C87.1271 16.3205 87.5447 16.3125 87.9357 16.4465C88.0894 16.4995 88.2358 16.5772 88.3704 16.6772C88.5626 17.4076 88.9281 18.0626 89.4263 18.5694Z" fill="black"/>
<path opacity="0.1" d="M93.1795 14.4274L91.9186 14.7614L91.8916 14.5468C92.0266 14.3346 92.2155 14.1751 92.4325 14.0902C92.6496 14.0052 92.8842 13.9989 93.1045 14.0721L93.1795 14.4274Z" fill="black"/>
<path opacity="0.1" d="M72.891 12.7806L71.3781 13.6335L71.3477 13.262C71.8377 12.9605 72.347 12.7019 72.8711 12.4883L72.891 12.7806Z" fill="black"/>
<path opacity="0.1" d="M92.0346 37.5873C89.4787 38.0539 85.8458 38.6494 85.2692 38.4482C84.7899 38.2819 83.2617 38.2993 81.9316 38.3516C81.9434 37.59 81.9551 37.0844 81.9551 37.0844L91.8553 35.9043C91.8553 35.9043 91.8459 36.4273 92.0346 37.5873Z" fill="black"/>
<path d="M94.5832 36.8998C94.5832 36.8998 86.1725 38.5519 85.2701 38.2408C84.3678 37.9297 79.7329 38.2663 79.7329 38.2663C77.6469 39.8661 78.5176 37.5059 78.5176 37.5059C78.5176 37.5059 78.3348 36.2735 78.5868 35.2771C78.756 34.5456 78.8716 33.7992 78.9325 33.0457C78.9325 33.0457 78.8868 31.4713 79.1387 31.1039C79.3907 30.7365 79.6895 28.1148 79.6895 28.1148C79.6895 28.1148 79.918 26.3312 79.8958 25.9383C79.8735 25.5454 79.9638 24.4431 79.9638 24.4431L80.2626 22.6072C78.5434 22.3457 73.3179 18.674 73.3179 18.674C73.066 17.4416 71.1183 14.5571 71.1183 14.5571C71.0899 14.3146 71.036 14.0768 70.9577 13.8491C70.8206 13.4293 72.8831 12.5898 72.8831 12.5898C72.8831 12.5898 74.4183 14.7355 74.7394 15.3175C75.0605 15.8995 76.1598 16.9696 76.1598 16.9696C76.3306 16.9495 76.5031 16.9752 76.6637 17.0447L76.6906 17.0541C77.059 17.2196 77.4044 17.4454 77.7161 17.7246C78.2328 17.7106 78.7342 17.927 79.1141 18.3281C79.1141 18.3281 80.0516 18.1698 80.2145 18.3535C80.3774 18.5373 81.1767 18.3535 81.1767 18.3535C81.1767 18.3535 81.9782 16.4131 82.5056 16.9763C83.033 17.5395 85.2701 17.5127 85.2701 17.5127C85.5678 17.0595 86.2932 16.7349 86.7467 16.574C87.1336 16.4258 87.551 16.4178 87.942 16.5512C88.1107 16.6088 88.2693 16.6996 88.4108 16.8194L89.7714 18.3401C89.7714 18.3401 90.1604 17.7621 90.1147 17.6321C90.069 17.502 90.573 17.396 90.573 17.396C90.573 17.396 91.2374 17.16 91.4894 17.0809C91.7413 17.0018 91.9722 17.3142 91.9933 17.3424C91.9851 17.3089 91.8128 16.6719 91.8761 16.1891C91.9394 15.7064 91.6007 15.2504 91.6007 15.2504C92.4023 12.9948 94.2129 14.883 94.2129 14.883C94.2129 14.883 94.4191 16.1154 94.2363 16.5874C94.0535 17.0594 94.4191 18.0558 94.3734 18.3187C94.3277 18.5815 94.466 19.0267 94.466 19.5256C94.466 20.0244 94.2316 20.9672 94.0992 21.3869C93.9668 21.8066 92.8617 22.7507 92.8617 22.7507C92.8617 22.7507 92.7925 24.246 92.3109 25.1109C91.8292 25.9759 92.1316 28.9341 92.1316 28.9341C92.1316 28.9341 92.5898 31.242 93.1628 31.9769C93.7359 32.7118 94.5832 36.8998 94.5832 36.8998Z" fill="#3F3D56"/>
<path opacity="0.1" d="M82.3219 19.6455C82.3219 19.6455 82.0699 18.7805 81.8403 18.7068C81.6122 18.6108 81.3902 18.497 81.1758 18.3662L81.3234 18.043C81.3234 18.043 82.1836 18.3112 82.3219 18.6022C82.4602 18.8932 82.3219 19.6455 82.3219 19.6455Z" fill="black"/>
<path opacity="0.1" d="M77.7149 17.7321C77.6692 18.0003 75.6289 18.2297 75.6289 18.2297L76.6602 17.0469L76.686 17.0576C77.0558 17.224 77.4024 17.4512 77.7149 17.7321Z" fill="black"/>
<path d="M71.8137 14.3403C71.9147 14.3403 71.9965 14.2466 71.9965 14.1311C71.9965 14.0155 71.9147 13.9219 71.8137 13.9219C71.7127 13.9219 71.6309 14.0155 71.6309 14.1311C71.6309 14.2466 71.7127 14.3403 71.8137 14.3403Z" fill="#575988"/>
<path d="M72.0481 14.7602C72.149 14.7602 72.2309 14.6665 72.2309 14.551C72.2309 14.4355 72.149 14.3418 72.0481 14.3418C71.9471 14.3418 71.8652 14.4355 71.8652 14.551C71.8652 14.6665 71.9471 14.7602 72.0481 14.7602Z" fill="#575988"/>
<path d="M72.2785 15.1489C72.3795 15.1489 72.4613 15.0552 72.4613 14.9397C72.4613 14.8241 72.3795 14.7305 72.2785 14.7305C72.1776 14.7305 72.0957 14.8241 72.0957 14.9397C72.0957 15.0552 72.1776 15.1489 72.2785 15.1489Z" fill="#575988"/>
<path d="M72.5178 15.5668C72.6187 15.5668 72.7006 15.4732 72.7006 15.3576C72.7006 15.2421 72.6187 15.1484 72.5178 15.1484C72.4168 15.1484 72.335 15.2421 72.335 15.3576C72.335 15.4732 72.4168 15.5668 72.5178 15.5668Z" fill="#575988"/>
<path d="M94.1205 15.5047C94.2027 15.5047 94.2693 15.4284 94.2693 15.3344C94.2693 15.2403 94.2027 15.1641 94.1205 15.1641C94.0383 15.1641 93.9717 15.2403 93.9717 15.3344C93.9717 15.4284 94.0383 15.5047 94.1205 15.5047Z" fill="#575988"/>
<path d="M94.1439 15.8934C94.2261 15.8934 94.2928 15.8171 94.2928 15.723C94.2928 15.629 94.2261 15.5527 94.1439 15.5527C94.0617 15.5527 93.9951 15.629 93.9951 15.723C93.9951 15.8171 94.0617 15.8934 94.1439 15.8934Z" fill="#575988"/>
<path d="M94.1645 16.2801C94.2467 16.2801 94.3133 16.2038 94.3133 16.1098C94.3133 16.0157 94.2467 15.9395 94.1645 15.9395C94.0823 15.9395 94.0156 16.0157 94.0156 16.1098C94.0156 16.2038 94.0823 16.2801 94.1645 16.2801Z" fill="#575988"/>
<path opacity="0.1" d="M82.3301 26.752C82.3079 26.7212 87.4748 34.1866 91.485 29.8726C91.4885 29.8739 85.1521 30.8569 82.3301 26.752Z" fill="black"/>
<path opacity="0.1" d="M79.3652 30.6328C79.3652 30.6328 82.4567 30.7294 82.7801 31.7472V32.8066C82.6921 32.8625 82.5931 32.8918 82.4924 32.8918C82.3918 32.8918 82.2927 32.8625 82.2047 32.8066C81.893 32.6135 80.0238 31.5273 79.3652 32.0503V30.6328Z" fill="black"/>
<path d="M79.4229 30.6328C79.4229 30.6328 82.3795 30.7253 82.6889 31.6962V32.7047C82.6047 32.7582 82.5099 32.7863 82.4135 32.7863C82.3172 32.7863 82.2224 32.7582 82.1381 32.7047C81.8405 32.5223 80.0533 31.4857 79.4229 31.9846V30.6328Z" fill="#3F3D56"/>
<path opacity="0.1" d="M81.0527 22.9512C81.3686 23.7878 81.7711 24.5779 82.2516 25.3047C82.7742 26.1079 83.4074 26.8086 84.1266 27.3792C84.1266 27.3792 81.1043 23.4366 81.0527 22.9512Z" fill="black"/>
<path opacity="0.1" d="M80.042 18.8418C80.042 18.8418 80.5576 21.3897 81.8866 22.2547L80.042 18.8418Z" fill="black"/>
<path opacity="0.1" d="M79.2511 19.0984C79.2382 19.0515 78.7929 21.11 80.9644 22.2539C80.9644 22.2539 80.0421 21.8958 79.2511 19.0984Z" fill="black"/>
<path opacity="0.1" d="M92.7498 17.3904C92.7158 17.3904 93.8209 18.195 94.1221 18.5705C94.1221 18.5705 93.4025 17.3367 92.7498 17.3904Z" fill="black"/>
<path d="M85.7553 15.6293C85.7557 15.6974 85.7684 15.7647 85.7927 15.8268C85.817 15.889 85.8523 15.9447 85.8963 15.9904C85.9404 16.0362 85.9922 16.071 86.0486 16.0926C86.105 16.1142 86.1648 16.1222 86.224 16.1161C87.0549 16.1751 87.9209 16.2167 88.685 15.8479C88.8283 15.7894 88.957 15.6918 89.06 15.5636C89.1959 15.3719 89.2229 15.1117 89.278 14.873C89.3858 14.4063 89.6155 13.992 89.7807 13.5481C90.0603 12.7982 90.1539 11.9746 90.0514 11.1678C90.0298 10.9205 89.9584 10.6822 89.8428 10.4718C89.6225 10.1111 89.2206 9.96489 88.9287 9.67791C88.6369 9.39093 88.4494 8.95242 88.1084 8.7392C87.8014 8.54341 87.4252 8.56755 87.0795 8.6346C86.3995 8.76673 85.7479 9.04669 85.1599 9.45932C84.9619 9.59343 84.7451 9.75837 84.5177 9.70875C84.3185 9.66584 84.1732 9.47407 84.049 9.29438C83.8892 9.72352 83.8221 10.1904 83.8533 10.6555C83.8619 10.7238 83.8599 10.7932 83.8474 10.8607C83.8188 10.9422 83.7752 11.0159 83.7197 11.0766C83.5146 11.3448 83.3869 11.7806 83.5896 12.0569C83.6775 12.1762 83.8134 12.2419 83.899 12.364C84.0525 12.5825 84.0009 12.9004 83.9974 13.1793C83.989 13.2767 84.0105 13.3744 84.0584 13.4556C84.1027 13.5028 84.157 13.5362 84.2159 13.5524C84.2748 13.5686 84.3364 13.5671 84.3947 13.5481C84.5108 13.5081 84.6327 13.4948 84.7533 13.5092C84.8804 13.5565 84.99 13.6508 85.065 13.7774C85.4435 14.342 85.5935 14.9561 85.7553 15.6293Z" fill="#2D293D"/>
<g opacity="0.1">
<path opacity="0.1" d="M89.1582 15.3264C89.0552 15.4546 88.9265 15.5521 88.7832 15.6107C88.0144 15.9768 87.1496 15.9352 86.3222 15.8789C86.2334 15.8799 86.1455 15.8574 86.0656 15.8132C85.939 15.7287 85.891 15.5517 85.8523 15.3907C85.6906 14.7202 85.5417 14.1047 85.1574 13.5455C85.0833 13.4165 84.9735 13.3197 84.8456 13.2706C84.725 13.2576 84.6034 13.2708 84.487 13.3095C84.4289 13.3287 84.3673 13.3304 84.3084 13.3145C84.2495 13.2985 84.1952 13.2654 84.1507 13.2183C84.1029 13.1372 84.0813 13.0394 84.0898 12.942C84.0898 12.6604 84.1448 12.3453 83.9913 12.1267C83.9058 12.0047 83.7698 11.939 83.6819 11.8183C83.6246 11.7293 83.5894 11.6242 83.5801 11.5142C83.5709 11.4041 83.5878 11.2932 83.6292 11.1934C83.4827 11.4616 83.4206 11.7982 83.5905 12.0288C83.6784 12.1482 83.8144 12.2139 83.8999 12.3359C84.0534 12.5558 84.0019 12.8723 83.9984 13.1512C83.9894 13.2485 84.0105 13.3463 84.0581 13.4275C84.1026 13.475 84.157 13.5085 84.2162 13.5247C84.2754 13.541 84.3372 13.5393 84.3956 13.52C84.5117 13.48 84.6336 13.4668 84.7542 13.4811C84.8813 13.5284 84.991 13.6228 85.0659 13.7493C85.4492 14.3085 85.5992 14.9227 85.7609 15.5959C85.7798 15.7616 85.8521 15.9132 85.9636 16.021C86.0439 16.0653 86.1323 16.0874 86.2214 16.0854C87.0523 16.1444 87.9183 16.1873 88.6824 15.8172C88.8259 15.759 88.9547 15.6614 89.0574 15.5329C89.1091 15.4573 89.1487 15.372 89.1746 15.2808C89.1758 15.2982 89.1676 15.313 89.1582 15.3264Z" fill="black"/>
<path opacity="0.1" d="M83.8544 10.7783C83.8912 10.7325 83.9195 10.6787 83.9376 10.62C83.9481 10.5522 83.9481 10.4827 83.9376 10.4149C83.9147 10.0325 83.9581 9.64881 84.0653 9.28574L84.0501 9.26562C83.8897 9.69412 83.8226 10.1607 83.8544 10.6254C83.8579 10.6763 83.8579 10.7274 83.8544 10.7783Z" fill="black"/>
</g>
<path opacity="0.1" d="M85.2695 17.5196C85.2695 17.5196 88.6762 18.0372 88.9821 17.4512L85.2695 17.5196Z" fill="black"/>
<path opacity="0.1" d="M91.8916 15.9082C91.8916 15.9082 93.7854 15.9082 94.2014 16.7235L91.8916 15.9082Z" fill="black"/>
<path d="M102.488 88.3411C101.926 88.9157 101.196 89.2278 100.443 89.2154C100.251 89.2154 99.9846 89.257 99.9834 89.4769C99.988 89.5414 100.007 89.6034 100.04 89.6566C100.277 90.1102 100.653 90.4477 101.094 90.6047C101.505 90.7468 101.943 90.7227 102.371 90.6972L103.619 90.6235C103.853 90.6087 104.087 90.5953 104.322 90.5618C104.556 90.5283 104.812 90.4733 105.057 90.4277C105.658 90.3298 106.267 90.2975 106.874 90.3311C107.036 90.3378 107.226 90.3311 107.322 90.197C107.418 90.0629 107.369 89.8068 107.332 89.6056C107.257 89.1913 107.332 88.7568 107.263 88.3411C107.146 87.6116 106.594 87.0524 105.989 86.7882C105.427 86.5441 104.431 86.2638 103.899 86.6715C103.337 87.0993 102.994 87.8141 102.488 88.3411Z" fill="#3F3D56"/>
<path d="M103.728 63.9012C103.838 64.5006 104.345 64.9593 104.359 65.5708C104.372 66.0616 104.066 66.4733 103.846 66.893C103.638 67.3278 103.463 67.7817 103.322 68.2501C102.907 69.4697 102.393 70.6417 101.785 71.7502C101.492 72.2866 101.164 72.8592 101.23 73.4828C101.277 73.7744 101.367 74.0547 101.496 74.3115L102.375 76.3096C102.568 76.7086 102.719 77.1321 102.824 77.5715C102.9 77.951 102.907 78.344 102.952 78.7302C103.09 79.9559 103.593 81.1896 103.295 82.3777C103.27 82.4797 103.178 82.603 103.107 82.532C103.397 83.1528 103.63 83.7778 103.608 84.4818C103.596 84.8506 103.498 85.2354 103.616 85.5787C103.667 85.7222 103.755 85.8563 103.754 86.0105C103.754 86.1125 103.713 86.2077 103.703 86.3069C103.679 86.5899 103.906 86.8259 104.141 86.9157C104.377 87.0056 104.634 86.9989 104.872 87.0807C105.329 87.2376 105.656 87.6882 106.043 88.0006C106.441 88.3143 106.91 88.489 107.393 88.5035C107.462 88.5119 107.532 88.496 107.593 88.4579C107.627 88.4234 107.655 88.381 107.674 88.3334C107.693 88.2857 107.703 88.234 107.703 88.1817C107.724 87.9312 107.691 87.6786 107.607 87.4462C107.523 87.2137 107.39 87.0085 107.22 86.8487C107.146 86.7954 107.084 86.7216 107.041 86.6341C107.019 86.5567 107.013 86.4745 107.024 86.3941C107.095 85.2949 107.078 84.1907 106.973 83.0952C106.925 82.748 106.91 82.396 106.927 82.0452C106.952 81.7528 107.029 81.4632 107.001 81.1722C106.973 80.8812 106.843 80.6156 106.766 80.3354C106.631 79.8365 106.668 79.3001 106.649 78.7784C106.626 77.8719 106.444 76.9815 106.264 76.0964C106.192 75.7491 106.114 75.3857 105.899 75.1282C105.716 74.9096 105.421 74.7004 105.49 74.4094C105.529 74.3021 105.586 74.205 105.658 74.1238C105.743 74.0019 105.805 73.8615 105.841 73.7112C105.877 73.5609 105.885 73.4038 105.866 73.2494C105.944 73.2719 106.025 73.2631 106.097 73.2245C106.169 73.1858 106.227 73.1198 106.261 73.0376C107.689 72.2665 108.84 70.7243 109.353 69.0145C109.383 68.8875 109.43 68.7664 109.491 68.6551C109.624 68.4432 109.853 68.352 110.057 68.2354C110.697 67.8666 111.139 67.176 111.544 66.5001C111.779 66.1085 112.013 65.7035 112.119 65.2422C112.174 64.9439 112.2 64.6394 112.197 64.3344L112.233 62.7587C112.241 62.6549 112.233 62.5504 112.208 62.4502C112.173 62.3567 112.122 62.2719 112.059 62.2008C111.669 61.7292 111.157 61.4133 110.599 61.2996C110.224 61.2232 109.84 61.238 109.461 61.2017C108.725 61.132 107.998 60.8705 107.262 60.9335C106.106 61.0314 105.075 61.9487 104.53 63.1207C104.339 63.5338 104.138 63.8932 103.728 63.9012Z" fill="#464353"/>
<path d="M97.3054 53.6555C97.321 53.8988 97.2923 54.1431 97.2211 54.373C97.1308 54.5929 96.9046 54.7645 96.7066 54.6747C96.7664 54.5205 96.6081 54.3448 96.4605 54.3636C96.3878 54.3827 96.3204 54.4218 96.2638 54.4774C96.2073 54.533 96.1634 54.6034 96.1359 54.6827C96.038 54.9079 96.0051 55.1629 96.0421 55.4109C96.089 55.7193 96.2449 56.0157 96.2038 56.3255C96.171 56.5829 96.0058 56.8391 96.0937 57.0778C96.1507 57.1868 96.2223 57.285 96.3058 57.3688C96.4216 57.532 96.4782 57.7398 96.4641 57.9494C96.4499 58.159 96.366 58.3544 96.2296 58.4952L98.4469 58.5462C98.366 58.97 98.5324 59.4031 98.7223 59.7799C99.254 60.8159 99.9882 61.6969 100.867 62.3537C101.747 63.0105 102.747 63.4253 103.79 63.5656C103.733 63.6033 103.685 63.6548 103.648 63.7165C103.611 63.7782 103.587 63.8484 103.576 63.9222C103.566 63.996 103.571 64.0715 103.589 64.1432C103.607 64.2148 103.639 64.2809 103.683 64.3367C103.863 64.5419 104.169 64.5164 104.395 64.3836C104.622 64.2509 104.799 64.0309 105.005 63.8606C105.369 63.5654 105.813 63.4285 106.258 63.4744C106.535 63.5053 106.805 63.6085 107.084 63.6246C107.904 63.6742 108.607 62.9984 109.397 62.7221C109.972 62.5196 110.625 62.5196 111.108 62.1079C111.317 61.9309 111.488 61.6399 111.427 61.3529C111.376 61.188 111.297 61.0369 111.192 60.9091C110.915 60.4974 110.751 60.0025 110.551 59.5345C110.157 58.6079 109.613 57.7745 108.949 57.0778C108.448 56.5766 107.917 56.116 107.36 55.6992C107.226 55.5855 107.082 55.4863 106.931 55.4029C106.737 55.305 106.521 55.258 106.345 55.1347C106.085 54.9469 105.935 54.6157 105.735 54.3488C105.295 53.7615 104.62 53.4919 104.079 53.0306C103.716 52.7208 103.395 52.3132 102.961 52.1643C102.75 52.0905 102.526 52.0852 102.315 52.0128C101.836 51.8465 101.487 51.3597 101.017 51.1626C100.645 51.007 100.235 51.0472 99.8449 50.9923C99.405 50.9302 98.9848 50.747 98.6203 50.4585C98.5029 50.3491 98.3712 50.2613 98.2301 50.1984C97.6359 49.9919 97.5879 51.2578 97.5269 51.6963C97.4484 52.348 97.3054 52.9957 97.3054 53.6555Z" fill="#FF0000"/>
<path d="M97.8838 57.9007C97.9835 59.1372 97.1678 60.3347 97.4057 61.5456C97.4561 61.8031 97.5534 62.0485 97.5885 62.31C97.6881 63.0274 97.3131 63.7073 96.9557 64.3081L93.8853 69.4643C93.7621 69.6907 93.6148 69.8988 93.447 70.0839C92.8611 70.6806 91.9798 70.6203 91.2087 70.7973C90.667 70.9247 90.1555 71.1835 89.7087 71.5563C89.6886 71.5741 89.6753 71.6002 89.6718 71.629C89.6683 71.6579 89.6748 71.6871 89.6899 71.7105C89.8173 71.9089 89.9859 72.0677 90.1806 72.1724C90.3752 72.2771 90.5897 72.3244 90.8044 72.31C90.8853 72.4307 90.8044 72.6104 90.6931 72.6975C90.529 72.8316 90.3017 72.8625 90.2689 73.183C90.2578 73.2943 90.2774 73.4069 90.3251 73.5048C90.4492 73.7209 90.6415 73.8737 90.8618 73.9312C91.9247 74.3041 93.0732 73.6496 93.8689 72.7605C94.6646 71.8715 95.2354 70.749 96.0158 69.8452C96.4483 69.3436 96.9393 68.9159 97.3846 68.4304C98.2729 67.4609 98.9643 66.2848 99.63 65.106C99.8304 64.7507 100.033 64.3859 100.116 63.9742C100.2 63.5625 100.161 63.1455 100.256 62.7472C100.38 62.2255 100.714 61.8085 100.992 61.3713C101.537 60.513 101.901 59.463 101.828 58.405C101.756 57.3469 101.184 56.3036 100.312 55.9442C100.042 55.8212 99.7438 55.8006 99.4624 55.8852C99.105 56.0112 98.8413 56.3492 98.5975 56.6737L98.0116 57.4435C97.8689 57.6139 97.757 57.8149 97.6823 58.0348C97.6445 58.1457 97.6355 58.2666 97.6562 58.3832C97.677 58.4997 97.7268 58.6069 97.7995 58.6919" fill="#FBBEBE"/>
<path d="M99.4404 52.8301C99.0372 52.8569 98.5931 52.9025 98.3083 53.2324C98.1889 53.3839 98.0923 53.557 98.0224 53.7447C97.7458 54.3897 97.4763 55.0642 97.4564 55.783C97.44 56.357 97.5853 56.9189 97.6614 57.4861C97.7247 57.9581 97.5642 58.4396 97.5337 58.917C98.0341 58.7413 98.6951 58.5026 99.1486 58.2062C99.458 58.0037 99.7568 57.7731 100.094 57.6444C100.576 57.4606 101.383 57.7784 101.842 58.0332C101.866 57.6658 101.625 57.0248 101.651 56.656C101.654 56.5008 101.678 56.3471 101.722 56.2001C101.791 56.0446 101.872 55.8969 101.965 55.7589C102.139 55.4344 102.219 55.055 102.194 54.6751C102.168 54.2953 102.039 53.9344 101.823 53.6441C101.416 53.1211 100.78 52.9253 100.173 52.8395C99.7905 52.7888 99.4053 52.7735 99.0208 52.7939" fill="#FF0000"/>
</g>
<defs>
<linearGradient id="paint0_linear" x1="82.7617" y1="73.244" x2="82.7617" y2="7.71391" gradientUnits="userSpaceOnUse">
<stop stop-color="#808080" stop-opacity="0.25"/>
<stop offset="0.54" stop-color="#808080" stop-opacity="0.12"/>
<stop offset="1" stop-color="#808080" stop-opacity="0.1"/>
</linearGradient>
<clipPath id="clip0">
<rect width="123" height="91" fill="white"/>
</clipPath>
</defs>
</svg>
